<svg xmlns="http://www.w3.org/2000/svg" viewBox="0 0 300 300"><defs><style>.cls-1{isolation:isolate;}.cls-2{fill:#ccc;}.cls-2,.cls-7{mix-blend-mode:multiply;}.cls-3{fill:#f4ddc6;}.cls-4,.cls-7{fill:#caba9f;}.cls-5{fill:#7e4e24;}.cls-6{fill:none;}.cls-8{fill:#e84e1b;}.cls-9{fill:#bd1622;}.cls-10{fill:#925f36;}.cls-11{fill:#fcea0d;}.cls-12{fill:#1d1d1b;}.cls-13,.cls-16{fill:#fff;}.cls-14{fill:#533013;}.cls-15{fill:#683b11;}.cls-16{opacity:0.4;}</style></defs><title>Artboard 13</title><g class="cls-1"><g id="Layer_1" data-name="Layer 1"><path class="cls-2" d="M261,157.15c-41.78,7.06-83.81,13.48-125.59,20.54-23.41,4-47.32,8.08-68.24,19.79-5.23,2.92-9,7.76-13.33,12l1.26,3.19q17.58,5.61,35.08,11.77A74.13,74.13,0,0,0,85.06,244c8.12-.22,17.26.89,25.5,0,9.18,9.75,11.37,11.36,25.26,21a143.65,143.65,0,0,1,.87-22.83c18.66,7.66,37.07,15.93,55.07,24.94l72-101.42C265.41,163.32,263.31,158.89,261,157.15Z"/><path class="cls-3" d="M212,206.26q17-17.81,33.44-36.1,2.77-3.08,5.53-6.18c4-4.49,8-9.09,10.63-14.52s3.6-11.91,1.35-17.49-7.53-9.6-13.14-11.92c-7-2.91-13.81-3.38-20.22-7.47-7.82-5-16.53-9-24.81-13.15q-12.06-6.08-24.36-11.66-6.4-2.91-12.87-5.68c-2.77-1.19-9.07-5.33-12-5C115.92,81.33,77.95,92.5,40.67,106.46c3.2,2.56,6.46,5.06,9.74,7.52q-3.56,1.29-7.11,2.62c3.2,2.56,6.46,5.06,9.74,7.52q-3.56,1.29-7.11,2.62c3.2,2.56,6.46,5.06,9.74,7.52q-3.56,1.29-7.11,2.62c3.2,2.56,6.46,5.06,9.74,7.52q-3.56,1.29-7.11,2.62c3.2,2.56,6.46,5.06,9.74,7.52q-3.56,1.29-7.11,2.62c3.4,2.73,6.87,5.37,10.37,8q-4.84,1.74-9.66,3.54c3.9,3.12,7.87,6.15,11.89,9.11q-5.19,2.48-10.35,5a386.06,386.06,0,0,0,115.8,50c2.78.69,7.63,3.84,10.45,3.29,3-.59,7.45-7.05,9.62-9.25Q202,216.66,212,206.26Z"/><path class="cls-4" d="M73.1,169.44c31.67,25.08,62,36.64,100.82,47.87,25.12-12.48,47.12-36.4,68.21-54.89-21.76,15.75-43.79,37.3-68.24,48.43C136.6,199.7,106,190.15,73.1,169.44Z"/><path class="cls-5" d="M160.07,65.54c33.85,13.74,63.18,32.19,94.38,51.2C230.9,136.86,201.8,153,172.77,164.15a8.08,8.08,0,0,1-5.28.18A386,386,0,0,1,44.18,100a2.84,2.84,0,0,1,.77-4.91C81.47,81.81,126.77,69.12,160.07,65.54Z"/><path class="cls-5" d="M181.95,234.75c26-28,57.79-52.11,78-84.59a20.37,20.37,0,0,0,1.27-18.75c-2.67-6-8-10.67-14.41-11.78l.14,1.28c.76-2.09,2.34-3.52,3.1-5.6a26.65,26.65,0,0,1,19.87,19.81c2.13,9.64-3.4,19.05-9.92,26.48-24.25,27.62-48.68,55-72.94,82.59a5.25,5.25,0,0,1-5.85,1.43Q119.6,221.69,57.91,197.66a5.26,5.26,0,0,1-3.35-4.92,7.93,7.93,0,0,0,0-1,80.1,80.1,0,0,1,23.78-12.25c-2.9,3.8-5.68,8.1-8.58,11.9C106.79,206,144.86,220.13,181.95,234.75Z"/><path class="cls-6" d="M121.23,244.29a66,66,0,0,1,14.11-47"/><path class="cls-4" d="M62.5,126.32a318.62,318.62,0,0,0,108,55.44,325.26,325.26,0,0,0,69.52-46.91,404.94,404.94,0,0,1-69.55,40.45A448.33,448.33,0,0,1,62.5,126.32Z"/><path class="cls-4" d="M67.43,147.86c31.67,25.08,66.21,38.06,105,49.3,25.12-12.48,54.95-33.17,76-51.66-21.76,15.75-51.62,34.07-76.07,45.2C135.13,179.55,100.37,168.58,67.43,147.86Z"/><path class="cls-3" d="M79.66,177l.43.4a31.32,31.32,0,0,1,6.85,9.86c.55,1.19,3.2,10.57,3.7,10.66a89.16,89.16,0,0,1-35.11-14.77A102,102,0,0,1,68.88,176C73.87,173.83,75.68,173.41,79.66,177Z"/><path class="cls-7" d="M131.75,226.48a212.06,212.06,0,0,1,2.79-34.35,84.72,84.72,0,0,0-9,31.64Z"/><path class="cls-8" d="M103.44,227.36c7.79,8.85,9.65,10.32,21.44,19.11-.69-17.92,2-37.58,9.43-53.91,0,0-29.79-11.34-31.63-11.93,0,0-17.79,18.86-20.88,46.75C88.68,227.18,96.45,228.2,103.44,227.36Z"/><path class="cls-9" d="M116,193.08a41.31,41.31,0,0,0-11.5,27.81C108.35,211.48,112.13,202.49,116,193.08Z"/><path class="cls-10" d="M171.15,138l-.47,2.5c2.26-7.29,4.25-14.92,3.22-22.48s-5.75-15.09-13.06-17.27c-6.25-1.86-13.21.55-18,4.93s-7.8,10.45-9.86,16.64C143.5,131.75,157.18,135.46,171.15,138Z"/><path class="cls-11" d="M138.88,126.06a21.12,21.12,0,0,1,3.62-10,12.36,12.36,0,0,1,9-5.23c6-.31,11.21,5,12.55,10.92s-.32,12-2.53,17.62l-.27-1.53C153.36,135.07,145.32,131.4,138.88,126.06Z"/><path class="cls-11" d="M78.74,98.35a18.09,18.09,0,0,1,3.1-8.59,10.59,10.59,0,0,1,7.73-4.48c5.15-.27,9.6,4.32,10.75,9.35s-.27,10.29-2.16,15.09l-.23-1.31C91.15,106.07,84.26,102.93,78.74,98.35Z"/><path class="cls-12" d="M96.57,102.2a7.64,7.64,0,0,0-15.06-1.81A73.44,73.44,0,0,0,94,107.9,7.6,7.6,0,0,0,96.57,102.2Z"/><path class="cls-12" d="M160.28,129.4a9.11,9.11,0,0,0-18.09-1.49c4.88,3.06,9.3,6.47,14.09,9A9.11,9.11,0,0,0,160.28,129.4Z"/><path class="cls-5" d="M75.1,94.55s40.36,26.57,102.1,44.78l-19.67,17.3L72,104.51Z"/><circle class="cls-13" cx="87.15" cy="94.55" r="2.59"/><circle class="cls-13" cx="149.29" cy="119.81" r="3.49"/><path class="cls-8" d="M248.48,121.45c-.08.42,4.11,5.46,4.57,6.24a42.33,42.33,0,0,1,3.46,7.59,45.65,45.65,0,0,1,2,8.32c.2,1.43.34,2.86.41,4.31,0,1-.47,3-.29,3.78a.74.74,0,0,0,.8.62c.36-.08.61-.47.82-.84,6-10.73,3.8-26.39-7-30.92C251.63,119.9,248.87,119.49,248.48,121.45Z"/><g id="gFmuht"><path class="cls-13" d="M192.63,111,160.07,99.63l.31-.91L193,109.84Z"/><path class="cls-13" d="M89.68,72.92l17.67,11.31-.69,1.09L89,73.87Z"/></g><path d="M108.41,54.24l-.27,0h.28Z"/><path class="cls-14" d="M233,127.15a69.91,69.91,0,0,1,7.57-4.46c2.21-1.08,4.36-2.29,6.53-3.43.72-.38,5.85-2.7,5.85-3.27a22,22,0,0,0-3.49-2.92c-3.89,1.2-8.73,1.53-12.18,3.76-4.14,2.68-7.89,6.46-11.72,9.58a6.6,6.6,0,0,0-1.52,1.55,2,2,0,0,0,2.15,3.15,6.62,6.62,0,0,0,2.53-1.15C230.2,129,231.62,128.09,233,127.15Z"/><path class="cls-15" d="M138.54,80.44a3,3,0,0,0,2.38,1.31c2.16.15,4.76-.7,6.9-1,2.58-.41,5.17-.76,7.74-1.23A8.89,8.89,0,0,0,159,78.35a3.08,3.08,0,0,0,1.47-3.07,3,3,0,0,0-1.74-1.93,6.77,6.77,0,0,0-2.63-.46c-4.85-.09-10.11.49-14.38,2.63a8.48,8.48,0,0,0-2.59,1.73,2.88,2.88,0,0,0-.71,2.88A2.09,2.09,0,0,0,138.54,80.44Z"/><path class="cls-14" d="M170.26,158.16c-10.55.84-20.55-4.71-29-11.13s-16.17-14-25.83-18.31c-9-4-19-5-28.55-7.21s-19.44-6.21-25-14.31c-.95-1.37-1.75-3.23-.83-4.62a3.12,3.12,0,0,1,3.35-1,8.47,8.47,0,0,1,3.18,1.9c5.16,4.29,9.87,9.33,15.95,12.19s14.2,2.87,18.65-2.16A38.06,38.06,0,0,0,123,129.85c3.88,1.23,8,1.83,11.72,3.42,4.58,1.94,8.43,5.24,12.48,8.13a80.52,80.52,0,0,0,31,13.38,9.39,9.39,0,0,1-12,2.85"/><path class="cls-12" d="M194.16,131.45c1.4-5,4.78-7,9.35-7.55,12.32-1.61,24.65-3.2,37-4.55,5.29-.58,9.64-2.1,13.51-6.2,6.19-6.54,8.2-6,12.08,2.05l.29.58a4.34,4.34,0,0,0,8.05-1l.18-.77c-.78-4.72-3.42-8.26-8.08-9a51.14,51.14,0,0,0-15.26-.42A302.51,302.51,0,0,0,218.56,111c-9.7,2.59-18.17,1-27.3-2.75-17.05-7-34.42-13.72-53-15.06-10-.72-19.27-2.24-27.53-8.5-6.46-4.89-13.48-9-20.3-13.46-2.25-1.46-4.64-2.69-8.22-4.75a41.76,41.76,0,0,0,4.3-.06c10.72-1.66,22.54,4.3,32.23-4.72.73-.68,2.21-.64,3.36-.75,9.7-1,16.83,3.4,22.31,11,2.49,3.44,5.1,6.73,9.74,6.81,1.49,0,3.64-.7,4.29-1.79.52-.88-.42-3.11-1.33-4.26C151.55,65.64,143.48,62.36,135.6,59a41.67,41.67,0,0,0-12.33-3.53,183.56,183.56,0,0,0-29.61-.79c-6.79.46-13.58,1.5-20.32,2.45-3.81.54-7.62,1.09-11.43,1.62-2.55.35-5.64.5-6.43,3.49-.65,2.43.26,5,1.21,7.3,2.27,5.57,2.22,11.57,2.24,17.42a33.63,33.63,0,0,0,4.64,16.91c4.78,8.08,13.67,15.2,23.2,15.62,4.34.19,8.07.37,12.14-1.56a19.84,19.84,0,0,0,6.79-5.31,43.18,43.18,0,0,0,5.12-6.77c1.05-2,1.86-4.28,3.71-5.56a5.3,5.3,0,0,1,4.89-.55c3,1.2,4,4.86,4.67,7.7.82,3.43,1.62,6.56,2.23,10.06a43.13,43.13,0,0,0,11,21.72,54.87,54.87,0,0,0,26.35,15.24,31.92,31.92,0,0,0,10.75,1.23C186.37,154.6,191.41,141.32,194.16,131.45Zm-93.94-19.64A15.73,15.73,0,0,1,90,116.25c-3.91.24-6.55-1-9.78-3-3.39-2.12-7-4.08-9.66-7.07a29.1,29.1,0,0,1-7.32-16.57c-.66-6.73.89-12.51,2.38-19,.21-.94,3.05-2.14,4.38-1.85,12.54,2.72,23.92,8,32.94,17.31,4.25,4.38,3.89,12,2.23,17.36A19.64,19.64,0,0,1,100.22,111.81Zm85.93,27.89c-4.7,11.48-9.52,13.21-21.25,8.95-8.07-2.93-16.48-6-23-11.82-2.49-2.25-4.35-5.76-5.82-8.77a44,44,0,0,1-4.06-21.52c.33-6.46,3.36-9.21,9.62-8.52,13.18,1.46,25.77,5.3,37,12.28C191.93,118.49,191.93,125.57,186.14,139.7Z"/><path class="cls-16" d="M186.14,139.7c-4.7,11.48-9.52,13.21-21.25,8.95-8.07-2.93-16.48-6-23-11.82-2.49-2.25-4.35-5.76-5.82-8.77a44,44,0,0,1-4.06-21.52c.33-6.46,3.36-9.21,9.62-8.52,13.18,1.46,25.77,5.3,37,12.28C191.93,118.49,191.93,125.57,186.14,139.7Z"/><path class="cls-16" d="M178.7,110.3a82.22,82.22,0,0,0-20.78-9.09C150,107.93,142.13,114.68,133,119a39.93,39.93,0,0,0,3.08,9c1.47,3,3.32,6.52,5.82,8.77.43.39.89.73,1.34,1.1,14.31-6.32,25.56-16.68,36.05-27.23Z"/><path class="cls-16" d="M189.66,128.06a13.86,13.86,0,0,0-3.08-11.28c-10,11.09-21.27,19.13-33.76,27,2.83,1.35,5.76,2.51,8.69,3.61C170.65,141.82,182.21,136.82,189.66,128.06Z"/><path class="cls-16" d="M100.22,111.81A15.73,15.73,0,0,1,90,116.25c-3.91.24-6.55-1-9.78-3-3.39-2.12-7-4.08-9.66-7.07a29.1,29.1,0,0,1-7.32-16.57c-.66-6.73.89-12.51,2.38-19,.21-.94,3.05-2.14,4.38-1.85,12.54,2.72,23.92,8,32.94,17.31,4.25,4.38,3.89,12,2.23,17.36A19.64,19.64,0,0,1,100.22,111.81Z"/><path class="cls-16" d="M82.53,72.57c-5.92,4.78-12.83,8-19.35,11.43a33.71,33.71,0,0,0,.06,5.63A29.14,29.14,0,0,0,66.34,100c11.8-2.67,22.48-10.41,32-18.2A60.27,60.27,0,0,0,82.53,72.57Z"/><path class="cls-16" d="M105.17,89.53A151.35,151.35,0,0,1,74,109.2c2,1.47,4.13,2.75,6.22,4.06l.66.4c8.64-4.26,18-8.72,25.32-15.45A18.44,18.44,0,0,0,105.17,89.53Z"/><polygon class="cls-5" points="137.12 69.03 152.41 66.49 168.61 73.17 160.07 89.53 137.2 86.3 137.12 69.03"/></g></g></svg>