<svg xmlns="http://www.w3.org/2000/svg" viewBox="0 0 300 300"><defs><style>.cls-1{isolation:isolate;}.cls-2{fill:#ccc;mix-blend-mode:multiply;}.cls-3,.cls-4{fill:#39a935;}.cls-10,.cls-11,.cls-15,.cls-4,.cls-6,.cls-8,.cls-9{fill-rule:evenodd;}.cls-5,.cls-9{fill:#35a8e0;}.cls-11,.cls-7{fill:#f8b133;}.cls-14,.cls-8{fill:#004c25;}.cls-10,.cls-12{fill:#fff;}.cls-13{fill:#1d1d1b;}.cls-15,.cls-16{fill:#e84e1b;}</style></defs><title>Artboard 6</title><g class="cls-1"><g id="Layer_1" data-name="Layer 1"><ellipse class="cls-2" cx="148.68" cy="221.81" rx="91.13" ry="18.29"/><path class="cls-3" d="M139.16,201.45a16.4,16.4,0,0,0,5.38-5l-43-11.51-16.39,8.45c-2-2.12-2.16-5.61-3.23-7.28-6.06-9.52-16.26-6.54-24.49-2.48-8.44,4.17-10.89,11.5-8.07,21,6.77,22.8,21.58,27.59,43.91,21.09,13.73-4,27.43-10.38,41.14-15C132.89,205,129.56,207.22,139.16,201.45Z"/><path class="cls-4" d="M202.94,201.16H94.71c.23,0-.37-40.57,0-43.21,2.51-16.3,13.81-31.38,29.62-36.75,9.88-3.35,20.61-3,31-1.88,11.36,1.23,23,3.48,32.51,9.74,14.67,9.61,15.08,22.49,15.08,38.24Q202.94,184.23,202.94,201.16Z"/><path class="cls-3" d="M132.23,211.53c10.33-3.88,25.57-3.39,35.75.89,4.34-3.41.85-9.9-2.05-14.6s-8.14-7.47-13.42-9.05-11-2.19-16.22-.61-10,5.63-11.31,11S127.05,209.71,132.23,211.53Z"/><path class="cls-3" d="M193.62,73.45a1.75,1.75,0,0,1,.83-1.08,56.51,56.51,0,0,0,13.89-11,1.75,1.75,0,0,1,3,1.28c-.41,6-2,15.89-7.86,21.74a1.75,1.75,0,0,1-1.24.51s-9,1.15-8.68-10.65A1.74,1.74,0,0,1,193.62,73.45Z"/><path class="cls-3" d="M101.42,71.66a1.75,1.75,0,0,0-1-.88,56.49,56.49,0,0,1-15.89-7.9,1.75,1.75,0,0,0-2.71,1.89C83.44,70.6,87.05,79.9,94,84.4a1.75,1.75,0,0,0,1.32.24s9.07-.76,6.27-12.22A1.74,1.74,0,0,0,101.42,71.66Z"/><path class="cls-3" d="M240,183.59c-8.24-4.07-16.88-4.83-22.94,4.69-1.07,1.67-2.75,3-4.78,5.07l-16.39-8.45-43,11.51a16.4,16.4,0,0,0,5.38,5c9.49,5.71,6.34,3.61,4.85,9l.13.25c13.64,4.63,27.29,11,41,14.94,22.33,6.5,37.14,1.71,43.91-21.09C250.92,195.09,248.47,187.76,240,183.59Z"/><path class="cls-4" d="M142.87,65.88a7.52,7.52,0,0,0-1.43-7.34c-7-8.21-13.26-15.33-16.59-19.11a1.41,1.41,0,0,0-2.58,1l-.14,25.2a7.53,7.53,0,0,0,3.65,6.54c3.65,2,8.45,4.53,10.75,5.75a1.28,1.28,0,0,0,1.89-.7Z"/><path class="cls-4" d="M154.26,65.88a7.52,7.52,0,0,1,1.43-7.34c7-8.21,13.25-15.33,16.58-19.11a1.41,1.41,0,0,1,2.58,1l.14,25.2a7.53,7.53,0,0,1-3.65,6.54c-3.65,2-8.45,4.53-10.74,5.75a1.28,1.28,0,0,1-1.89-.7Z"/><rect class="cls-5" x="141.52" y="46.85" width="14.53" height="40.15"/><path class="cls-6" d="M162.77,76.08c0,6-6.43,14.57-14.35,14.57S134.07,82,134.07,76.08s6.42-10.78,14.35-10.78S162.77,70.13,162.77,76.08Z"/><ellipse class="cls-7" cx="150.23" cy="165.17" rx="40.23" ry="37.73"/><path class="cls-4" d="M150.15,188.17h.49a2.64,2.64,0,0,1,0,5.27l-.24,0h0l-.25,0a2.64,2.64,0,0,1,0-5.27Z"/><path class="cls-4" d="M76.17,137.2s7.61-16.69,25-15.94l8.8,19.16L91.92,150.79Z"/><path class="cls-8" d="M100.26,147.5a11,11,0,0,1-3.21-7.84c0-2-.29-4.08-.24-6.16,0-.77,1.32-6.07,1.13-6.28a37,37,0,0,0,32,11.8,11.39,11.39,0,0,1,4.42-.1c7.16,1.9-3.3,7.54-5.59,8.67A39.1,39.1,0,0,1,115,151.49c-4.35.4-9,0-12.66-2.31A11.61,11.61,0,0,1,100.26,147.5Z"/><path class="cls-4" d="M94.6,71.7H202.83c-.23,0,.37,40.57,0,43.21-2.51,16.3-13.81,31.38-29.62,36.75-9.88,3.35-20.61,3-31,1.88-11.36-1.23-23-3.48-32.51-9.74C95,134.19,94.6,121.32,94.6,105.56Q94.6,88.63,94.6,71.7Z"/><path class="cls-4" d="M202.73,113.71c-.24-14.35.75-21.9-.57-36.23C200,54.12,166.06,43.63,148.61,43.71h-.05V91.09h.2a10.22,10.22,0,0,1,.51,20.44h-.71v6.86h.09c14-.11,27.94-6.45,41.82-4.46,4,.58,9.11-.41,11.65,4.5C203.47,117,202.75,115.27,202.73,113.71Z"/><path class="cls-4" d="M95.29,118.43c2.53-4.91,7.64-3.92,11.65-4.5,13.88-2,27.85,4.35,41.82,4.46h.09v-6.86h-.71a10.22,10.22,0,0,1,.51-20.44h.2V43.71h-.05c-17.46-.08-51.41,10.41-53.55,33.77-1.32,14.33-.33,21.88-.57,36.23C94.65,115.27,93.94,117,95.29,118.43Z"/><path class="cls-7" d="M100.31,45.9a1.68,1.68,0,0,0-3,1c-.08,5.81.68,15.35,5.83,21.4a1.68,1.68,0,0,0,2.37.19,48.88,48.88,0,0,0,7.67-8.57,1.68,1.68,0,0,0-.43-2.37A54.22,54.22,0,0,1,100.31,45.9Z"/><path class="cls-7" d="M197.17,45.9a1.68,1.68,0,0,1,3,1c.08,5.81-.69,15.35-5.83,21.4a1.68,1.68,0,0,1-2.37.19,48.89,48.89,0,0,1-7.67-8.57,1.68,1.68,0,0,1,.43-2.37A54.22,54.22,0,0,0,197.17,45.9Z"/><path class="cls-6" d="M147.19,101.24c-1.89.17-3.06,1.16-3.16,3.09s.82,3.2,2.8,3.33a5.28,5.28,0,0,0,.64,0v-6.37Z"/><path class="cls-9" d="M147.17,92.59a3.11,3.11,0,0,0,0,6.23l.33,0V92.6Z"/><rect class="cls-3" x="130.72" y="83.82" width="32.05" height="25.96"/><ellipse class="cls-7" cx="148.13" cy="102.55" rx="15.69" ry="13.45"/><circle class="cls-7" cx="140.06" cy="94.33" r="8.07"/><circle class="cls-7" cx="156.19" cy="94.33" r="8.07"/><circle cx="140.06" cy="93.76" r="3.52"/><circle cx="155.15" cy="93.76" r="3.52"/><path class="cls-4" d="M117.92,92.59s5.47-4.1,29.72,12.3l-16.92,5.86Z"/><path class="cls-4" d="M177.63,92.59s-5.47-4.1-29.72,12.3l16.92,5.86Z"/><path class="cls-4" d="M138.24,99s10.14,6,20.33-.72l-5.88,12.49H140.06Z"/><path class="cls-10" d="M129.67,106.83a2.15,2.15,0,0,0,.66-2.8c-2.12-3.84-3.74-12.15-4.77-13.94a.93.93,0,0,0-1.55,0l-5,9a2.16,2.16,0,0,0,.67,2.81l4.58,3.45a1,1,0,0,0,1.14,0Z"/><path class="cls-10" d="M165.78,108.11a2.15,2.15,0,0,1-.66-2.8c2.12-3.84,3.74-12.15,4.77-13.94a.93.93,0,0,1,1.55,0l5,9a2.16,2.16,0,0,1-.67,2.81l-4.58,3.45a1,1,0,0,1-1.13,0Z"/><path class="cls-4" d="M49.43,204.6s-10.48-20.43,7.93-28.28,26.82,14.28,26.82,14.28Z"/><ellipse class="cls-7" cx="69.17" cy="206.27" rx="10.83" ry="12.08" transform="translate(-78.58 46.58) rotate(-24.24)"/><path class="cls-4" d="M46.92,195.21l-2.59-15.72a1.47,1.47,0,0,1,2.06-1.58l5,2.24Z"/><path class="cls-4" d="M51.36,180.14V171.7a1.47,1.47,0,0,1,2.38-1.16l7.95,6.23Z"/><path class="cls-4" d="M61.69,176.78v-7.3a1.47,1.47,0,0,1,2.48-1.08l12,11.22Z"/><path class="cls-11" d="M55.74,190.15a3.85,3.85,0,0,0-.79-1h0l0,0a3.62,3.62,0,0,0-.68-.49l-5.36-3.85.84,6.58h0a3.79,3.79,0,0,0,.46,1.8,3.17,3.17,0,1,0,5.53-3Z"/><path class="cls-11" d="M64.36,184.47a4.38,4.38,0,0,0-1.74-2.34h0l-.19-.12h0l-6.79-4.46,1.44,8.11a4.55,4.55,0,0,0,.19,1.05,3.74,3.74,0,1,0,7.08-2.24Z"/><path class="cls-4" d="M248,204.6s10.48-20.43-7.93-28.28-27.5,16.2-27.5,16.2Z"/><path class="cls-11" d="M217.42,206.69c-.69,6.67,3.61,12.08,9.59,12.08s11.38-5.41,12.07-12.08-3.61-12.08-9.58-12.08S218.11,200,217.42,206.69Z"/><path class="cls-4" d="M250.23,198.19l2.9-18.73a1.47,1.47,0,0,0-2.06-1.57l-5,2.25Z"/><path class="cls-4" d="M242.88,178.09v-8.44a1.47,1.47,0,0,0-2.38-1.16l-7.95,6.23Z"/><path class="cls-4" d="M229,175.23,225.32,167a1.47,1.47,0,0,0-2.72.07l-9.2,23.52Z"/><path class="cls-11" d="M249.72,183.09l-5.34,4h0a3.66,3.66,0,0,0-1.18,1.33,3.08,3.08,0,1,0,5.44,2.82,3.67,3.67,0,0,0,.41-1.75h0Z"/><path class="cls-11" d="M239.1,175.28,233,181h0a4.39,4.39,0,0,0-1.3,2.61,3.74,3.74,0,1,0,7.37,1,4.64,4.64,0,0,0,0-1.07Z"/><path class="cls-11" d="M219.83,182.89v0h0a4.48,4.48,0,0,0,0,2.21,3.74,3.74,0,1,0,7.16-2l-2.92-8.72Z"/><path class="cls-7" d="M127.85,52.7a1.13,1.13,0,0,0-.48-.73A36.37,36.37,0,0,1,119,44.15a1.13,1.13,0,0,0-2,.67c-.05,3.9.46,10.31,3.91,14.37a1.13,1.13,0,0,0,.77.39s5.74,1.21,6.13-6.38A1.12,1.12,0,0,0,127.85,52.7Z"/><path class="cls-7" d="M114.48,58.64a1.75,1.75,0,0,0-.74-1.14,56.46,56.46,0,0,1-13-12.12,1.75,1.75,0,0,0-3.14,1c-.08,6.05.71,16,6.08,22.3a1.75,1.75,0,0,0,1.19.61s8.91,1.88,9.52-9.91A1.75,1.75,0,0,0,114.48,58.64Z"/><path class="cls-7" d="M183.68,58.64a1.75,1.75,0,0,1,.74-1.14,56.47,56.47,0,0,0,13-12.12,1.75,1.75,0,0,1,3.14,1c.08,6.05-.71,16-6.08,22.3a1.75,1.75,0,0,1-1.19.61s-8.91,1.88-9.52-9.91A1.75,1.75,0,0,1,183.68,58.64Z"/><path class="cls-7" d="M170.39,52.26a1.13,1.13,0,0,1,.35-.8,36.36,36.36,0,0,0,6.94-9.08,1.13,1.13,0,0,1,2.11.32c.7,3.84,1.25,10.24-1.49,14.82a1.12,1.12,0,0,1-.69.52s-5.46,2.14-7.1-5.28A1.16,1.16,0,0,1,170.39,52.26Z"/><path class="cls-4" d="M210.13,203.73s1.07-13.28,12.48-36.64l-6.24,27.53Z"/><path class="cls-4" d="M253.12,179.46s-.68,23.77-10.82,37.88Z"/><path class="cls-4" d="M44.33,179.49s1.44,22.92,8.5,34L46.46,182.4Z"/><path class="cls-4" d="M64.17,168.41s23.92,14.78,23.12,35.32l-9.26-14-4.57-10.6-7.21-6Z"/><path class="cls-11" d="M74.7,182.7c-.49-2.39-2.16-3.15-8.64-7.61l1.37,9.09a3.74,3.74,0,1,0,7.28-1.48Z"/><path class="cls-7" d="M141.88,44.14l-.26,13.51,4.79,1.88-3,9.42,5.82,3.13-1.13,12.26L155,68.52l-3.76-3,5.18-9.48-4-2.52,3.05-9.42A48.56,48.56,0,0,0,141.88,44.14Z"/><path class="cls-11" d="M144.69,87.73a5.66,5.66,0,0,0,6.88,0l-1,3.68h-5.9Z"/><path class="cls-4" d="M146.92,155.57s8,3.88,13.42,2c0,0-23.26-4.71-31.3-25.88l4.3,20.1Z"/><rect class="cls-12" x="175.03" y="159.99" width="3.91" height="42.5" transform="translate(-57.89 86.35) rotate(-23.68)"/><path class="cls-3" d="M191.77,139.23a33.28,33.28,0,0,1,.32,6.21c-.54,5.53-1.89,10.42-6,14-5.24,4.52-10.37,6.49-16.64,9.07-.84.35-11.75,4.58-11.53,4.8,1,1.18,1.74,2.57,2.94,3.58-1.12,1.47-3.75,3.82-3.81,5.78,0,.77,5.2,5.73,4.94,6l-3,2.92c7.68,6.56,17.86,5.64,27.15,3.21,9-2.34,15.55-5.05,22.05-11.77,9.34-9.65,16.84-22,13.76-35.89-2.7-12.19-12.67-21.7-24.7-24.7C194.78,127.82,191.2,133.12,191.77,139.23Z"/><polygon class="cls-8" points="166.14 169.78 172.19 172.2 169.46 168.47 166.14 169.78"/><path class="cls-8" d="M206.74,87.94l-.21.12-2.13,1.28c-.71.68-1.39,1.41-2,2.15l-.45.71A26.35,26.35,0,0,0,206.74,87.94Z"/><path class="cls-8" d="M203.47,115.38A3.93,3.93,0,0,0,201,116c-1.18.94-.94,3.28-1.22,4.69a40.67,40.67,0,0,1-4.87,12.51c-4.19,7.14-11.26,14.28-19.31,16.94a47.81,47.81,0,0,0,29.22-27.78c.5-1.29,2.21-4.46,1.41-5.75A3.45,3.45,0,0,0,203.47,115.38Z"/><rect class="cls-3" x="135.33" y="105.07" width="24.64" height="18.48"/><path class="cls-13" d="M105.63,97.79a11,11,0,0,1,3.16-.71,17.69,17.69,0,0,1,3.06,0,25.7,25.7,0,0,1,5.9,1.26,36.83,36.83,0,0,1,5.45,2.41c.89.44,1.71,1,2.56,1.49l2.39,1.42a41.48,41.48,0,0,0,10,4.09,40.66,40.66,0,0,0,5.28,1c.89.1,1.77.18,2.65.21a22.29,22.29,0,0,0,2.49,0h.08a2.61,2.61,0,0,1,.43,5.2h-.18a26.41,26.41,0,0,1-3.2-.16c-1-.11-2-.26-3-.44a45.46,45.46,0,0,1-16.53-6.71l-2.41-1.66c-.76-.51-1.49-1.08-2.27-1.52a33.68,33.68,0,0,0-4.81-2.52,23,23,0,0,0-5.14-1.46,15.22,15.22,0,0,0-2.62-.18,9.43,9.43,0,0,0-2.42.35l-.14,0a1.11,1.11,0,0,1-.75-2.09Z"/><path class="cls-13" d="M191.41,99.59a9.55,9.55,0,0,0-2.51-.35,15.45,15.45,0,0,0-2.67.19,23.16,23.16,0,0,0-5.19,1.5,33.9,33.9,0,0,0-4.83,2.56c-.79.46-1.52,1-2.27,1.54l-2.39,1.67a45.37,45.37,0,0,1-16.47,6.79c-1,.18-2,.34-3,.45a26.22,26.22,0,0,1-3.2.18,2.61,2.61,0,1,1,.05-5.22h.28a22,22,0,0,0,2.49,0c.88,0,1.77-.1,2.65-.19a40.69,40.69,0,0,0,5.3-1,41.58,41.58,0,0,0,10.09-4l2.4-1.41c.86-.49,1.67-1,2.56-1.47a36.66,36.66,0,0,1,5.43-2.37A25.48,25.48,0,0,1,186,97.31a13.78,13.78,0,0,1,6.09.73.84.84,0,0,1-.55,1.59Z"/><path class="cls-3" d="M97.64,93.19s-5.87-10.31-27.71-9.37c0,0,1.28,32.37,26.87,29.2Z"/><path class="cls-14" d="M77.75,92.13s11.72,1.8,15.43,10.26C93.18,102.4,85.57,100.44,77.75,92.13Z"/><path class="cls-3" d="M201.21,93.19s5.87-10.31,27.71-9.37c0,0-1.28,32.37-26.87,29.2Z"/><path class="cls-14" d="M221.09,92.13s-11.72,1.8-15.43,10.26C205.67,102.4,213.27,100.44,221.09,92.13Z"/><path class="cls-7" d="M210.13,104.13c-1.9,0-4.44.86-3.91,3.31.45,2.08,2.31,1.91,3.91,1.91a6.3,6.3,0,1,1-5.8,3.93,13.13,13.13,0,0,1-4.78-2.11,11.48,11.48,0,1,0,10.58-7Z"/><path class="cls-14" d="M135.88,116.36c2.28-.11,4.48,0,6.56.06s4.1.15,6.06.19,3.88,0,5.86,0,4-.19,6.4-.12h.16a1.57,1.57,0,0,1,1.22,2.5,13.63,13.63,0,0,1-1.3,1.48c-.23.24-.48.46-.72.69l-.79.57c-.54.37-1.09.73-1.67,1.05s-1.18.55-1.79.79a18.83,18.83,0,0,1-7.61,1.18,22.81,22.81,0,0,1-7.36-1.54,17.7,17.7,0,0,1-6.32-4.11,1.6,1.6,0,0,1,1.07-2.7Z"/><circle class="cls-7" cx="79.72" cy="104.13" r="3.54"/><circle class="cls-7" cx="89.08" cy="110.75" r="5.75"/><circle class="cls-12" cx="185.43" cy="200.55" r="1.97"/><circle class="cls-12" cx="172.25" cy="170.23" r="1.97"/><path class="cls-15" d="M160,120.58A22,22,0,0,0,138.14,140c10.77-4.1,20.4-11.12,30.67-17.51A21.91,21.91,0,0,0,160,120.58Z"/><path class="cls-10" d="M168.81,122.45c-10.27,6.39-19.9,13.41-30.67,17.51a21.34,21.34,0,0,0,1,9.6c14.19-3.14,23.88-15.32,36.63-22.28A22.07,22.07,0,0,0,168.81,122.45Z"/><path class="cls-12" d="M142.66,156.12a22.16,22.16,0,0,0,6.13,5.4,61.66,61.66,0,0,0,32.14-12.24,22,22,0,0,0,1-6.7,21.73,21.73,0,0,0-.43-4.25C167.57,142.68,156.55,153.86,142.66,156.12Z"/><path class="cls-16" d="M181.06,136.36a22,22,0,0,0-5.33-9.09c-12.74,7-22.44,19.14-36.63,22.28a21.9,21.9,0,0,0,3.55,6.57c13.89-2.26,24.91-13.44,38.88-17.79C181.41,137.67,181.25,137,181.06,136.36Z"/><path class="cls-15" d="M148.78,161.52a22,22,0,0,0,32.14-12.24A61.66,61.66,0,0,1,148.78,161.52Z"/><path class="cls-3" d="M93.92,141.42A33.28,33.28,0,0,0,98.07,146c4.29,3.54,10.68,4.75,16.08,4.36,6.9-.5,12.65-3.25,18.91-5.85.84-.35,8.85-3.2,8.85-2.89.09,1.58.58,3,.44,4.61,1.83.25,5.35.06,6.78,1.4.56.53.35,7.73.72,7.72l4.21-.07c-.81,10.06-6.25,16.27-14.55,21.11-8,4.67-17,7.72-26.35,7.55-13.43-.25-27.45-3.7-35.08-15.72-6.69-10.54-6.34-24.31.07-34.93C83.73,135.47,90,136.69,93.92,141.42Z"/><path class="cls-8" d="M93.18,184s16.83,5.63,29-.81c0,0-16.75,2.88-30.22-3Z"/><path class="cls-8" d="M133.07,144.56s-24,16.24-44-2.56C89.08,142,111.08,150,133.07,144.56Z"/><polygon class="cls-10" points="167.8 165.17 170.39 171.08 173.72 168.93 171.23 163.26 167.8 165.17"/><path class="cls-14" d="M177.63,165.17s13.33-9.9,18.54-18.63C196.17,146.53,194.93,158.2,177.63,165.17Z"/><path d="M113.62,89.17h0c.16,2.06,1,3.3,3.18,3.3s3.08-1.28,3.14-3.3V82.5l-6.35.37Z"/><path d="M176,81.27v7.91h0c.16,2.06,1,3.3,3.18,3.3s3.08-1.28,3.14-3.3V81.83Z"/><path class="cls-8" d="M119.06,79.45a33.13,33.13,0,0,1,3.57.2c1.64.25,2.78,1.18,2.58,3A2.48,2.48,0,0,1,122.53,85c-5.69-.18-11.82-.64-15.66,4.6a1.65,1.65,0,0,1-2.78.18c-1.19-1.25-.51-2.51.23-3.53C107.85,81.31,112.82,79.34,119.06,79.45Z"/><path class="cls-8" d="M175.86,79.45a33.07,33.07,0,0,0-3.57.2c-1.64.25-2.78,1.18-2.58,3A2.48,2.48,0,0,0,172.38,85c5.7-.18,11.37-1.11,15.21,4.13.67.92,2.19,1.75,3.23.65,1.19-1.25.51-2.51-.23-3.53C187.06,81.31,182.1,79.34,175.86,79.45Z"/><path class="cls-8" d="M107,204S94.47,195,93.18,184l5.88.41S100,193.7,107,204Z"/></g></g></svg>