<svg xmlns="http://www.w3.org/2000/svg" xmlns:xlink="http://www.w3.org/1999/xlink" viewBox="0 0 300 300"><defs><style>.cls-1{fill:none;}.cls-2{isolation:isolate;}.cls-3{fill:#b3b3b3;mix-blend-mode:multiply;}.cls-4{clip-path:url(#clip-path);}.cls-5{fill:#f5e6c4;}.cls-6{fill:#fff;}.cls-7{fill:#4d4d4d;}.cls-8{fill:#999;}.cls-9{fill:#ffdd0c;}.cls-10{fill:#925f36;}</style><clipPath id="clip-path"><path class="cls-1" d="M275.07,142.87c-5.21-7.24-14.92-11.73-23.56-9.51-5.4,1.39-10.55,4.82-16.06,4a3.76,3.76,0,0,1-.66-.19,101.16,101.16,0,0,0-.13-11.67,1.48,1.48,0,0,0,.41-.38,10.19,10.19,0,0,1,1.71-5.52,41.15,41.15,0,0,0,2.9-5.08,6.88,6.88,0,0,0,.09-5.68c-.9-1.73-3.14-2.88-4.86-2a3.57,3.57,0,0,0-2.7-3.55c-1.57-.35-3.7.18-4.32,1.67a2.2,2.2,0,0,0-2.37-2.46,3.59,3.59,0,0,0-2.85,2.49,10.83,10.83,0,0,0-.39,4,12.17,12.17,0,0,1-.8,4.3,3,3,0,0,0-4.91.43,3.81,3.81,0,0,0,1.2,4.22,10.63,10.63,0,0,0,4,1.95l-5.83,26.18c-.42,1.87-1,4-2.75,4.81a4.39,4.39,0,0,1-4.41-.76,14.81,14.81,0,0,1-3-3.6,67.33,67.33,0,0,0-22.22-20.41,44.47,44.47,0,0,0,4.79-5.55c8.61-11.87,11.34-27.6,8-41.89a7.29,7.29,0,0,0,2.26,1.06c1.69.29,1.33-1.33,1.23-2.49-.18-2.08-.32-4.16-.48-6.24a17.43,17.43,0,0,0-.49-4.24,3,3,0,0,0-.3-.64c-.62-1-1.71-1.34-2.85-1.85a30.7,30.7,0,0,0-6.24-2,55.12,55.12,0,0,0-17.62-17.56c-30.5-18.8-69,4.61-73.22,38.88q-.13,1-.21,2.06c-.47.29-.94.56-1.4.86-2.21,1.42-4.59,2.49-4.94,5.34a17.29,17.29,0,0,0,1.13,7.08c.48,1.53,1.74,6,3.92,6.39a1.77,1.77,0,0,0,.79-.06,3.31,3.31,0,0,0,1.73-1.51c.19-.29.35-.59.52-.89a53.1,53.1,0,0,0,22.46,30.55,2.18,2.18,0,0,0-.23.49,11.52,11.52,0,0,0-1.75,1.31c-7.77,6.75-13.06,13.83-19.65,21.73l-1.47,1.76c-7.21-7.94-14.42-15.48-21.64-23.41l1.92-6.52a8.61,8.61,0,0,0,.51-3,2.92,2.92,0,0,0-1.47-2.48,1.79,1.79,0,0,0-2.47,1c-.41-1.65-1.78-3-2.75-4.45a4.83,4.83,0,0,0-4.3-2.27c-1.69.2-3.15,2-2.56,3.63-1.25-1.51-4.38-.89-5.89.37a3.89,3.89,0,0,0-.47,5.28c-.87-1.07-3.25-.15-3.72,1.14a5.24,5.24,0,0,0,.62,4,29.05,29.05,0,0,0,8.59,10.56l-.25.31a99.74,99.74,0,0,0,19.38,20.59c5.05,4.09,11.17,7.86,17.61,7,8.32-1.15,16.4-9.65,20.81-19.08L122.92,163l-1.51,30.81c-.07,1.43-.13,2.89-.11,4.35l-8.74-13.13c-2.62-3.94-6.07-8.33-10.8-8.21a9.41,9.41,0,0,0-6.71,3.62,25.67,25.67,0,0,0-3.74,6.87,214.07,214.07,0,0,0-7.21,20.42q-2.82-14.32-6.75-28.4c-1.56-5.59-3.73-11.73-8.91-14.35-4.61-2.32-10.39-1-14.57,2-6.61,4.8-9.83,13.33-9.65,21.5s3.35,16,7.46,23.07c5.08,8.71,11.79,16.19,19,23.22,5.83,5.72,14.38,3.88,16.05-5,.07-.39.13-.78.17-1.17a83.6,83.6,0,0,0,9.56-10.55,31.51,31.51,0,0,1,6.13,9c2.82,6.25,5.63,13.26,11.76,16.34,4.77,2.4,10.48,1.78,15.7.62s10.46-2.84,15.78-2.36,10.87,3.84,11.81,9.1c.28-1.36.87-3.36,1.14-4.73l2.51.64.15-3.3,2.8.77-.34-4.21c-5.21-7.24-14.92-11.73-23.56-9.51-5.4,1.39-10.55,4.82-16.06,4-11.34-1.78-13-16.63-22.15-21.7-.51-.28-1-.54-1.57-.78a57.8,57.8,0,0,0,6-14.38c1.35,8.16,8,15.1,16.16,16.23a8.69,8.69,0,0,0,4.53-.37,4.83,4.83,0,0,0,1.42-.92c4.08,2.45,9.3,3.54,14.11,4.34,6,1,12.12,2,18.17,1.26a23.16,23.16,0,0,0,13.41-6,4.71,4.71,0,0,0,2,1.59,8.69,8.69,0,0,0,4.53.37c8.2-1.12,14.8-8.06,16.16-16.23,3.27,12.19,10,21.78,19.07,30.47.41,12.1,12.85,9.25,20,1.34a172.45,172.45,0,0,0,15.29-19.64c5-7.48,9.56-16,8.71-25a19.66,19.66,0,0,0-8.15-14.37,15.72,15.72,0,0,0-16.17-1c-5,2.83-7.72,8.36-9.83,13.69a143.81,143.81,0,0,0-6.93,23q-2.93-9.58-6.74-18.86a25.67,25.67,0,0,0-3.74-6.87,9.41,9.41,0,0,0-6.71-3.62c-4.73-.12-8.18,4.27-10.8,8.21l-11.89,17.86c1-4.71.62-9.88.15-14.76q-2.66-27.35-5.45-54.69l-.15,0,.4-.29c11.36,9.66,21.76,19,33.12,28.7a25.86,25.86,0,0,0,6.78,4.62c2.54,1,5.61,1.17,7.92-.32,6.3-4.07,9.76-10.82,11.51-18.45a53,53,0,0,0,7.86-1c5.22-1.17,10.46-2.84,15.78-2.36s10.87,3.84,11.81,9.1c.28-1.36.86-3.36,1.14-4.73l2.51.64.15-3.3,2.8.77Z"/></clipPath></defs><title>Artboard 8</title><g class="cls-2"><g id="Layer_1" data-name="Layer 1"><path class="cls-3" d="M238.56,230.28c0-9.88-39.9-17.89-89.12-17.89s-89.12,8-89.12,17.89c0,5.49,9.59,8.21,13.5,9.47a122.65,122.65,0,0,0,15.37,3.71c3.2.59,6.42,1.1,9.64,1.55,2.42.34,6.31.06,8.34,1.41-.33.37-2,1.23-2,1.76,0,1.39,5.62,2.51,12.54,2.51a46.8,46.8,0,0,0,6.61-.22c2.5-.36,3.88-1.81,6-2.56s5.54.06,7.81.11c1.4,0,5.82-.57,7,.27.71.53.12,1.29.71,1.88a4.88,4.88,0,0,0,2.07.85c3.16,1,6.83,1,10.11,1a36.54,36.54,0,0,0,9.83-1c2.11-.6,2.53-1.12,2.12-3.27,3.62-1,8.18-.59,12-.89s7.83-.68,11.73-1.13c6.78-.78,13.55-1.77,20.23-3.18,7.09-1.49,18.28-3.21,23.29-9.2A5,5,0,0,0,238.56,230.28Z"/><g class="cls-4"><path class="cls-5" d="M171.89,44.69c-30.5-18.8-69,4.61-73.22,38.88-2.68,21.85,10.39,44.8,30.7,53.29s46.07,1.5,59-16.32c9.34-12.88,11.78-30.3,7.07-45.49A55.24,55.24,0,0,0,171.89,44.69Z"/><polygon points="173.63 82.37 173.63 82.37 173.64 82.38 173.63 82.37"/><path d="M125.46,82.42h0l-.06.06.07-.06Z"/><path class="cls-6" d="M143.26,43.41h0l0,0Z"/><path class="cls-7" d="M151.59,140.19a3.45,3.45,0,0,0,1.28-.42,11,11,0,0,1,6.05-.87c.42.06,1,.09,1.17-.29a.68.68,0,0,0-.15-.75,1.75,1.75,0,0,0-.69-.41,10.29,10.29,0,0,0-6.09-.35,5.11,5.11,0,0,0-1.88,1.13C150.56,138.86,150.17,140.23,151.59,140.19Z"/><path class="cls-8" d="M75.2,151c-3.15-1.88-8.14-3.8-7.91-7.35.08-1.14,1.35-2.25,1.85-3.51s.62-2.67,1.43-3.73c1.37-1.77,5.2-2.22,7-.91,1.2.87,1.79,2.65,2.54,3.88a52,52,0,0,1,2.14,4.86c1.3,2.74,3.49,4.43,5.77,6.25,2.53,2,4.56,5.07,6.68,7.51l1,1.2c1.31,1.51,2.7,3.2,2.75,5.18a3.63,3.63,0,0,1-3.2,3.75c-1.63.06-3-1.15-4.17-2.28-4.76-4.57-9.4-9.3-14.29-13.72A10.38,10.38,0,0,0,75.2,151Z"/><path class="cls-5" d="M51.68,211.63c-4.12-7.06-7.29-14.9-7.46-23.07s3-16.7,9.65-21.5c4.17-3,10-4.35,14.57-2,5.18,2.61,7.35,8.75,8.91,14.35a374.32,374.32,0,0,1,8.92,40.38c.55,3.35,1.05,6.79.42,10.13-1.67,8.84-10.22,10.67-16.05,5C63.47,227.82,56.76,220.34,51.68,211.63Z"/><path class="cls-5" d="M225.9,183.52c2.12-5.33,4.85-10.86,9.83-13.69a15.72,15.72,0,0,1,16.17,1,19.66,19.66,0,0,1,8.15,14.37c.85,9-3.72,17.48-8.71,25a172.46,172.46,0,0,1-15.29,19.64c-7.53,8.35-21,11.07-19.94-3.52A144.38,144.38,0,0,1,225.9,183.52Z"/><path class="cls-5" d="M125.79,204.94l-13.23-19.87c-2.62-3.94-6.07-8.33-10.8-8.21a9.41,9.41,0,0,0-6.71,3.62,25.67,25.67,0,0,0-3.74,6.87,214,214,0,0,0-9.5,28.7A14.18,14.18,0,0,0,86,230c-.09-.41.88-.81.8-1.22,9.42-8.85,16.38-18.62,19.73-31.1,1.35,8.16,8,15.1,16.16,16.23a8.69,8.69,0,0,0,4.53-.37,4.18,4.18,0,0,0,2.68-3.44,4.39,4.39,0,0,0-2.07-3.63C126.63,205.64,127.19,205.32,125.79,204.94Z"/><path class="cls-5" d="M177.74,205.2,191,185.33c2.62-3.94,6.07-8.33,10.8-8.21a9.41,9.41,0,0,1,6.71,3.62,25.67,25.67,0,0,1,3.74,6.87,214,214,0,0,1,9.5,28.7c1.29,5.07-1.4,10.42-5.25,14l.26-1.24c-9.42-8.85-16.38-18.62-19.73-31.1-1.35,8.16-8,15.1-16.16,16.23a8.69,8.69,0,0,1-4.53-.37,4.18,4.18,0,0,1-2.68-3.44,4.39,4.39,0,0,1,2.07-3.63C176.9,205.91,176.34,205.58,177.74,205.2Z"/><path class="cls-5" d="M121.42,193.85c-.22,4.51-.39,9.29,1.76,13.26,3.6,6.67,12.09,8.6,19.57,9.84,6,1,12.12,2,18.17,1.26s12.13-3.48,15.52-8.55c4.05-6.06,3.51-14,2.8-21.24q-2.66-27.35-5.45-54.69a151.51,151.51,0,0,0-45.34-1.68c-4.56.52-6.4-.21-6.21,3.93.17,3.78,1.66,7.12,1.45,11.39q-.39,7.83-.77,15.66Z"/><path d="M192.66,88c-26.39-10.8-58.9-4.52-79.37,15.33C140.32,108.37,169.25,102.39,192.66,88Z"/><path d="M192.66,88c-26.39-10.8-58.9-4.52-79.37,15.33C140.32,108.37,169.25,102.39,192.66,88Z"/><path class="cls-9" d="M145.35,89.48a3.58,3.58,0,0,0-1.7-.4A2.86,2.86,0,0,0,140.56,92v10.79h0c.16,2,1,3.22,3.11,3.23s3-1.25,3.07-3.23V92h0A2.89,2.89,0,0,0,145.35,89.48Z"/><path class="cls-9" d="M165.09,89.39a3.58,3.58,0,0,0-1.7-.4,2.86,2.86,0,0,0-3.09,2.86V98a20.63,20.63,0,0,0,0,3.68c.17.89-.05.74.94,1a10.68,10.68,0,0,0,2.69,0c2.8-.15,2.59-2,2.59-4.22v-6a5.56,5.56,0,0,0,0-.67A2.89,2.89,0,0,0,165.09,89.39Z"/><path class="cls-9" d="M145.35,89.48a3.58,3.58,0,0,0-1.7-.4A2.86,2.86,0,0,0,140.56,92v10.79h0c.16,2,1,3.22,3.11,3.23s3-1.25,3.07-3.23V92h0A2.89,2.89,0,0,0,145.35,89.48Z"/><path class="cls-9" d="M165.09,89.39a3.58,3.58,0,0,0-1.7-.4,2.86,2.86,0,0,0-3.09,2.86v5.5c0,1.9-.88,4.92,1.67,5.16a5.75,5.75,0,0,0,3.29-.7c1.17-.64,1.26-1,1.25-2.24,0-2.36,0-4.71,0-7.07a5.56,5.56,0,0,0,0-.67A2.89,2.89,0,0,0,165.09,89.39Z"/><path class="cls-5" d="M234.76,122.86c-3.54-2.89-8.37-3.38-12.94-3.29l-5.89,26.48c-.42,1.87-1,4-2.75,4.81a4.39,4.39,0,0,1-4.41-.76,14.81,14.81,0,0,1-3-3.6,67.33,67.33,0,0,0-23.92-21.38c-3.68,1.84-7.47,4.78-8.47,8.77l.64-.46c11.36,9.66,21.76,19,33.12,28.7a25.86,25.86,0,0,0,6.78,4.62c2.54,1,5.61,1.17,7.92-.32,12.89-8.32,13.9-27.86,12.64-43.15C234.72,123.6,234.53,122.54,234.76,122.86Z"/><path class="cls-5" d="M126.81,135.09a2.46,2.46,0,0,0-2.88-1.78,6.86,6.86,0,0,0-3.24,1.87c-7.77,6.75-13.06,13.83-19.65,21.73l-1.47,1.76c-7.36-8.11-14.72-15.79-22.08-23.9a21.18,21.18,0,0,0-11.79,8,99.74,99.74,0,0,0,19.38,20.59c5.05,4.09,11.17,7.86,17.61,7C115.86,168.52,128.42,148.29,126.81,135.09Z"/><path class="cls-5" d="M97.17,105.29a1.77,1.77,0,0,0,.79-.06,3.31,3.31,0,0,0,1.73-1.51,23.07,23.07,0,0,1,2-3.27c.93-1,1.89-2.05,2.88-3a83.48,83.48,0,0,1,6.2-5.62,85.93,85.93,0,0,1,13.91-9.29,84.83,84.83,0,0,1,31.84-9.71,26.91,26.91,0,0,1,6-.35,99.25,99.25,0,0,0-15.46-1,93.86,93.86,0,0,0-34.26,6.89,97.48,97.48,0,0,0-15.8,8.21c-2.21,1.42-4.59,2.49-4.94,5.34a17.29,17.29,0,0,0,1.13,7.08C93.73,100.43,95,104.94,97.17,105.29Z"/><path class="cls-5" d="M198.6,66.09c-.62-1-1.71-1.34-2.85-1.85a31.76,31.76,0,0,0-8.47-2.38c-5.94-.84-12-.28-17.9.31-6.2.62-12.44,1.32-18.68.91l-2-.13c12-1.11,23.34,3.39,33.86,8.61,3,1.48,5.94,3,8.89,4.55,1.51.78,3,1.55,4.53,2.31a10.34,10.34,0,0,0,2.66,1.28c1.69.29,1.33-1.33,1.23-2.49-.18-2.08-.32-4.16-.48-6.24a17.43,17.43,0,0,0-.49-4.24A3,3,0,0,0,198.6,66.09Z"/><path class="cls-5" d="M124.22,234.53c-11.34-1.78-13-16.63-22.15-21.7a19.65,19.65,0,0,0-14-1.92c6.17,5,11.06,8.86,14.43,16.31,2.82,6.25,5.63,13.26,11.76,16.34,4.77,2.4,10.48,1.78,15.7.62s10.46-2.84,15.78-2.36,10.87,3.84,11.81,9.1c.28-1.36.87-3.36,1.14-4.73l2.51.64.15-3.3,2.8.77-.34-4.21c-5.21-7.24-14.92-11.73-23.56-9.51C134.89,232,129.73,235.39,124.22,234.53Z"/><path class="cls-5" d="M235.45,137.32c-1.7-.27-5.72-3.18-7.09-2.07a4,4,0,0,0-1,1.57l-2.42,5.5a5.72,5.72,0,0,0-.68,2.57c.29,5,14.09,2.72,17,2.08,5.22-1.17,10.46-2.84,15.78-2.36s10.87,3.84,11.81,9.1c.28-1.36.87-3.36,1.14-4.73l2.51.64.15-3.3,2.8.77-.34-4.21c-5.21-7.24-14.92-11.73-23.56-9.51C246.11,134.75,241,138.18,235.45,137.32Z"/><path class="cls-5" d="M174.44,150.79a85.11,85.11,0,0,1-43,9.78c6.63,4.93,15.43,7.28,23.49,5.45A30.89,30.89,0,0,0,174.44,150.79Z"/><path class="cls-5" d="M222,119.94a11.15,11.15,0,0,1-4.21-2,3.81,3.81,0,0,1-1.2-4.22,3,3,0,0,1,4.91-.43,12.17,12.17,0,0,0,.8-4.3,10.83,10.83,0,0,1,.39-4,3.59,3.59,0,0,1,2.85-2.49,2.2,2.2,0,0,1,2.37,2.46c.62-1.49,2.74-2,4.32-1.67a3.57,3.57,0,0,1,2.7,3.55c1.72-.93,4,.22,4.86,2a6.88,6.88,0,0,1-.09,5.68,41.15,41.15,0,0,1-2.9,5.08,10.19,10.19,0,0,0-1.71,5.52,2.35,2.35,0,0,1-2.32.71,6.7,6.7,0,0,1-2.29-1l-8.55-5.16C222.23,120.14,221.63,119.41,222,119.94Z"/><path class="cls-5" d="M77.72,136l2.13-7.23a8.61,8.61,0,0,0,.51-3,2.92,2.92,0,0,0-1.47-2.48,1.79,1.79,0,0,0-2.47,1c-.41-1.65-1.78-3-2.75-4.45a4.83,4.83,0,0,0-4.3-2.27c-1.69.2-3.15,2-2.56,3.63-1.25-1.51-4.38-.89-5.89.37a3.89,3.89,0,0,0-.47,5.28c-.87-1.07-3.25-.15-3.72,1.14a5.24,5.24,0,0,0,.62,4,29,29,0,0,0,10.18,11.68C71.74,142.75,76.51,140.09,77.72,136Z"/><path class="cls-10" d="M123.5,93.73c-1.43,1.08-2.75,2.32-4.08,3.55q-2.73,2.06-5.26,4.37c-2.11,1.54-4.24,3.13-5.53,5.41a.21.21,0,0,0,.33.25A28,28,0,0,1,113.6,104c23.08,4.28,34.71,1.83,39.91,1.27,14.2-1.53,23.73-7.05,38.57-16.19.92.28,1.86.55,2.77.85,1.56.53,2.23-1.93.68-2.46a103.15,103.15,0,0,0-26.34-5.52.93.93,0,0,0-.46-.19,98.35,98.35,0,0,0-40,3.11,74.92,74.92,0,0,0-15.75,6.45c-4.73,2.61-7.62,6.28-11.62,9.66-.2.17.06.5.28.36,9.23-5.94,17.76-12,28.64-14.63,5.81-1.43,11.5-2.87,17.47-3.24l-.78.16C138.92,85.42,130.14,88.69,123.5,93.73Zm47,4.1a115.11,115.11,0,0,1-17.5,4.71c-.84.13-1.68.27-2.53.36q-4.89.57-9.74,1.21A106.43,106.43,0,0,1,115.24,103c.87-.55,1.71-1.1,2.47-1.69,2.64-2,5.16-4.26,8-6,7-4.41,14.79-8,23-9.47,13.55-2.45,28.38-1.09,41.74,2.77C184.8,91.71,172.05,97.22,170.5,97.83Z"/><path class="cls-10" d="M195.11,104.87c-13.53,11.33-32.47,13-49.67,13.67l.58-.14c13.35-3.74,26.44-10.66,35.2-21.37.35-.43-.11-1.2-.64-.83-4.3,3-8.18,6.28-12.71,9a93.54,93.54,0,0,1-22.7,10.1c-19,5.31-39.29,2.81-39.29,2.81a.23.23,0,0,0-.05.42c4.21,3.16,11,3.33,16.06,3.32A87,87,0,0,0,139.16,120c8,2.58,17,1.68,25.31-.07a52.68,52.68,0,0,1-17.59,8.76c-8.49,2.38-18.39,2.87-27.23,2.38a.29.29,0,0,0-.2.49c2.08,2.39,6,2,9,2.05A66.71,66.71,0,0,0,146,131.72a50.77,50.77,0,0,0,23.09-12.8l.38-.09c9.32-2.32,20.4-5.16,27.08-12.53A1,1,0,0,0,195.11,104.87Z"/><path class="cls-10" d="M177.11,129.73c.32-.48-.36-.92-.75-.58-4.92,4.25-13.77,6-20,6.92-5.55.85-11.17,1.29-16.72,2.16-.16,0-.16.22-.08.32,2.82,3.59,14.72,1,18.62.28a61.86,61.86,0,0,0,7.16-1.77l-.11.1a58.73,58.73,0,0,1-11.15,7.89c-10.36,5.37-30.19-.36-37.19-5.28-.25-.18-.55.22-.33.42,6.39,5.91,16.07,10.21,25.18,9.92l-6,1.82c-.65.2-1.31.31-1.94.55a8.33,8.33,0,0,1-2.41.82.4.4,0,0,0,0,.8c1.33.17,2.53-.54,3.8-.8a8.09,8.09,0,0,0,2.11-.62c5.67-1.57,11.39-2.73,16.77-5.42,5.84-2.92,10.68-7.52,15.5-11.82C172.71,134,175.47,132.2,177.11,129.73Z"/><path class="cls-10" d="M92.05,90.83c7.09-3.64,13.43-8.24,20.76-11.57,6.69-3,13.73-5.88,21-6.93,8.56-1.23,17.73-2,26.32-.82,7.66,1,15.23,4,22.92,4.37a.59.59,0,0,0,.16-1.15c-12.14-3.1-23.66-5.66-35.65-5.87,1.57-.47,3-.94,3.82-1.14,4.58-1.13,9.17-1.87,13.86-2.55,10.61-1.52,20.93-1,31.52.07.91.1,1-1.27.21-1.53-8.68-2.8-18.11-2.51-27.2-1.53-11.46-4.33-52.73-5.78-62.2,3a.39.39,0,0,0,.38.65C118.81,63,129.6,60.38,140.9,61c7.43.42,14.86,1.05,22.24,2A141.27,141.27,0,0,0,148,65.55c-27.14,6.55-32.47,9.61-37.37,11.83-6.75,3.05-14.56,6.86-18.93,13.08C91.52,90.7,91.83,90.94,92.05,90.83Z"/><path class="cls-10" d="M132.72,57.37a118.74,118.74,0,0,1,21.65-7.74c6.6-1.72,13.19-2,19.84-3.12a.23.23,0,0,0,.05-.42c-5.63-3.24-14.72-.45-20.56,1.1-6.79,1.8-16.75,4-21.77,9.16A.65.65,0,0,0,132.72,57.37Z"/><path class="cls-10" d="M172.08,151.23c-2.89.76-5.57,2.57-8.5,3.47a116,116,0,0,1-12,2.85A112.28,112.28,0,0,1,136,159.43c-1.16.06-8.88.94-9.37.14-.16-.26-.66-.26-.71.09l0,.24a.49.49,0,0,0,.33.59c7.3,2.16,16.71,1.11,24.07-.12,7.21-1.2,16.18-3.83,22.2-8.07A.59.59,0,0,0,172.08,151.23Z"/><path class="cls-10" d="M171.86,154.13c-11.89,15.65-19.08,9.24-29.61,12.23a.11.11,0,0,0,0,.2c5.24,2.88,13.1,1.47,18.51-.73,5.24-2.13,8.84-6.66,11.88-11.26C172.94,154.09,172.19,153.69,171.86,154.13Z"/><path class="cls-10" d="M178.29,176.05c-7.54.61-14.85,3-22.51,3-21.43-.12-11.09-.83-3.61-3.37,9.52-3.23,19.15-7.12,27.21-13.2.74-.56.36-2-.7-1.66-4.05,1.47-7.28,4.32-11.1,6.28a101.66,101.66,0,0,1-15.17,6.58c-10.11,3.23-21.24,3.69-31.66,5.61a.59.59,0,0,0,0,1.13c3.8.89,7.9,0,11.73-.51,2.51-.34,5-.74,7.44-1.19,12.24,4.8,26.39,2.92,38.52-1.48C179.05,177,179,176,178.29,176.05Z"/><path class="cls-10" d="M134.76,193.27A132.84,132.84,0,0,0,150,191.7c10.31-1.8,17.66-5.78,25.4-12.56.3-.26-.09-.76-.42-.55-7.11,4.65-14.45,8.44-22.88,10.13-5.15,1-10.33,1.35-15.5,2.08C117.77,193.44,129.27,193.58,134.76,193.27Z"/><path class="cls-10" d="M176,196.07a.23.23,0,0,0,0-.13s-.05,0-.08,0-.06-.06-.11-.07c-3.12-.37-7.12.42-10.25.74-4.36.45-8.73.74-13.1,1.12a57.41,57.41,0,0,1-11.55-.2c-3.67-.4-7.31-1.58-10.92-2.27a.39.39,0,0,0-.27-.19c-3.45-.7-6.2-2.93-9.5-3.92v0c-.16,0-.32.1-.23.27a4.72,4.72,0,0,0,1.58,1.63.71.71,0,0,0,.1.23c5.3,7.77,13.06,10.89,20.89,15.3s16.28,7.12,25.36,5.65a.28.28,0,0,0,0-.54c-9-1.64-17-3-25.14-7.29-3.82-2-7.34-3.41-10.91-6a47,47,0,0,1-4.6-3.92c9,2.79,17.7,4.59,27.19,3.75,4.74-.42,9.63-.76,14.33-1.61,1.63-.29,6.43-.53,7.26-2.39,0,0,0-.07,0-.11A.26.26,0,0,0,176,196.07Z"/><path class="cls-10" d="M73,166.29c.2-.73-.85-1-1.11-.31-2.09,5.37-7.26,8.65-11.74,11.78-4.14,2.9-9.56,3.83-13.32,7.06-.13.11,0,.32.16.28,6.39-1.63,11.17-3.43,16.48-7.56C66.82,175,71.93,170.38,73,166.29Z"/><path class="cls-10" d="M73.26,189.73a1.09,1.09,0,0,0,.15-.4,56.49,56.49,0,0,0,8.19-5.78c.56-.47,0-1.43-.71-1.22,0,0-3,4.13-33.07,11.77-.38.1-.42.73,0,.81,7.14,1.25,14.39-.24,21-3.22a84.91,84.91,0,0,1-6.15,9.09,37.35,37.35,0,0,1-5,4.88c-2.09,1.7-4.22,2.69-6,4.72-.06.07,0,.2.11.14,2-1.42,4.41-2.09,6.32-3.69,1.76-1.47,3.45-3.1,5.21-4.6C67.47,198.7,70.33,194.28,73.26,189.73Z"/><path class="cls-10" d="M83.1,201.44c.69,5.25,1.83,10.44,2.29,15.7a.16.16,0,0,0,.32,0c.48-5.84-.48-11.25-1.37-16.91a6,6,0,0,0,1.36-2.63A.82.82,0,0,0,84.2,197c-.09.15-.22.28-.33.43a.65.65,0,0,0-1.2.31c0,.32.08.65.11,1-2.83,2.72-7.51,4-10.94,5-3.89,1.09-7.63,2.83-11.5,3.88-.06,0-.05.12,0,.12a62.9,62.9,0,0,0,15.26-2.43A23.44,23.44,0,0,0,83.1,201.44Z"/><path class="cls-10" d="M79.17,210.93a32.49,32.49,0,0,1-6,4.74c-3.15,2.19-6.53,4-9.73,6.11a.16.16,0,0,0,.12.29A28.65,28.65,0,0,0,76,216.46C83,211.11,88.34,200.72,79.17,210.93Z"/><path class="cls-10" d="M84.39,223.32c-3.94,3.21-7.73,3.76-12.55,4.54-2.28.37-4.53-.1-6.74.29a.15.15,0,0,0,0,.27c1.38.6,2.12,1.49,3.72,1.74a23.82,23.82,0,0,0,5.55-.28c4.48-.42,8.59-1.47,11.71-4.89A1.18,1.18,0,0,0,84.39,223.32Z"/><path class="cls-10" d="M95.63,217.06a15.08,15.08,0,0,0-1.51-1.14,12.88,12.88,0,0,0-1.82-1.09c-.33-.15-.91-.52-1.27-.42,0,.32.46.6.69.81.43.4.84.81,1.28,1.2.24.22,2.62,2.78,2.55,2.83.59-.44,1.34-.87.72-1.57A7.86,7.86,0,0,0,95.63,217.06Z"/><path class="cls-10" d="M95.41,208.48A13.75,13.75,0,0,0,89,208.1c-.13,0-.1.19,0,.23,2,.78,4.06,1.27,6.13,1.86a33,33,0,0,1,5.58,2c.39.16.75-.41.43-.73A14,14,0,0,0,95.41,208.48Z"/><path class="cls-10" d="M96.93,202.28l1.79,2c.37.41,1.26,1.75,1.9,1.75.24-1.42-.82-3-1.56-4.12-.86-1.32-1.88-2.53-2.86-3.76a17.5,17.5,0,0,0-4.05-3.65,15,15,0,0,0-2.72-1.27c.4.16-1.53-.67-1.34-.33a.73.73,0,0,0-1.35.37l0,.26a.79.79,0,0,0,.4.69,39.12,39.12,0,0,1,5,3.14,32.37,32.37,0,0,1,4.14,4.19Z"/><path class="cls-10" d="M101.68,196.3l0-.08a12.33,12.33,0,0,0-1.18-3,23.07,23.07,0,0,0-3.3-5.36,18.24,18.24,0,0,0-4.65-4.12c-.4-.22-.52-.38-.79-.06a6,6,0,0,0-.79,1.91,4.64,4.64,0,0,1,1.43,1c.55.52,1.15,1,1.7,1.51,1,1,2,1.82,2.92,2.83s1.48,1.85,2.21,2.79c.47.62.85,1.3,1.34,1.91a4.18,4.18,0,0,0,.69.77.61.61,0,0,0,.47.09l0,0v0S101.76,196.44,101.68,196.3Z"/><path class="cls-10" d="M101.4,174.53c-.69-.15-1.47.62-1,1.3a21.94,21.94,0,0,1,3.47,9.3c.53,3.06,1.41,6.26,1.16,9.37,0,.33.45.35.55.07,1.34-3.74,1-8.36.09-12.17C105.14,180.23,104.11,175.12,101.4,174.53Z"/><path class="cls-10" d="M114.38,183.35a.79.79,0,0,0-1.57,0c-.41,4.68-1.87,16.07-5.74,18.55a.3.3,0,0,0,.23.55c2.11-.39,3.44-2.79,4.37-4.9.61,3.76,1.43,7.57.68,11.22-.07.32.38.54.55.23,2.44-4.58,1.84-10.83.52-16A25.35,25.35,0,0,0,114.38,183.35Z"/><path class="cls-10" d="M120.25,195.47a5.87,5.87,0,0,0,.1-1.85.32.32,0,0,1,.06-.21,2.73,2.73,0,0,0-1.24-.08c0,.16,0,.32,0,.48a27.51,27.51,0,0,0,.45,8c.54,2.39,1.61,5.26,3.65,6.75.23.17.42.41.72.44a.86.86,0,0,0,0-.46c-.23-1.26-1.13-2.24-1.64-3.36a21.71,21.71,0,0,1-1.32-4,35.48,35.48,0,0,1-.66-3.89,7.28,7.28,0,0,1-.15-1.65Z"/><path class="cls-10" d="M183.91,194.64a52.53,52.53,0,0,1-1.58,7.21c-.44,1.58-.76,3.18-1.26,4.74-.25.78-.61,1.49-.9,2.25-.12.31-.35,1.16.14,1.17s1-1.12,1.23-1.5a28.34,28.34,0,0,0,1.51-4.12c.33-1,3.53-11.81,1.57-11.89a.64.64,0,0,0-.53.42,1.61,1.61,0,0,0,0,.5Q184,194,183.91,194.64Z"/><path class="cls-10" d="M201.53,175.7a.61.61,0,0,0-1.22,0,33.5,33.5,0,0,1-4.9,12.47,39.17,39.17,0,0,0-3.6,6.81,27.81,27.81,0,0,0-3-9.14c-.44-.82-1.5-.2-1.38.58.53,3.72,2,7.19,2.26,11a35.42,35.42,0,0,1-.39,8.26c-.21,1.08-.43,2.15-.66,3.21-.16.76-.51,1.5-.74,2.25-.14.45-.47,1.19.36,1,.46-.13.64-.75.85-1.17a31.06,31.06,0,0,0,2.38-6.6,23.64,23.64,0,0,0,.52-3.52q.07-.92.07-1.85c0-.33-.23-1.52-.05-1.76C196.5,191,201.87,183.81,201.53,175.7Z"/><path class="cls-10" d="M208.78,179.06c-.12-.67-1-.41-1.08.15-.54,4-.59,8-1.35,11.95-1.68,1.39-2.88,3.36-4.53,4.83a15.65,15.65,0,0,1-3.07,2.06,5.38,5.38,0,0,0-1.49.86c-.53.56-.05,1-.23,1.62a.7.7,0,0,1,.28-.11,7.35,7.35,0,0,0,2.36-.86,12.53,12.53,0,0,0,2.52-1.47,16.77,16.77,0,0,0,3.17-3.19,5.31,5.31,0,0,0-.43,1.3q-.26.73-.54,1.46c-.37,1-.77,1.92-1.19,2.86a29.07,29.07,0,0,1-2.66,5.3,6.65,6.65,0,0,0-.91,1.26c.18.13.28.08.44,0s.39-.41.49-.52a30.18,30.18,0,0,0,2.54-3.39,33.27,33.27,0,0,0,5.27-11.59A30.67,30.67,0,0,0,208.78,179.06Z"/><path class="cls-10" d="M216.38,194c-1.34,2.77-2.24,5.52-4.19,8-3,3.72-6.9,6.46-9.93,10.08a.37.37,0,0,0,.45.58,33.63,33.63,0,0,0,15.37-17.92A.93.93,0,0,0,216.38,194Z"/><path class="cls-10" d="M218.29,203.59C214,208,211.14,214.2,212,220.44c.06.42.74.39.83,0a54.92,54.92,0,0,1,6.55-16A.68.68,0,0,0,218.29,203.59Z"/><path class="cls-10" d="M227.38,176.6c-.33,0-.57.52-.19.71a20.76,20.76,0,0,0,5.4,1.69,27,27,0,0,0,3,.39,4.06,4.06,0,0,1,2.18.67c.45.32.86.68,1.29,1a17.22,17.22,0,0,0,2.14,1.85c.75.44,1.42,1,2.15,1.53a25.53,25.53,0,0,0,6.71,3.33,28.4,28.4,0,0,0,7.71,1.1,13.86,13.86,0,0,0,2.49,0c.18,0,.32,0,.45-.14.6-.56.46-2,.67-2.79a2.26,2.26,0,0,1-1,.22c-1.19.11-2.41.17-3.59.19a21.31,21.31,0,0,1-3.73-.58,31.77,31.77,0,0,1-3.67-.64,23.35,23.35,0,0,1-8-4.55c-.35-.28-.85-.57-1-1a2.93,2.93,0,0,1,.85,0c.33,0,.66-.07,1-.09q1.13-.09,2.26-.25a30,30,0,0,0,4.31-.92,19.51,19.51,0,0,0,4.38-1.83,33.3,33.3,0,0,0,4-2.46c-.18-.58-.21-1.58-.82-1.91,0,0-1.43,1.38-1.61,1.49a19.89,19.89,0,0,1-1.88,1,19.67,19.67,0,0,1-4.07,1.36,36.17,36.17,0,0,1-8.54.65C236,176.47,231.65,176.05,227.38,176.6Z"/><path class="cls-10" d="M260.27,193.57a46.27,46.27,0,0,1-15.37.66,58.56,58.56,0,0,1-8.63-1.81c-1.46-.41-2.9-.87-4.34-1.36l-2.2-.77a6.07,6.07,0,0,1-.92-.42,4.72,4.72,0,0,0-.81-.28c.19.55.94,1.06,1.35,1.45.61.59,1.35,1,2,1.56a14.26,14.26,0,0,0,1.91,1.39,23.53,23.53,0,0,0,4.75,2.08c7,2.13,16.41,3.1,23-.71A1,1,0,0,0,260.27,193.57Z"/><path class="cls-10" d="M244.71,214.5a20.79,20.79,0,0,0,3.93.8c.61,0,.53-.24.78-.72s.76-1,1.07-1.53l.3-.57a6.54,6.54,0,0,0-2.08-.6c-1.16-.27-2.31-.53-3.45-.83s-2.14-.49-3.2-.85-2.32-.78-3.49-1.16a27.81,27.81,0,0,1-4.17-1.53c-1.44-.73-2.92-1.4-4.34-2.18-.83-.45-1.63-1-2.45-1.41s-1.68-1.19-2.62-1.65a1.37,1.37,0,0,0-.56-.15c-.09.65.5,1.29.88,1.74a14.53,14.53,0,0,0,1.7,1.72,38.69,38.69,0,0,0,3.35,2.52,44.49,44.49,0,0,0,8.06,4.46c-2.18.73-4.38,1.45-6.59,2.07a34.81,34.81,0,0,1-9.29,1.5c-.78,0-1.57.07-2.35.06-.3,0-.86-.16-1.08.09-.6.68,1.27,1.06,1.62,1.17a16,16,0,0,0,2.57.56,19.9,19.9,0,0,0,5.39-.15,35.94,35.94,0,0,0,8-2.29c1.18-.46,2.89-1.5,4.43-2,.57.17,1.07.48,1.65.62S244.07,214.37,244.71,214.5Z"/><path class="cls-10" d="M233.89,229.46a11.21,11.21,0,0,1-1.73-1.55c-.78-.86-1.5-1.77-2.25-2.66a25.2,25.2,0,0,1-4.27-6.88.18.18,0,0,0-.35,0c-.79,3.18,1.15,6.26,3,8.68a17.92,17.92,0,0,0,2.48,2.8A14,14,0,0,0,233.7,232c.29-.37.77-.62,1.09-1a2.52,2.52,0,0,1,.63-.65c-.25,0-.5-.23-.72-.37S234.15,229.65,233.89,229.46Z"/><path class="cls-10" d="M182.8,141.6A16.7,16.7,0,0,1,190,127.48a1,1,0,0,0-1-1.72,13.41,13.41,0,0,0-6.72,7.52,12.69,12.69,0,0,0-.13,8.41A.36.36,0,0,0,182.8,141.6Z"/><path class="cls-10" d="M188,143.45a.21.21,0,0,0,.38.16c1.31-1.9,3.53-2.91,5.45-4.07s4-1.54,6-2.61c.92-.51.26-1.76-.68-1.6C194.66,136.1,188.9,138.47,188,143.45Z"/><path class="cls-10" d="M197.28,144.74a10.57,10.57,0,0,0-2.18,4.71c-.08.52.65.75.81.22a12.32,12.32,0,0,1,3-4.67,22.69,22.69,0,0,0,2.79-2.83c.34-.54-.39-1-.83-.64A17.76,17.76,0,0,0,197.28,144.74Z"/><path class="cls-10" d="M204.2,150.65c1.09-1.77,2.45-3.34,3.63-5,.55-.8-.55-1.91-1.35-1.35a15.73,15.73,0,0,0-5.29,7.11C199.89,154.66,198.49,159.93,204.2,150.65Z"/><path class="cls-10" d="M212.73,163.81c.42.34,1-.19.61-.61-1.22-1.31-1.63-3.85-2-5.59-.46-2.27-.86-5.15-.16-7.38.07-.24-.28-.32-.37-.1a14.57,14.57,0,0,0-.55,7.77C210.64,159.83,211.12,162.52,212.73,163.81Z"/><path class="cls-10" d="M225,157.9a.71.71,0,0,0,.55-1.29,9.76,9.76,0,0,0-2.51-.92,8.84,8.84,0,0,1-3.69-2.73c-1.33-1.56-4.36-4.41-3.91-6.54,0-.14-.17-.24-.24-.1-1.34,2.72.7,5,2.28,7.12C219.43,156.15,221.83,157.12,225,157.9Z"/><path class="cls-10" d="M233.19,148.23a.27.27,0,0,0,0-.52c-2.06-.56-4.09-.48-6.12-1.33a14.33,14.33,0,0,1-5.85-4.65,1,1,0,0,0-1.72,1C222.23,147.87,227.71,149.72,233.19,148.23Z"/><path class="cls-10" d="M233.16,135.9c.43-.42-.12-1-.62-.8-5.29,2.65-10.34-.38-13.22-5.12a.27.27,0,0,0-.49.21C220.29,135.73,228.4,140.49,233.16,135.9Z"/><path class="cls-10" d="M235.95,123.14c.26-.58-.31-1.36-1-1-1.92,1.22-6.39,4.11-8.68,2.46-.41-.29-.84.33-.52.67C228.17,127.87,234.65,126,235.95,123.14Z"/><path class="cls-10" d="M70,143.06c.76-.65,1.85-.73,2.74-1.15a23,23,0,0,0,2.86-1.6A4.82,4.82,0,0,0,78,136.67c.07-.72-1-.82-1.22-.17-.53,1.83-2.1,3-3.57,4.08-1.17.86-2.69,1-3.75,2C69.1,142.86,69.62,143.36,70,143.06Z"/><path class="cls-10" d="M82.66,143.37c-.51,3.44-1.85,8.67-4.84,9.43-.34.09-.22.53.08.57,5.16.68,7-8.47,6.47-12a.56.56,0,0,0-.6-.51.94.94,0,0,0-1.38-.22c-3.47,2.73-7.55,8.62-12.69,7.32a.32.32,0,0,0-.25.58C74,151.86,79.65,147.45,82.66,143.37Z"/><path class="cls-10" d="M83.95,162c2.34.28,4.22-1.8,5.43-3.55a13.17,13.17,0,0,0,2.37-9.24.8.8,0,0,0-1.59,0,18.06,18.06,0,0,1-1.75,7.18c-.95,1.74-2.47,4.39-4.57,4.9C83.43,161.44,83.57,162,83.95,162Z"/><path class="cls-10" d="M97.75,155c-.42,3.49-3.59,8.86-6.89,10.35-.22.1-.05.4.15.36,4.08-.76,8.46-6.8,7.8-10.85C98.7,154.19,97.82,154.44,97.75,155Z"/><path class="cls-10" d="M108.22,160.69c-.35-3.31-1.87-5.33-3.71-7.9-.3-.42-1.07-.32-1,.28.09,1.93,1.67,3.8,2.17,5.7a13.54,13.54,0,0,1-.33,8.55.33.33,0,0,0,.48.37C108.08,166,108.51,163.41,108.22,160.69Z"/><path class="cls-10" d="M117.55,150.87a15.27,15.27,0,0,0-4.5-7.13.59.59,0,0,0-.83.83c2.75,3.3,4.66,7.21,3.05,11.43-.45-.71-.91-1.38-1.3-2a14.89,14.89,0,0,0-2.89-2.9,19.42,19.42,0,0,0-2.73-1.53c-.32-.2-.71.29-.41.53.72.58,1.54.84,2.25,1.5a11.16,11.16,0,0,1,2.59,3.65c.51,1.16,1.28,2.23,1.71,3.41s.72,2.29,1.23,3.43a.87.87,0,0,0,1.58-.21,7.39,7.39,0,0,0-1.08-4.29.89.89,0,0,0,.19-.13C118,155.92,118.07,152.9,117.55,150.87Z"/></g></g></g></svg>