<svg xmlns="http://www.w3.org/2000/svg" viewBox="0 0 300 300"><defs><style>.cls-1{isolation:isolate;}.cls-2{fill:#ccc;mix-blend-mode:multiply;}.cls-3,.cls-5{fill:#35a8e0;}.cls-4,.cls-5,.cls-6{fill-rule:evenodd;}.cls-6,.cls-7{fill:#fff;}</style></defs><title>Artboard 9</title><g class="cls-1"><g id="Layer_1" data-name="Layer 1"><ellipse class="cls-2" cx="152.65" cy="230.78" rx="91.13" ry="18.29"/><rect class="cls-3" x="89.05" y="112.03" width="121.62" height="112.24"/><path class="cls-4" d="M165.06,91.78c0,5.91-6.38,14.46-14.25,14.46s-14.25-8.56-14.25-14.46,6.38-10.7,14.25-10.7S165.06,85.87,165.06,91.78Z"/><g id="VMQt43"><path class="cls-4" d="M120.37,88.65a33.74,33.74,0,0,1,3.54.2c1.63.25,2.76,1.17,2.57,3a2.47,2.47,0,0,1-2.66,2.31c-5.65-.18-11,.09-14.84,5.3-.67.91-2.44.54-3.47-.55-1.18-1.24-.5-2.49.23-3.5C109.24,90.5,114.17,88.54,120.37,88.65Z"/><path class="cls-4" d="M122.33,103c0,2.71-.82,4.37-3.4,4.38-2.22,0-3.26-1.36-3.33-3.49-.08-2.33.82-4,3.38-4A3.09,3.09,0,0,1,122.33,103Z"/><path class="cls-4" d="M149.59,116.76c-1.88.17-3,1.15-3.13,3.07s.81,3.18,2.78,3.31a5.08,5.08,0,0,0,.64,0v-6.32Z"/><path class="cls-5" d="M149.57,108.17a3.09,3.09,0,0,0,0,6.18l.33,0v-6.15Z"/></g><g id="VMQt43-2" data-name="VMQt43"><path class="cls-5" d="M210.43,127.68c-.27-16.06.84-24.52-.64-40.56a32.7,32.7,0,0,0-1.47-7.59,6,6,0,0,1,.58-5.59,9.72,9.72,0,0,0-2.34-12.89c-3.94-3.05-9.71-3.27-13.18.47-2.54,2.73-4.59,2.44-7.67,1.66a142.72,142.72,0,0,0-35.83-4.44h0A142.72,142.72,0,0,0,114,63.18c-3.08.78-5.14,1.07-7.67-1.66-3.47-3.74-9.24-3.52-13.18-.47A9.72,9.72,0,0,0,90.8,73.94a6,6,0,0,1,.58,5.59,32.77,32.77,0,0,0-1.46,7.59c-1.47,16-.37,24.5-.64,40.56,0,1.74-.83,3.7.69,5.28,2.84-5.5,8.55-4.38,13-5,15.55-2.23,31.18,4.87,46.82,5h0c15.64-.12,31.28-7.23,46.82-5,4.49.65,10.2-.47,13,5C211.26,131.38,210.46,129.42,210.43,127.68Zm-91.5-20.25c-2.22,0-3.26-1.36-3.33-3.49-.08-2.33.82-4,3.38-4a3.09,3.09,0,0,1,3.34,3.1C122.35,105.75,121.51,107.42,118.94,107.42Zm7.54-15.6a2.47,2.47,0,0,1-2.66,2.31c-5.65-.18-11,.09-14.84,5.3-.67.91-2.44.54-3.47-.55-1.18-1.24-.5-2.49.23-3.5,3.5-4.88,8.44-6.84,14.63-6.72a33.74,33.74,0,0,1,3.54.2C125.54,89.11,126.67,90,126.48,91.82Zm24.09,33.41h-1.43a11.45,11.45,0,0,1,.57-22.89H150a11.45,11.45,0,0,1,.57,22.89Zm30.21-17.81c-2.57,0-3.41-1.67-3.4-4.38a3.09,3.09,0,0,1,3.34-3.1c2.56,0,3.46,1.65,3.38,4C184,106.07,183,107.43,180.78,107.42Zm13.43-8.54c-1,1.09-2.81,1.46-3.47.55-3.81-5.21-9.18-5.47-14.84-5.3a2.47,2.47,0,0,1-2.66-2.31c-.19-1.8.94-2.72,2.57-3a33.68,33.68,0,0,1,3.54-.2c6.2-.11,11.13,1.85,14.63,6.72C194.71,96.39,195.39,97.64,194.21,98.88Z"/><path class="cls-6" d="M150,102.35h-.29a11.45,11.45,0,0,0-.57,22.89h1.43a11.45,11.45,0,0,0-.57-22.89Zm.47,20.79a4.49,4.49,0,0,1-.6,0h0a4.49,4.49,0,0,1-.6,0c-2-.13-2.87-1.42-2.78-3.31s1.25-2.89,3.13-3.07l.25,0h0l.25,0c1.88.17,3,1.15,3.13,3.07S152.45,123,150.48,123.13Z"/><path class="cls-4" d="M179.35,88.65a33.68,33.68,0,0,0-3.54.2c-1.63.25-2.76,1.17-2.57,3a2.47,2.47,0,0,0,2.66,2.31c5.65-.18,11,.09,14.84,5.3.67.91,2.44.54,3.47-.55,1.18-1.24.5-2.49-.23-3.5C190.47,90.5,185.55,88.54,179.35,88.65Z"/><path class="cls-4" d="M177.38,103c0,2.71.82,4.37,3.4,4.38,2.22,0,3.26-1.36,3.33-3.49.08-2.33-.82-4-3.38-4A3.09,3.09,0,0,0,177.38,103Z"/><path class="cls-4" d="M150.13,116.76c1.88.17,3,1.15,3.13,3.07s-.81,3.18-2.78,3.31a5.08,5.08,0,0,1-.64,0v-6.32Z"/><path class="cls-5" d="M150.15,108.17a3.09,3.09,0,0,1,0,6.18l-.32,0v-6.15Z"/></g><g id="JJsqev"><path class="cls-5" d="M77.61,200.82c-2-2.1-3.69-3.37-4.75-5-6-9.45-14.6-8.69-22.78-4.65-8.38,4.13-10.82,11.42-8,20.86,6.72,22.63,21.42,31.83,43.59,25.37l1.67-.47L81.23,199Z"/><path class="cls-5" d="M155.69,217.21c-4.06,2.28-8.67,6.19-13.59,6.61-5.22.46-14.89-2.17-15.37-4.78-1.28-6.93-5.52-4.13,4.54-10.19a16.25,16.25,0,0,0,5.34-5L93.89,192.43,81.23,199l6.11,37.94a249.76,249.76,0,0,1,68.36-9.79Z"/></g><path class="cls-5" d="M44.58,219s-12.91-27.24,5.37-35,27.66,16.91,27.66,16.91Z"/><ellipse class="cls-7" cx="62.18" cy="212.47" rx="10.75" ry="11.99" transform="translate(-81.6 44.13) rotate(-24.19)"/><ellipse class="cls-7" cx="47.84" cy="199.59" rx="3.25" ry="3.63" transform="translate(-102.51 59.88) rotate(-33.62)"/><ellipse class="cls-7" cx="54.36" cy="193.21" rx="3.69" ry="4.11" transform="translate(-55.69 25.36) rotate(-17.54)"/><ellipse class="cls-7" cx="63.5" cy="192.46" rx="3.22" ry="3.59" transform="translate(-37.06 16.5) rotate(-11.49)"/><g id="JJsqev-2" data-name="JJsqev"><path class="cls-5" d="M226,200.82c2-2.1,3.69-3.37,4.75-5,6-9.45,14.6-8.69,22.78-4.65,8.38,4.13,10.82,11.42,8,20.86-6.72,22.63-21.42,31.83-43.59,25.37l-1.67-.47L222.41,199Z"/><path class="cls-5" d="M147.95,217.21c4.06,2.28,8.67,6.19,13.59,6.61,5.22.46,14.89-2.17,15.37-4.78,1.28-6.93,5.52-4.13-4.54-10.19a16.25,16.25,0,0,1-5.34-5l42.73-11.43L222.41,199l-6.11,37.94a249.76,249.76,0,0,0-68.36-9.79Z"/></g><path class="cls-5" d="M259.06,219s12.91-27.24-5.37-35S226,200.82,226,200.82Z"/><ellipse class="cls-7" cx="241.46" cy="212.47" rx="11.99" ry="10.75" transform="translate(-51.29 345.67) rotate(-65.81)"/><ellipse class="cls-7" cx="255.8" cy="199.59" rx="3.63" ry="3.25" transform="translate(-52.04 302.08) rotate(-56.38)"/><ellipse class="cls-7" cx="249.28" cy="193.21" rx="4.11" ry="3.69" transform="translate(-10.06 372.69) rotate(-72.46)"/><ellipse class="cls-7" cx="240.14" cy="192.46" rx="3.59" ry="3.22" transform="translate(3.71 389.45) rotate(-78.51)"/><path class="cls-4" d="M149.57,108.17h.58a3.09,3.09,0,0,1,0,6.18l-.29,0h0l-.29,0a3.09,3.09,0,0,1,0-6.18Z"/><path class="cls-4" d="M102.85,67c-.39,1-1.69,1.8-2.49,2.39a15.47,15.47,0,0,1-4,2.32c-1.93.7-2.69-1.79-2.47-3.33a5.13,5.13,0,0,1,5.16-4.77c1.45,0,3.42.75,3.82,2.33A1.7,1.7,0,0,1,102.85,67Z"/><path class="cls-4" d="M196.87,67.08c.15.69.68.94,1.34,1.45a19.44,19.44,0,0,0,5.11,3.2c1.93.7,2.69-1.79,2.47-3.33a5.13,5.13,0,0,0-5.16-4.77,4.13,4.13,0,0,0-2.82.95,2.65,2.65,0,0,0-1,2A2.11,2.11,0,0,0,196.87,67.08Z"/><path class="cls-3" d="M196.65,119.08c6.88,3.6,15.63,1.56,21.9-3,7.37-5.37,11.41-13.44,16.89-20.46l5.5,4.33,9.46-4.14,4.32,9.3,4.76.51c-.78,5.06-1.33,9.81-3.38,14.51a70.76,70.76,0,0,1-4.62,8.91,48.17,48.17,0,0,1-13.56,14.49c-13,8.9-29.53,10.34-44.8,9.61C188,143.35,188.27,126.24,196.65,119.08Z"/><ellipse class="cls-7" cx="151.09" cy="179.75" rx="47.16" ry="44.23" transform="translate(-36.07 321.56) rotate(-87.1)"/><path class="cls-5" d="M190.73,158.56s-5.27-7.2-10.9-8.09c0,0,18.32,15.09,15.46,37.55l5.65-19.76Z"/><path class="cls-5" d="M149.57,204.12h.58a3.09,3.09,0,0,1,0,6.18l-.29,0h0l-.29,0a3.09,3.09,0,0,1,0-6.18Z"/><ellipse class="cls-7" cx="252.43" cy="113.79" rx="3.63" ry="3.25" transform="matrix(0.55, -0.83, 0.83, 0.55, 17.9, 260.98)"/><ellipse class="cls-7" cx="245.91" cy="107.41" rx="4.11" ry="3.69" transform="translate(69.4 309.54) rotate(-72.46)"/><ellipse class="cls-7" cx="236.77" cy="106.66" rx="3.59" ry="3.22" transform="translate(85.09 317.44) rotate(-78.51)"/><path class="cls-3" d="M96.5,133a33.28,33.28,0,0,0-.32,6.21c.54,5.53,4.22,10.9,8.32,14.44,5.24,4.52,11.26,6.62,17.53,9.2.84.35,8.53,4,8.31,4.2-1,1.18-1.74,2.57-2.94,3.58,1.12,1.47,3.75,3.82,3.81,5.78,0,.77-5.2,5.73-4.94,6l3,2.92c-7.68,6.56-15.91,7.11-25.2,4.69-9-2.34-17.5-6.53-24-13.25-9.34-9.65-16.84-22-13.76-35.89C69,128.63,79,119.12,91,116.13,93.48,121.56,97.07,126.86,96.5,133Z"/><rect class="cls-7" x="184.03" y="182.4" width="2.8" height="21.72"/></g></g></svg>