<svg xmlns="http://www.w3.org/2000/svg" viewBox="0 0 300 300"><defs><style>.cls-1{isolation:isolate;}.cls-2{fill:#ccc;mix-blend-mode:multiply;}.cls-3,.cls-9{fill:#662482;}.cls-4{fill:#e5332a;}.cls-5{fill:#7f519b;}.cls-6{fill:#fff7e6;}.cls-7{fill:#f8b133;}.cls-8,.cls-9{fill-rule:evenodd;}</style></defs><title>Artboard 3</title><g class="cls-1"><g id="Layer_1" data-name="Layer 1"><path class="cls-2" d="M69.23,232.23a9.18,9.18,0,0,0,1,2.32c2.1,3.49,9.89,3.09,13.81,3.94l14.85,3.22c11.15,2.42,53.84,15.4,65,17.82,12,2.61,40.32,15.22,49.43,2.28,6.29-8.93,10.65-20.52,15.74-30.28,3.47-6.65,22.75-37.22,21-45.25-1.95-9-18.82-8.83-25.92-10-22.07-3.76-75.69-18.1-97.76-21.86l-11.4-1.94c-4.91,7.21-20.66,34.88-25.57,42.09-4.1,6-8,12.27-12.33,18.12-3.75,5-9.39,9.22-8.41,16.28A25.79,25.79,0,0,0,69.23,232.23Z"/><path class="cls-3" d="M143,25.33l-4.12-1.75S136,43,138,45s49,187,49,187l13.67,10.33L199,204,165,54Z"/><path class="cls-3" d="M138.88,23.58c5.23.25,10.07,8.23,13.36,11.71,1.88,0,8.34,8.74,9.76,10.32,3.14,3.5,6.42,6.68,9.9,9.88l22.54,20.79-2.5,1.07c2.33,2.48,4.72,4.9,7.05,7.37,5.08,5.37,9.9,11.48,15.47,16.25,5.89,5,12,9.83,18,14.74a6.18,6.18,0,0,1,1.72,1.85A2.11,2.11,0,0,1,234,120a1.3,1.3,0,0,1-2.09-.33c5.63,5.41,10.67,11.25,16,16.94,2,2.16,5.55,4.71,6.94,7.35,3,5.73-2.48,13-5.74,17.37a30.23,30.23,0,0,0-4.44,8.79c-.7,2-2.35,10.48-4,11.42a2.25,2.25,0,0,1-3.14-1.47l-11.12,24.82c-.36.79-.8,1.67-1.63,1.93s-1.89-.73-1.35-1.41c-3.67,7.38-7.2,14.76-11.18,22-1.45,2.62-2.79,5.35-4.36,7.9a26.75,26.75,0,0,1-3.93,5.42c-1.72,1.61-4.42,1.34-5.89,2.52,1.86-4.75-1.3-17.3-2.77-22.47L173.2,142.91,149.47,59.56C146.11,47.74,143.87,34.72,138.88,23.58Z"/><path class="cls-4" d="M90.25,61.14c-.15-3.61,1.45-7.47,2.29-10.81.54-2.14,3.42-8.53,1.88-10.4a2.24,2.24,0,0,0-2.66-.56c-1.5.76-1.54,4.17-1.93,5.71L88.52,50.3c-.38,1.49-.48,5.11-2.27,4-1.63-1-2.16-4.07-2.95-5.67S81.3,42.71,79,43a2,2,0,0,0-1.61,1.64c-.26,1.71,1.85,4.63,2.57,6.1l3.66,7.49,2,4c.3.6,1.67,2.12,1.55,2.72-.27,1.33-3.51,1.27-4.51,1.25L75.54,66c-2,0-10.67-1.65-10.79,1.52-.14,3.56,9.39,2.36,11.48,2.41l7.59.17c2.18.05,5,.06,6.58,1.9,1.25,1.47,2,4,2.83,5.78,2.36,4.83,4.44,9.68,6.48,14.65a5.46,5.46,0,0,0,2.38-4.09c.17-2.39-1.73-4.88-2.75-7L94.82,72.2a91.75,91.75,0,0,1-4-8.25A9.21,9.21,0,0,1,90.25,61.14Z"/><path class="cls-5" d="M24.51,206.13c-1.68-4.49,4.27-11.65,6.54-15a128.57,128.57,0,0,0,11.27-20.86l-2.85.62,15.28-21.75-2.89-1.29a176.39,176.39,0,0,0,29.08-38l-3.59-.4a214.74,214.74,0,0,0,30.79-42.9l-2.88-1,6.47-5-3-.28c3.28.32,11.34-10.92,13.16-13.33,3.93-5.22,7-11.26,10.49-16.82,1.13-1.79,2.54-6.77,5.07-6.76,3.62,0,7.44,20.28,8.41,23.67,5.75,20.2,11.82,39.83,18.91,59.61a50.28,50.28,0,0,0,8.37,24.19l-3.45-.9c.6,3,1.41,5.79,2.24,8.7,2.45,8.62,4.41,17.25,7.55,25.6l10.19,27.09-2.52-1.11c1.66,14.27,10.14,27.89,11.64,42.81.72,7.12,2.37,11-6,10.34-4.63-.39-9-1.88-13.55-2.81-11.73-2.43-23.1-5.9-34.86-8.27l1.82,2.48c-1-1.32-7.69-1.89-9.41-2.31l-10.19-2.5c-6.7-1.65-13.35-3.25-20.11-4.46-14.37-2.58-28.64-5.93-42.94-8.89l-24.41-5.06c-3.39-.7-6.91-1.21-10.26-2.09C26.41,208.76,25.06,207.59,24.51,206.13Z"/><circle class="cls-3" cx="112.53" cy="92.16" r="1.54"/><circle class="cls-3" cx="114.99" cy="86.38" r="1.12"/><circle class="cls-3" cx="126.12" cy="91.1" r="1.53"/><circle class="cls-3" cx="151.3" cy="175.93" r="1.54" transform="translate(-80.18 192.1) rotate(-53.3)"/><circle class="cls-3" cx="156.72" cy="172.77" r="1.12" transform="translate(-75.46 195.17) rotate(-53.3)"/><circle class="cls-3" cx="162.83" cy="183.2" r="1.53" transform="translate(-81.37 204.27) rotate(-53.3)"/><circle class="cls-3" cx="69.88" cy="153.96" r="2.26"/><circle class="cls-3" cx="74.07" cy="164.19" r="1.54"/><circle class="cls-3" cx="161.53" cy="165.73" r="1.54"/><circle class="cls-3" cx="107.24" cy="164.85" r="1.15"/><circle class="cls-3" cx="116.12" cy="170.51" r="1.15"/><path class="cls-6" d="M158.75,141.63c-.59-2-2.15-3.77-4.23-5.56a62.08,62.08,0,0,0-16.69-10.39,22,22,0,0,1-3.42,32.27c7.48-1.32,18.39-2.77,22.94-9.72C159,145.71,159.33,143.57,158.75,141.63Z"/><path class="cls-6" d="M99.42,137.45a22,22,0,0,1,9.65-15.54c-8.47,1-25.12,3-26.57,13.8-.85,6.27,4,9.78,8.52,12.89a62.16,62.16,0,0,0,7.71,4.51c1.86.91,5.84,1.59,7.25,3A22,22,0,0,1,99.42,137.45Z"/><path class="cls-7" d="M143.17,143a22,22,0,0,0-5.34-17.35,55.36,55.36,0,0,0-8.88-2.82c2.06,3.77,2.89,10.83,1.88,18.71-1,7.63-3.42,14.08-6.24,17.32a62.86,62.86,0,0,0,9.82-.95A22,22,0,0,0,143.17,143Z"/><path class="cls-7" d="M117.1,158.52c-2.17-3.69-3.07-10.89-2-19,0-.12,0-.25.05-.37h0a6,6,0,1,1,3-11.53,19.07,19.07,0,0,1,3.65-5.93,60.92,60.92,0,0,0-12.69.18A22,22,0,0,0,106,156.07,55.38,55.38,0,0,0,117.1,158.52Z"/><path d="M124.59,158.89c2.82-3.24,5.27-9.69,6.24-17.32,1-7.88.17-14.94-1.88-18.71a55.77,55.77,0,0,0-7.19-1.13,19.07,19.07,0,0,0-3.65,5.93,6,6,0,0,1-3,11.53c0,.12,0,.25-.05.37-1,8.07-.13,15.27,2,19"/><path class="cls-6" d="M118.11,127.66a6,6,0,1,0-3,11.53h0a6,6,0,0,0,3-11.53Z"/><path class="cls-6" d="M124.21,139.5a3.38,3.38,0,1,0-1.69,6.48h0a3.37,3.37,0,0,0,1.69-6.48Z"/><path class="cls-3" d="M92.37,116a41.58,41.58,0,0,1,15.13-7.46,49.5,49.5,0,0,1,17-1.66,41,41,0,0,1,16.69,4.85,31.88,31.88,0,0,1,12.41,11.73.55.55,0,0,1-.69.78h0a101.9,101.9,0,0,0-14.61-5.59,66.69,66.69,0,0,0-7.22-1.65,70.54,70.54,0,0,0-7.32-1,112.42,112.42,0,0,0-15.1-.2c-5.15.22-10.39.69-15.89,1.16h0a.56.56,0,0,1-.4-1Z"/><path class="cls-8" d="M107.09,184.1a.4.4,0,0,1-.05-.1c-.41-1.1,1.92-3.89,2.77-4.55a7,7,0,0,1,5.1-1.22,7.46,7.46,0,0,1,5,2.3c.89,1.05,2,3.86,1.44,5.21-.9,2.13-6.3.34-7.92.08S108.11,185.49,107.09,184.1Z"/><path class="cls-9" d="M117,192.15c-1.64.87-1.4,2.7.42,2.95s4-.68,5.47-1.58c1.17-.72,4-3,1.69-4.35-.84-.48-1.88,0-2.74.42Z"/><path class="cls-4" d="M223.73,75.9a5.68,5.68,0,0,0,1.77-.56,2.4,2.4,0,0,0,1.26-2.76,2.47,2.47,0,0,0-2-1.43c-3.53-.48-7.79.15-11.41.14-1.79,0-6.27.48-6.1-1.67.1-1.3,2.37-3.36,3.37-4.09a7.94,7.94,0,0,0,2.86-2.91c.55-1.26.09-3.07-1.24-3.41s-2.34.71-3.19,1.64-11.83,14.39-12.9,12.67c-.25-.4.25-1.19.25-1.62,0-1.26.05-2.52.08-3.78l.18-9,.23-11.5H197c-.13-1.69-.93-4-3.16-3.33s-1.59,3.45-1.62,5.15l-.48,24.31c-.09,4.55-.72,7.62-3.3,11.62a80.56,80.56,0,0,1-8,9.9c-1.44,1.6-7.11,5.55-4.41,8,3.46,3.09,11-9,12.72-11.16L196,83.24c2-2.39,3.67-5.91,6.76-7.08,2.29-.86,5.58-.31,8-.3h6C218.67,75.87,221.51,76.26,223.73,75.9Z"/><path class="cls-5" d="M179.28,116.94a11.09,11.09,0,0,1-3.54-4.8,8.61,8.61,0,0,0,2,1.63,2.91,2.91,0,0,0,2.5.2,4.35,4.35,0,0,0,1.85-2.31c-.44.94.39,3.28.39,4.34s-.13,2.27-.11,3.43C181.36,118.61,180.29,117.81,179.28,116.94Z"/><path class="cls-5" d="M196.62,119c-.83,1-1.88,2.92-3.07,3-.85,0-1.83-1.1-2.72-1.15.52,2.14,3.64,5.15,5.12,6.66a38.78,38.78,0,0,0,.37-4.38C196.37,122.24,196.12,119.59,196.62,119Z"/><path class="cls-5" d="M172.71,81.6l.1-6.41-1.46,2.2c-1.76-1-4-2.73-5.89-3.13C167,77.07,170.43,79.42,172.71,81.6Z"/><path class="cls-5" d="M197.59,165.17,198,157l3.12,1-.48-8-1.52,5.19-3.52-1.43c0,2.06.11,4.2-.11,6.24a9.2,9.2,0,0,0-1.6-.64C193.91,161.34,196.51,163.74,197.59,165.17Z"/><path class="cls-5" d="M232.81,152.49l-1.23-8.2-2.3,5.46-5-1.2c.33,1.3,1.58,1.78,2.73,2.31A47.26,47.26,0,0,0,232.81,152.49Z"/><path class="cls-3" d="M116.14,189.37l.6-.23a4.53,4.53,0,0,0,2.95-2.5,8.89,8.89,0,0,0-5.94,1.19c-3.87,2-8,3.23-11,6.57-3.31,3.72-5,8.64-5.64,13.58-.23,1.82-1.41,14.59.55,15.1,2.86.74,3.94-7.83,4.24-9.15a50,50,0,0,1,5.25-13.45c1.08-1.91,2.22-3.79,3.44-5.62.78-1.18,1.62-2.3,2.47-3.42A6.32,6.32,0,0,1,116.14,189.37Z"/><path class="cls-4" d="M92,198.67c-3.07,7.5-3.44,15.8-3.77,23.9l-1,24.71c-.07,1.75-.08,3.69,1.06,5,1.5,1.75,4.44,1.58,6.26.16s2.73-3.69,3.32-5.92c4.07-15.27-3-32.69,4.13-46.79,1.92-3.81,5-7.23,9-8.59,1.71-.58,3.57-.78,5.14-1.7,1-.59,2.83-3,2-4.28-1-1.61-5.27.29-7,.37.36-.42.43-.91,1-1.32-.27-.56-.74-.69-1.36-.91a9.08,9.08,0,0,0-4.32.25,16.46,16.46,0,0,0-6.25,3.71A31.59,31.59,0,0,0,92,198.67Z"/><path class="cls-6" d="M92.07,217.34a1.27,1.27,0,0,0-.44-1,.87.87,0,0,0-1.11.37,2.54,2.54,0,0,0-.29,1.25c-.08,1.42-1.55,11.89.54,12S92.19,218.75,92.07,217.34Z"/><path class="cls-6" d="M90.88,212.9c-.74,1.18.82,2.67,1.84,1.49A1.19,1.19,0,1,0,90.88,212.9Z"/></g></g></svg>