<svg id="Layer_1" data-name="Layer 1" xmlns="http://www.w3.org/2000/svg" viewBox="0 0 300 300"><defs><style>.cls-1{fill:#7c1623;}.cls-14,.cls-2{fill:#a366a6;}.cls-15,.cls-3{fill:#bc94c3;}.cls-4{fill:none;}.cls-5{fill:#fff;}.cls-6{fill:#28416b;}.cls-7{fill:#e5007e;}.cls-8{fill:#a3897a;}.cls-9{fill:#f8b133;}.cls-10{fill:#b9e0ee;}.cls-11,.cls-13{fill:#914b96;}.cls-12{fill:#5576b8;}.cls-13,.cls-14,.cls-15{fill-rule:evenodd;}</style></defs><title>Artboard 10</title><circle class="cls-1" cx="150.73" cy="149.92" r="147.1"/><path class="cls-2" d="M110,151.61c-.61-10.18-3.17-20.14-4.65-30.23s-2.58-19.18,1.14-28.69c1.21-3.1,3.7-7.64,6.43-9.54s6.65-2.36,9.33-.4c3.52,2.58,3.47,7.72,4.7,11.91,2.22,7.53,9.08,12.55,14.42,18.31,8,8.67,13.05,19.79,16.06,31.23s4.12,23.27,5.22,35c.35,3.69.69,7.45,0,11.09s-2.64,7.22-5.87,9c-5.2,3-11.72.6-17.12-2-5.85-2.8-11.61-5.84-17.79-7.8-6.36-2-12.56-.69-19-1.47-.3-.87-1-2.59-.53-3.47a3.08,3.08,0,0,1,3.08-1.43c1.69.16,3.59,1.2,4.93.15,1.15-.9.93-2.76.12-4s-2-2.11-2.82-3.35c-1.78-2.84-.7-6.55.7-9.6C110.92,160.81,110.33,157.49,110,151.61Z"/><path class="cls-2" d="M52.43,141.47a42.93,42.93,0,0,0,24.12,23.43c6.5,2.47,13.49,3.3,20.12,5.38s13.24,5.79,16.33,12l4.54-28c.47-2.92.93-6-.13-8.77-1.84-4.77-7.43-6.82-12.48-7.65s-10.33-1-15.41-2.09-10.16-3.06-13.67-6.88a17.47,17.47,0,0,1-1.56-20.94c-1.24,1.84-9,.77-10.73.56a26.54,26.54,0,0,1-11.73-4.34C46.65,115.35,47.78,130.22,52.43,141.47Z"/><path d="M241.15,221.61a11.88,11.88,0,0,0-2.11-2.17C216.81,201,179,203.15,151.94,203.15c-50.34,0-91.14,7.64-91.15,17.07,0,3.61,5.76,6.58,8.67,7.28,5.91,1.43,10.47.21,16.21,4,4.2,2.8,8.16,6.25,13.05,7.49,6.44,1.64,13.11-.86,19.7-1.64,7.81-.92,15.68.59,23.51,1.32,10.54,1,21-1.47,31.52-1.89a324.13,324.13,0,0,0,35.81-3.32c8.78-1.34,18.25-1.07,26.74-3.54,2.88-.84,6.16-2.67,6.12-5.67A4.73,4.73,0,0,0,241.15,221.61Z"/><ellipse cx="197.12" cy="242.02" rx="28.17" ry="8.54"/><ellipse cx="173.35" cy="255.85" rx="9.75" ry="4.27"/><path class="cls-2" d="M207.95,149.59c-.86-19.11.37-38.82-6.2-56.78a15.45,15.45,0,0,0-3.22-5.74,6.17,6.17,0,0,0-6-1.84c-2.41.77-3.73,3.29-4.8,5.57l-13.15,28c-2.69,5.72-5.4,11.51-6.59,17.72-1.88,9.87.24,20,.79,30,.68,12.35-.78,25.75,6,36.09a17,17,0,0,0,5.68,5.61,25.12,25.12,0,0,0,5.59,2.06l12.84,3.61c3,.84,6.33,1.63,9,.08s3.63-4.83,4.38-7.81q2.23-8.84,4.45-17.69c1.54-6.06.58-6.56-2.47-11.73C209.56,168.86,207.95,158.62,207.95,149.59Z"/><path class="cls-2" d="M167.23,123.74l-.89.42q-1.18.37-2.37.63a36.6,36.6,0,0,1-6.4.81c-1.09,0-2.16,0-3.19,0s-3.36,32.94-6.66,9.18c-.41-2.92-1.88-10.14-3.22-10.45l-.47-.11c-13.75-3.41-27.21-15.36-40-21.2,3-27.77,23.56-49.26,50.38-49.26,27,0,47.7,21.83,50.45,49.91-8.51,4.54-.17,23.72-9,27.66-1.08.49-18.92-13.58-19.94-13-.84.48-1.63,1-2.43,1.59A62.59,62.59,0,0,1,167.23,123.74Z"/><path d="M141.09,93.1a3.66,3.66,0,0,0-1.73-.41,2.92,2.92,0,0,0-3.16,2.93v11h0c.16,2.06,1,3.3,3.18,3.3s3.08-1.28,3.14-3.3v-11h0A3,3,0,0,0,141.09,93.1Z"/><path d="M162.14,93.1a3.66,3.66,0,0,0-1.73-.41,2.92,2.92,0,0,0-3.16,2.93v11h0c.16,2.06,1,3.3,3.18,3.3s3.08-1.28,3.14-3.3v-11h0A3,3,0,0,0,162.14,93.1Z"/><path class="cls-3" d="M150.08,64a20,20,0,0,0-9.3.48,40.7,40.7,0,0,0-9.32,3.91,32.14,32.14,0,0,0-4.11,3,49.17,49.17,0,0,0-10.5,12.72c-2.78,4.69-5.44,8.12-5.43,14a3.84,3.84,0,0,0,.39,2,1.5,1.5,0,0,0,1.73.73,2.24,2.24,0,0,0,1-1.12c1.93-3.56,3.46-7.61,6-10.75l.5-.61a51.5,51.5,0,0,1,3.43-3.87c.66-.67,1.33-1.32,2.06-1.94a15.72,15.72,0,0,1,8.34-3.88A7,7,0,0,0,139.62,76c1.11-1.41,1.9-3.41,3.25-4.56a8.71,8.71,0,0,1,3.23-1.74c.24-.07.48-.14.72-.19l.29-.05a13.57,13.57,0,0,0,4-.93C154.26,66.91,152.33,64.37,150.08,64Z"/><path class="cls-4" d="M75.12,194.23h0l.13.13,0-.06Z"/><path class="cls-5" d="M48.46,205.3a.63.63,0,0,1-.53-.29l-1.4-2.25a.62.62,0,0,1,1.06-.66l1.4,2.25a.62.62,0,0,1-.53,1Z"/><polygon class="cls-2" points="105.38 103.92 132.49 116.71 132.5 116.71 105.38 103.91 105.38 103.92"/><polygon class="cls-5" points="76.36 101.26 72.56 104.85 77.31 106.31 76.36 101.26"/><polygon class="cls-5" points="68.69 108.5 64.89 112.09 69.64 113.56 68.69 108.5"/><path class="cls-2" d="M125.45,218.46c2.79-.34,6-1,7.3-3.47,2.64-5.71-5-11.06-7.92-14.9-4-5.32-5.33-13.36-7.39-19.69a13,13,0,0,0-2.14-4.49,4.42,4.42,0,0,0-4.44-1.64c-1.61.49-2.56,2.09-3.47,3.51a34,34,0,0,1-33.91,14.68c0,3.12-.82,7.05-.12,10.07,1.14,4.91,6.18,7.7,10.72,9.88,5.18,2.49,3.15,9.75,8.89,9.62C104,221.78,118.12,219.34,125.45,218.46Z"/><path d="M114,157.62a42.81,42.81,0,0,0-9.76-1.69c-2.28,2.41-3.56,4.36,1.37,6.82-1.49.75-2.13,2.35-3.14,3.58C107.81,165.73,113.16,162.43,114,157.62Z"/><path class="cls-6" d="M105.66,162.75c-4.93-2.46-3.64-4.41-1.37-6.82A15.25,15.25,0,0,0,94.46,159l-.74.47-.29,1,.06,1.29-8.89,1.49a5,5,0,0,1-2.12.13c.07.44-.23,1.1.53,1.17a5.25,5.25,0,0,0,1.41-.18c2.85-.55,5.7-1.09,8.54-1.67.71-.14,1,.08.82.78l.66,1.11.5.32a11.66,11.66,0,0,0,7.57,1.44C103.53,165.09,104.17,163.49,105.66,162.75Z"/><path class="cls-7" d="M83.47,167.68a264.74,264.74,0,0,1-66.37,7.63c-.44-.27-.54-1.38-.06-1.58A170.07,170.07,0,0,1,81,160.47,8.41,8.41,0,0,1,83.47,167.68Z"/><path class="cls-8" d="M95.3,165.25c-4.12,1-8.51,1.72-12.63,2.73A11.86,11.86,0,0,1,81,160.56l12.75-1C93.33,161.39,94.23,163.72,95.3,165.25Z"/><path class="cls-6" d="M129.29,140.61a23.8,23.8,0,0,0-1.27,2.47,18.83,18.83,0,0,0-1.17,10.17c0,.29.07.58.11.87l.74.67,1.19.5c-.85,2.93-1.68,5.8-2.52,8.66a5,5,0,0,1-.81,2c.43.12.89.69,1.28,0a5.24,5.24,0,0,0,.45-1.35c.74-2.8,1.49-5.61,2.21-8.42.18-.7.49-.83,1.06-.41l1.29-.12.51-.31a18.25,18.25,0,0,0,4.12-5.89C133.35,148.6,131.62,143.85,129.29,140.61Z"/><path d="M136,137.93a28.83,28.83,0,0,0-4.79-3.17c.13,2.31-.86,4.06-1.87,5.85,2.32,3.24,4.06,8,7.17,8.87a15.2,15.2,0,0,0,1.29-6.19A8.37,8.37,0,0,0,136,137.93Z"/><path class="cls-9" d="M129.87,166.92a264.74,264.74,0,0,1-22,63.1c-.43.28-1.47-.11-1.45-.63a170.07,170.07,0,0,1,15.82-63.34A8.41,8.41,0,0,1,129.87,166.92Z"/><path class="cls-8" d="M132.82,155.21c-.88,4.14-2.14,8.41-3,12.56a11.86,11.86,0,0,1-7.43-1.67L127,154.18C128.49,155.31,131,155.51,132.82,155.21Z"/><path class="cls-2" d="M61.63,196.28a16.74,16.74,0,0,0,6.56-5c3.3-3.37,9.08-14.58,10-26,.19-2.35-.33-10-3.17-12.62a3.12,3.12,0,0,0-1.91-.9c-2.81-.2-6,5.09-7.5,6.9l-.31.35c-2.86,3.3-6.27,5.69-9.84,8.2C37.2,180,33.94,193.65,36.88,203.91c4.26,14,15.54,19.68,29.88,20.16,10.19.34,22.23-1.53,34.32-3.13l-27.78-30C67.92,197.16,61.63,196.28,61.63,196.28Z"/><path class="cls-3" d="M46.79,207.25c-1.08.36-2-.68-2.56-1.5a12.78,12.78,0,0,1-2-5.38,24.82,24.82,0,0,1,2.37-13.7c2.5-5.16,6.87-9.22,11.51-12.73l.85-.64,1.17-.85c1.23-.89,2.47-1.74,3.68-2.57l0,0c.9-.61,3.79-3.18,3.88-.84.08,2.15-1.63,3.92-3.11,5.71a10.24,10.24,0,0,0-1.77,2.77c0,.09-.08.19-.11.28a3.83,3.83,0,0,0-.14.93c-.07,1.45.51,2.94.08,4.39a8.32,8.32,0,0,1-3,3.77c-1.88,1.5-4.7,2.82-5.88,5a26.06,26.06,0,0,0-2.45,7.37c-.05.35-.12.69-.18,1-.19,1.09-.41,2.17-.6,3.27S48.18,206.79,46.79,207.25Z"/><line class="cls-10" x1="133.39" y1="159.21" x2="117.06" y2="208.54"/><line class="cls-10" x1="116.46" y1="210.37" x2="115.67" y2="212.89"/><path class="cls-11" d="M103.07,201.52c1.48,2.57,4.73,3.4,7.63,4L122.42,208a2.87,2.87,0,0,0,2.14-.11c.91-.59.85-1.94.56-3a14.8,14.8,0,0,0-8.3-9.52C112.8,193.62,98.44,193.5,103.07,201.52Z"/><path class="cls-2" d="M274.56,188.12c-1.78-2.2-12.49,0-15.72-.79-5.17-1.2-10.13-4.51-14.08-8a19.69,19.69,0,0,0-4.94-3.17c-5.13-2.34-11.33-2.71-16.23-.44-4.47,2.07-8.68,4.9-11.78,13.58l0,0c-.12.33-.24.67-.35,1q-.32,1-.63,2.07a79.35,79.35,0,0,0-2,9.24l0,.24-2.46-4.06-10.2,5.71-18.25-2.86c2,1.53,1.65,10.74,17.95,20.39,15.81,9.37,36.63,6.3,47-13.46.17-.32.31-.63.46-.94,8.71,1,18.87-.83,24.85-5.6C270.37,199.31,277.42,191.64,274.56,188.12Zm-65.65,13.76v0h0Z"/><path class="cls-11" d="M131.74,223.74c4.53,3,10.08,4.06,15.49,4.57,10.2,1,20.88.19,30.67-8.95-10.55,3.31-26.7,2.39-34.27-5.67-3.1-3.3-5.4-7.27-8.15-10.88s-4.36-7.45-8.59-8.31c-2.54-.52-5.46,1.11-8.05,1.35-.74.07-6,1.73-6.19,1.59C121.15,204.36,122.06,217.33,131.74,223.74Z"/><path class="cls-2" d="M103.16,190.12c-1.71,2.4-2.93,5.83-1.11,8.16,2.32,3,7,1.45,10.44-.13,6-2.75,13.62-4.63,18.69-.43a21.18,21.18,0,0,1,4.27,5.7c6,10.06,14.87,20.1,26.57,20.9,6.78.46,14.36-2.43,18.64-7.7,5.71-7,5.7-16.9,5.87-26q.44-22.55-1-45.08c-.46-7.37,2.34-30.8-9.32-28.79-5.53,1-11.08,2.19-16.07,4.74s-9.43,6.56-11.51,11.76c-2.68,6.71-1.16,14.28.4,21.35,1.52,6.88,12,37.38-3.71,37-5.84-.15-9.69-5.51-14-8.67C122.63,176.56,109,182,103.16,190.12Z"/><path class="cls-3" d="M238.53,179.45l-.16-.17A5.34,5.34,0,0,0,235.8,178c-.33-.08-.67-.14-1-.19-6.56-1-14.12,1.79-17.06,8.07-.11.24-.22.51-.32.77l-.09.21a17.62,17.62,0,0,0-1.09,4,5.8,5.8,0,0,0,.09,2.15,2,2,0,0,0,1.68,1.67,2.81,2.81,0,0,0,.51,0,2.84,2.84,0,0,0,2.09-1l4.62-5.49a10,10,0,0,1,4.58-3c1.88-.7,4-.51,5.94-.84a7.61,7.61,0,0,0,1.71-.47A2.94,2.94,0,0,0,238.53,179.45Z"/><path class="cls-11" d="M207.49,129.7a7,7,0,0,1-.08-1.28,6.51,6.51,0,0,1-.07-1.43c-.27-2.15-.52-4.3-.68-6.46,0-.11,0-.2,0-.3-2.71,2.44-5.33,5.36-8.2,7.56s-6,3.66-8.6,6.34a59.65,59.65,0,0,0-10.72,14.94c5.26-.81,10-3.46,14.22-6.58,2.1-1.55,4-3.5,6.12-5,1.54-1.07,3.47-1.59,5.14-2.51.54-.3,1-.56,1.32-.78s.25-.18.21-.18l.52-.44,1.15-1h0C207.68,131.64,207.64,130.63,207.49,129.7Z"/><path d="M179.89,133a17,17,0,0,0-3.43,5.13c-1,2.26-1.6,4.68-2.86,6.9,2.78-1,5.72-1.21,8.46-2.18a16.12,16.12,0,0,0,8-5.95C188.3,134.21,184,133.73,179.89,133Z"/><path class="cls-6" d="M199.36,122.07a5,5,0,0,1-1.48,1.52l-6.93,5.77-.94-.89-.91-.41-.84.25a18,18,0,0,0-8.36,4.68c4.1.73,8.4,1.22,10.18,3.9a18.83,18.83,0,0,0,2.31-4.39l.08-.59-.41-1.22c-.62-.35-.62-.69-.05-1.13,2.29-1.78,4.56-3.58,6.84-5.38a5.26,5.26,0,0,0,1.05-1C200.34,122.61,199.64,122.41,199.36,122.07Z"/><path class="cls-12" d="M202,125.64a264.74,264.74,0,0,0,49.09-45.31c.09-.51-.69-1.31-1.15-1.08A170.07,170.07,0,0,0,198.17,119,8.41,8.41,0,0,0,202,125.64Z"/><path class="cls-8" d="M192.43,133c3.45-2.46,6.86-5.32,10.3-7.79a11.86,11.86,0,0,0-4.5-6.14l-9.07,9C190.79,129,192,131.21,192.43,133Z"/><path class="cls-2" d="M222.06,130.44l0,8.16h.1c5,.39,8.81.24,12.69-3.71s4.88-6.1,3.86-11.52c-.88-4.68-3.42-7.75-5.91-11.62-3.51-5.45-2.38-13.23-3-17.71-.4-3.11-.05-11.56-5.11-7.5A23.65,23.65,0,0,0,222.12,89,30.07,30.07,0,0,0,216,98.93c-2.79,8.6-1.41,21.28,3.62,28.92A9.55,9.55,0,0,0,222.06,130.44Z"/><path class="cls-2" d="M244.43,149.91c3-8.12,2-17.42-1.84-25.17-4.52-9.11-10.47-14-12.45-22.36-5.73,3.19-12.26,7.74-11.92,14.28a2.47,2.47,0,0,1-1.85-2.47c-1.22,5.74,3.2,12.31,3.75,18.16.5,5.21-2.45,10.4-8.69,6.62a8.34,8.34,0,0,1-3.52-5.85l-.1-.57-1.15,1h0l-.51.43s0,0-.21.18-.78.48-1.32.78-1.36.73-2.13,1.13c-.61,4.35-.33,6.41-2.41,11.47-1.64,4-3.88,10.44.14,13.79,6.33,5.28,17.85,6.7,25.66,5.07C234.35,164.69,241.44,158,244.43,149.91Z"/><path class="cls-11" d="M184.67,181.39c-1.41-10-5-20-3.85-27.41,3.29,10.57,7.47,20.88,10.13,31.63s3.75,22.17.8,32.84c-3.09-2.52-6.93-5.69-8.48-8.17-1.16-1.86-.49-2.78-.22-5.72C183.67,197.8,185.61,188.11,184.67,181.39Z"/><path class="cls-2" d="M186.77,197.77c.16-4.65-.73-9.26-1.61-13.82l-6.09-31.58a8,8,0,0,0-1.72-4.24c-4.79,15.65-4.44,32.24-3.19,48.38.27,3.47-.4,18.1,5.28,18.61C184.61,215.6,186.65,201.34,186.77,197.77Z"/><path class="cls-13" d="M209.89,166s-6.72-1-9.67-4.57c0,0,2.56,9,11.43,10.22Z"/><path class="cls-2" d="M71.92,106.71c2.61-2.61,10.43,2.61,13-2.61.65-2.61-2-5.21-3.75-8a20.87,20.87,0,0,1-3.28-.18C73.28,95.15,68.8,93.3,64,94.15a16.84,16.84,0,0,0-12.57,9.55c-2.28,4.95-1.63,13.5-.62,18.06,1.88-1.54,6.08-5.81,8-7.43,1.17.73,3.58,1.08,4.91,1.38a28.27,28.27,0,0,0,7.16.59,45,45,0,0,0,6.65-.73C77.83,110.39,68.34,109.09,71.92,106.71Z"/><path d="M81.21,96.12c1.79,2.77,4.4,5.38,3.75,8-2.61,5.21-10.43,0-13,2.61-3.57,2.38,5.91,3.68,5.58,8.86,7-1.31,14-4.53,16.78-11.15C98.2,95.15,87.84,96.12,81.21,96.12Z"/><path d="M85.19,136.4h0Z"/><path class="cls-14" d="M236.91,204.23a18,18,0,0,0,9.21,2.66l-4.22-4.26Z"/><path class="cls-13" d="M70.71,188s-6.1,8.34-11.58,8.34c0,0,7.77,4,15.14-4.41Z"/><path class="cls-2" d="M72.52,184.71A21.36,21.36,0,0,1,70,188.93l1.12-2.56Z"/><path class="cls-3" d="M108.75,191.06c5.63-4,12.17-7.14,19.29-5.36,1.12.17,2.69.13,2.87-1s-1.11-1.64-2.14-1.83c-10.32-1.93-23.76.78-26.74,12.39a3.25,3.25,0,0,0,2.5-1C105.87,193.18,107.28,192.09,108.75,191.06Z"/><path class="cls-3" d="M153.38,167c-1.11-6.12-3-12.12-3.35-18.33-.31-5.82.27-9.86,4.9-13.32,1-.74,2.11-1.8,1.8-3-.7-2.7-5.59-.55-7.1.27a13.62,13.62,0,0,0-6.35,7.88c-1.63,5.39-.31,11.22,1.65,16.49s4.56,10.36,5.59,15.89c.39,2.1,1.14,5.81.15,7.87s-5.77,3.05-5.15,5.54c1,4.15,6.81-2.48,7.53-3.93C155.3,177.85,154.23,171.66,153.38,167Z"/><path class="cls-11" d="M63.53,112.32q-.48-.39-.94-.82a5.57,5.57,0,0,0-1.32-1.05,1.55,1.55,0,0,0-1.61.06c-.66.52-.54,1.54-.32,2.36,1.93,7.33,5.94,14.79,11.75,19.77a29.43,29.43,0,0,0,17.28,7.14c1.24.06,2.75-.12,3.26-1.25a2.35,2.35,0,0,0-1.26-2.81A9.11,9.11,0,0,0,87.1,135a18.27,18.27,0,0,1-11.76-6.54c-3.22-4-3.44-7.61-3.69-12.53A16.92,16.92,0,0,1,63.53,112.32Z"/><path class="cls-3" d="M64.94,96.94c-2.21.06-8.36,1.09-9.24,3.71-.77,2.28.92,3.36,2.93,2.57l7.62-3a2.36,2.36,0,0,0,1.5-1.14A1.56,1.56,0,0,0,67,97.31,3.78,3.78,0,0,0,64.94,96.94Z"/><path class="cls-3" d="M111.22,108.43a7.57,7.57,0,0,0-1.61,3.49,2.29,2.29,0,1,0,4.45,1.12,7.55,7.55,0,0,0,.25-3.24c-.1-1.44-.5-3.24-1.92-3.51a1.64,1.64,0,0,0-1.37,2.86"/><path class="cls-2" d="M106.77,129.29c1.55-.45,2.54-1.36,3.66-.21a13.41,13.41,0,0,1,2.43,4.14l2.31,5.31c.85,2,1.71,4.23.8,6.17a4.93,4.93,0,0,1-4.13,2.57c-3.8.29-16.7-10.32-11.84-9.87S107.47,138,106.77,129.29Z"/><path class="cls-5" d="M219,243.14a3.09,3.09,0,0,0,1.56-1.87c.13-.83-.77-1.76-1.49-1.35a23.79,23.79,0,0,1-2.48,1.91c-4,2.7-8.13,2.85-12.47,4.31C208.63,247.61,215.23,245.63,219,243.14Z"/><path class="cls-5" d="M178.44,237.79A4,4,0,0,0,175,244a11.89,11.89,0,0,1,8.41-6.28,6.13,6.13,0,0,0-7.31,1.82"/><path class="cls-5" d="M167.8,254.37c-.25-.43-1,.05-.88.54s.69.71,1.18.76a4,4,0,0,0,3.32-1.3,3.47,3.47,0,0,0-4.23.33"/><path d="M85.16,237.52c0-3.84-11.72-4.52-8.77.88C78,241.43,85.2,241.93,85.16,237.52Z"/><path class="cls-15" d="M69.17,164.49a8.34,8.34,0,0,0,2.68-6.11c0-.53-.13-1.17-.63-1.36s-1.16.36-1.52.88l-3,4.19c-.54.76-1.09,1.76-.62,2.57a1.69,1.69,0,0,0,1.9.61,4.93,4.93,0,0,0,1.8-1.13"/><path d="M171.9,157.73a6.68,6.68,0,0,0,0,3.63,2.65,2.65,0,0,0,2.79,1.89,2.59,2.59,0,0,0,1.8-1.86,7.1,7.1,0,0,0,.11-2.7c-.44-4.65-1.44-9-2.28-13.59,0,2.86-1,6.06-1.52,8.89C172.62,155.13,172.17,156.43,171.9,157.73Z"/><path d="M87.16,121.07a6.68,6.68,0,0,0,0,3.63A2.65,2.65,0,0,0,90,126.59a2.59,2.59,0,0,0,1.8-1.86,7.1,7.1,0,0,0,.11-2.7c-.36-3.8-3-9.68-.65-13.1.44-.63,1-1.39.65-2.06a1.19,1.19,0,0,0-1.3-.47,3.49,3.49,0,0,0-1.28.71,6.71,6.71,0,0,0-1.72,1.66,2.28,2.28,0,0,0-.2,2.27,9.45,9.45,0,0,0,1,1.17c1,1.3-.1,3.7-.34,5.11C87.88,118.48,87.44,119.78,87.16,121.07Z"/></svg>