<svg xmlns="http://www.w3.org/2000/svg" viewBox="0 0 300 300"><defs><style>.cls-1{isolation:isolate;}.cls-2{fill:#7c1623;}.cls-3{fill:#868686;mix-blend-mode:multiply;}.cls-4{fill:#ec6e25;}.cls-5{fill:#f39622;}.cls-6{fill:#ffdd0c;}.cls-7{fill-rule:evenodd;}.cls-8{fill:#fff;}</style></defs><title>Artboard 1</title><g class="cls-1"><g id="Layer_1" data-name="Layer 1"><circle class="cls-2" cx="150.31" cy="150.27" r="147.1"/><ellipse class="cls-3" cx="153.65" cy="243.28" rx="91.13" ry="18.29"/><path class="cls-4" d="M151.74,239.45s-54.42,10.76-70.65-42c.44,1.45,4.78,3.67,6.19,4.11,5.58,1.75,2.22-7.21,1.56-9.13-4.27-12.39-2.32-26.16,7.76-35.87a5.29,5.29,0,0,0,2.05,5.29,6.58,6.58,0,0,0,6.1.82,7.62,7.62,0,0,0,3.87-3.58,18.54,18.54,0,0,0,1.61-4.9c1.66-7.46,2.38-15,4.51-22.32a65.65,65.65,0,0,1,5.5-13.33C126.41,107.34,136,98,147.56,91.18a115.39,115.39,0,0,1,32.89-12.56S167.79,99.49,182.67,125A114.4,114.4,0,0,1,192.23,145c2.26,6.54,2.43,13.22,3.12,20a11.33,11.33,0,0,0,.9,4,4.48,4.48,0,0,0,3.3,2.52c2.13.27,4-1.34,5-3.06a10.93,10.93,0,0,0,.47-10.28c2.75.56,4.74,2.69,6.31,4.82A40.94,40.94,0,0,1,219,190.84c-.6,8.34-6.09,16.56-12.27,22.5a57,57,0,0,1-5.55,4.67s9.5-7.23,18.71-16c0,0-18.11,37.59-67.3,37.59"/><path class="cls-5" d="M143.19,94.19s7.47,13.7-8.24,34.4c-7.69,10.13-13.5,20.51-16.05,32.56-.78,3.71-1,7.52-2.56,11.07-1,2.23-4,5.05-7,4.53-4.57-.79-2.82-7.07-1.38-9.51a18.12,18.12,0,0,0-6.56,5.15c-8,9.73-4.62,24.38.25,34.52.77,1.61,1.62,3.19,2.52,4.75,5.85,10.18,17.9,19.49,29.84,24.25a55.29,55.29,0,0,0,22.81,3.68s36.12,2.53,50.05-33.27a37.78,37.78,0,0,0,3-15.18,49,49,0,0,0-3-15.91,15.4,15.4,0,0,1-9.48,5.69c-3.83.56-8.11-.87-10.08-3.91-2.32-3.58-1-8.09-.15-12.16,3.76-17.11.71-35.46-10.89-49.55A60.28,60.28,0,0,0,163,103.38a71.25,71.25,0,0,0-9-5q-2.6-1.22-5.3-2.26C147.77,95.75,143.56,94.86,143.19,94.19Z"/><path class="cls-6" d="M148.49,236.55a28.66,28.66,0,0,0,11.25-.49c15.53-3.45,26.89-19.44,25-35.3a29.12,29.12,0,0,0-7.27-15.91c-.16,3.27-.71,6.69-2.73,9.27s-5.91,3.93-8.7,2.2c-1.84-1.14-2.78-3.3-3.32-5.4-1.75-6.88,0-15.82,4.63-21.32a20.34,20.34,0,0,0-17,9.61c-1.52,2.51-2.5,5.37-4.44,7.57s-5.35,3.55-7.83,2a6.14,6.14,0,0,1-2.46-3.89,30.62,30.62,0,0,1-.46-4.69,30,30,0,0,0-3.44-11.93c-2.19,6.26-6.28,11.64-9.56,17.4-4.59,8.05-5.19,18.59-3.14,27.43C122.38,227.61,133.91,235.61,148.49,236.55Z"/><path class="cls-4" d="M155.08,165.85s-51.21,5.23-65.37-46.33c0,0,14.55,15.63,8.14-3.39s9.88-46,17.45-53.47c0,0-1,10.33,5.39,15.64,0,0-3.71-53.53,59.45-69.7,0,0-11,20.4,1.94,45.32s10.6,35.25,10.6,35.25.26-15.1,12.72-18c0,0-2.53,7.15,3.71,16.16,0,0,19.69,26.06-9,49.9,0,0,6.44.61,14.48-7.95,0,0-15.81,36.75-58.74,36.75"/><path class="cls-5" d="M152.45,166s-30.25,2.4-41.92-31.53S115,78.29,115,78.29s.35,13.25,10.13,17.76c0,0-8.33-51.14,38.76-67.84,0,0-6.26,13,6.9,32.59,6.44,9.6,11.31,19.43,13.44,30.86.66,3.52.81,7.13,2.15,10.49.84,2.11,3.36,4.79,5.86,4.3,3.83-.75,2.37-6.7,1.15-9a15.63,15.63,0,0,1,5.49,4.88c6.66,9.22,3.87,23.1-.21,32.71-.65,1.53-1.36,3-2.11,4.51-4.9,9.64-15,18.47-25,23A41.48,41.48,0,0,1,152.45,166Z"/><path class="cls-6" d="M155.33,166s-26,5.87-34.48-31.88c-5.16-23,10.44-45.28,10.44-45.28s-2.15,8,.33,14,9.8,9.54,4.95-9,1.66-39.75,19.61-49.82c0,0-7.74,13.25,2.85,29.68s23.58,31.46,24.64,47.95C184.68,137.43,182.38,164,155.33,166Z"/><path class="cls-7" d="M172.79,121.41a2.89,2.89,0,0,0-3.17-2.93,2.92,2.92,0,0,0-3.16,2.93v11h0c.16,2.06,1,3.3,3.18,3.3s3.08-1.28,3.14-3.3v-11Z"/><path class="cls-7" d="M136.74,121.41a2.89,2.89,0,0,0-3.17-2.93,2.92,2.92,0,0,0-3.16,2.93v11h0c.16,2.06,1,3.3,3.18,3.3s3.08-1.28,3.14-3.3v-11Z"/><path class="cls-8" d="M225.05,215.14a3,3,0,0,1-2.92-3.55c.11-.56,2.8-13.67,14.78-18.1a3,3,0,0,1,2.06,5.58c-8.88,3.29-11,13.56-11,13.66A3,3,0,0,1,225.05,215.14Z"/><path class="cls-8" d="M81.25,230.19H81A3,3,0,0,1,78.28,227c1.15-13.74-9-23.07-9.15-23.17a3,3,0,0,1,4-4.44c.51.46,12.53,11.34,11.12,28.11A3,3,0,0,1,81.25,230.19Z"/><path class="cls-4" d="M107.76,220.2a46.62,46.62,0,0,1-7.69-10c-2.47-4.1-9.12-13.32-8.72-18.24a12.72,12.72,0,0,1-.91,4.43A4.32,4.32,0,0,1,87,199c-2.45.13-7.15-6.77-9-8.45-10.41-9.33-7.6-20.62-7.6-20.62-26.59,18.58-15.07,41.58-15.07,41.58-3.91-1.35-5.25-6.34-5.25-6.34-2.22,4.78-4.52,17.89,2.39,26.17,7.24,8.66-4.78,6.08-4.78,6.08,20.12,16.65,33.76,13.85,49.83,4.83,15.13-8.49,29.22-4.12,34.77-4.1.25,0,.19.08,0,0-7.56-3.14-14.16-9.93-20.67-14.72A38.93,38.93,0,0,1,107.76,220.2Z"/><path class="cls-4" d="M246.66,233.89c5.54-8.31,3.64-22.72,1.42-27.49,0,0-1.33,5-5.25,6.34,0,0,11.52-23-15.07-41.58,3,16.65-9.84,16.68-15.45,26.73-1.71,3-2.81,6.38-6.89,6.38-3.17,0-4.63-4.8-3.28-7.53-6.56,3-6.11,14.79-6.11,14.79a13.62,13.62,0,0,0-9.43-1.57,13.45,13.45,0,0,1,2.66,6.35c0,5.41-.67,12.39-5.64,14.78l-16.4,7.61a76,76,0,0,1,14.41.82c3.5.52,4.68-.05,9.57.58,11.79,1.52,15.49,13.9,23.18,14.32a1.87,1.87,0,0,1,.48-3.27c3.21-.83,22.66,5.35,35.62-12.52C250.47,238.64,242,240.93,246.66,233.89Z"/><path class="cls-5" d="M240.79,220.39s-2.08,5.18-6.58,5.5c0,0,10.76-19-5.31-32.6,1,11-19.34,11.46-22.47,28.66,0,0-1.77-1.4-2.33-10.39C179.7,259.89,252.31,262.29,240.79,220.39Z"/><path class="cls-6" d="M228.3,240.82c4.5-6.86,2.14-16.06,2.14-16.06s-1.2,4.65-2.75,6.33-5.28.92-1.43-4.54,6.17-14,1.55-19.46c0,0,.9,5.27-4.57,9.34s-11.55,7.38-13.92,12.63C201.38,246.68,219,255,228.3,240.82Z"/><path class="cls-5" d="M67.74,238.86c-9-10.85-6.12-21.26-6.12-21.26s6.91,9.85,11.13,10.16c0,0-12-21.09-.08-35.3,0,0-.51,5.63,7,11s11.6,9.1,14.07,15.67c0,0-1.33-6.78,2.15-9.65-.74.61,1,4.74,1.23,5.3C108.7,240.25,81.39,255.38,67.74,238.86Z"/><path class="cls-6" d="M61.78,215.33a10.75,10.75,0,0,0,2.2,5.46c1.87,2,5.25,2.3.61-4.26s-5.21-15.84.35-22.44c-2,11.75,17.1,15,22.22,26.4C101.76,252.83,53.11,249.2,61.78,215.33Z"/></g></g></svg>