<svg xmlns="http://www.w3.org/2000/svg" xmlns:xlink="http://www.w3.org/1999/xlink" viewBox="0 0 300 300"><defs><style>.cls-1{fill:none;}.cls-2{isolation:isolate;}.cls-3{fill:#3c3c3b;}.cls-4{fill:#868686;mix-blend-mode:multiply;}.cls-5{fill:#9c9b9b;}.cls-6{fill:#e84e1b;}.cls-12,.cls-7{fill:#f8b133;}.cls-8{fill:#d29229;}.cls-12,.cls-9{fill-rule:evenodd;}.cls-10{fill:#fff;}.cls-11{fill:#1d1d1b;}.cls-13{clip-path:url(#clip-path);}</style><clipPath id="clip-path"><circle class="cls-1" cx="150.33" cy="128.18" r="13.77"/></clipPath></defs><title>Artboard 2</title><g class="cls-2"><g id="Layer_1" data-name="Layer 1"><circle class="cls-3" cx="150.78" cy="150.27" r="147.1"/><ellipse class="cls-4" cx="150.74" cy="234.7" rx="91.13" ry="18.29"/><polygon class="cls-5" points="213.44 146.42 220.75 121.44 227.32 119.49 230.31 147.51 213.44 146.42"/><polygon class="cls-5" points="250.94 146.74 245.71 121.25 239.32 118.76 234.03 146.44 250.94 146.74"/><rect class="cls-6" x="110.15" y="158.59" width="80.37" height="57.93"/><path class="cls-7" d="M186,152.67c-4.55,4.93-18.79,8.52-35.67,8.52s-31.13-3.6-35.68-8.52c-2.87,1.77-4.51,3.78-4.51,5.91,0,7.1,18,12.85,40.18,12.85s40.18-5.75,40.18-12.85C190.52,156.45,188.88,154.44,186,152.67Z"/><path class="cls-8" d="M150.33,161.2c16.88,0,31.13-3.6,35.67-8.52-6.69-4.12-20.15-6.94-35.67-6.94s-29,2.82-35.68,6.94C119.21,157.6,133.45,161.2,150.33,161.2Z"/><rect class="cls-6" x="110.15" y="64.41" width="80.37" height="76.04"/><path class="cls-9" d="M172.42,95.07A3.08,3.08,0,0,0,169,92a3.11,3.11,0,0,0-3.37,3.12v11.76h0c.17,2.19,1.09,3.51,3.39,3.52s3.28-1.37,3.35-3.52V95.07Z"/><path class="cls-9" d="M134,95.07A3.08,3.08,0,0,0,130.62,92a3.11,3.11,0,0,0-3.37,3.12v11.76h0c.17,2.19,1.09,3.51,3.39,3.52S134,109,134,106.82V95.07Z"/><ellipse class="cls-7" cx="107" cy="94.02" rx="9.82" ry="11.36"/><ellipse class="cls-7" cx="102.38" cy="170.02" rx="9.82" ry="11.36"/><ellipse class="cls-7" cx="193.11" cy="94.02" rx="9.82" ry="11.36"/><ellipse class="cls-7" cx="197.35" cy="172.99" rx="9.82" ry="11.36"/><ellipse class="cls-7" cx="150.33" cy="64.41" rx="40.18" ry="12.85"/><ellipse class="cls-6" cx="150.33" cy="140.46" rx="40.18" ry="12.85"/><path class="cls-5" d="M216.24,194.64l5.81.12c-1.76-7.86-21.19-7.14-28.15,6.42-2.87,5.6-3.29,11-9.33,13.93-1.18.57-2.38,1.26-3.56,2l-7.12,4.3c4,7.11,20,7.41,27.65-.68,2.45-2.58,3.11-6.33,5.64-8.84,2.75-2.72,5.47,1,7.75-.52,1.23-.8,1.72-5,2-6.33C217.38,203.25,219.61,195,216.24,194.64Z"/><path class="cls-5" d="M224.83,155.69a0,0,0,0,0,0,0,9.12,9.12,0,0,1-7.36,14.72c-4.52-.15-7.12-1.12-11.27-3.17a8,8,0,0,0-1.42-.59c-5-1.36-8.79,4-8,8.51.57,3.24,3.23,5.25,6,6.63a35.81,35.81,0,0,0,19.43,3c8.67-1.14,17.3-5.18,19-14.66.55-3.18,1.16-10.67-.83-13.46-1.65-2.31-5.84-2.68-8.4-2.71C231.32,154,225.06,155.28,224.83,155.69Z"/><path class="cls-6" d="M211.76,197c-5.41,14.8,1.56,30.93,15.55,36s22.7-6.2,28.1-21,5.45-27.47-8.55-32.58S217.16,182.22,211.76,197Z"/><ellipse class="cls-7" cx="243.56" cy="208.63" rx="28.52" ry="16.84" transform="translate(-35.93 365.9) rotate(-69.95)"/><path class="cls-10" d="M228.62,203.27a3,3,0,0,1-2.92-3.54c.12-.59,3-14.46,15.63-19.14a3,3,0,1,1,2.07,5.58c-9.49,3.51-11.83,14.6-11.85,14.71A3,3,0,0,1,228.62,203.27Z"/><path class="cls-11" d="M104,87.48a3,3,0,0,1-3-3V40.35a3,3,0,0,1,6,0V84.5A3,3,0,0,1,104,87.48Z"/><path class="cls-11" d="M196.11,87.48a3,3,0,0,1-3-3V40.35a3,3,0,0,1,6,0V84.5A3,3,0,0,1,196.11,87.48Z"/><circle class="cls-6" cx="104.03" cy="40.35" r="7.75"/><circle class="cls-6" cx="196.56" cy="40.35" r="7.77"/><path class="cls-10" d="M143.17,80.58c-17.79,0-27.54-6.29-28-6.59a3,3,0,0,1,3.27-5c.15.1,11.38,7.18,31.6,5.28a3,3,0,1,1,.56,5.93C148,80.47,145.51,80.58,143.17,80.58Z"/><circle class="cls-10" cx="101.95" cy="38.5" r="3.17"/><path class="cls-12" d="M100.75,85.27s4.41,1.52,6.26-2.61l1.84,4.84-8.1.65Z"/><path class="cls-12" d="M199.34,85.27s-4.41,1.52-6.26-2.61l-1.84,4.84,8.1.65Z"/><path class="cls-5" d="M115.78,215.12c-6-2.91-6.46-8.33-9.33-13.93-6.93-13.52-26.38-14.31-28.15-6.42l5.81-.12c-3.37.4-1.13,8.61-.73,10.38.31,1.33.79,5.53,2,6.33,2.28,1.48,5-2.2,7.75.52,4.39,4.35,2.61,10.09,15.15,14.15,5.33,1.72,15.09.78,18.15-4.63C123.05,220,115.78,215.12,115.78,215.12Z"/><path class="cls-6" d="M88.6,197C94,211.82,87,228,73,233.06s-22.7-6.2-28.1-21-5.45-27.47,8.55-32.58S83.2,182.22,88.6,197Z"/><ellipse class="cls-7" cx="56.8" cy="208.63" rx="16.84" ry="28.52" transform="translate(-68.08 32.12) rotate(-20.05)"/><path class="cls-10" d="M75.38,219.31h-.25a3,3,0,0,1-2.72-3.22c1.24-14.74-9.7-24.75-9.81-24.85a3,3,0,0,1,4-4.44c.54.48,13.28,12,11.78,29.79A3,3,0,0,1,75.38,219.31Z"/><circle class="cls-5" cx="150.33" cy="128.18" r="19.47"/><g class="cls-13"><rect x="136.57" y="111.88" width="4.88" height="33.68"/><rect x="144.33" y="111.88" width="4.88" height="33.68"/><rect x="152.1" y="111.88" width="4.88" height="33.68"/><rect x="159.86" y="111.88" width="4.88" height="33.68"/></g><ellipse class="cls-6" cx="150.18" cy="211.24" rx="40.18" ry="12.85"/><rect class="cls-5" x="126.55" y="182.91" width="47.35" height="22.19"/><ellipse class="cls-6" cx="150.24" cy="181.6" rx="25.53" ry="4.92"/><ellipse class="cls-5" cx="150.14" cy="204.38" rx="23.67" ry="4.92"/><path class="cls-6" d="M213.44,146.42a7.18,7.18,0,0,0-.08.93c0,6.39,8.46,11.57,18.9,11.57s18.9-5.18,18.9-11.57a7.87,7.87,0,0,0-1.49-4.51C237.59,144.31,225.51,144.88,213.44,146.42Z"/><path class="cls-5" d="M76.1,154.39a0,0,0,0,1,0,0,9.12,9.12,0,0,0,7.36,14.72C88,169,90.57,168,94.72,166a8,8,0,0,1,1.42-.59c5-1.36,8.79,4,8,8.51-.57,3.24-3.23,5.25-6,6.63a35.81,35.81,0,0,1-19.43,3c-8.67-1.14-17.3-5.18-19-14.66-.55-3.18-1.16-10.67.83-13.46,1.65-2.31,5.84-2.68,8.4-2.71C69.61,152.69,75.87,154,76.1,154.39Z"/><path class="cls-6" d="M85.91,130.37l-8.8,7.48a7.57,7.57,0,0,1,.7,7.38,8.22,8.22,0,0,1-14.93-6.82,7.65,7.65,0,0,1,7-4.37l.62-11.48a19.09,19.09,0,0,0-18.65,10.81c-4.37,9.57.36,21.12,10.58,25.78s22,.69,26.42-8.89A18.94,18.94,0,0,0,85.91,130.37Z"/><polygon class="cls-7" points="150.14 188.66 152.32 195.38 159.39 195.38 153.67 199.54 155.85 206.26 150.14 202.11 144.42 206.26 146.6 199.54 140.88 195.38 147.95 195.38 150.14 188.66"/><polygon class="cls-5" points="87.22 114.84 76.45 112.02 68.62 119.94 71.57 130.68 82.34 133.5 90.17 125.58 87.22 114.84"/><circle class="cls-3" cx="79.4" cy="122.54" r="4.26"/></g></g></svg>