<svg xmlns="http://www.w3.org/2000/svg" viewBox="0 0 300 300"><defs><style>.cls-1{isolation:isolate;}.cls-2{fill:gray;opacity:0.5;}.cls-3{fill:#7e4e24;}.cls-4{fill:#925f36;}.cls-18,.cls-5{fill:#868686;}.cls-5,.cls-9{mix-blend-mode:multiply;}.cls-16,.cls-6{fill:#fff;}.cls-7,.cls-9{fill:#caba9f;}.cls-8{fill:none;}.cls-10{fill:#e84e1b;}.cls-11{fill:#bd1622;}.cls-12{fill:#fcea0d;}.cls-13{fill:#1d1d1b;}.cls-14{fill:#533013;}.cls-15{fill:#683b11;}.cls-16{opacity:0.4;}.cls-17{fill:#999;}.cls-19{fill:#b1b1b1;}</style></defs><title>Artboard 13</title><g class="cls-1"><g id="Layer_1" data-name="Layer 1"><ellipse class="cls-2" cx="156.05" cy="270.18" rx="100.15" ry="18.61"/><ellipse class="cls-3" cx="153.05" cy="236.26" rx="116.88" ry="21.73"/><rect class="cls-3" x="36.17" y="221.41" width="233.76" height="14.85"/><ellipse class="cls-4" cx="153.05" cy="221.41" rx="116.88" ry="21.73"/><ellipse class="cls-5" cx="152.56" cy="214.38" rx="80.55" ry="16.2"/><path class="cls-6" d="M206.07,202.91q15.28-16,30.1-32.49l5-5.56c3.6-4,7.23-8.18,9.56-13.07s3.24-10.72,1.21-15.74-6.77-8.64-11.83-10.73c-6.33-2.62-12.43-3-18.2-6.72-7-4.49-14.88-8.08-22.33-11.83q-10.86-5.47-21.93-10.5-5.76-2.62-11.58-5.11c-2.5-1.07-8.16-4.79-10.8-4.51-35.62,3.83-69.8,13.88-103.35,26.45,2.88,2.31,5.81,4.55,8.77,6.77q-3.2,1.16-6.4,2.36c2.88,2.31,5.81,4.55,8.77,6.77q-3.2,1.16-6.4,2.36c2.88,2.31,5.81,4.55,8.77,6.76q-3.2,1.16-6.4,2.36c2.88,2.31,5.81,4.55,8.77,6.76q-3.2,1.16-6.4,2.36c2.88,2.31,5.81,4.55,8.77,6.76q-3.2,1.16-6.4,2.36c3.06,2.45,6.18,4.84,9.33,7.18q-4.35,1.56-8.69,3.18c3.51,2.81,7.08,5.53,10.7,8.2q-4.67,2.23-9.31,4.53a347.45,347.45,0,0,0,104.22,45c2.5.62,6.87,3.46,9.41,3,2.73-.53,6.71-6.35,8.66-8.33Q197.14,212.28,206.07,202.91Z"/><path class="cls-7" d="M81.09,169.78c28.5,22.57,55.82,33,90.74,43.08,22.61-11.23,42.41-32.76,61.39-49.4C213.63,177.63,193.8,197,171.8,207,138.25,197,110.74,188.42,81.09,169.78Z"/><path class="cls-3" d="M159.37,76.27c30.47,12.37,56.86,29,84.95,46.08C223.12,140.46,196.93,155,170.8,165a7.27,7.27,0,0,1-4.75.16,347.42,347.42,0,0,1-111-57.85,2.56,2.56,0,0,1,.69-4.42C88.62,90.91,129.4,79.5,159.37,76.27Z"/><path class="cls-3" d="M179.06,228.56c23.41-25.23,52-46.9,70.19-76.13a18.33,18.33,0,0,0,1.14-16.87,18,18,0,0,0-13-10.61l.13,1.16c.69-1.88,2.1-3.17,2.79-5a24,24,0,0,1,17.88,17.83c1.92,8.68-3.06,17.15-8.93,23.83-21.82,24.86-43.81,49.48-65.65,74.33a4.73,4.73,0,0,1-5.26,1.29q-55.43-21.52-111-43.15a4.73,4.73,0,0,1-3-4.43,7.14,7.14,0,0,0,0-.88,72.09,72.09,0,0,1,21.4-11c-2.61,3.42-5.11,7.29-7.72,10.71C111.42,202.7,145.68,215.4,179.06,228.56Z"/><path class="cls-8" d="M124.42,237.15a59.43,59.43,0,0,1,12.7-42.34"/><path class="cls-7" d="M71.55,131a286.76,286.76,0,0,0,97.24,49.9,292.73,292.73,0,0,0,62.57-42.22,364.44,364.44,0,0,1-62.59,36.41A403.5,403.5,0,0,1,71.55,131Z"/><path class="cls-7" d="M76,150.36c28.5,22.57,59.59,34.26,94.51,44.37,22.61-11.23,49.45-29.85,68.44-46.49-19.59,14.17-46.46,30.66-68.46,40.68C136.92,178.88,105.64,169,76,150.36Z"/><path class="cls-6" d="M87,176.57l.39.36a28.19,28.19,0,0,1,6.17,8.88c.5,1.07,2.88,9.51,3.33,9.59a80.24,80.24,0,0,1-31.6-13.29,91.84,91.84,0,0,1,12-6.41C81.78,173.73,83.42,173.35,87,176.57Z"/><path class="cls-9" d="M133.88,221.12a190.85,190.85,0,0,1,2.51-30.91,76.25,76.25,0,0,0-8.1,28.47Z"/><path class="cls-10" d="M108.4,221.91c7,8,8.69,9.28,19.3,17.2-.63-16.12,1.82-33.82,8.48-48.52,0,0-26.81-10.2-28.47-10.74,0,0-16,17-18.79,42.08C95.12,221.75,102.11,222.66,108.4,221.91Z"/><path class="cls-11" d="M119.7,191.05a37.18,37.18,0,0,0-10.35,25C112.82,207.62,116.22,199.52,119.7,191.05Z"/><path class="cls-4" d="M169.34,141.45l-.42,2.25c2-6.56,3.82-13.42,2.9-20.23s-5.17-13.58-11.75-15.55c-5.62-1.68-11.89.5-16.24,4.44s-7,9.41-8.87,15C144.45,135.86,156.77,139.2,169.34,141.45Z"/><path class="cls-12" d="M140.29,130.74a19,19,0,0,1,3.26-9,11.13,11.13,0,0,1,8.12-4.71c5.42-.28,10.09,4.54,11.29,9.83s-.28,10.81-2.27,15.86l-.24-1.38C153.33,138.85,146.1,135.54,140.29,130.74Z"/><path class="cls-12" d="M86.17,105.8A16.28,16.28,0,0,1,89,98.07a9.53,9.53,0,0,1,7-4c4.64-.24,8.64,3.89,9.67,8.42s-.24,9.26-1.95,13.58l-.21-1.18C97.34,112.75,91.14,109.92,86.17,105.8Z"/><path class="cls-13" d="M102.22,109.26a6.87,6.87,0,0,0-13.55-1.63,66.09,66.09,0,0,0,11.21,6.76A6.84,6.84,0,0,0,102.22,109.26Z"/><path class="cls-13" d="M159.56,133.74a8.2,8.2,0,0,0-16.28-1.34c4.4,2.76,8.37,5.82,12.68,8.14A8.2,8.2,0,0,0,159.56,133.74Z"/><path class="cls-3" d="M82.89,102.38s36.33,23.91,91.89,40.31l-17.71,15.57-77-46.91Z"/><circle class="cls-6" cx="93.74" cy="102.38" r="2.33"/><circle class="cls-6" cx="149.67" cy="125.12" r="3.14"/><path class="cls-10" d="M238.94,126.59c-.07.37,3.7,4.91,4.12,5.62a38.1,38.1,0,0,1,3.11,6.83,41.09,41.09,0,0,1,1.8,7.49c.18,1.28.31,2.58.37,3.88,0,.93-.42,2.69-.26,3.4a.67.67,0,0,0,.72.56c.33-.07.55-.42.74-.75,5.39-9.66,3.42-23.75-6.34-27.83C241.78,125.19,239.29,124.82,238.94,126.59Z"/><g id="gFmuht"><path class="cls-6" d="M188.67,117.19,159.37,107l.27-.82,29.39,10Z"/><path class="cls-6" d="M96,82.91l15.9,10.18-.62,1L95.42,83.77Z"/></g><path d="M112.87,66.1l-.25,0h.25Z"/><path class="cls-14" d="M225,131.72a62.92,62.92,0,0,1,6.81-4c2-1,3.92-2.06,5.88-3.09.65-.34,5.26-2.43,5.26-2.94a19.79,19.79,0,0,0-3.14-2.63c-3.5,1.08-7.86,1.38-11,3.39-3.72,2.42-7.1,5.81-10.55,8.62a5.94,5.94,0,0,0-1.37,1.39,1.8,1.8,0,0,0,1.93,2.83,6,6,0,0,0,2.27-1C222.48,133.42,223.76,132.57,225,131.72Z"/><path class="cls-15" d="M140,89.68a2.71,2.71,0,0,0,2.15,1.18c1.94.13,4.28-.63,6.21-.94,2.32-.37,4.65-.69,7-1.11a8,8,0,0,0,3.07-1A2.77,2.77,0,0,0,159.7,85a2.65,2.65,0,0,0-1.56-1.74,6.09,6.09,0,0,0-2.37-.41c-4.36-.08-9.1.44-12.94,2.37a7.63,7.63,0,0,0-2.33,1.56,2.59,2.59,0,0,0-.64,2.6A1.88,1.88,0,0,0,140,89.68Z"/><path class="cls-14" d="M168.54,159.62c-9.5.75-18.5-4.24-26.07-10S127.91,137,119.22,133.12c-8.08-3.63-17.07-4.49-25.69-6.49S76,121,71,113.75c-.85-1.23-1.57-2.91-.74-4.16a2.8,2.8,0,0,1,3-.93,7.62,7.62,0,0,1,2.87,1.71c4.65,3.86,8.89,8.4,14.35,11s12.78,2.59,16.78-1.94A34.25,34.25,0,0,0,126,134.15c3.5,1.11,7.17,1.65,10.55,3.08,4.12,1.75,7.58,4.72,11.23,7.32a72.47,72.47,0,0,0,27.89,12,8.45,8.45,0,0,1-10.77,2.56"/><path class="cls-13" d="M190,135.59c1.26-4.5,4.31-6.26,8.41-6.79,11.09-1.44,22.19-2.88,33.3-4.1,4.76-.52,8.67-1.89,12.16-5.58,5.57-5.89,7.38-5.4,10.87,1.85l.26.52a3.9,3.9,0,0,0,7.25-.92l.16-.69c-.71-4.25-3.08-7.44-7.27-8.09a46,46,0,0,0-13.74-.38A272.26,272.26,0,0,0,212,117.22c-8.73,2.33-16.35.89-24.57-2.47-15.35-6.29-31-12.35-47.73-13.56-9-.65-17.34-2-24.77-7.65-5.81-4.4-12.13-8.14-18.27-12.11-2-1.31-4.18-2.42-7.4-4.27a37.58,37.58,0,0,0,3.87-.06c9.64-1.49,20.29,3.87,29-4.25.66-.61,2-.58,3-.68,8.73-.87,15.14,3.06,20.08,9.87,2.24,3.09,4.59,6.05,8.76,6.13,1.34,0,3.28-.63,3.86-1.61.47-.8-.38-2.8-1.19-3.84-5-6.36-12.24-9.31-19.33-12.37a37.5,37.5,0,0,0-11.1-3.18,165.21,165.21,0,0,0-26.65-.71c-6.11.42-12.22,1.35-18.29,2.2-3.43.48-6.86,1-10.29,1.46-2.3.32-5.08.45-5.79,3.14-.58,2.19.24,4.48,1.09,6.57,2,5,2,10.41,2,15.68a30.26,30.26,0,0,0,4.17,15.22c4.3,7.28,12.3,13.68,20.88,14.05,3.9.17,7.26.33,10.92-1.4a17.85,17.85,0,0,0,6.11-4.78,38.86,38.86,0,0,0,4.6-6.1c.95-1.79,1.67-3.85,3.34-5a4.77,4.77,0,0,1,4.4-.5c2.71,1.08,3.6,4.37,4.21,6.93.74,3.09,1.46,5.9,2,9a38.82,38.82,0,0,0,9.89,19.55,49.39,49.39,0,0,0,23.72,13.71,28.73,28.73,0,0,0,9.68,1.11C183,156.42,187.57,144.47,190,135.59ZM105.5,117.91a14.16,14.16,0,0,1-9.19,4c-3.52.22-5.89-.87-8.8-2.69s-6.26-3.67-8.69-6.36a26.19,26.19,0,0,1-6.59-14.91c-.6-6.05.81-11.26,2.14-17.13.19-.85,2.75-1.93,3.94-1.67C89.6,81.6,99.83,86.37,108,94.72c3.83,3.94,3.5,10.77,2,15.62A17.68,17.68,0,0,1,105.5,117.91ZM182.83,143c-4.23,10.33-8.57,11.89-19.12,8.05-7.26-2.64-14.83-5.37-20.67-10.64-2.25-2-3.92-5.18-5.23-7.89a39.55,39.55,0,0,1-3.65-19.37c.3-5.81,3-8.29,8.65-7.66a79.22,79.22,0,0,1,33.33,11C188,123.92,188,130.29,182.83,143Z"/><path class="cls-16" d="M182.83,143c-4.23,10.33-8.57,11.89-19.12,8.05-7.26-2.64-14.83-5.37-20.67-10.64-2.25-2-3.92-5.18-5.23-7.89a39.55,39.55,0,0,1-3.65-19.37c.3-5.81,3-8.29,8.65-7.66a79.22,79.22,0,0,1,33.33,11C188,123.92,188,130.29,182.83,143Z"/><path class="cls-16" d="M176.14,116.55a74,74,0,0,0-18.71-8.18c-7.11,6-14.21,12.12-22.39,16a35.93,35.93,0,0,0,2.77,8.13c1.32,2.71,3,5.87,5.23,7.89.39.35.8.66,1.2,1,12.88-5.69,23-15,32.45-24.5Z"/><path class="cls-16" d="M186,132.54a12.48,12.48,0,0,0-2.77-10.15c-9,10-19.14,17.22-30.38,24.32,2.55,1.21,5.18,2.26,7.82,3.24C168.89,144.92,179.29,140.42,186,132.54Z"/><path class="cls-16" d="M105.5,117.91a14.16,14.16,0,0,1-9.19,4c-3.52.22-5.89-.87-8.8-2.69s-6.26-3.67-8.69-6.36a26.19,26.19,0,0,1-6.59-14.91c-.6-6.05.81-11.26,2.14-17.13.19-.85,2.75-1.93,3.94-1.67C89.6,81.6,99.83,86.37,108,94.72c3.83,3.94,3.5,10.77,2,15.62A17.68,17.68,0,0,1,105.5,117.91Z"/><path class="cls-16" d="M89.58,82.59C84.26,86.89,78,89.76,72.17,92.88a30.34,30.34,0,0,0,.05,5.06A26.23,26.23,0,0,0,75,107.31c10.62-2.41,20.23-9.37,28.83-16.38A54.24,54.24,0,0,0,89.58,82.59Z"/><path class="cls-16" d="M110,97.86a136.21,136.21,0,0,1-28,17.7c1.79,1.32,3.71,2.47,5.6,3.65l.59.36c7.77-3.83,16.2-7.84,22.79-13.9A16.6,16.6,0,0,0,110,97.86Z"/><polygon class="cls-3" points="138.71 79.41 152.47 77.13 167.05 83.14 159.37 97.86 138.79 94.95 138.71 79.41"/><ellipse class="cls-17" cx="51.9" cy="222.09" rx="5.1" ry="1.93"/><ellipse class="cls-17" cx="255.71" cy="222.09" rx="5.1" ry="1.93"/><ellipse class="cls-17" cx="102.85" cy="231.45" rx="5.1" ry="1.93"/><ellipse class="cls-17" cx="204.76" cy="231.45" rx="5.1" ry="1.93"/><ellipse class="cls-17" cx="153.8" cy="235.79" rx="5.1" ry="1.93"/><path class="cls-18" d="M46.8,57V75.11A88.72,88.72,0,0,0,57,78.42V53.66A88.72,88.72,0,0,0,46.8,57Z"/><path class="cls-18" d="M250.61,54.08V78a77.9,77.9,0,0,0,10.2-3.54V57.61A77.89,77.89,0,0,0,250.61,54.08Z"/><path class="cls-18" d="M97.75,62V85.19q5,.5,10.2.9V62Z"/><path class="cls-18" d="M199.66,62V86q5.24-.42,10.2-.94V62Z"/><path class="cls-18" d="M148.7,66.39V87.75l4.35,0,5.85,0V66.39Z"/><ellipse class="cls-3" cx="153.05" cy="58.17" rx="116.88" ry="21.73"/><rect class="cls-3" x="36.17" y="43.32" width="233.76" height="14.85"/><ellipse class="cls-4" cx="153.05" cy="43.32" rx="116.88" ry="21.73"/><ellipse class="cls-19" cx="156.6" cy="35.17" rx="20.27" ry="5.69"/><path class="cls-18" d="M156,35.41s13.47,1.35,18.36-3c0,0-6.68-3-11.47-2.68Z"/><path class="cls-19" d="M156,2.88A16.26,16.26,0,1,0,172.3,19.15,16.26,16.26,0,0,0,156,2.88ZM156,26a6.89,6.89,0,1,1,6.89-6.89A6.89,6.89,0,0,1,156,26Z"/><path class="cls-17" d="M46.8,222.09H57V78.42a88.72,88.72,0,0,1-10.2-3.32Z"/><path class="cls-17" d="M250.61,222.09h10.2V74.47A77.9,77.9,0,0,1,250.61,78Z"/><path class="cls-17" d="M97.75,231.45H108V86.09q-5.23-.41-10.2-.9Z"/><path class="cls-17" d="M199.66,231.45h10.2V85q-5,.51-10.2.94Z"/><path class="cls-17" d="M148.7,87.75v148h10.2V87.74l-5.85,0Z"/></g></g></svg>