<svg xmlns="http://www.w3.org/2000/svg" viewBox="0 0 300 300"><defs><style>.cls-1{isolation:isolate;}.cls-2{fill:gray;opacity:0.5;}.cls-3{fill:#7e4e24;}.cls-4{fill:#925f36;}.cls-5{fill:#009ee2;}.cls-6{fill:#025c2b;}.cls-7{fill:#9c9b9b;mix-blend-mode:multiply;}.cls-8{fill:#39a935;}.cls-9{fill:#dddb00;}.cls-10{fill:#fff;}.cls-11{fill-rule:evenodd;}.cls-12{fill:#93c01f;}.cls-13{fill:#d84892;}.cls-14{fill:#999;}.cls-15{fill:#868686;}.cls-16{fill:#b1b1b1;}</style></defs><title>Artboard 4</title><g class="cls-1"><g id="Layer_1" data-name="Layer 1"><ellipse class="cls-2" cx="152.05" cy="274.18" rx="100.15" ry="18.61"/><ellipse class="cls-3" cx="149.05" cy="240.26" rx="116.88" ry="21.73"/><rect class="cls-3" x="32.17" y="225.41" width="233.76" height="14.85"/><ellipse class="cls-4" cx="149.05" cy="225.41" rx="116.88" ry="21.73"/><rect class="cls-5" x="238.49" y="218" width="0.29" height="1.17"/><path class="cls-6" d="M132.22,80.14c-1.66-5.62-4.2-12.57-8.23-16.82a23.26,23.26,0,0,0-8.52-5.74C89.05,59.52,81.27,91.88,64,107.79l-.66,1.07c3.34,2.68,2.27,4.62,5.61,7.3,8.86-12.37,19.63-26.89,26.59-33.79,2.27-2.26,5.18-4.79,8.33-4.24,2.89.5,4.49,3.91,4.08,6.81s-2.25,5.37-4,7.69c-11.71,15.3-22,27.27-33.7,42.57-3.53,4.6-7.14,9.39-8.45,15-1.52,6.56,1.33,14.47,7.75,17.2,12.38-12.71,22.72-28.58,33-43q7.76-10.84,15.18-21.92,3.85-5.75,7.61-11.57C126.31,89.48,132.68,81.69,132.22,80.14Z"/><ellipse class="cls-7" cx="148.39" cy="214.76" rx="92.49" ry="19.98"/><path class="cls-6" d="M201.46,128.81h0l-.09-.15q-1.36-2.44-2.93-4.74L175.93,87.57a29.34,29.34,0,0,0-53.32-.68h0L95.25,129.28h1.26a59.8,59.8,0,1,0,105-.46Z"/><path class="cls-6" d="M83.24,203.71l.2-.12c-6.66-1.1-8.49-10.62-10.23-15.38S83.91,171.8,83.91,171.8l-.59-25.89S59.6,173.76,57.55,181.1s2.78,29.37,2.78,29.37c0,1.35,1.09,2.61,3,3.67H95.95c1.88-1.06,3-2.32,3-3.67C98.93,207.11,92.17,204.32,83.24,203.71Z"/><path class="cls-6" d="M214.28,203.71l-.2-.12c6.66-1.1,8.49-10.62,10.23-15.38s-10.69-16.42-10.69-16.42l.59-25.89s23.72,27.85,25.76,35.2-2.78,29.37-2.78,29.37c0,1.35-1.09,2.61-3,3.67H201.57c-1.88-1.06-3-2.32-3-3.67C198.59,207.11,205.35,204.32,214.28,203.71Z"/><path class="cls-8" d="M187.23,206l-.32-.2c10.64-1.76,13.58-17,16.35-24.58S186.17,155,186.17,155L202,129.27s23,28.82,26.31,40.56-4.44,47-4.44,47c0,2.16-1.75,4.17-4.76,5.87h-52.2c-3-1.7-4.76-3.71-4.76-5.87C162.15,211.42,173,206.95,187.23,206Z"/><path class="cls-6" d="M198.8,170.48s-11.57-15.34,3.2-41.21L181.19,155Z"/><path class="cls-8" d="M187.23,183.4c0,14.09-16.93,25.52-37.81,25.52s-37.81-11.42-37.81-25.52S140.53,150,161.41,150,187.23,169.31,187.23,183.4Z"/><path class="cls-8" d="M110.54,206l.32-.2c-10.64-1.76-13.58-17-16.35-24.58S111.61,155,111.61,155L95.78,129.27s-23,28.82-26.31,40.56,4.44,47,4.44,47c0,2.16,1.75,4.17,4.76,5.87h52.2c3-1.7,4.76-3.71,4.76-5.87C135.63,211.42,124.83,206.95,110.54,206Z"/><path class="cls-6" d="M131.07,172.77s35.23,7.7,53.21-7.7C184.28,165.06,169.22,188.54,131.07,172.77Z"/><path class="cls-6" d="M109,168.4s30.15,19.79,52.45,11.82C161.41,180.22,138.95,196.76,109,168.4Z"/><path class="cls-6" d="M140.5,194.13s35.6,5.74,52.7-10.64C193.2,183.49,179.46,207.77,140.5,194.13Z"/><path class="cls-6" d="M118.2,145.53s28.76,21.76,51.54,15.3C169.74,160.83,146.23,175.84,118.2,145.53Z"/><path class="cls-9" d="M130.76,219.17c0,2.53-2,8-4.58,8s-4.58-5.48-4.58-8a4.58,4.58,0,0,1,9.15,0Z"/><path class="cls-9" d="M117.72,219.17c0,2.53-2,8-4.58,8s-4.58-5.48-4.58-8a4.58,4.58,0,1,1,9.15,0Z"/><path class="cls-9" d="M104.69,219.17c0,2.53-2,8-4.58,8s-4.58-5.48-4.58-8a4.58,4.58,0,0,1,9.15,0Z"/><path class="cls-9" d="M91.65,219.17c0,2.53-2,8-4.58,8s-4.58-5.48-4.58-8a4.58,4.58,0,0,1,9.15,0Z"/><path class="cls-9" d="M216.41,219.17c0,2.53-2,8-4.58,8s-4.58-5.48-4.58-8a4.58,4.58,0,1,1,9.15,0Z"/><path class="cls-9" d="M203.38,219.17c0,2.53-2,8-4.58,8s-4.58-5.48-4.58-8a4.58,4.58,0,0,1,9.15,0Z"/><path class="cls-9" d="M190.34,219.17c0,2.53-2,8-4.58,8s-4.58-5.48-4.58-8a4.58,4.58,0,1,1,9.15,0Z"/><path class="cls-9" d="M177.3,219.17c0,2.53-2,8-4.58,8s-4.58-5.48-4.58-8a4.58,4.58,0,0,1,9.15,0Z"/><path class="cls-8" d="M216.25,97.13s3.31-5.8,15.6-5.27c0,0-.72,18.22-15.12,16.44Z"/><path class="cls-6" d="M227.44,96.54s-6.6,1-8.68,5.78A20.28,20.28,0,0,0,227.44,96.54Z"/><path class="cls-6" d="M158.08,61.09,170.8,48.6a1.66,1.66,0,0,1,2.75.68l3.76,11.8Z"/><path class="cls-6" d="M144.66,64.87l5.9-9.3a1.66,1.66,0,0,1,2.53-.34l10.52,9.64Z"/><path class="cls-8" d="M123.45,92.72c2-11,7.68-22.46,19-27.84,7.64-3.63,16.71-4,25.43-4.33,10.13-.36,20.69-.64,29.92,3,24,9.42,24.54,37.76,23.79,57.56-.42,11.25-17.61,11.16-27.34,12.37a148.11,148.11,0,0,1-26.94.85,145.77,145.77,0,0,1-26.54-4c-5.94-1.48-18.15-3.23-19.58-9-1-3.95.67-9.92.87-14A115.7,115.7,0,0,1,123.45,92.72Z"/><polygon class="cls-10" points="139.94 121.31 134.24 126.29 128.47 121.38 134.18 110.95 139.94 121.31"/><polygon class="cls-10" points="229.68 121.31 223.98 126.29 218.21 121.38 223.91 110.95 229.68 121.31"/><polygon class="cls-10" points="162.88 121.16 157.18 126.14 151.41 121.23 157.11 116.24 162.88 121.16"/><polygon class="cls-10" points="174.35 121.08 168.64 126.07 162.88 121.16 168.58 116.17 174.35 121.08"/><polygon class="cls-10" points="185.81 121.01 180.11 125.99 174.35 121.08 180.05 116.09 185.81 121.01"/><polygon class="cls-10" points="197.28 120.93 191.58 125.92 185.81 121.01 191.52 116.02 197.28 120.93"/><polygon class="cls-10" points="208.75 120.86 203.05 125.84 197.28 120.93 202.98 115.94 208.75 120.86"/><polygon class="cls-10" points="219.05 120.78 213.34 125.77 207.58 120.86 213.28 115.87 219.05 120.78"/><path class="cls-8" d="M141.46,134.23a170.23,170.23,0,0,0,70.21,1.09c4.8-.94,9.64-2.13,13.75-4.46s7.46-6,8-10.22l-60.34-.29c-5.12,0-51.52,1.92-51.57,1.67C122.82,128.69,134.93,132.82,141.46,134.23Z"/><path class="cls-8" d="M129.16,97.13s-3.31-5.8-15.6-5.27c0,0,.72,18.22,15.12,16.44Z"/><path class="cls-6" d="M118,96.54s6.6,1,8.68,5.78A20.28,20.28,0,0,1,118,96.54Z"/><path class="cls-11" d="M194.63,106.18c-.09-.58-.6-1-1.78-1s-1.68.45-1.78,1v3.67h0c.09.68.58,1.1,1.79,1.1s1.73-.43,1.77-1.1v-3.67Z"/><path class="cls-11" d="M174.33,106.18c-.09-.58-.6-1-1.78-1s-1.68.45-1.78,1v3.67h0c.09.68.58,1.1,1.79,1.1s1.73-.43,1.77-1.1v-3.67Z"/><path class="cls-8" d="M111.61,155s7.62-12.5,0-25.86-15.83.18-15.83.18Z"/><ellipse class="cls-12" cx="153.15" cy="109.07" rx="10.45" ry="5.33"/><ellipse class="cls-12" cx="100.89" cy="133.05" rx="7.62" ry="2.8" transform="translate(-64.53 110.31) rotate(-45)"/><ellipse class="cls-12" cx="209.61" cy="109.07" rx="9.15" ry="5.33"/><path class="cls-8" d="M62.6,94.34l-9.83,37.3,1.08-.78c5.17-10.38,7-21.42,11.41-32Z"/><path class="cls-6" d="M70.13,107.3l-4.87-8.39c-4.4,10.53-6.23,21.58-11.41,32L84,109.07Z"/><path class="cls-6" d="M118.7,206.11S96.81,203,83.23,208.18Z"/><path class="cls-6" d="M180,206.11s21.89-3.16,35.47,2.07Z"/><path class="cls-6" d="M151.41,121.23a37.59,37.59,0,0,0-11.47,17.85l-5.73-6.43Z"/><path class="cls-13" d="M121.78,149.14s8.55-26.29,17.43-28.57l13.66-.49S137.59,130,121.78,149.14Z"/><path class="cls-6" d="M184.28,88.24s7.31-23.36,7.83-36.09a1.9,1.9,0,0,0-.61-1.67,1.66,1.66,0,0,0-1.77-.17l-20,10.17S182,61.09,184.28,88.24Z"/><path class="cls-9" d="M136.36,77s-8.22-13.45-6.47-29.49c0,0,14.31,17.61,20,21.88C149.85,69.41,149.36,76,136.36,77Z"/><path class="cls-9" d="M214.44,77.75s7.49-12.26,5.89-26.88c0,0-13,16.06-18.19,19.95C202.14,70.81,202.59,76.81,214.44,77.75Z"/><path class="cls-6" d="M160.23,101.52s22.12,12.37,44.25,0Z"/><path class="cls-6" d="M167.43,93.42s14.93,8.34,29.85,0Z"/><path class="cls-8" d="M142.7,162.55s-12.88-5.28-17.72-10.46a25.54,25.54,0,0,0,10.65,10.46Z"/><path class="cls-8" d="M115.47,57.59a18.26,18.26,0,0,0-7.06-1.23c-8.06.26-15.48,6.93-20.3,13.39C79.9,80.71,76.17,88,64,107.79,81.27,91.88,89.05,59.52,115.47,57.59Z"/><path class="cls-8" d="M66,154.71c1-.16,1.45-1.31,1.74-2.27,2.1-7,6.05-12.73,9-19.23a42,42,0,0,0-11.28,15.06C64.89,149.62,62.52,155.27,66,154.71Z"/><ellipse class="cls-14" cx="47.9" cy="226.09" rx="5.1" ry="1.93"/><ellipse class="cls-14" cx="251.71" cy="226.09" rx="5.1" ry="1.93"/><ellipse class="cls-14" cx="98.85" cy="235.45" rx="5.1" ry="1.93"/><ellipse class="cls-14" cx="200.76" cy="235.45" rx="5.1" ry="1.93"/><ellipse class="cls-14" cx="149.8" cy="239.79" rx="5.1" ry="1.93"/><path class="cls-15" d="M42.8,61V79.11A88.72,88.72,0,0,0,53,82.42V57.66A88.72,88.72,0,0,0,42.8,61Z"/><path class="cls-15" d="M246.61,58.08V82a77.9,77.9,0,0,0,10.2-3.54V61.61A77.89,77.89,0,0,0,246.61,58.08Z"/><path class="cls-15" d="M93.75,66V89.19q5,.5,10.2.9V66Z"/><path class="cls-15" d="M195.66,66V90q5.24-.42,10.2-.94V66Z"/><path class="cls-15" d="M144.7,70.39V91.75l4.35,0,5.85,0V70.39Z"/><ellipse class="cls-3" cx="149.05" cy="62.17" rx="116.88" ry="21.73"/><rect class="cls-3" x="32.17" y="47.32" width="233.76" height="14.85"/><ellipse class="cls-4" cx="149.05" cy="47.32" rx="116.88" ry="21.73"/><ellipse class="cls-16" cx="152.6" cy="39.17" rx="20.27" ry="5.69"/><path class="cls-15" d="M152,39.41s13.47,1.35,18.36-3c0,0-6.68-3-11.47-2.68Z"/><path class="cls-16" d="M152,6.88A16.26,16.26,0,1,0,168.3,23.15,16.26,16.26,0,0,0,152,6.88ZM152,30a6.89,6.89,0,1,1,6.89-6.89A6.89,6.89,0,0,1,152,30Z"/><path class="cls-14" d="M42.8,226.09H53V82.42a88.72,88.72,0,0,1-10.2-3.32Z"/><path class="cls-14" d="M246.61,226.09h10.2V78.47A77.9,77.9,0,0,1,246.61,82Z"/><path class="cls-14" d="M93.75,235.45H104V90.09q-5.23-.41-10.2-.9Z"/><path class="cls-14" d="M195.66,235.45h10.2V89q-5,.51-10.2.94Z"/><path class="cls-14" d="M144.7,91.75v148h10.2V91.74l-5.85,0Z"/></g></g></svg>