<svg xmlns="http://www.w3.org/2000/svg" viewBox="0 0 300 300"><defs><style>.cls-1{isolation:isolate;}.cls-2{fill:gray;opacity:0.5;}.cls-3{fill:#7e4e24;}.cls-4{fill:#925f36;}.cls-11,.cls-5{fill:#868686;}.cls-5{mix-blend-mode:multiply;}.cls-6{fill:#1d70b7;}.cls-7{fill:#009ee2;}.cls-8{fill:#fff;}.cls-9{fill:#04baee;}.cls-10{fill:#999;}.cls-12{fill:#b1b1b1;}</style></defs><title>Artboard 12</title><g class="cls-1"><g id="Layer_1" data-name="Layer 1"><ellipse class="cls-2" cx="152.05" cy="272.18" rx="100.15" ry="18.61"/><ellipse class="cls-3" cx="149.05" cy="238.26" rx="116.88" ry="21.73"/><rect class="cls-3" x="32.17" y="223.41" width="233.76" height="14.85"/><ellipse class="cls-4" cx="149.05" cy="223.41" rx="116.88" ry="21.73"/><ellipse class="cls-5" cx="144.12" cy="220.24" rx="54.55" ry="14.52"/><path class="cls-6" d="M121.39,204.2c4.69-.17,7.64-5,12.07-6.43,3.18-1,6.92-.28,9.84-1.87,5.09-2.77,4.84-11.06,10.39-12.9,4-1.31,8,1.72,10.51,4.87s4.89,6.92,8.92,8c4.3,1.14,8.92-1.47,11.28-5s3-7.87,3.55-12c.19-1.41-18.15-3.8-19.94-3.95a94.88,94.88,0,0,0-21.58.68,93.25,93.25,0,0,0-20.4,5.38c-3.08,1.2-17.53,9.45-20.23,6.18a61,61,0,0,1,7.87,11.24C115.2,201.32,117.32,204.35,121.39,204.2Z"/><path class="cls-7" d="M92.44,76.85c-2.79,10.62-3,21.68-2.76,32.62a348.45,348.45,0,0,0,10.17,75c.95,3.82,2.68,8.3,6.76,9.09s8.37-3,12.51-1.92c4,1,5.2,5.66,5.55,9.51s1,8.43,4.65,10.14c4.25,2,9.32-1.72,10.85-5.95s.92-8.86,1.78-13.24,4.21-9.05,9-8.94c4.2.1,7.26,3.94,8.42,7.74s1.12,7.89,2.62,11.58,5.42,7.06,9.51,6.14c4.67-1,6.18-6.59,6.05-11.1s-.82-9.59,2.32-13c2.58-2.8,7-3.48,10-5.88,4-3.17,4.74-8.57,5.19-13.46q2.47-27.26,2.72-54.65c.13-14.06-.28-28.59-6.52-41.37-7-14.32-21.33-25.28-37.68-28.76a60.24,60.24,0,0,0-42.17,7C101.14,53.32,95.19,66.38,92.44,76.85Z"/><path class="cls-7" d="M83.25,129.05c-1.76,2.52-3.6,5.28-3.39,8.29.29,4.07,4.68,7.26,9,7.12a12,12,0,0,0,10-6.8,17,17,0,0,0,.6-12c-.91-3.23-1.84-18.63-4-15.12C92,116.26,85.38,126,83.25,129.05Z"/><path class="cls-7" d="M139.61,216.36c-.5,2.6-.7,5.39.35,7.83s3.65,4.37,6.25,3.88a6.06,6.06,0,0,0,4.36-4.38,14.23,14.23,0,0,0,0-6.44c-.45-2.62-1.91-12.31-5.21-12.33C141.78,204.89,140.07,214,139.61,216.36Z"/><path class="cls-7" d="M151,191.55a20.56,20.56,0,0,0-2.8,5,6.94,6.94,0,0,0,.32,5.6,4.24,4.24,0,0,0,4.92,2,4.41,4.41,0,0,0,2.55-3.41,9.22,9.22,0,0,0-.5-4.38,20.91,20.91,0,0,0-3.66-6.75l-1.51,2.85"/><path class="cls-7" d="M104.29,200.33a4.94,4.94,0,0,0-1.95,6.76,5.18,5.18,0,0,0,6.9,2,5,5,0,0,0-3-9.32A5.18,5.18,0,0,0,104.29,200.33Z"/><path class="cls-7" d="M182,204.8c-.37,2.4-.49,5.4,1.58,6.67a4,4,0,0,0,4.84-1,7.39,7.39,0,0,0,1.56-5c0-4-2.26-9.21-6.11-10.79C182.51,197.55,182.47,201.61,182,204.8Z"/><path class="cls-8" d="M124.09,50.31c0-.4-.41-.71-.82-.77a2.78,2.78,0,0,0-1.23.22c-5.5,1.88-10.08,3.14-14.13,7.25-1.79,1.82-7.24,7.91-6.06,10.76,1.92,4.65,6.77-3.19,8-4.82a44.14,44.14,0,0,1,13.41-11.74C123.66,51,124.09,50.73,124.09,50.31Z"/><path class="cls-8" d="M97.28,75.38c-1.64,1.29-2.24,4.19-.74,5.57,3.9,3.59,8.44-5.3,3-6.17A2.82,2.82,0,0,0,97.28,75.38Z"/><path class="cls-9" d="M133.33,144.87c2.52,1.33,2.74,4.61,2.55,7.32s-.25,5.92,2.07,7.55c1.45,1,3.4,1.05,5.16,1.45s3.67,1.55,3.63,3.25c0,1.91-2.47,2.94-4.5,3A10.85,10.85,0,0,1,132,160.22c-.88-2.83-.5-6.19-2.6-8.39-1.42-1.49-3.63-2-5.34-3.21a10.14,10.14,0,0,1-4-7.14,25,25,0,0,1,.71-9.09c.29,2.39.29,5.06,1.3,7.32C124.53,145.28,128.82,142.49,133.33,144.87Z"/><path class="cls-9" d="M172.67,142.28c-.06,2.18-.57,4.93-2.83,5.46a3.76,3.76,0,0,1-3.76-1.7,9.69,9.69,0,0,1-1.28-4,14.61,14.61,0,0,0-.06,6.47,5.52,5.52,0,0,0,4.81,4.09c2.39.07,4.41-1.88,5.09-4s.35-4.46,0-6.68c-.43-2.79-.57-5.9-1.53-8.54C172.4,136.08,172.74,139.44,172.67,142.28Z"/><path class="cls-9" d="M152.55,66.75a5,5,0,0,1,2.62,4,32.52,32.52,0,0,0,.61,4.88c1.12,3.58,5.76,5.79,9.49,4.49s5.75-5.8,4.12-9.21a10.06,10.06,0,0,1-1.8,4.26A4.63,4.63,0,0,1,163.31,77c-2.5-.49-3.55-3.3-3.78-5.69s-.19-5.09-2-6.79c-2.79-2.63-7.14-1.13-10.38-2.5-2.67-1.13-6.74-5.7-4.52-8.53-2.6,3.31-2.89,9.86,1,12.56C146.57,68,149.59,65.52,152.55,66.75Z"/><path class="cls-6" d="M116.4,210.85a18.13,18.13,0,0,0-3.21,6.68c-.45,2.43.76,5.37,3.17,5.93a4.52,4.52,0,0,0,4.88-2.78,7.4,7.4,0,0,0-.37-5.92c-.91-1.9-2.39-3.55-3.48-5.38Z"/><path class="cls-6" d="M168,225.8c2.38-3.36-.59-8.23-4.64-7.89-3.46.29-5.63,4.76-3.78,7.67A5.33,5.33,0,0,0,168,225.8Z"/><path class="cls-6" d="M189.14,141.61a12,12,0,0,0,.24,8.72,13,13,0,0,0,6.21,6.48c.09-3.1,1.38-6.23,1.48-9.33C194.79,145.45,191.43,143.64,189.14,141.61Z"/><path class="cls-7" d="M205.33,136.28c1.76,2.52,3.6,5.28,3.39,8.29-.29,4.07-4.68,7.26-9,7.12a12,12,0,0,1-10-6.8,17,17,0,0,1-.6-12c.91-3.23,1.84-18.63,4-15.12C196.56,123.49,203.2,133.24,205.33,136.28Z"/><path d="M123.25,86.39a3.22,3.22,0,0,0-1.53-.36,2.57,2.57,0,0,0-2.78,2.58v9.71h0c.14,1.81.9,2.9,2.8,2.91s2.71-1.13,2.77-2.91V88.61h0A2.6,2.6,0,0,0,123.25,86.39Z"/><path d="M141,86.3a3.22,3.22,0,0,0-1.53-.36,2.57,2.57,0,0,0-2.78,2.58v9.71h0c.14,1.81.9,2.9,2.8,2.91s2.71-1.13,2.77-2.91V88.52h0A2.6,2.6,0,0,0,141,86.3Z"/><ellipse class="cls-10" cx="47.9" cy="224.09" rx="5.1" ry="1.93"/><ellipse class="cls-10" cx="251.71" cy="224.09" rx="5.1" ry="1.93"/><ellipse class="cls-10" cx="98.85" cy="233.45" rx="5.1" ry="1.93"/><ellipse class="cls-10" cx="200.76" cy="233.45" rx="5.1" ry="1.93"/><ellipse class="cls-10" cx="149.8" cy="237.79" rx="5.1" ry="1.93"/><path class="cls-11" d="M42.8,59V77.11A88.72,88.72,0,0,0,53,80.42V55.66A88.72,88.72,0,0,0,42.8,59Z"/><path class="cls-11" d="M246.61,56.08V80a77.9,77.9,0,0,0,10.2-3.54V59.61A77.89,77.89,0,0,0,246.61,56.08Z"/><path class="cls-11" d="M93.75,64V87.19q5,.5,10.2.9V64Z"/><path class="cls-11" d="M195.66,64V88q5.24-.42,10.2-.94V64Z"/><path class="cls-11" d="M144.7,68.39V89.75l4.35,0,5.85,0V68.39Z"/><ellipse class="cls-3" cx="149.05" cy="60.17" rx="116.88" ry="21.73"/><rect class="cls-3" x="32.17" y="45.32" width="233.76" height="14.85"/><ellipse class="cls-4" cx="149.05" cy="45.32" rx="116.88" ry="21.73"/><ellipse class="cls-12" cx="152.6" cy="37.17" rx="20.27" ry="5.69"/><path class="cls-11" d="M152,37.41s13.47,1.35,18.36-3c0,0-6.68-3-11.47-2.68Z"/><path class="cls-12" d="M152,4.88A16.26,16.26,0,1,0,168.3,21.15,16.26,16.26,0,0,0,152,4.88ZM152,28a6.89,6.89,0,1,1,6.89-6.89A6.89,6.89,0,0,1,152,28Z"/><path class="cls-10" d="M42.8,224.09H53V80.42a88.72,88.72,0,0,1-10.2-3.32Z"/><path class="cls-10" d="M246.61,224.09h10.2V76.47A77.9,77.9,0,0,1,246.61,80Z"/><path class="cls-10" d="M93.75,233.45H104V88.09q-5.23-.41-10.2-.9Z"/><path class="cls-10" d="M195.66,233.45h10.2V87q-5,.51-10.2.94Z"/><path class="cls-10" d="M144.7,89.75v148h10.2V89.74l-5.85,0Z"/></g></g></svg>