<svg xmlns="http://www.w3.org/2000/svg" xmlns:xlink="http://www.w3.org/1999/xlink" viewBox="0 0 300 300"><defs><style>.cls-1{fill:none;}.cls-2{isolation:isolate;}.cls-3{fill:gray;opacity:0.5;}.cls-4{fill:#7e4e24;}.cls-5{fill:#925f36;}.cls-17,.cls-6{fill:#868686;}.cls-6{mix-blend-mode:multiply;}.cls-7{fill:#9c9b9b;}.cls-8{fill:#e84e1b;}.cls-14,.cls-9{fill:#f8b133;}.cls-10{fill:#d29229;}.cls-11,.cls-14{fill-rule:evenodd;}.cls-12{fill:#fff;}.cls-13{fill:#1d1d1b;}.cls-15{clip-path:url(#clip-path);}.cls-16{fill:#999;}.cls-18{fill:#b1b1b1;}</style><clipPath id="clip-path"><circle class="cls-1" cx="150.2" cy="125.85" r="12.39"/></clipPath></defs><title>Artboard 2</title><g class="cls-2"><g id="Layer_1" data-name="Layer 1"><ellipse class="cls-3" cx="152.05" cy="274.18" rx="100.15" ry="18.61"/><ellipse class="cls-4" cx="149.05" cy="240.26" rx="116.88" ry="21.73"/><rect class="cls-4" x="32.17" y="225.41" width="233.76" height="14.85"/><ellipse class="cls-5" cx="149.05" cy="225.41" rx="116.88" ry="21.73"/><ellipse class="cls-6" cx="150.57" cy="212.71" rx="82.01" ry="16.46"/><polygon class="cls-7" points="207 142.26 213.58 119.78 219.49 118.02 222.18 143.25 207 142.26"/><polygon class="cls-7" points="240.75 142.55 236.04 119.61 230.3 117.37 225.54 142.28 240.75 142.55"/><rect class="cls-8" x="114.04" y="153.21" width="72.33" height="52.14"/><path class="cls-9" d="M182.31,147.89c-4.09,4.43-16.91,7.67-32.11,7.67s-28-3.24-32.11-7.67c-2.59,1.59-4.06,3.4-4.06,5.32,0,6.39,16.19,11.56,36.17,11.56s36.16-5.18,36.16-11.56C186.37,151.29,184.9,149.48,182.31,147.89Z"/><path class="cls-10" d="M150.21,155.56c15.19,0,28-3.24,32.11-7.67-6-3.71-18.13-6.24-32.11-6.24s-26.09,2.54-32.11,6.24C122.19,152.32,135,155.56,150.21,155.56Z"/><rect class="cls-8" x="114.04" y="68.46" width="72.33" height="68.44"/><path class="cls-11" d="M170.08,96a2.77,2.77,0,0,0-3-2.81A2.8,2.8,0,0,0,164,96v10.58h0c.15,2,1,3.16,3,3.17s3-1.23,3-3.17V96Z"/><path class="cls-11" d="M135.51,96a2.77,2.77,0,0,0-3-2.81,2.8,2.8,0,0,0-3,2.81v10.58h0c.15,2,1,3.16,3,3.17s3-1.23,3-3.17V96Z"/><ellipse class="cls-9" cx="111.21" cy="95.1" rx="8.84" ry="10.22"/><ellipse class="cls-9" cx="107.05" cy="163.5" rx="8.84" ry="10.22"/><ellipse class="cls-9" cx="188.71" cy="95.1" rx="8.84" ry="10.22"/><ellipse class="cls-9" cx="192.52" cy="166.17" rx="8.84" ry="10.22"/><ellipse class="cls-9" cx="150.2" cy="68.46" rx="36.16" ry="11.56"/><ellipse class="cls-8" cx="150.2" cy="136.9" rx="36.16" ry="11.56"/><path class="cls-7" d="M209.52,185.66l5.23.11c-1.59-7.07-19.08-6.43-25.34,5.78-2.58,5-3,9.93-8.4,12.54-1.06.51-2.14,1.14-3.21,1.78l-6.41,3.87c3.62,6.4,18,6.67,24.89-.61,2.21-2.32,2.8-5.7,5.08-8,2.47-2.45,4.92.86,7-.47,1.11-.72,1.54-4.49,1.82-5.69C210.55,193.41,212.55,186,209.52,185.66Z"/><path class="cls-7" d="M217.25,150.61a0,0,0,0,0,0,0,8.21,8.21,0,0,1-6.62,13.24c-4.07-.14-6.41-1-10.14-2.86a7.21,7.21,0,0,0-1.28-.53c-4.48-1.23-7.92,3.63-7.21,7.66.51,2.91,2.91,4.72,5.41,6a32.23,32.23,0,0,0,17.49,2.7c7.8-1,15.57-4.67,17.06-13.2.5-2.87,1-9.6-.75-12.11-1.48-2.08-5.26-2.41-7.56-2.44C223.09,149.07,217.45,150.23,217.25,150.61Z"/><path class="cls-8" d="M205.49,187.81c-4.86,13.32,1.4,27.83,14,32.43s20.43-5.58,25.29-18.9,4.91-24.73-7.69-29.32S210.35,174.49,205.49,187.81Z"/><ellipse class="cls-9" cx="234.11" cy="198.25" rx="25.67" ry="15.16" transform="matrix(0.34, -0.94, 0.94, 0.34, -32.39, 350.2)"/><path class="cls-12" d="M220.67,193.42a2.68,2.68,0,0,1-2.63-3.19c.1-.53,2.66-13,14.07-17.23a2.68,2.68,0,0,1,1.86,5c-8.54,3.16-10.65,13.14-10.67,13.24A2.68,2.68,0,0,1,220.67,193.42Z"/><path class="cls-13" d="M108.53,89.22a2.68,2.68,0,0,1-2.68-2.68V46.8a2.68,2.68,0,0,1,5.36,0V86.54A2.68,2.68,0,0,1,108.53,89.22Z"/><path class="cls-13" d="M191.41,89.22a2.68,2.68,0,0,1-2.68-2.68V46.8a2.68,2.68,0,1,1,5.36,0V86.54A2.68,2.68,0,0,1,191.41,89.22Z"/><circle class="cls-8" cx="108.53" cy="46.8" r="6.98"/><circle class="cls-8" cx="191.81" cy="46.8" r="7"/><path class="cls-12" d="M143.76,83c-16,0-24.78-5.66-25.19-5.93a2.68,2.68,0,0,1,2.95-4.48c.14.09,10.25,6.47,28.44,4.76a2.68,2.68,0,0,1,.5,5.33C148.1,82.91,145.87,83,143.76,83Z"/><circle class="cls-12" cx="106.66" cy="45.13" r="2.85"/><path class="cls-14" d="M105.58,87.23s4,1.37,5.63-2.35l1.66,4.35-7.29.59Z"/><path class="cls-14" d="M194.31,87.23s-4,1.37-5.63-2.35L187,89.24l7.29.59Z"/><path class="cls-7" d="M119.11,204.09c-5.43-2.61-5.81-7.5-8.4-12.54-6.24-12.16-23.74-12.88-25.34-5.78l5.23-.11c-3,.36-1,7.75-.65,9.34.28,1.2.71,5,1.82,5.69,2.06,1.33,4.51-2,7,.47,4,3.92,2.35,9.08,13.63,12.73,4.8,1.55,13.58.7,16.33-4.16C125.65,208.46,119.11,204.09,119.11,204.09Z"/><path class="cls-8" d="M94.65,187.81c4.86,13.32-1.4,27.83-14,32.43s-20.43-5.58-25.29-18.9S50.45,176.62,63,172,89.79,174.49,94.65,187.81Z"/><ellipse class="cls-9" cx="66.03" cy="198.25" rx="15.16" ry="25.67" transform="translate(-63.97 34.65) rotate(-20.05)"/><path class="cls-12" d="M82.75,207.86h-.23A2.68,2.68,0,0,1,80.07,205c1.12-13.27-8.73-22.28-8.83-22.37a2.68,2.68,0,0,1,3.56-4c.49.43,11.95,10.82,10.6,26.81A2.68,2.68,0,0,1,82.75,207.86Z"/><circle class="cls-7" cx="150.2" cy="125.85" r="17.52"/><g class="cls-15"><rect x="137.82" y="111.18" width="4.39" height="30.31"/><rect x="144.8" y="111.18" width="4.39" height="30.31"/><rect x="151.79" y="111.18" width="4.39" height="30.31"/><rect x="158.78" y="111.18" width="4.39" height="30.31"/></g><ellipse class="cls-8" cx="150.07" cy="200.6" rx="36.16" ry="11.56"/><rect class="cls-7" x="128.8" y="175.1" width="42.61" height="19.97"/><ellipse class="cls-8" cx="150.12" cy="173.93" rx="22.98" ry="4.43"/><ellipse class="cls-7" cx="150.03" cy="194.43" rx="21.31" ry="4.43"/><path class="cls-8" d="M207,142.26a6.46,6.46,0,0,0-.07.83c0,5.75,7.62,10.41,17,10.41s17-4.66,17-10.41a7.08,7.08,0,0,0-1.34-4.06C228.74,140.37,217.87,140.88,207,142.26Z"/><path class="cls-7" d="M83.39,149.43a0,0,0,0,1,0,0A8.21,8.21,0,0,0,90,162.72c4.07-.14,6.41-1,10.14-2.86a7.21,7.21,0,0,1,1.28-.53c4.48-1.23,7.92,3.63,7.21,7.66-.51,2.91-2.91,4.72-5.41,6a32.23,32.23,0,0,1-17.49,2.7c-7.8-1-15.57-4.67-17.06-13.2-.5-2.87-1-9.6.75-12.11,1.48-2.08,5.26-2.41,7.56-2.44C77.55,147.9,83.19,149.06,83.39,149.43Z"/><path class="cls-8" d="M92.23,127.82l-7.92,6.74a6.82,6.82,0,0,1,.63,6.64,7.4,7.4,0,0,1-13.44-6.14,6.89,6.89,0,0,1,6.29-3.93l.56-10.33a17.18,17.18,0,0,0-16.78,9.73c-3.94,8.62.33,19,9.52,23.21s19.84.62,23.77-8A17,17,0,0,0,92.23,127.82Z"/><polygon class="cls-9" points="150.03 180.28 151.99 186.33 158.35 186.33 153.21 190.07 155.17 196.12 150.03 192.38 144.88 196.12 146.85 190.07 141.7 186.33 148.06 186.33 150.03 180.28"/><ellipse class="cls-16" cx="47.9" cy="226.09" rx="5.1" ry="1.93"/><ellipse class="cls-16" cx="251.71" cy="226.09" rx="5.1" ry="1.93"/><ellipse class="cls-16" cx="98.85" cy="235.45" rx="5.1" ry="1.93"/><ellipse class="cls-16" cx="200.76" cy="235.45" rx="5.1" ry="1.93"/><ellipse class="cls-16" cx="149.8" cy="239.79" rx="5.1" ry="1.93"/><path class="cls-17" d="M42.8,61V79.11A88.72,88.72,0,0,0,53,82.42V57.66A88.72,88.72,0,0,0,42.8,61Z"/><path class="cls-17" d="M246.61,58.08V82a77.9,77.9,0,0,0,10.2-3.54V61.61A77.89,77.89,0,0,0,246.61,58.08Z"/><path class="cls-17" d="M93.75,66V89.19q5,.5,10.2.9V66Z"/><path class="cls-17" d="M195.66,66V90q5.24-.42,10.2-.94V66Z"/><path class="cls-17" d="M144.7,70.39V91.75l4.35,0,5.85,0V70.39Z"/><ellipse class="cls-4" cx="149.05" cy="62.17" rx="116.88" ry="21.73"/><rect class="cls-4" x="32.17" y="47.32" width="233.76" height="14.85"/><ellipse class="cls-5" cx="149.05" cy="47.32" rx="116.88" ry="21.73"/><ellipse class="cls-18" cx="152.6" cy="39.17" rx="20.27" ry="5.69"/><path class="cls-17" d="M152,39.41s13.47,1.35,18.36-3c0,0-6.68-3-11.47-2.68Z"/><path class="cls-18" d="M152,6.88A16.26,16.26,0,1,0,168.3,23.15,16.26,16.26,0,0,0,152,6.88ZM152,30a6.89,6.89,0,1,1,6.89-6.89A6.89,6.89,0,0,1,152,30Z"/><path class="cls-16" d="M42.8,226.09H53V82.42a88.72,88.72,0,0,1-10.2-3.32Z"/><path class="cls-16" d="M246.61,226.09h10.2V78.47A77.9,77.9,0,0,1,246.61,82Z"/><path class="cls-16" d="M93.75,235.45H104V90.09q-5.23-.41-10.2-.9Z"/><path class="cls-16" d="M195.66,235.45h10.2V89q-5,.51-10.2.94Z"/><path class="cls-16" d="M144.7,91.75v148h10.2V91.74l-5.85,0Z"/></g></g></svg>