<svg xmlns="http://www.w3.org/2000/svg" viewBox="0 0 300 300"><defs><style>.cls-1{isolation:isolate;}.cls-2{fill:#db4a4b;}.cls-3{fill:#a2195b;}.cls-4{fill:#ccc;mix-blend-mode:multiply;}.cls-10,.cls-13,.cls-14,.cls-15,.cls-5{fill-rule:evenodd;}.cls-15,.cls-6{fill:#3d3938;}.cls-10,.cls-7{fill:#35a8e0;}.cls-8{fill:#f8b133;}.cls-9{fill:#fff;}.cls-11,.cls-13{fill:#1d70b7;}.cls-12{fill:#1d1d1b;}.cls-14,.cls-16{fill:#e20613;}</style></defs><title>Artboard 7</title><g class="cls-1"><g id="Layer_1" data-name="Layer 1"><path class="cls-2" d="M75.75,126.37c-8.86,1.6-15.63,9-19.93,16.87S48.35,160.15,43.93,168a26.54,26.54,0,0,1,11.71,14.66A28.16,28.16,0,0,1,54.88,202l7.32.87c3.21.38,6.52.8,9.31,2.42a16,16,0,0,1,6.35,7.66c1.35,3.09,3.2,7,3.87,10.27a43.76,43.76,0,0,1,25.22-29.08c-12.36-5.46-22.55-16.65-28.27-28.89A55.08,55.08,0,0,1,75.75,126.37Z"/><path class="cls-2" d="M197.21,162.64c26-4.13,52.32-17.3,70.75-36.08-.89,12.73.39,17.46-.5,30.18-.36,5.1.84,17.14,1.67,22.18s2,15,5.93,18.36c-6.32-3.48-17.47-5.88-24.14-3.12s-12.61,7-19.18,10a54.54,54.54,0,0,1-41.39,1.21A195.94,195.94,0,0,0,197.21,162.64Z"/><circle class="cls-3" cx="219.16" cy="197.29" r="17.15"/><circle class="cls-3" cx="260.26" cy="205.08" r="17.15"/><ellipse class="cls-4" cx="150.75" cy="227.24" rx="91.13" ry="18.29"/><path class="cls-5" d="M87.15,191.14v29.59H208.77V185.61C174.69,208,123.63,207.31,87.15,191.14Z"/><g id="JJsqev"><path class="cls-5" d="M75.71,197.29c-2-2.1-3.69-3.37-4.75-5-6-9.45-14.6-8.69-22.78-4.65-8.38,4.13-10.82,11.42-8,20.86,6.72,22.63,21.42,31.83,43.59,25.37l1.67-.47-6.11-37.94Z"/><path d="M38.68,172s35.66-7.68,43,38.33L49.82,226.43S28.83,201,38.68,172Z"/><path class="cls-6" d="M36.52,172.16s32.88-3.37,40.26,42.64L47.66,226.62S26.67,201.16,36.52,172.16Z"/><path class="cls-6" d="M76.78,220.1,51.1,229.71s12.8,10.18,22.07,5.19S76.78,220.1,76.78,220.1Z"/><path class="cls-5" d="M153.8,213.68c-4.06,2.28-8.67,6.19-13.59,6.61-5.22.46-14.89-2.17-15.37-4.78-1.28-6.93-5.52-4.13,4.54-10.19a16.25,16.25,0,0,0,5.34-5L92,188.89l-12.66,6.52,6.11,37.94a249.76,249.76,0,0,1,68.36-9.79Z"/></g><g id="JJsqev-2" data-name="JJsqev"><path class="cls-5" d="M224.13,197.29c2-2.1,3.69-3.37,4.75-5,6-9.45,14.6-8.69,22.78-4.65,8.38,4.13,10.82,11.42,8,20.86-6.72,22.63-21.42,31.83-43.59,25.37l-1.67-.47,6.11-37.94Z"/><path class="cls-5" d="M146.05,213.68c4.06,2.28,8.67,6.19,13.59,6.61,5.22.46,14.89-2.17,15.37-4.78,1.28-6.93,5.52-4.13-4.54-10.19a16.25,16.25,0,0,1-5.34-5l42.73-11.43,12.66,6.52-6.11,37.94a249.76,249.76,0,0,0-68.36-9.79Z"/></g><line class="cls-7" x1="224.13" y1="197.29" x2="257.17" y2="215.42"/><path class="cls-2" d="M246.2,83.21a275.82,275.82,0,0,1-27.68,4.1c-1,9.38-2.69,18.48-4.46,27.44C228.23,98.35,246.2,83.21,246.2,83.21Z"/><path class="cls-2" d="M56.19,80.6C65.76,89.31,98.24,132,98.24,132l100.39,5.84a49.23,49.23,0,0,1,4.55-8.8C202,115.6,201.68,102.14,201,88.67,132.28,92.49,56.19,80.6,56.19,80.6Z"/><path class="cls-2" d="M218.52,87.31c-5.76.58-11.62,1-17.54,1.35.7,13.47,1.05,26.94,2.21,40.41a124.76,124.76,0,0,1,10.88-14.31C215.83,105.79,217.56,96.69,218.52,87.31Z"/><path class="cls-3" d="M217.22,87.31c-5.76.58-11.62,1-17.54,1.35.7,13.47,1.05,26.94,2.21,40.41a124.76,124.76,0,0,1,10.88-14.31C214.53,105.79,216.26,96.69,217.22,87.31Z"/><path class="cls-5" d="M87.15,124.46v66.68c36.48,16.17,87.55,16.84,121.62-5.53V128.19C173.1,147.79,124.26,142.77,87.15,124.46Z"/><path class="cls-8" d="M176.72,189.89a13.63,13.63,0,0,1-10.64-4.49c-6.31-7.07-4.92-20-4.85-20.5l3.89.44c0,.12-1.25,11.7,3.89,17.46a9.75,9.75,0,0,0,7.72,3.17,9,9,0,0,0,7-3c6.07-6.67,4.69-21.93,4.68-22.08l3.89-.37c.07.7,1.55,17.12-5.67,25.08A12.83,12.83,0,0,1,176.72,189.89Z"/><polygon class="cls-9" points="117.07 135.59 149.66 164.1 185.78 137.12 117.07 135.59"/><path class="cls-10" d="M87.15,108.49v16c37.11,18.31,85.95,23.33,121.62,3.73v-19.7Z"/><path class="cls-5" d="M163.16,88.24c0,5.91-6.38,14.46-14.25,14.46s-14.25-8.56-14.25-14.46,6.38-10.7,14.25-10.7S163.16,82.33,163.16,88.24Z"/><g id="VMQt43"><path class="cls-5" d="M120.44,99.51c0,2.71-.82,4.37-3.4,4.38-2.22,0-3.26-1.36-3.33-3.49-.08-2.33.82-4,3.38-4A3.09,3.09,0,0,1,120.44,99.51Z"/><path class="cls-5" d="M147.7,113.23c-1.88.17-3,1.15-3.13,3.07s.81,3.18,2.78,3.31a5.08,5.08,0,0,0,.64,0v-6.32Z"/><path class="cls-10" d="M147.67,104.63a3.09,3.09,0,0,0,0,6.18l.33,0v-6.15Z"/></g><g id="VMQt43-2" data-name="VMQt43"><path class="cls-10" d="M208.54,124.14c-.2-12.24,2.76-27.79-.92-39.6-3.44-11-12.72-22.29-22.47-28.24-9.52-5.81-20.78-8.38-31.92-8.57-16.51-.29-34.23-.46-47.77,10.51-20.52,16.62-17.64,42.41-18.06,65.9,0,1.74-.83,3.7.69,5.28,2.84-5.5,8.55-4.38,13-5,15.55-2.23,31.18,4.87,46.86,5,15.64-.12,31.28-7.23,46.82-5,4.49.65,10.2-.47,13,5C209.36,127.84,208.57,125.88,208.54,124.14Z"/></g><path d="M238.61,115.53c-3,4.2-6.12,8.23-10.4,11.35-6.28,4.57-15,6.62-21.9,3-8.37,7.16-8.65,24.28-3.54,34,15.27.74,31.85-.71,44.8-9.61a48.17,48.17,0,0,0,13.56-14.49,70.76,70.76,0,0,0,4.62-8.91,32.19,32.19,0,0,0,1.71-5.12C257,124.88,246.63,122.09,238.61,115.53Z"/><path class="cls-7" d="M269.13,116.42l-4.76-.51-4.32-9.3-9.46,4.14-5.5-4.33c-2.3,2.94-4.34,6.07-6.49,9.11,8,6.56,18.42,9.36,28.85,10.28C268.22,122.75,268.63,119.65,269.13,116.42Z"/><path class="cls-7" d="M126.71,179.45c-.07-2-2.7-4.31-3.81-5.78,1.2-1,1.89-2.4,2.94-3.58.22-.22-7.47-3.85-8.31-4.2-2-.81-3.93-1.58-5.84-2.39-6.7,9-7.24,20-4.8,30.78a23.74,23.74,0,0,0,17.92-5.93l-3-2.92C121.5,185.17,126.73,180.22,126.71,179.45Z"/><path d="M91.65,141.67A39.78,39.78,0,0,1,92,136c.57-6.11-3-11.41-5.45-16.84-12,3-22,12.51-24.7,24.7-3.08,13.91,4.42,26.24,13.76,35.89,6.5,6.72,15,10.91,24,13.25a39.58,39.58,0,0,0,7.28,1.24c-2-8.89-2-17.87,1.78-25.78C97.14,165.36,88.34,153.08,91.65,141.67Z"/><path class="cls-6" d="M108.67,168.5a30,30,0,0,1,3-5A42.71,42.71,0,0,1,100,156.69c-4.1-3.54-7.78-8.91-8.32-14.44,0-.19,0-.39,0-.59C88.34,153.08,97.14,165.36,108.67,168.5Z"/><path class="cls-5" d="M171.3,90.38c-.16-1-1.07-1.71-3.17-1.73s-3,.8-3.16,1.73v6.51h0c.16,1.22,1,1.95,3.18,2s3.08-.76,3.14-2V90.38Z"/><path class="cls-5" d="M135.24,90.38c-.16-1-1.07-1.71-3.17-1.73s-3,.8-3.16,1.73v6.51h0c.16,1.22,1,1.95,3.18,2s3.08-.76,3.14-2V90.38Z"/><polygon points="151.43 140.73 134.85 150.93 134.85 130.53 151.43 140.73 151.43 140.73"/><polygon points="151.43 140.73 168.01 150.93 168.01 130.53 151.43 140.73 151.43 140.73"/><path class="cls-5" d="M148.91,77.54s-10-28.19-43.46-19.3c0,0,42.86-35.48,87.5,4.06C193,62.3,162.56,51.17,148.91,77.54Z"/><path class="cls-11" d="M150.14,119.19a116.81,116.81,0,0,1-40-6.88,2.61,2.61,0,0,1,1.93-4.84c.37.15,37,14.38,74.06,0a2.61,2.61,0,0,1,1.89,4.86A104.57,104.57,0,0,1,150.14,119.19Z"/><path class="cls-12" d="M144.59,123.67c1.73-.1,2.92,0,3.87,0s1.57,0,2.22.05,1.4.13,2.42.18a37.12,37.12,0,0,1,3.9.37h0a1.05,1.05,0,0,1,.86,1.21l0,.08a7,7,0,0,1-2.6,3.9,8,8,0,0,1-4.8,1.58,7.28,7.28,0,0,1-4.88-1.85,6.12,6.12,0,0,1-2.09-4.38,1.08,1.08,0,0,1,1-1.12Z"/><path class="cls-11" d="M139.35,105.1a24.48,24.48,0,0,1,5.7-1.26,36.4,36.4,0,0,1,5.2-.21,48.63,48.63,0,0,1,5.28.38,25.38,25.38,0,0,1,5.71,1.38h0a.92.92,0,0,1,.53,1.19.93.93,0,0,1-.25.36,15.33,15.33,0,0,1-5.38,3,19.85,19.85,0,0,1-5.92,1,17,17,0,0,1-6-.93,12.5,12.5,0,0,1-5.3-3.41.93.93,0,0,1,.37-1.49Z"/><polygon class="cls-9" points="113.73 110.81 117.07 127.77 120.44 112.76 113.73 110.81"/><polygon class="cls-9" points="186.12 110.81 182.78 127.77 179.41 112.76 186.12 110.81"/><path class="cls-7" d="M99.3,80.8s-5.87-10.31-27.71-9.37c0,0,1.28,32.37,26.87,29.2Z"/><path class="cls-11" d="M79.41,79.75S91.12,81.55,94.83,90C94.83,90,87.23,88.06,79.41,79.75Z"/><path class="cls-7" d="M199.27,80.8s5.87-10.31,27.71-9.37c0,0-1.28,32.37-26.87,29.2Z"/><path class="cls-11" d="M219.16,79.75S207.44,81.55,203.73,90C203.73,90,211.33,88.06,219.16,79.75Z"/><polygon points="56.19 80.6 119.67 137.87 88.08 129.42 56.19 80.6 56.19 80.6"/><polygon points="246.2 83.21 182.72 140.48 214.32 132.03 246.2 83.21 246.2 83.21"/><path class="cls-13" d="M178.63,89.1a33.68,33.68,0,0,0,2.82-2.15c1.21-1.12,1.63-2.51.47-3.9a2.47,2.47,0,0,0-3.5-.43c-4.59,3.31-9.19,6.09-15.26,3.9-1.06-.38-2.32.92-2.57,2.4-.29,1.69,1,2.35,2.15,2.78C168.38,93.79,173.56,92.66,178.63,89.1Z"/><path class="cls-13" d="M133.07,92.23a33.68,33.68,0,0,0,3.55.11c1.64-.11,2.85-.93,2.82-2.73A2.47,2.47,0,0,0,137,87.07c-5.65-.32-11-1.05-14.32-6.57-.59-1-2.38-.75-3.51.24-1.29,1.13-.72,2.44-.08,3.51C122.15,89.42,126.89,91.8,133.07,92.23Z"/><path class="cls-11" d="M103.84,113.15a1.3,1.3,0,0,1-.08-2.6c.29,0,6.6-.58,9.4-8.28a1.3,1.3,0,1,1,2.45.89c-3.41,9.37-11.34,10-11.68,10Z"/><path class="cls-11" d="M194.7,113.15h-.08c-.34,0-8.27-.62-11.68-10a1.3,1.3,0,1,1,2.45-.89c2.83,7.79,9.33,8.28,9.39,8.28a1.3,1.3,0,0,1-.08,2.6Z"/><path class="cls-14" d="M188.07,140.19a5.3,5.3,0,0,1-10.6,0c0-2.93,5.3-12.42,5.3-12.42S188.07,137.26,188.07,140.19Z"/><path class="cls-15" d="M113.71,197.29s46.92,12.88,85.66-2.93C199.38,194.35,161.82,222.11,113.71,197.29Z"/><path d="M262.08,172.78s-32.33-4.25-43.56,27.2l21.78,8.89Z"/><path class="cls-6" d="M262.08,172.78s-32.88-3.37-40.26,42.64l29.12,11.82S271.93,201.79,262.08,172.78Z"/><path class="cls-6" d="M221.82,220.73l25.69,9.61s-12.8,10.18-22.07,5.19S221.82,220.73,221.82,220.73Z"/><path class="cls-2" d="M81.38,184.76s10.84,8.86,25.51,9.53c0,0-10.42,7.58-12.05,16,0,0-.36-16.36-15.5-14.88Z"/><ellipse class="cls-16" cx="188.23" cy="244.12" rx="20.22" ry="7.21"/><ellipse class="cls-16" cx="202" cy="252.3" rx="7.72" ry="2.75"/><path class="cls-6" d="M157.45,165.13s12-3.58,23.9,0C181.35,165.13,171.19,168.22,157.45,165.13Z"/><circle class="cls-8" cx="190.34" cy="160.73" r="11.37"/><circle class="cls-6" cx="190.34" cy="160.73" r="5.85"/></g></g></svg>