<svg id="Layer_1" data-name="Layer 1" xmlns="http://www.w3.org/2000/svg" viewBox="0 0 300 300"><defs><style>.cls-1{fill:gray;opacity:0.5;}.cls-2{fill:#7e4e24;}.cls-3{fill:#925f36;}.cls-15,.cls-4{fill:#a366a6;}.cls-16,.cls-5{fill:#bc94c3;}.cls-6{fill:none;}.cls-7{fill:#fff;}.cls-8{fill:#28416b;}.cls-9{fill:#e5007e;}.cls-10{fill:#a3897a;}.cls-11{fill:#f8b133;}.cls-12,.cls-14{fill:#914b96;}.cls-13{fill:#5576b8;}.cls-14,.cls-15,.cls-16{fill-rule:evenodd;}.cls-17{fill:#999;}.cls-18{fill:#868686;}.cls-19{fill:#b1b1b1;}</style></defs><title>Artboard 10</title><ellipse class="cls-1" cx="152.87" cy="272.18" rx="100.15" ry="18.61"/><ellipse class="cls-2" cx="149.88" cy="238.26" rx="116.88" ry="21.73"/><rect class="cls-2" x="33" y="223.41" width="233.76" height="14.85"/><ellipse class="cls-3" cx="149.88" cy="223.41" rx="116.88" ry="21.73"/><path class="cls-4" d="M113.81,148.53c-.55-9.16-2.85-18.12-4.18-27.21s-2.32-17.27,1-25.82c1.09-2.79,3.33-6.88,5.79-8.59s6-2.13,8.4-.36c3.17,2.33,3.12,6.95,4.23,10.72,2,6.78,8.17,11.29,13,16.48,7.24,7.8,11.75,17.81,14.45,28.11s3.7,20.94,4.7,31.54a35,35,0,0,1,0,10c-.64,3.28-2.38,6.49-5.28,8.14-4.68,2.66-10.55.54-15.4-1.78-5.26-2.52-10.45-5.25-16-7-5.72-1.81-11.31-.62-17.08-1.32-.27-.78-.87-2.33-.48-3.12A2.77,2.77,0,0,1,109.7,177c1.52.14,3.23,1.08,4.44.14,1-.81.83-2.49.1-3.58s-1.84-1.9-2.54-3c-1.6-2.55-.63-5.9.63-8.64C114.66,156.82,114.13,153.83,113.81,148.53Z"/><path class="cls-4" d="M62,139.4a38.64,38.64,0,0,0,21.71,21.08c5.85,2.22,12.14,3,18.11,4.84s11.92,5.21,14.7,10.81l4.09-25.21c.43-2.63.84-5.41-.12-7.89-1.65-4.3-6.69-6.13-11.23-6.89s-9.3-.94-13.87-1.88-9.14-2.76-12.3-6.19a15.72,15.72,0,0,1-1.41-18.85c-1.12,1.66-8.06.69-9.66.51a23.89,23.89,0,0,1-10.56-3.91C56.82,115.9,57.84,129.29,62,139.4Z"/><path d="M231.87,211.53a10.69,10.69,0,0,0-1.9-1.95c-20-16.58-54.07-14.66-78.39-14.66-45.3,0-82,6.88-82,15.36,0,3.25,5.18,5.92,7.8,6.55,5.32,1.29,9.42.19,14.59,3.63,3.78,2.52,7.35,5.62,11.75,6.74,5.79,1.47,11.8-.77,17.73-1.47,7-.83,14.11.54,21.16,1.19,9.49.88,18.9-1.33,28.36-1.7a291.72,291.72,0,0,0,32.23-3c7.9-1.2,16.43-1,24.07-3.18,2.59-.75,5.54-2.41,5.51-5.1A4.26,4.26,0,0,0,231.87,211.53Z"/><ellipse cx="219.24" cy="224.5" rx="25.35" ry="7.68"/><ellipse cx="181.65" cy="231.55" rx="8.78" ry="3.84"/><path class="cls-4" d="M202,146.71c-.78-17.2.34-34.93-5.58-51.1a13.91,13.91,0,0,0-2.89-5.17,5.55,5.55,0,0,0-5.43-1.65c-2.17.7-3.36,3-4.32,5L171.92,119c-2.42,5.15-4.86,10.36-5.93,15.95-1.69,8.88.21,18,.71,27,.61,11.11-.7,23.18,5.41,32.48a15.26,15.26,0,0,0,5.11,5,22.61,22.61,0,0,0,5,1.86l11.55,3.25c2.67.75,5.69,1.47,8.09.07s3.27-4.35,3.94-7q2-8,4-15.92c1.38-5.46.52-5.91-2.23-10.55C203.44,164.06,202,154.85,202,146.71Z"/><path class="cls-4" d="M165.33,123.45l-.8.38q-1.06.33-2.14.57a32.94,32.94,0,0,1-5.76.73c-1,0-1.94,0-2.87,0s-3,29.65-6,8.26c-.37-2.63-1.69-9.12-2.89-9.41l-.43-.1c-12.37-3.07-24.49-13.83-36-19.08,2.7-25,21.2-44.34,45.34-44.34,24.33,0,42.93,19.64,45.41,44.92-7.65,4.08-.16,21.35-8.08,24.89-1,.44-17-12.22-17.95-11.69-.75.43-1.47.93-2.18,1.43A56.33,56.33,0,0,1,165.33,123.45Z"/><path d="M141.81,95.88a3.3,3.3,0,0,0-1.56-.37,2.63,2.63,0,0,0-2.84,2.63v9.93h0c.14,1.85.92,3,2.86,3s2.77-1.15,2.83-3V98.15h0A2.66,2.66,0,0,0,141.81,95.88Z"/><path d="M160.76,95.88a3.3,3.3,0,0,0-1.56-.37,2.63,2.63,0,0,0-2.84,2.63v9.93h0c.14,1.85.92,3,2.86,3s2.77-1.15,2.83-3V98.15h0A2.66,2.66,0,0,0,160.76,95.88Z"/><path class="cls-5" d="M149.91,69.69a18,18,0,0,0-8.37.43,36.63,36.63,0,0,0-8.39,3.52,28.92,28.92,0,0,0-3.7,2.67A44.26,44.26,0,0,0,120,87.75c-2.5,4.22-4.89,7.31-4.89,12.58a3.46,3.46,0,0,0,.36,1.79,1.35,1.35,0,0,0,1.56.66,2,2,0,0,0,.89-1c1.73-3.21,3.12-6.85,5.38-9.68l.45-.55a46.35,46.35,0,0,1,3.09-3.48c.59-.6,1.2-1.19,1.86-1.75a14.14,14.14,0,0,1,7.51-3.49,6.27,6.27,0,0,0,4.3-2.37c1-1.27,1.71-3.07,2.92-4.1a7.84,7.84,0,0,1,2.91-1.57c.22-.06.43-.13.65-.17l.26,0a12.21,12.21,0,0,0,3.6-.84C153.67,72.3,151.93,70,149.91,69.69Z"/><path class="cls-6" d="M82.44,186.89h0l.12.12,0-.06Z"/><path class="cls-7" d="M58.45,196.85a.56.56,0,0,1-.48-.26l-1.26-2a.56.56,0,0,1,1-.59l1.26,2a.56.56,0,0,1-.48.86Z"/><polygon class="cls-4" points="109.67 105.61 134.08 117.12 134.08 117.12 109.68 105.61 109.67 105.61"/><polygon class="cls-7" points="83.56 103.22 80.14 106.45 84.41 107.77 83.56 103.22"/><polygon class="cls-7" points="76.65 109.74 73.23 112.97 77.51 114.29 76.65 109.74"/><path class="cls-4" d="M127.74,208.7c2.51-.3,5.43-.87,6.57-3.13,2.37-5.14-4.5-10-7.13-13.41-3.64-4.79-4.8-12-6.65-17.72a11.68,11.68,0,0,0-1.92-4,4,4,0,0,0-4-1.47c-1.45.44-2.3,1.88-3.12,3.15A30.63,30.63,0,0,1,81,185.29c0,2.81-.74,6.35-.11,9.06,1,4.42,5.56,6.93,9.65,8.89,4.66,2.24,2.84,8.78,8,8.66C108.43,211.68,121.14,209.49,127.74,208.7Z"/><path d="M117.48,153.94a38.53,38.53,0,0,0-8.78-1.53c-2,2.17-3.21,3.92,1.23,6.14-1.34.67-1.92,2.11-2.83,3.22C111.86,161.24,116.68,158.27,117.48,153.94Z"/><path class="cls-8" d="M109.93,158.56c-4.44-2.22-3.28-4-1.23-6.14a13.72,13.72,0,0,0-8.85,2.78l-.66.43-.26.86.06,1.16L91,159a4.5,4.5,0,0,1-1.91.11c.07.4-.21,1,.48,1a4.73,4.73,0,0,0,1.27-.16c2.56-.49,5.13-1,7.69-1.5.64-.13.86.07.74.7l.6,1,.45.29a10.5,10.5,0,0,0,6.81,1.3C108,160.67,108.58,159.23,109.93,158.56Z"/><path class="cls-9" d="M90,163a238.27,238.27,0,0,1-59.73,6.87c-.4-.24-.49-1.24-.06-1.42A153.06,153.06,0,0,1,87.7,156.51,7.57,7.57,0,0,1,90,163Z"/><path class="cls-10" d="M100.61,160.81c-3.7.9-7.66,1.55-11.36,2.45a10.67,10.67,0,0,1-1.55-6.67l11.47-.9A7.37,7.37,0,0,0,100.61,160.81Z"/><path class="cls-8" d="M131.19,138.64a21.42,21.42,0,0,0-1.15,2.23A17,17,0,0,0,129,150c0,.26.06.52.09.78l.66.61,1.07.45c-.77,2.64-1.51,5.22-2.27,7.79a4.5,4.5,0,0,1-.73,1.77c.39.11.8.62,1.15,0a4.72,4.72,0,0,0,.41-1.21c.67-2.52,1.34-5,2-7.57.16-.63.44-.75,1-.36l1.16-.1.45-.28a16.42,16.42,0,0,0,3.71-5.3C134.85,145.82,133.29,141.55,131.19,138.64Z"/><path d="M137.19,136.22a26,26,0,0,0-4.31-2.85c.12,2.08-.77,3.65-1.69,5.27,2.09,2.92,3.66,7.19,6.45,8a13.68,13.68,0,0,0,1.16-5.57A7.53,7.53,0,0,0,137.19,136.22Z"/><path class="cls-11" d="M131.72,162.32A238.27,238.27,0,0,1,112,219.1c-.39.25-1.33-.1-1.3-.57a153.06,153.06,0,0,1,14.24-57A7.57,7.57,0,0,1,131.72,162.32Z"/><path class="cls-10" d="M134.37,151.77c-.79,3.73-1.93,7.57-2.72,11.3a10.67,10.67,0,0,1-6.68-1.51l4.17-10.72A7.37,7.37,0,0,0,134.37,151.77Z"/><path class="cls-4" d="M70.3,188.74a15.07,15.07,0,0,0,5.91-4.46c3-3,8.17-13.12,9-23.44.17-2.11-.3-9-2.85-11.35a2.81,2.81,0,0,0-1.72-.81c-2.53-.18-5.39,4.59-6.75,6.21l-.28.32a46.37,46.37,0,0,1-8.86,7.38C48.31,174.1,45.38,186.37,48,195.6c3.83,12.59,14,17.71,26.89,18.15,9.17.31,20-1.38,30.89-2.82l-25-27C76,189.53,70.3,188.74,70.3,188.74Z"/><path class="cls-5" d="M56.94,198.6c-1,.32-1.8-.61-2.3-1.35a11.5,11.5,0,0,1-1.8-4.84A22.34,22.34,0,0,1,55,180.08c2.25-4.64,6.19-8.3,10.36-11.46l.76-.57,1-.76c1.11-.8,2.22-1.56,3.31-2.31l0,0c.81-.55,3.41-2.86,3.49-.75.07,1.93-1.47,3.53-2.8,5.14a9.22,9.22,0,0,0-1.6,2.5c0,.08-.07.17-.09.25a3.45,3.45,0,0,0-.13.84c-.06,1.31.46,2.64.07,4a7.49,7.49,0,0,1-2.7,3.39c-1.69,1.35-4.23,2.53-5.29,4.51a23.45,23.45,0,0,0-2.21,6.64c0,.32-.11.62-.17.93-.17,1-.37,1.95-.54,2.94S58.19,198.19,56.94,198.6Z"/><path class="cls-12" d="M107.6,193.45c1.34,2.31,4.25,3.06,6.87,3.61L125,199.25a2.59,2.59,0,0,0,1.92-.1c.82-.53.77-1.75.5-2.69a13.32,13.32,0,0,0-7.47-8.57C116.35,186.34,103.42,186.23,107.6,193.45Z"/><path class="cls-4" d="M261.93,181.39c-1.6-2-11.24,0-14.15-.71-4.66-1.08-9.11-4.06-12.67-7.22a17.72,17.72,0,0,0-4.44-2.86c-4.62-2.1-10.19-2.44-14.61-.4-4,1.86-7.81,4.41-10.6,12.22l0,0c-.11.3-.21.6-.32.92q-.29.89-.57,1.86a71.41,71.41,0,0,0-1.76,8.31l0,.21-2.22-3.66-9.18,5.14-16.43-2.57c1.8,1.38,1.49,9.66,16.15,18.35,14.22,8.43,33,5.67,42.31-12.11.15-.29.28-.57.41-.85,7.84.92,17-.75,22.36-5C258.16,191.46,264.51,184.56,261.93,181.39Zm-59.08,12.38v0h0Z"/><path class="cls-12" d="M133.4,213.45c4.08,2.7,9.07,3.65,13.94,4.11,9.18.86,18.79.17,27.6-8.05-9.49,3-24,2.15-30.84-5.11-2.79-3-4.86-6.54-7.33-9.79s-3.92-6.7-7.73-7.48c-2.28-.47-4.92,1-7.25,1.22-.66.06-5.41,1.56-5.58,1.43C123.86,196,124.68,207.68,133.4,213.45Z"/><path class="cls-4" d="M107.67,183.2c-1.54,2.16-2.63,5.25-1,7.35,2.09,2.68,6.31,1.3,9.4-.11,5.39-2.47,12.26-4.17,16.82-.38a19.06,19.06,0,0,1,3.84,5.13c5.42,9.06,13.38,18.09,23.91,18.81,6.1.42,12.92-2.19,16.78-6.93,5.14-6.33,5.13-15.21,5.28-23.36q.39-20.29-.87-40.57c-.41-6.63,2.1-27.72-8.38-25.91-5,.86-10,2-14.47,4.26s-8.49,5.9-10.36,10.59c-2.42,6-1,12.86.36,19.21,1.37,6.19,10.79,33.64-3.34,33.29-5.26-.13-8.72-5-12.58-7.8C125.2,171,112.89,175.89,107.67,183.2Z"/><path class="cls-5" d="M229.51,173.59l-.15-.15a4.81,4.81,0,0,0-2.31-1.14c-.3-.07-.6-.12-.9-.17-5.9-.88-12.71,1.61-15.36,7.26-.1.22-.2.46-.29.69l-.08.19a15.86,15.86,0,0,0-1,3.64,5.22,5.22,0,0,0,.08,1.93,1.82,1.82,0,0,0,1.51,1.5,2.52,2.52,0,0,0,.45,0,2.56,2.56,0,0,0,1.88-.91l4.16-4.94a9,9,0,0,1,4.12-2.68c1.69-.63,3.59-.46,5.35-.76a6.85,6.85,0,0,0,1.54-.42A2.64,2.64,0,0,0,229.51,173.59Z"/><path class="cls-12" d="M201.57,128.82a6.31,6.31,0,0,1-.07-1.15,5.86,5.86,0,0,1-.06-1.29c-.24-1.93-.47-3.87-.61-5.82,0-.1,0-.18,0-.27-2.44,2.2-4.8,4.82-7.38,6.81s-5.36,3.29-7.74,5.71a53.69,53.69,0,0,0-9.65,13.44c4.74-.73,9-3.11,12.8-5.92,1.89-1.4,3.58-3.15,5.51-4.48,1.39-1,3.13-1.43,4.63-2.26.48-.27.89-.5,1.19-.7s.23-.17.18-.16l.47-.4,1-.93h0C201.74,130.56,201.71,129.65,201.57,128.82Z"/><path d="M176.73,131.78a15.32,15.32,0,0,0-3.09,4.62,64.9,64.9,0,0,1-2.57,6.21c2.5-.91,5.15-1.09,7.61-2a14.5,14.5,0,0,0,7.21-5.35C184.3,132.88,180.42,132.44,176.73,131.78Z"/><path class="cls-8" d="M194.25,121.95a4.5,4.5,0,0,1-1.33,1.37l-6.24,5.19-.84-.8-.82-.37-.76.23a16.16,16.16,0,0,0-7.53,4.21c3.69.66,7.56,1.1,9.16,3.51a17,17,0,0,0,2.08-3.95l.07-.53-.37-1.1c-.55-.32-.56-.62,0-1,2.06-1.6,4.11-3.22,6.15-4.84a4.73,4.73,0,0,0,.95-.86C195.14,122.44,194.51,122.26,194.25,121.95Z"/><path class="cls-13" d="M196.62,125.16A238.27,238.27,0,0,0,240.8,84.37c.08-.46-.62-1.18-1-1a153.06,153.06,0,0,0-46.58,35.81A7.57,7.57,0,0,0,196.62,125.16Z"/><path class="cls-10" d="M188,131.8c3.1-2.22,6.17-4.79,9.27-7a10.67,10.67,0,0,0-4-5.53l-8.17,8.11A7.37,7.37,0,0,1,188,131.8Z"/><path class="cls-4" d="M214.68,129.48l0,7.34h.09c4.47.35,7.92.22,11.42-3.34s4.39-5.49,3.48-10.37c-.79-4.21-3.07-7-5.32-10.46-3.16-4.9-2.14-11.91-2.66-15.94-.36-2.8,0-10.4-4.6-6.75a21.28,21.28,0,0,0-2.32,2.21,27.07,27.07,0,0,0-5.53,8.93c-2.51,7.74-1.27,19.16,3.26,26A8.59,8.59,0,0,0,214.68,129.48Z"/><path class="cls-4" d="M234.82,147c2.69-7.31,1.8-15.68-1.66-22.65-4.07-8.2-9.42-12.62-11.2-20.12-5.16,2.87-11,7-10.73,12.86a2.22,2.22,0,0,1-1.66-2.22c-1.1,5.17,2.88,11.08,3.38,16.34.45,4.69-2.2,9.36-7.82,6A7.51,7.51,0,0,1,202,131.9l-.09-.51-1,.93h0l-.45.39s0,0-.18.16-.7.43-1.19.7-1.22.66-1.92,1c-.54,3.91-.3,5.77-2.17,10.33-1.47,3.58-3.49,9.39.13,12.41,5.7,4.75,16.06,6,23.1,4.56C225.75,160.31,232.13,154.31,234.82,147Z"/><path class="cls-12" d="M181,175.34c-1.27-9-4.51-18-3.46-24.67,3,9.51,6.72,18.79,9.11,28.46s3.37,20,.72,29.56c-2.78-2.27-6.24-5.12-7.63-7.36-1-1.67-.44-2.5-.2-5.15C180.14,190.1,181.88,181.38,181,175.34Z"/><path class="cls-4" d="M182.92,190.08a55.9,55.9,0,0,0-1.45-12.44L176,149.22a7.2,7.2,0,0,0-1.55-3.82c-4.31,14.09-4,29-2.87,43.55.24,3.13-.36,16.29,4.75,16.75C181,206.12,182.81,193.29,182.92,190.08Z"/><path class="cls-14" d="M203.73,161.45s-6.05-.93-8.7-4.11c0,0,2.31,8.1,10.29,9.2Z"/><path class="cls-4" d="M79.56,108.12c2.35-2.35,9.39,2.35,11.73-2.35.59-2.35-1.76-4.69-3.37-7.18A18.78,18.78,0,0,1,85,98.43c-4.19-.71-8.22-2.38-12.54-1.61a15.16,15.16,0,0,0-11.31,8.6c-2.06,4.45-1.47,12.15-.56,16.26,1.69-1.39,5.47-5.23,7.16-6.69a17,17,0,0,0,4.42,1.24,25.45,25.45,0,0,0,6.45.53,40.49,40.49,0,0,0,6-.66C84.88,111.44,76.34,110.27,79.56,108.12Z"/><path d="M87.92,98.59c1.61,2.49,4,4.84,3.37,7.18-2.35,4.69-9.39,0-11.73,2.35-3.22,2.14,5.32,3.31,5,8,6.29-1.18,12.59-4.08,15.1-10C103.21,97.72,93.89,98.59,87.92,98.59Z"/><path d="M91.5,134.84h0Z"/><path class="cls-15" d="M228.05,195.89a16.15,16.15,0,0,0,8.29,2.4l-3.8-3.84Z"/><path class="cls-14" d="M78.47,181.27s-5.49,7.5-10.42,7.5c0,0,7,3.6,13.63-4Z"/><path class="cls-4" d="M80.1,178.32a19.23,19.23,0,0,1-2.3,3.8l1-2.3Z"/><path class="cls-5" d="M112.71,184c5.07-3.58,11-6.42,17.36-4.82,1,.15,2.42.11,2.59-.89s-1-1.47-1.93-1.65c-9.29-1.74-21.39.7-24.06,11.15a2.92,2.92,0,0,0,2.25-.91C110.12,185.95,111.38,185,112.71,184Z"/><path class="cls-5" d="M152.87,162.36c-1-5.51-2.71-10.91-3-16.5-.28-5.24.24-8.88,4.41-12,.9-.67,1.9-1.62,1.62-2.7-.63-2.43-5-.49-6.39.24a12.26,12.26,0,0,0-5.72,7.09c-1.46,4.85-.28,10.1,1.48,14.84s4.1,9.33,5,14.3c.35,1.89,1,5.23.14,7.08s-5.19,2.75-4.63,5c.93,3.74,6.13-2.23,6.78-3.54C154.6,172.15,153.64,166.58,152.87,162.36Z"/><path class="cls-12" d="M72,113.17q-.44-.35-.84-.74a5,5,0,0,0-1.19-.95,1.4,1.4,0,0,0-1.45.05c-.6.47-.48,1.39-.29,2.12,1.74,6.6,5.34,13.32,10.58,17.79a26.48,26.48,0,0,0,15.55,6.43c1.11.06,2.47-.11,2.93-1.13a2.11,2.11,0,0,0-1.13-2.53,8.2,8.2,0,0,0-3-.66,16.45,16.45,0,0,1-10.59-5.89c-2.9-3.58-3.09-6.85-3.32-11.27A15.23,15.23,0,0,1,72,113.17Z"/><path class="cls-5" d="M73.28,99.33c-2,.06-7.52,1-8.31,3.34-.69,2.06.82,3,2.64,2.31l6.86-2.69a2.12,2.12,0,0,0,1.35-1,1.4,1.4,0,0,0-.7-1.59A3.4,3.4,0,0,0,73.28,99.33Z"/><path class="cls-5" d="M114.93,109.67a6.81,6.81,0,0,0-1.45,3.14,2.07,2.07,0,1,0,4,1,6.8,6.8,0,0,0,.22-2.91c-.09-1.29-.45-2.92-1.73-3.16a1.48,1.48,0,0,0-1.23,2.58"/><path class="cls-4" d="M110.92,128.44c1.39-.41,2.28-1.23,3.29-.19a12.07,12.07,0,0,1,2.19,3.73l2.08,4.78c.77,1.77,1.54,3.81.72,5.55a4.43,4.43,0,0,1-3.72,2.31c-3.42.26-15-9.29-10.65-8.89S111.56,136.32,110.92,128.44Z"/><path class="cls-7" d="M238.93,225.51a2.78,2.78,0,0,0,1.4-1.69c.12-.74-.69-1.59-1.34-1.21a21.41,21.41,0,0,1-2.23,1.72c-3.62,2.43-7.32,2.56-11.22,3.88C229.6,229.53,235.54,227.76,238.93,225.51Z"/><path class="cls-7" d="M202.43,220.69a3.62,3.62,0,0,0-3.06,5.56,10.7,10.7,0,0,1,7.57-5.65,5.52,5.52,0,0,0-6.58,1.64"/><path class="cls-7" d="M176.65,230.22c-.22-.39-.9,0-.79.48s.62.64,1.06.68a3.56,3.56,0,0,0,3-1.17,3.13,3.13,0,0,0-3.81.29"/><path d="M91.47,225.85c0-3.45-10.55-4.07-7.9.79C85.06,229.37,91.51,229.82,91.47,225.85Z"/><path class="cls-16" d="M77.08,160.13a7.5,7.5,0,0,0,2.42-5.5c0-.48-.12-1.06-.57-1.23s-1,.33-1.37.79L74.9,158c-.49.69-1,1.59-.56,2.31a1.52,1.52,0,0,0,1.71.55,4.44,4.44,0,0,0,1.62-1"/><path d="M169.54,154a6,6,0,0,0,0,3.27,2.39,2.39,0,0,0,2.51,1.7,2.33,2.33,0,0,0,1.62-1.68,6.39,6.39,0,0,0,.1-2.43c-.4-4.19-1.3-8.1-2.05-12.23,0,2.57-.94,5.46-1.37,8C170.19,151.7,169.79,152.87,169.54,154Z"/><path d="M93.28,121a6,6,0,0,0,0,3.27,2.39,2.39,0,0,0,2.51,1.7,2.33,2.33,0,0,0,1.62-1.68,6.39,6.39,0,0,0,.1-2.43c-.32-3.42-2.73-8.71-.59-11.79.39-.56.92-1.25.59-1.85a1.07,1.07,0,0,0-1.17-.42,3.14,3.14,0,0,0-1.15.64A6,6,0,0,0,93.66,110a2.05,2.05,0,0,0-.18,2,8.5,8.5,0,0,0,.92,1c.94,1.17-.09,3.33-.3,4.6C93.93,118.72,93.53,119.88,93.28,121Z"/><ellipse class="cls-17" cx="48.73" cy="224.09" rx="5.1" ry="1.93"/><ellipse class="cls-17" cx="252.54" cy="224.09" rx="5.1" ry="1.93"/><ellipse class="cls-17" cx="99.68" cy="233.45" rx="5.1" ry="1.93"/><ellipse class="cls-17" cx="201.58" cy="233.45" rx="5.1" ry="1.93"/><ellipse class="cls-17" cx="150.63" cy="237.79" rx="5.1" ry="1.93"/><path class="cls-18" d="M43.63,59V77.11a88.72,88.72,0,0,0,10.2,3.32V55.66A88.72,88.72,0,0,0,43.63,59Z"/><path class="cls-18" d="M247.43,56.08V80a77.9,77.9,0,0,0,10.2-3.54V59.61A77.89,77.89,0,0,0,247.43,56.08Z"/><path class="cls-18" d="M94.58,64V87.19q5,.5,10.2.9V64Z"/><path class="cls-18" d="M196.48,64V88q5.24-.42,10.2-.94V64Z"/><path class="cls-18" d="M145.53,68.39V89.75l4.35,0,5.85,0V68.39Z"/><ellipse class="cls-2" cx="149.88" cy="60.17" rx="116.88" ry="21.73"/><rect class="cls-2" x="33" y="45.32" width="233.76" height="14.85"/><ellipse class="cls-3" cx="149.88" cy="45.32" rx="116.88" ry="21.73"/><ellipse class="cls-19" cx="153.43" cy="37.17" rx="20.27" ry="5.69"/><path class="cls-18" d="M152.87,37.41s13.47,1.35,18.36-3c0,0-6.68-3-11.47-2.68Z"/><path class="cls-19" d="M152.87,4.88a16.26,16.26,0,1,0,16.26,16.26A16.26,16.26,0,0,0,152.87,4.88Zm0,23.16a6.89,6.89,0,1,1,6.89-6.89A6.89,6.89,0,0,1,152.87,28Z"/><path class="cls-17" d="M43.63,224.09h10.2V80.42a88.72,88.72,0,0,1-10.2-3.32Z"/><path class="cls-17" d="M247.43,224.09h10.2V76.47A77.9,77.9,0,0,1,247.43,80Z"/><path class="cls-17" d="M94.58,233.45h10.2V88.09q-5.23-.41-10.2-.9Z"/><path class="cls-17" d="M196.48,233.45h10.2V87q-5,.51-10.2.94Z"/><path class="cls-17" d="M145.53,89.75v148h10.2V89.74l-5.85,0Z"/></svg>