<svg xmlns="http://www.w3.org/2000/svg" viewBox="0 0 300 300"><defs><style>.cls-1{isolation:isolate;}.cls-2{fill:gray;opacity:0.5;}.cls-3{fill:#7e4e24;}.cls-4{fill:#925f36;}.cls-12,.cls-5{fill:#868686;}.cls-5{mix-blend-mode:multiply;}.cls-6{fill:#ec6e25;}.cls-7{fill:#f39622;}.cls-8{fill:#ffdd0c;}.cls-9{fill-rule:evenodd;}.cls-10{fill:#fff;}.cls-11{fill:#999;}.cls-13{fill:#b1b1b1;}</style></defs><title>Artboard 1</title><g class="cls-1"><g id="Layer_1" data-name="Layer 1"><ellipse class="cls-2" cx="153.05" cy="274.18" rx="100.15" ry="18.61"/><ellipse class="cls-3" cx="150.05" cy="240.26" rx="116.88" ry="21.73"/><rect class="cls-3" x="33.17" y="225.41" width="233.76" height="14.85"/><ellipse class="cls-4" cx="150.05" cy="225.41" rx="116.88" ry="21.73"/><ellipse class="cls-5" cx="153.29" cy="218.64" rx="82.01" ry="16.46"/><path class="cls-6" d="M151.57,226s-49,9.69-63.59-37.77c.4,1.3,4.3,3.3,5.57,3.7,5,1.58,2-6.49,1.41-8.22-3.84-11.15-2.09-23.54,7-32.28a4.76,4.76,0,0,0,1.85,4.76,5.92,5.92,0,0,0,5.49.74,6.86,6.86,0,0,0,3.48-3.22,16.68,16.68,0,0,0,1.45-4.41c1.49-6.71,2.14-13.47,4.05-20.08a59.08,59.08,0,0,1,5-12,65.79,65.79,0,0,1,24.58-24.65,103.85,103.85,0,0,1,29.6-11.3S166,100,179.41,123A103,103,0,0,1,188,141c2,5.88,2.18,11.9,2.8,18a10.2,10.2,0,0,0,.81,3.59,4,4,0,0,0,3,2.27c1.92.24,3.61-1.2,4.53-2.75a9.83,9.83,0,0,0,.43-9.26c2.47.5,4.27,2.42,5.68,4.33a36.84,36.84,0,0,1,6.88,25c-.54,7.5-5.48,14.9-11,20.25a51.31,51.31,0,0,1-5,4.2s8.55-6.5,16.84-14.38c0,0-16.3,33.83-60.57,33.83"/><path class="cls-7" d="M143.88,95.25s6.73,12.33-7.41,31c-6.92,9.12-12.15,18.46-14.45,29.31-.7,3.34-.87,6.77-2.31,10-.9,2-3.61,4.55-6.3,4.08-4.12-.71-2.54-6.37-1.24-8.56a16.31,16.31,0,0,0-5.9,4.64c-7.16,8.76-4.16,21.94.23,31.07.7,1.45,1.46,2.88,2.27,4.28,5.26,9.16,16.11,17.54,26.86,21.83a49.76,49.76,0,0,0,20.53,3.31s32.51,2.28,45-29.94a34,34,0,0,0,2.74-13.66,44.12,44.12,0,0,0-2.71-14.32,13.86,13.86,0,0,1-8.53,5.12c-3.45.51-7.3-.78-9.07-3.52-2.09-3.22-.94-7.28-.14-10.95,3.38-15.4.64-31.92-9.8-44.6a54.26,54.26,0,0,0-12-10.74A64.13,64.13,0,0,0,153.57,99q-2.34-1.1-4.77-2C148,96.66,144.21,95.86,143.88,95.25Z"/><path class="cls-8" d="M148.64,223.38a25.79,25.79,0,0,0,10.12-.44c14-3.11,24.2-17.5,22.46-31.77a26.21,26.21,0,0,0-6.54-14.32c-.15,2.94-.64,6-2.46,8.34s-5.32,3.53-7.83,2a7.74,7.74,0,0,1-3-4.86c-1.58-6.19,0-14.24,4.17-19.19a18.3,18.3,0,0,0-15.29,8.65c-1.37,2.26-2.25,4.83-4,6.81s-4.81,3.2-7,1.79a5.52,5.52,0,0,1-2.21-3.5,27.56,27.56,0,0,1-.41-4.22,27,27,0,0,0-3.1-10.73c-2,5.63-5.65,10.47-8.61,15.66-4.13,7.25-4.67,16.74-2.82,24.69C125.15,215.34,135.52,222.54,148.64,223.38Z"/><path class="cls-6" d="M154.58,159.75s-46.09,4.71-58.84-41.7c0,0,13.1,14.06,7.33-3.05s8.9-41.44,15.7-48.12c0,0-.92,9.3,4.85,14.07C123.12,64.33,129.7,44,150,47.39c22.27,3.69,38.86,20.5,38.41,43.34,0-.14.29-13.61,11.45-16.22,0,0-2.27,6.44,3.34,14.55,0,0,17.72,23.45-8.11,44.91,0,0,5.8.55,13-7.15,0,0-14.23,33.08-52.86,33.08"/><path class="cls-7" d="M152.21,159.89s-27.23,2.16-37.73-28.37,4-50.57,4-50.57.32,11.93,9.12,16c0,0-7.5-46,34.88-61.06,0,0-5.63,11.69,6.21,29.34,5.8,8.64,10.18,17.49,12.1,27.77.59,3.16.73,6.42,1.93,9.44.76,1.9,3,4.31,5.27,3.87,3.45-.67,2.13-6,1-8.11a14.07,14.07,0,0,1,4.94,4.4c6,8.3,3.49,20.79-.19,29.44-.58,1.37-1.22,2.72-1.9,4.05-4.41,8.68-13.49,16.62-22.49,20.68A37.33,37.33,0,0,1,152.21,159.89Z"/><path class="cls-8" d="M154.8,159.93s-23.39,5.28-31-28.69c-4.64-20.67,9.39-40.75,9.39-40.75s-1.93,7.16.3,12.64,8.82,8.59,4.45-8.11,1.5-35.78,17.65-44.84c0,0-7,11.93,2.56,26.71S179.35,105.2,180.3,120C181.22,134.17,179.15,158.05,154.8,159.93Z"/><path class="cls-9" d="M170.52,119.76a2.6,2.6,0,0,0-2.85-2.63,2.63,2.63,0,0,0-2.84,2.63v9.93h0c.14,1.85.92,3,2.86,3s2.77-1.15,2.83-3v-9.93Z"/><path class="cls-9" d="M138.07,119.76a2.6,2.6,0,0,0-2.85-2.63,2.63,2.63,0,0,0-2.84,2.63v9.93h0c.14,1.85.92,3,2.86,3s2.77-1.15,2.83-3v-9.93Z"/><path class="cls-10" d="M217.55,204.11a2.68,2.68,0,0,1-2.63-3.19c.1-.5,2.52-12.3,13.3-16.29a2.68,2.68,0,1,1,1.86,5c-8,3-9.89,12.2-9.9,12.29A2.68,2.68,0,0,1,217.55,204.11Z"/><path class="cls-10" d="M88.13,217.65H87.9a2.68,2.68,0,0,1-2.45-2.89c1-12.36-8.14-20.77-8.23-20.85a2.68,2.68,0,0,1,3.56-4c.46.41,11.28,10.21,10,25.3A2.68,2.68,0,0,1,88.13,217.65Z"/><path class="cls-6" d="M112,208.66a42,42,0,0,1-6.92-9c-2.23-3.69-8.21-12-7.85-16.42a11.44,11.44,0,0,1-.82,4,3.88,3.88,0,0,1-3.1,2.37c-2.2.11-6.43-6.09-8.11-7.6-9.37-8.4-6.84-18.56-6.84-18.56-23.93,16.72-13.56,37.42-13.56,37.42-3.52-1.21-4.72-5.71-4.72-5.71-2,4.3-4.07,16.11,2.15,23.55,6.51,7.8-4.3,5.47-4.3,5.47,18.11,15,30.39,12.46,44.85,4.35,13.62-7.64,26.3-3.7,31.3-3.69.23,0,.17.07,0,0-6.81-2.83-12.75-8.94-18.6-13.25A35,35,0,0,1,112,208.66Z"/><path class="cls-6" d="M237,221c5-7.48,3.28-20.44,1.27-24.74,0,0-1.2,4.49-4.72,5.71,0,0,10.37-20.7-13.56-37.42,2.68,15-8.86,15-13.91,24.06-1.53,2.74-2.53,5.75-6.2,5.75-2.85,0-4.17-4.32-3-6.77-5.9,2.69-5.5,13.32-5.5,13.32a12.26,12.26,0,0,0-8.49-1.41,12.1,12.1,0,0,1,2.4,5.72c0,4.87-.6,11.15-5.08,13.3l-14.76,6.85a68.42,68.42,0,0,1,13,.74c3.15.47,4.21,0,8.61.52,6.38.82,9.42,6.18,15.11,8.43s13.66,2.4,19.73,1.53a27.43,27.43,0,0,0,9.58-3.16,26.29,26.29,0,0,0,4.76-3.44c1-.87,3.12-4.4,4.17-4.68C240.42,225.26,232.78,227.32,237,221Z"/><path class="cls-7" d="M231.71,208.83s-1.87,4.66-5.92,4.95c0,0,9.68-17.06-4.78-29.34.92,9.93-17.41,10.31-20.22,25.79,0,0-1.59-1.26-2.1-9.35C176.74,244.38,242.09,246.54,231.71,208.83Z"/><path class="cls-8" d="M220.48,227.22c4-6.18,1.93-14.45,1.93-14.45s-1.08,4.18-2.48,5.7-4.76.82-1.28-4.09,5.55-12.57,1.39-17.51c0,0,.81,4.75-4.11,8.4s-10.4,6.64-12.53,11.37C196.25,232.49,212.11,240,220.48,227.22Z"/><path class="cls-7" d="M76,225.46c-8.07-9.77-5.51-19.13-5.51-19.13s6.22,8.87,10,9.14c0,0-10.81-19-.07-31.77,0,0-.46,5.07,6.33,9.92s10.44,8.19,12.66,14.1c0,0-1.19-6.11,1.94-8.68-.67.55.88,4.27,1.11,4.77C112.83,226.71,88.26,240.33,76,225.46Z"/><path class="cls-8" d="M70.61,204.28a9.68,9.68,0,0,0,2,4.91c1.68,1.82,4.73,2.07.55-3.84s-4.69-14.26.31-20.19c-1.81,10.58,15.39,13.53,20,23.76C106.59,238,62.8,234.76,70.61,204.28Z"/><ellipse class="cls-11" cx="48.9" cy="226.09" rx="5.1" ry="1.93"/><ellipse class="cls-11" cx="252.71" cy="226.09" rx="5.1" ry="1.93"/><ellipse class="cls-11" cx="99.85" cy="235.45" rx="5.1" ry="1.93"/><ellipse class="cls-11" cx="201.76" cy="235.45" rx="5.1" ry="1.93"/><ellipse class="cls-11" cx="150.8" cy="239.79" rx="5.1" ry="1.93"/><path class="cls-12" d="M43.8,61V79.11A88.72,88.72,0,0,0,54,82.42V57.66A88.72,88.72,0,0,0,43.8,61Z"/><path class="cls-12" d="M247.61,58.08V82a77.9,77.9,0,0,0,10.2-3.54V61.61A77.89,77.89,0,0,0,247.61,58.08Z"/><path class="cls-12" d="M94.75,66V89.19q5,.5,10.2.9V66Z"/><path class="cls-12" d="M196.66,66V90q5.24-.42,10.2-.94V66Z"/><path class="cls-12" d="M145.7,70.39V91.75l4.35,0,5.85,0V70.39Z"/><ellipse class="cls-3" cx="150.05" cy="62.17" rx="116.88" ry="21.73"/><rect class="cls-3" x="33.17" y="47.32" width="233.76" height="14.85"/><ellipse class="cls-4" cx="150.05" cy="47.32" rx="116.88" ry="21.73"/><ellipse class="cls-13" cx="153.6" cy="39.17" rx="20.27" ry="5.69"/><path class="cls-12" d="M153,39.41s13.47,1.35,18.36-3c0,0-6.68-3-11.47-2.68Z"/><path class="cls-13" d="M153,6.88A16.26,16.26,0,1,0,169.3,23.15,16.26,16.26,0,0,0,153,6.88ZM153,30a6.89,6.89,0,1,1,6.89-6.89A6.89,6.89,0,0,1,153,30Z"/><path class="cls-11" d="M43.8,226.09H54V82.42a88.72,88.72,0,0,1-10.2-3.32Z"/><path class="cls-11" d="M247.61,226.09h10.2V78.47A77.9,77.9,0,0,1,247.61,82Z"/><path class="cls-11" d="M94.75,235.45H105V90.09q-5.23-.41-10.2-.9Z"/><path class="cls-11" d="M196.66,235.45h10.2V89q-5,.51-10.2.94Z"/><path class="cls-11" d="M145.7,91.75v148h10.2V91.74l-5.85,0Z"/></g></g></svg>