<svg xmlns="http://www.w3.org/2000/svg" viewBox="0 0 300 300"><defs><style>.cls-1{isolation:isolate;}.cls-2{fill:gray;opacity:0.5;}.cls-3{fill:#7e4e24;}.cls-4{fill:#925f36;}.cls-5{fill:#db4a4b;}.cls-21,.cls-6{fill:#868686;}.cls-6{mix-blend-mode:multiply;}.cls-13,.cls-16,.cls-17,.cls-18,.cls-7{fill-rule:evenodd;}.cls-18,.cls-8{fill:#3d3938;}.cls-13,.cls-9{fill:#35a8e0;}.cls-10{fill:#a2195b;}.cls-11{fill:#f8b133;}.cls-12{fill:#fff;}.cls-14,.cls-16{fill:#1d70b7;}.cls-15{fill:#1d1d1b;}.cls-17,.cls-19{fill:#e20613;}.cls-20{fill:#999;}.cls-22{fill:#b1b1b1;}</style></defs><title>Artboard 7</title><g class="cls-1"><g id="Layer_1" data-name="Layer 1"><ellipse class="cls-2" cx="153.05" cy="273.18" rx="100.15" ry="18.61"/><ellipse class="cls-3" cx="150.05" cy="239.26" rx="116.88" ry="21.73"/><rect class="cls-3" x="33.17" y="224.41" width="233.76" height="14.85"/><ellipse class="cls-4" cx="150.05" cy="224.41" rx="116.88" ry="21.73"/><path class="cls-5" d="M83.18,127.72c-8,1.44-14.07,8.06-17.94,15.18s-6.72,15.22-10.7,22.28a23.88,23.88,0,0,1,10.54,13.19,25.34,25.34,0,0,1-.69,17.4l6.58.78c2.89.34,5.86.72,8.38,2.17a14.44,14.44,0,0,1,5.72,6.89c1.21,2.78,2.88,6.26,3.48,9.24a39.39,39.39,0,0,1,22.7-26.18c-11.13-4.92-20.29-15-25.44-26A49.57,49.57,0,0,1,83.18,127.72Z"/><path class="cls-5" d="M192.49,160.36c23.38-3.72,47.09-15.57,63.67-32.47-.8,11.45.35,15.71-.45,27.16-.32,4.59.76,15.42,1.5,20s1.84,13.52,5.33,16.52c-5.69-3.13-15.72-5.29-21.72-2.8s-11.35,6.32-17.27,9a49.09,49.09,0,0,1-37.25,1.09A176.34,176.34,0,0,0,192.49,160.36Z"/><ellipse class="cls-6" cx="150.68" cy="218.5" rx="82.01" ry="16.46"/><path class="cls-7" d="M93.44,186v26.63H202.9V181C172.23,201.17,126.27,200.56,93.44,186Z"/><g id="JJsqev"><path class="cls-7" d="M83.15,191.54c-1.81-1.89-3.32-3-4.27-4.53-5.42-8.51-13.14-7.82-20.5-4.19-7.54,3.72-9.73,10.28-7.21,18.77,6,20.37,19.28,28.64,39.23,22.84l1.5-.42-5.5-34.14Z"/><path d="M49.81,168.76s32.1-6.91,38.74,34.49L59.84,217.78S41,194.87,49.81,168.76Z"/><path class="cls-8" d="M47.87,168.92s29.59-3,36.24,38.37L57.9,217.94S39,195,47.87,168.92Z"/><path class="cls-8" d="M84.11,212.07,61,220.72s11.52,9.17,19.86,4.67S84.11,212.07,84.11,212.07Z"/><path class="cls-7" d="M153.42,206.29c-3.65,2.05-7.81,5.57-12.23,6-4.69.41-13.4-2-13.83-4.3-1.15-6.24-5-3.72,4.08-9.17a14.62,14.62,0,0,0,4.81-4.5L97.8,184,86.4,189.86,91.9,224a224.78,224.78,0,0,1,61.52-8.81Z"/></g><g id="JJsqev-2" data-name="JJsqev"><path class="cls-7" d="M216.73,191.54c1.81-1.89,3.32-3,4.27-4.53,5.42-8.51,13.14-7.82,20.5-4.19,7.54,3.72,9.73,10.28,7.21,18.77-6,20.37-19.28,28.64-39.23,22.84L208,224l5.5-34.14Z"/><path class="cls-7" d="M146.45,206.29c3.65,2.05,7.81,5.57,12.23,6,4.69.41,13.4-2,13.83-4.3,1.15-6.24,5-3.72-4.08-9.17a14.62,14.62,0,0,1-4.81-4.5L202.08,184l11.39,5.87L208,224a224.78,224.78,0,0,0-61.52-8.81Z"/></g><line class="cls-9" x1="216.73" y1="191.54" x2="246.45" y2="207.86"/><path class="cls-5" d="M236.59,88.87a248.24,248.24,0,0,1-24.91,3.69c-.86,8.44-2.42,16.63-4,24.7A297.85,297.85,0,0,1,236.59,88.87Z"/><path class="cls-5" d="M65.58,86.53c8.61,7.84,37.85,46.28,37.85,46.28l90.35,5.26a44.31,44.31,0,0,1,4.1-7.92c-1-12.12-1.36-24.24-2-36.36C134.06,97.22,65.58,86.53,65.58,86.53Z"/><path class="cls-5" d="M211.68,92.57c-5.18.52-10.46.92-15.79,1.22.63,12.12.95,24.24,2,36.36a112.28,112.28,0,0,1,9.79-12.88C209.26,109.19,210.81,101,211.68,92.57Z"/><path class="cls-10" d="M210.5,92.57c-5.18.52-10.46.92-15.79,1.22.63,12.12.95,24.24,2,36.36a112.28,112.28,0,0,1,9.79-12.88C208.08,109.19,209.64,101,210.5,92.57Z"/><path class="cls-7" d="M93.44,126v60c32.83,14.55,78.79,15.16,109.46-5V129.36C170.79,147,126.84,142.48,93.44,126Z"/><path class="cls-11" d="M174,184.88a12.26,12.26,0,0,1-9.58-4c-5.68-6.36-4.42-18-4.37-18.45l3.5.4c0,.1-1.12,10.53,3.5,15.71a8.77,8.77,0,0,0,6.95,2.86,8.05,8.05,0,0,0,6.3-2.68c5.46-6,4.22-19.74,4.21-19.87l3.5-.34c.06.63,1.4,15.41-5.11,22.57A11.55,11.55,0,0,1,174,184.88Z"/><polygon class="cls-12" points="120.37 136.02 149.69 161.68 182.21 137.39 120.37 136.02"/><path class="cls-13" d="M93.44,111.62V126c33.4,16.48,77.35,21,109.46,3.36V111.62Z"/><path class="cls-7" d="M161.85,93.4c0,5.32-5.74,13-12.82,13s-12.82-7.7-12.82-13,5.74-9.63,12.82-9.63S161.85,88.08,161.85,93.4Z"/><g id="VMQt43"><path class="cls-7" d="M123.4,103.54c0,2.44-.74,3.94-3.06,3.94-2,0-2.93-1.22-3-3.14-.07-2.1.73-3.56,3-3.59A2.78,2.78,0,0,1,123.4,103.54Z"/><path class="cls-7" d="M147.93,115.89a2.73,2.73,0,0,0-2.82,2.76,2.53,2.53,0,0,0,2.51,3,4.57,4.57,0,0,0,.57,0v-5.69Z"/><path class="cls-13" d="M147.91,108.15a2.78,2.78,0,0,0,0,5.56l.29,0v-5.53Z"/></g><g id="VMQt43-2" data-name="VMQt43"><path class="cls-13" d="M202.69,125.71c-.18-11,2.49-25-.83-35.64-3.1-9.93-11.45-20.06-20.22-25.41-8.57-5.22-18.7-7.54-28.73-7.72-14.86-.26-30.8-.41-43,9.46-18.47,15-15.88,38.17-16.26,59.31,0,1.57-.75,3.33.62,4.75,2.55-4.95,7.7-3.95,11.74-4.53,14-2,28.06,4.38,42.18,4.49,14.08-.11,28.15-6.5,42.14-4.49,4,.58,9.18-.42,11.74,4.53C203.43,129,202.71,127.28,202.69,125.71Z"/></g><path d="M229.75,118c-2.67,3.78-5.51,7.41-9.36,10.21-5.65,4.12-13.52,6-19.71,2.72-7.54,6.45-7.78,21.85-3.19,30.64,13.74.66,28.66-.64,40.32-8.65a43.35,43.35,0,0,0,12.2-13,63.69,63.69,0,0,0,4.16-8,29,29,0,0,0,1.54-4.61C246.33,126.38,237,123.86,229.75,118Z"/><path class="cls-9" d="M257.22,118.76l-4.28-.46-3.89-8.37-8.51,3.73-5-3.9c-2.07,2.65-3.91,5.46-5.84,8.2,7.22,5.9,16.58,8.42,26,9.25C256.4,124.46,256.77,121.67,257.22,118.76Z"/><path class="cls-9" d="M129,175.49c-.06-1.76-2.43-3.88-3.43-5.2a28.79,28.79,0,0,0,2.65-3.22c.2-.2-6.72-3.47-7.48-3.78-1.78-.73-3.53-1.42-5.25-2.15-6,8.1-6.52,18-4.32,27.7a21.36,21.36,0,0,0,16.13-5.34l-2.73-2.63C124.36,180.64,129.06,176.18,129,175.49Z"/><path d="M97.49,141.48a35.8,35.8,0,0,1,.31-5.06c.51-5.5-2.71-10.27-4.9-15.16-10.83,2.69-19.8,11.26-22.23,22.23-2.77,12.51,4,23.62,12.38,32.3,5.85,6,13.53,9.82,21.6,11.92a35.62,35.62,0,0,0,6.55,1.12c-1.81-8-1.8-16.08,1.61-23.2C102.43,162.81,94.51,151.75,97.49,141.48Z"/><path class="cls-8" d="M112.81,165.63a27,27,0,0,1,2.71-4.5A38.44,38.44,0,0,1,105,155c-3.69-3.18-7-8-7.49-13,0-.18,0-.35,0-.53C94.51,151.75,102.43,162.81,112.81,165.63Z"/><path class="cls-7" d="M169.17,95.33c-.14-.93-1-1.54-2.85-1.55s-2.69.72-2.84,1.55v5.86h0c.14,1.09.92,1.75,2.86,1.76s2.77-.68,2.83-1.76V95.33Z"/><path class="cls-7" d="M136.72,95.33c-.14-.93-1-1.54-2.85-1.55s-2.69.72-2.84,1.55v5.86h0c.14,1.09.92,1.75,2.86,1.76s2.77-.68,2.83-1.76V95.33Z"/><polygon points="151.29 140.64 136.37 149.82 136.37 131.46 151.29 140.64 151.29 140.64"/><polygon points="151.29 140.64 166.21 149.82 166.21 131.46 151.29 140.64 151.29 140.64"/><path class="cls-7" d="M149,83.77S140,58.4,109.91,66.4c0,0,38.58-31.93,78.75,3.65C188.66,70.05,161.31,60,149,83.77Z"/><path class="cls-14" d="M150.13,121.25a105.12,105.12,0,0,1-36-6.19,2.35,2.35,0,0,1,1.74-4.36c.33.13,33.27,12.94,66.65,0a2.35,2.35,0,1,1,1.7,4.38A94.11,94.11,0,0,1,150.13,121.25Z"/><path class="cls-15" d="M145.14,125.29c1.55-.09,2.63,0,3.49,0s1.41,0,2,0,1.26.12,2.18.16a33.41,33.41,0,0,1,3.51.33h0a1,1,0,0,1,.78,1.09l0,.08a6.33,6.33,0,0,1-2.34,3.51,7.17,7.17,0,0,1-4.32,1.42,6.56,6.56,0,0,1-4.39-1.66,5.5,5.5,0,0,1-1.88-3.94,1,1,0,0,1,.91-1Z"/><path class="cls-14" d="M140.42,108.58a22,22,0,0,1,5.13-1.14,32.76,32.76,0,0,1,4.68-.19,43.77,43.77,0,0,1,4.75.34,22.84,22.84,0,0,1,5.14,1.24h0a.83.83,0,0,1,.48,1.07.84.84,0,0,1-.22.32,13.8,13.8,0,0,1-4.84,2.72,17.87,17.87,0,0,1-5.33.89,15.26,15.26,0,0,1-5.39-.84,11.25,11.25,0,0,1-4.77-3.07.84.84,0,0,1,.34-1.35Z"/><polygon class="cls-12" points="117.36 113.72 120.37 128.98 123.4 115.47 117.36 113.72"/><polygon class="cls-12" points="182.51 113.72 179.5 128.98 176.48 115.47 182.51 113.72"/><path class="cls-9" d="M104.37,86.71s-5.28-9.28-24.94-8.43c0,0,1.15,29.13,24.18,26.28Z"/><path class="cls-14" d="M86.47,85.76S97,87.38,100.36,95C100.36,95,93.51,93.24,86.47,85.76Z"/><path class="cls-9" d="M194.34,86.71s5.28-9.28,24.94-8.43c0,0-1.15,29.13-24.18,26.28Z"/><path class="cls-14" d="M212.25,85.76S201.7,87.38,198.36,95C198.36,95,205.2,93.24,212.25,85.76Z"/><polygon points="65.58 86.53 122.71 138.07 94.27 130.46 65.58 86.53 65.58 86.53"/><polygon points="236.59 88.87 179.45 140.41 207.89 132.81 236.59 88.87 236.59 88.87"/><path class="cls-16" d="M175.78,94.17a30.31,30.31,0,0,0,2.54-1.94c1.09-1,1.47-2.26.42-3.51a2.22,2.22,0,0,0-3.15-.38c-4.13,3-8.27,5.48-13.74,3.51-1-.34-2.09.83-2.32,2.16-.26,1.52.88,2.11,1.93,2.5C166.55,98.4,171.21,97.38,175.78,94.17Z"/><path class="cls-16" d="M134.77,97a30.31,30.31,0,0,0,3.19.1c1.48-.1,2.57-.83,2.54-2.46a2.22,2.22,0,0,0-2.21-2.28c-5.08-.29-9.88-.95-12.89-5.91-.53-.87-2.14-.67-3.16.22s-.65,2.2-.07,3.16C124.94,94.46,129.21,96.6,134.77,97Z"/><path class="cls-14" d="M108.46,115.82a1.17,1.17,0,0,1-.08-2.34c.26,0,5.94-.52,8.46-7.45a1.17,1.17,0,1,1,2.21.8c-3.07,8.44-10.21,9-10.51,9Z"/><path class="cls-14" d="M190.23,115.82h-.07c-.3,0-7.45-.56-10.51-9a1.17,1.17,0,0,1,2.21-.8c2.55,7,8.39,7.45,8.45,7.45a1.17,1.17,0,0,1-.07,2.34Z"/><path class="cls-17" d="M184.27,140.16a4.77,4.77,0,0,1-9.54,0c0-2.63,4.77-11.18,4.77-11.18S184.27,137.52,184.27,140.16Z"/><path class="cls-18" d="M117.34,191.54s42.23,11.59,77.1-2.64C194.44,188.9,160.64,213.89,117.34,191.54Z"/><path d="M250.88,169.49s-29.1-3.82-39.2,24.48l19.6,8Z"/><path class="cls-8" d="M250.88,169.49s-29.59-3-36.24,38.37l26.21,10.64S259.74,195.59,250.88,169.49Z"/><path class="cls-8" d="M214.64,212.64l23.12,8.65s-11.52,9.17-19.86,4.67S214.64,212.64,214.64,212.64Z"/><path class="cls-5" d="M88.25,180.27s9.76,8,23,8.57c0,0-9.38,6.83-10.85,14.42,0,0-.33-14.73-14-13.39Z"/><ellipse class="cls-19" cx="177.21" cy="232.79" rx="18.2" ry="6.49"/><ellipse class="cls-19" cx="189.61" cy="240.16" rx="6.95" ry="2.48"/><path class="cls-8" d="M156.71,162.6s10.81-3.23,21.51,0C178.22,162.6,169.08,165.38,156.71,162.6Z"/><circle class="cls-11" cx="186.31" cy="158.64" r="10.24"/><circle class="cls-8" cx="186.31" cy="158.64" r="5.27"/><ellipse class="cls-20" cx="48.9" cy="225.09" rx="5.1" ry="1.93"/><ellipse class="cls-20" cx="252.71" cy="225.09" rx="5.1" ry="1.93"/><ellipse class="cls-20" cx="99.85" cy="234.45" rx="5.1" ry="1.93"/><ellipse class="cls-20" cx="201.76" cy="234.45" rx="5.1" ry="1.93"/><ellipse class="cls-20" cx="150.8" cy="238.79" rx="5.1" ry="1.93"/><path class="cls-21" d="M43.8,60V78.11A88.72,88.72,0,0,0,54,81.42V56.66A88.72,88.72,0,0,0,43.8,60Z"/><path class="cls-21" d="M247.61,57.08V81a77.9,77.9,0,0,0,10.2-3.54V60.61A77.89,77.89,0,0,0,247.61,57.08Z"/><path class="cls-21" d="M94.75,65V88.19q5,.5,10.2.9V65Z"/><path class="cls-21" d="M196.66,65V89q5.24-.42,10.2-.94V65Z"/><path class="cls-21" d="M145.7,69.39V90.75l4.35,0,5.85,0V69.39Z"/><ellipse class="cls-3" cx="150.05" cy="61.17" rx="116.88" ry="21.73"/><rect class="cls-3" x="33.17" y="46.32" width="233.76" height="14.85"/><ellipse class="cls-4" cx="150.05" cy="46.32" rx="116.88" ry="21.73"/><ellipse class="cls-22" cx="153.6" cy="38.17" rx="20.27" ry="5.69"/><path class="cls-21" d="M153,38.41s13.47,1.35,18.36-3c0,0-6.68-3-11.47-2.68Z"/><path class="cls-22" d="M153,5.88A16.26,16.26,0,1,0,169.3,22.15,16.26,16.26,0,0,0,153,5.88ZM153,29a6.89,6.89,0,1,1,6.89-6.89A6.89,6.89,0,0,1,153,29Z"/><path class="cls-20" d="M43.8,225.09H54V81.42a88.72,88.72,0,0,1-10.2-3.32Z"/><path class="cls-20" d="M247.61,225.09h10.2V77.47A77.9,77.9,0,0,1,247.61,81Z"/><path class="cls-20" d="M94.75,234.45H105V89.09q-5.23-.41-10.2-.9Z"/><path class="cls-20" d="M196.66,234.45h10.2V88q-5,.51-10.2.94Z"/><path class="cls-20" d="M145.7,90.75v148h10.2V90.74l-5.85,0Z"/></g></g></svg>