<svg xmlns="http://www.w3.org/2000/svg" viewBox="0 0 300 300"><defs><style>.cls-1{isolation:isolate;}.cls-2{fill:gray;opacity:0.5;}.cls-3{fill:#7e4e24;}.cls-4{fill:#925f36;}.cls-15,.cls-5{fill:#868686;}.cls-5{mix-blend-mode:multiply;}.cls-10,.cls-12,.cls-6{fill-rule:evenodd;}.cls-7{fill:#5cb032;}.cls-8{fill:#fff7e6;}.cls-10,.cls-9{fill:#f8b133;}.cls-11,.cls-12{fill:#764895;}.cls-13{fill:#fff;}.cls-14{fill:#999;}.cls-16{fill:#b1b1b1;}</style></defs><title>Artboard 11</title><g class="cls-1"><g id="Layer_1" data-name="Layer 1"><ellipse class="cls-2" cx="154.05" cy="272.18" rx="100.15" ry="18.61"/><ellipse class="cls-3" cx="151.05" cy="238.26" rx="116.88" ry="21.73"/><rect class="cls-3" x="34.17" y="223.41" width="233.76" height="14.85"/><ellipse class="cls-4" cx="151.05" cy="223.41" rx="116.88" ry="21.73"/><ellipse class="cls-5" cx="155.37" cy="221.61" rx="71.49" ry="14.35"/><path class="cls-6" d="M206.7,145.06c1,.43,3.85-.09,4.74-.46-3.58-2.56-4.65-5.76-6.39-9.68l3,.51c-1.14,0-4.47-9.06-4.79-10.49l2.51.48-5.28-7.21,4.07.73a41.37,41.37,0,0,0-11.72-11.44l4.42-.45c-.1,0-2-2.61-2.32-2.88a13.47,13.47,0,0,0-3.36-2.3c-2-1-7.47-1.92-7.55-4.77a2.55,2.55,0,0,1,1.35-2.28c-3.67.8-8.47,1.21-12.09-.07-3.26-1.15-6.64-3.3-9.75-4.94-4.77-2.51-10.08-5.74-15.65-5.63,1.13.79,3.61,3.92,3.26,5.31a22.87,22.87,0,0,0-13.93-4.17c1.3,1.26,3,2.49,3.81,4.13-3-.27-5.91-2.87-8.93-3.18.77,1.44,2.26,2.73,2.84,4.2-1.71.25-3.59.24-5.4.5a12.27,12.27,0,0,1-4.32-.27c1.1.62,2.17,1.28,3.27,1.89-1.92.06-4,2.51-5.15,3.75-1.62,1.83-4.69,4.24-5.35,6.62,1.38,0,2.57-.9,3.83-1-.74,2.4-2.21,4.58-3.07,6.9s-2.06,4.66-4.31,5.86c1.49.93,2.73.11,4.31.35-1.69,1.05-1.26,5.35-1.71,7.14-.75,3-2.15,6.22-2.33,9.21a178.26,178.26,0,0,1,22.6,5.75,247.73,247.73,0,0,0,25.32,6.65c9.45,1.91,19,2.25,28.46,4.38a43.47,43.47,0,0,1,9.68,3c1.06.53,7.75,6.05,8.45,2.83a2.28,2.28,0,0,0-.27-1.34C208.63,152,207,145.19,206.7,145.06Z"/><path class="cls-6" d="M155.65,213.17c.48-1.12,2.8-2.45,3.78-3.08,1.56-1,3.54-2.82,5.27-3.34-.13,1.09.84,2.54,1.45,3.29a22.71,22.71,0,0,1,3.46-6.45c.91-1.15,3.12-4,4.64-4-.42,1.82.4,3.77.69,5.48a19.91,19.91,0,0,1,7.13-10.88c-.36,1.31-.53,4.45.16,5.42a18.83,18.83,0,0,1,3.71-6.94c1.36-1.54,3.08-2.74,4.6-4.17a21.32,21.32,0,0,1,.89,5.47c2.57-4.46,3.7-9.73,5.43-14.58,1.57,1,2.63,3.72,3.09,5.53,1.23-2,1.09-5.19,1.34-7.45.28-2.52.31-5,.38-7.47,2.07,0,3.32,2.65,5.63,2.11-1.21-1.64-2.06-2.54-2.34-4.6a20.33,20.33,0,0,1-.29-6.54c1.58.24,3.2.49,4.75.83-.09-1.27-1.44-2-2-3.17-.42-.92-.58-2-.94-3-.8-2.13-1.81-4.28-1.43-6.6.68-4.1,1.44-7.37-.61-11.23-2.65-5-.5-10.47-2.44-15.78-.84,1.6-1.56,3.55-2.89,4.82-.6-3,1.09-6.48.53-9.47-1.16,1.15-2,2.94-3.22,3.91-.73-1.57-1.24-3.37-2-5a12.27,12.27,0,0,1-1-4.22c-.29,1.23-.62,2.44-.89,3.67-.6-1.82-3.55-3.17-5.05-3.88-2.21-1-5.39-3.31-7.86-3.26.34,1.34,1.59,2.21,2.05,3.39-2.51,0-5-.83-7.49-1s-5.05-.66-6.84-2.48c-.47,1.69.66,2.65.88,4.24-1.49-1.33-5.49.3-7.33.37-3.06.11-6.58-.31-9.49.36a178.26,178.26,0,0,1,.87,23.3,247.73,247.73,0,0,0,.77,26.16c.84,9.6,3.21,18.9,3.84,28.54a43.47,43.47,0,0,1-.15,10.13c-.25,1.45-1,3.06-.9,4.51.1,2.56,1.12,3.57.46,6.28l.11-.43"/><path class="cls-6" d="M194.52,123.74c-1.45-.19-5-.63-5.8-1.94,1.78-.57,3-2.28,4.35-3.41a19.91,19.91,0,0,1-13-.54c1.31-.36,4.09-1.83,4.57-2.93a18.83,18.83,0,0,1-7.86.38c-2-.38-3.93-1.24-5.94-1.8a21.32,21.32,0,0,1,4.24-3.57c-5.15.08-10.25,1.82-15.3,2.83.05-1.86,1.85-4.16,3.16-5.49-2.35,0-5,1.73-7.08,2.67-2.31,1.05-4.42,2.28-6.61,3.51-1-1.8.57-4.21-1.08-5.91-.79,1.88-1.13,3.07-2.75,4.37a20.33,20.33,0,0,1-5.47,3.6c-.61-1.48-1.22-3-1.73-4.5-1,.73-1,2.28-1.71,3.31-.57.83-1.4,1.51-2,2.32-1.42,1.78-2.74,3.75-4.93,4.61-5.14,2-11.53,3.72-15.21,7.88,1.35-.3,5.32,0,6.11,1.2a22.87,22.87,0,0,0-12.52,7.41c1.81-.1,3.84-.49,5.62,0-2.25,2-6.12,2.39-8.4,4.4,1.58.41,3.54.19,5,.76-1,1.43-2.25,2.8-3.29,4.31a12.27,12.27,0,0,1-3.13,3c1.2-.38,2.41-.72,3.61-1.12-1.25,1.45-.9,4.67-.73,6.33.24,2.43-.07,6.32,1.24,8.42,1-1,1.08-2.5,1.86-3.5,1.26,2.17,1.87,4.73,3,6.94s2,4.67,1.38,7.15c1.69-.47,1.93-1.93,3.19-2.93-.37,2,3.08,4.56,4.09,6.1,1.67,2.56,3.11,5.8,5.18,8,6.06-4.65,26.47-3,33.24-6.87,7.63-4.39,1.28-14.79,8.37-19.93,7.81-5.65,14.57-12.46,22.52-17.94a43.47,43.47,0,0,1,8.78-5.07c1.91-.73,2.86-.56,3.49-2.58a5.9,5.9,0,0,0-1.11-5.67c-1.44-2-.75-1.57-.07-4A28.39,28.39,0,0,1,194.52,123.74Z"/><path class="cls-6" d="M202.35,151.65c-1-.6-1.77-3.05-2.16-4.1-.63-1.67-2-3.83-2.08-5.61,1,.24,2.68-.57,3.54-1.09a19.24,19.24,0,0,1-5.53-4.14c-.91-1-3.19-3.54-2.84-5.06,1.69.61,3.78,0,5.52-.1a16.78,16.78,0,0,1-9-8.28c1.2.5,4.23,1,5.34.42a15.94,15.94,0,0,1-6-4.45c-1.2-1.53-2-3.37-3-5a21.41,21.41,0,0,1,5.55-.3c-3.78-3-8.69-4.73-13-7,1.33-1.46,4.23-2.22,6.11-2.49-1.68-1.44-4.83-1.64-7-2.14-2.4-.55-4.78-.84-7.22-1.17.51-2.06,3.34-3,3.33-5.39-1.88,1-2.95,1.78-5,1.85s-4.55.23-6.46-.42c.59-1.55,1.2-3.13,1.87-4.65-1.27,0-2.31,1.22-3.54,1.62-1,.32-2.07.37-3.1.63-2.26.57-4.6,1.35-6.77.72-5.13-1.48-10.93-4-16.49-2.87,1.18.58,3.85,3.22,3.59,4.65a21.8,21.8,0,0,0-14.21-1.62c1.37,1,3.12,1.93,4.06,3.4-3.06.28-6.09-1.78-9.14-1.55.86,1.28,2.43,2.29,3.1,3.63-1.7.56-3.58.88-5.38,1.47a12.75,12.75,0,0,1-4.35.5c1.13.42,2.25.88,3.39,1.28-1.92.41-3.89,3.2-4.93,4.63-1.51,2.09-4.44,5-5,7.5,1.38-.2,2.52-1.35,3.78-1.69-.59,2.5-1.94,4.92-2.66,7.37s-1.78,5-4,6.56c1.55.65,2.74-.38,4.35-.42-1.63,1.34-.94,5.51-1.28,7.36-.58,3.06-1.78,6.53-1.78,9.51a172.38,172.38,0,0,1,23,1.63,239,239,0,0,0,25.76,2c9.58.19,19.21-1.19,28.78-.78a41.25,41.25,0,0,1,9.88,1.24c1.37.41,2.78,1.29,4.21,1.38,2.53.17,3.75-.74,6.25.21l-.4-.16"/><path class="cls-6" d="M197.16,175.67c-1-.6-1.77-3.05-2.16-4.1-.63-1.67-2-3.83-2.08-5.61,1,.24,2.68-.57,3.54-1.09a19.24,19.24,0,0,1-5.53-4.14c-.91-1-3.19-3.54-2.84-5.06,1.69.61,3.78,0,5.52-.1a16.78,16.78,0,0,1-9-8.28c1.2.5,4.23,1,5.34.42a15.94,15.94,0,0,1-6-4.45c-1.2-1.53-2-3.37-3-5a21.41,21.41,0,0,1,5.55-.3c-3.78-3-8.69-4.73-13-7,1.33-1.46,4.23-2.22,6.11-2.49-1.68-1.44-4.83-1.64-7-2.14-2.4-.55-4.78-.84-7.22-1.17.51-2.06,3.34-3,3.33-5.39-1.88,1-2.95,1.78-5,1.85s-4.55.23-6.46-.42c.59-1.55,1.2-3.13,1.87-4.65-1.27,0-2.31,1.22-3.54,1.62-1,.32-2.07.37-3.1.63-2.26.57-4.6,1.35-6.77.72-5.13-1.48-10.93-4-16.49-2.87,1.18.58,3.85,3.22,3.59,4.65a21.8,21.8,0,0,0-14.21-1.62c1.37,1,3.12,1.93,4.06,3.4-3.06.28-6.09-1.78-9.14-1.55.86,1.28,2.43,2.29,3.1,3.63-1.7.56-3.58.88-5.38,1.47a12.75,12.75,0,0,1-4.35.5c1.13.42,2.25.88,3.39,1.28-1.92.41-3.89,3.2-4.93,4.63-1.51,2.09-4.44,5-5,7.5,1.38-.2,2.52-1.35,3.78-1.69-.59,2.5-1.94,4.92-2.66,7.37s-1.78,5-4,6.56c1.55.65,2.74-.38,4.35-.42-1.63,1.34-.94,5.51-1.28,7.36-.58,3.06-1.78,6.53-1.78,9.51a172.38,172.38,0,0,1,23,1.63,239,239,0,0,0,25.76,2c9.58.19,19.21-1.19,28.78-.78a41.25,41.25,0,0,1,9.88,1.24c1.37.41,2.78,1.29,4.21,1.38,2.53.17,3.75-.74,6.25.21l-.4-.16"/><path class="cls-6" d="M200.69,198.44c-1-.6-1.77-3.05-2.16-4.1-.63-1.67-2-3.83-2.08-5.61,1,.24,2.68-.57,3.54-1.09a19.24,19.24,0,0,1-5.53-4.14c-.91-1-3.19-3.54-2.84-5.06,1.69.61,3.78,0,5.52-.1a16.78,16.78,0,0,1-9-8.28c1.2.5,4.23,1,5.34.42a15.94,15.94,0,0,1-6-4.45c-1.2-1.53-2-3.37-3-5a21.41,21.41,0,0,1,5.55-.3c-3.78-3-8.69-4.73-13-7,1.33-1.46,4.23-2.22,6.11-2.49-1.68-1.44-4.83-1.64-7-2.14-2.4-.55-4.78-.84-7.22-1.17.51-2.06,3.34-3,3.33-5.39-1.88,1-2.95,1.78-5,1.85s-4.55.23-6.46-.42c.59-1.55,1.2-3.13,1.87-4.65-1.27,0-2.31,1.22-3.54,1.62-1,.32-2.07.37-3.1.63-2.26.57-4.6,1.35-6.77.72-5.13-1.48-10.93-4-16.49-2.87,1.18.58,3.85,3.22,3.59,4.65A21.8,21.8,0,0,0,122,142.42c1.37,1,3.12,1.93,4.06,3.4-3.06.28-6.09-1.78-9.14-1.55.86,1.28,2.43,2.29,3.1,3.63-1.7.56-3.58.88-5.38,1.47a12.75,12.75,0,0,1-4.35.5c1.13.42,2.25.88,3.39,1.28-1.92.41-3.89,3.2-4.93,4.63-1.51,2.09-4.44,5-5,7.5,1.38-.2,2.52-1.35,3.78-1.69-.59,2.5-1.94,4.92-2.66,7.37s-1.78,5-4,6.56c1.55.65,2.74-.38,4.35-.42-1.63,1.34-.94,5.51-1.28,7.36-.58,3.06-1.78,6.53-1.78,9.51a172.38,172.38,0,0,1,23,1.63,239,239,0,0,0,25.76,2c9.58.19,19.21-1.19,28.78-.78a41.25,41.25,0,0,1,9.88,1.24c1.37.41,2.78,1.29,4.21,1.38,2.53.17,3.75-.74,6.25.21l-.4-.16"/><path class="cls-6" d="M223.46,212.36c-1-.6-1.77-3.05-2.16-4.1-.63-1.67-2-3.83-2.08-5.61,1,.24,2.68-.57,3.54-1.09a19.24,19.24,0,0,1-5.53-4.14c-.91-1-3.19-3.54-2.84-5.06,1.69.61,3.78,0,5.52-.1a16.78,16.78,0,0,1-9-8.28c1.2.5,4.23,1,5.34.42a15.94,15.94,0,0,1-6-4.45c-1.2-1.53-2-3.37-3-5a21.41,21.41,0,0,1,5.55-.3c-3.78-3-8.69-4.73-13-7,1.33-1.46,4.23-2.22,6.11-2.49-1.68-1.44-4.83-1.64-7-2.14-2.4-.55-4.78-.84-7.22-1.17.51-2.06,3.34-3,3.33-5.39-1.88,1-2.95,1.78-5,1.85s-4.55.23-6.46-.42c.59-1.55,1.2-3.13,1.87-4.65-1.27,0-2.31,1.22-3.54,1.62-1,.32-2.07.37-3.1.63-2.26.57-4.6,1.35-6.77.72-5.13-1.48-10.93-4-16.49-2.87,1.18.58,3.85,3.22,3.59,4.65a21.8,21.8,0,0,0-14.21-1.62c1.37,1,3.12,1.93,4.06,3.4-3.06.28-6.09-1.78-9.14-1.55.86,1.28,2.43,2.29,3.1,3.63-1.7.56-3.58.88-5.38,1.47a12.75,12.75,0,0,1-4.35.5c1.13.42,2.25.88,3.39,1.28-1.92.41-3.89,3.2-4.93,4.63-1.51,2.09-4.44,5-5,7.5,1.38-.2,2.52-1.35,3.78-1.69-.59,2.5-1.94,4.92-2.66,7.37s-1.78,5-4,6.56c1.55.65,2.74-.38,4.35-.42-1.63,1.34-.94,5.51-1.28,7.36-.58,3.06-1.78,6.53-1.78,9.51,0-.22,9.53.54,10.75.2,4.65-1.28,8.9-5.38,13.63-7,5.46-1.88,11.61-2.39,17-.21,3.35,1.36,6.2,3.69,9.34,5.47,11.61,6.6,24.48,2,36.72,5.66,1.37.41,2.78,1.29,4.21,1.38,2.53.17,3.75-.74,6.25.21l-.4-.16"/><path class="cls-6" d="M98.35,220.75c.65-.77,2.86-1.11,3.82-1.3,1.52-.31,3.56-1.16,5.11-1-.35.86.12,2.38.46,3.19a16.74,16.74,0,0,1,4.32-4.19c1-.65,3.48-2.27,4.74-1.76-.76,1.37-.52,3.24-.66,4.76a14.6,14.6,0,0,1,8.35-6.64c-.6,1-1.44,3.5-1.09,4.54A13.86,13.86,0,0,1,128,213.8c1.47-.82,3.17-1.25,4.74-1.94a18.69,18.69,0,0,1-.49,4.81c3.13-2.84,5.25-6.83,7.77-10.27,1.07,1.34,1.34,3.94,1.31,5.59,1.47-1.25,2.07-3.93,2.79-5.72.8-2,1.37-4,2-6.05,1.7.72,2.15,3.29,4.18,3.6-.64-1.76-1.13-2.78-.9-4.58a17.08,17.08,0,0,1,1.24-5.5c1.25.72,2.53,1.46,3.74,2.24.21-1.08-.73-2.16-.91-3.26-.14-.9,0-1.83-.12-2.75-.18-2-.53-4.13.3-5.92,2-4.21,4.91-8.86,4.71-13.79-.66.94-3.29,2.87-4.49,2.45a19,19,0,0,0,3.33-12c-1.06,1-2.09,2.42-3.47,3,.18-2.67,2.36-5,2.57-7.65-1.22.57-2.3,1.78-3.55,2.17-.25-1.54-.27-3.2-.53-4.82a11,11,0,0,1,.16-3.81c-.52.92-1.06,1.82-1.56,2.74-.09-1.7-2.22-3.78-3.31-4.87-1.6-1.59-3.71-4.5-5.77-5.28,0,1.22.82,2.35.94,3.48-2.07-.85-4-2.34-6-3.29a10.33,10.33,0,0,1-5.11-4.3c-.77,1.24,0,2.41-.23,3.8-.93-1.59-4.61-1.56-6.15-2.11-2.56-.91-5.37-2.42-7.94-2.82a150,150,0,0,1-4.52,19.55,208,208,0,0,0-5.25,21.88c-1.46,8.21-1.59,16.68-3.24,24.86a35.9,35.9,0,0,1-2.41,8.32c-.54,1.12-1.49,2.22-1.76,3.44-.49,2.15.12,3.32-1,5.34l.19-.32"/><path class="cls-6" d="M158.85,138c.38.93-.35,3-.62,4-.43,1.49-.63,3.7-1.47,5-.6-.71-2.17-1-3-1.08a16.75,16.75,0,0,1,1.7,5.77c.1,1.2.39,4.13-.65,5-.86-1.31-2.63-2-3.9-2.8a14.6,14.6,0,0,1,2,10.49c-.58-1-2.43-2.9-3.51-3.07a13.87,13.87,0,0,1,1.84,6.2c0,1.69-.37,3.38-.49,5.1a18.76,18.76,0,0,1-4-2.68c1.05,4.09,3.6,7.82,5.47,11.65-1.69.32-4.11-.65-5.56-1.44.42,1.88,2.52,3.66,3.76,5.13,1.39,1.63,2.9,3.08,4.43,4.58-1.43,1.18-3.91.37-5.13,2,1.85.26,3,.29,4.47,1.33a17,17,0,0,1,4.29,3.66c-1.22.77-2.47,1.57-3.73,2.27.86.69,2.25.35,3.31.71.86.29,1.63.82,2.49,1.18,1.87.78,3.91,1.45,5.1,3,2.81,3.7,5.56,8.47,10,10.59-.53-1-1-4.25-.08-5.12a19,19,0,0,0,9.07,8.53c-.43-1.42-1.17-3-1.07-4.48,2.28,1.4,3.33,4.41,5.58,5.84.07-1.34-.5-2.87-.27-4.15,1.48.5,3,1.25,4.52,1.77a11.08,11.08,0,0,1,3.3,1.91c-.57-.88-1.12-1.78-1.7-2.66,1.55.71,4.38-.21,5.85-.67,2.15-.67,5.71-1.19,7.36-2.65-1.07-.58-2.46-.37-3.52-.79,1.72-1.44,3.91-2.42,5.69-3.76a10.34,10.34,0,0,1,6.18-2.52c-.75-1.26-2.11-1.16-3.25-2,1.84-.08,3.52-3.36,4.73-4.47,2-1.84,4.64-3.63,6.19-5.71a150,150,0,0,1-15.2-13.1,207.67,207.67,0,0,0-16.92-14.83c-6.59-5.12-14-9.17-20.49-14.44a35.89,35.89,0,0,1-6.25-6c-.74-1-1.27-2.35-2.22-3.16-1.68-1.43-3-1.44-4.25-3.4l.2.32"/><path class="cls-6" d="M169.3,205.83a7.77,7.77,0,0,1-.59-1.07c-.65-1.43-.07-2.06-1.39-3.49-1-1.12-3-1.88-4.32-2.66a14.18,14.18,0,0,1-4.65-4.35l37.21-10,14.17,7.31c1.75-1.83,3.21-2.94,4.13-4.38,5.24-8.23,12.72-7.57,19.84-4.06,7.29,3.6,9.42,9.95,7,18.17-5.85,19.71-18.66,23.85-38,18.23-8.49-2.47-17.07-4.84-25.18-8.43C174.22,209.68,171.06,208.49,169.3,205.83Z"/><path class="cls-6" d="M153.43,143.66a2.64,2.64,0,0,0-2.73,2.67,2.45,2.45,0,0,0,2.42,2.88,4.94,4.94,0,0,0,.56,0V143.7Z"/><path class="cls-7" d="M143.62,117a19.91,19.91,0,0,0-6.21-5.55,17,17,0,0,0-2.61-1.18,10.46,10.46,0,0,1-.09,5.79,10.75,10.75,0,0,1-2.53,5.07,19.36,19.36,0,0,0,3,.06,23.61,23.61,0,0,0,7.8-1.88,1.52,1.52,0,0,0,.61-2.3Z"/><path class="cls-7" d="M128.74,109.23a24.09,24.09,0,0,0-8.41,1.61,1.93,1.93,0,0,0-.82,3,19.78,19.78,0,0,0,7.06,5.71,17,17,0,0,0,3.31,1.15,10.2,10.2,0,0,1,.05-5.87l0-.11h0a1.85,1.85,0,1,1,1.33-3.42,5.87,5.87,0,0,1,1.33-1.68A18.76,18.76,0,0,0,128.74,109.23Z"/><path d="M132.17,121.1A10.75,10.75,0,0,0,134.7,116a10.46,10.46,0,0,0,.09-5.79,17.17,17.17,0,0,0-2.16-.6,5.87,5.87,0,0,0-1.33,1.68,1.85,1.85,0,0,1-1.33,3.42l0,.11a10.2,10.2,0,0,0-.05,5.87"/><path class="cls-8" d="M130.86,111.14a1.85,1.85,0,0,0-.89,3.6h0a14.11,14.11,0,0,1,1.33-3.42A1.85,1.85,0,0,0,130.86,111.14Z"/><path class="cls-8" d="M132.22,113.38a1.85,1.85,0,0,0-.91-2.07,14.11,14.11,0,0,0-1.33,3.42A1.85,1.85,0,0,0,132.22,113.38Z"/><path class="cls-7" d="M175.67,115.81a10.47,10.47,0,0,1,.05-5.79,17,17,0,0,0-2.64,1.11,19.91,19.91,0,0,0-6.35,5.39,1.52,1.52,0,0,0,.55,2.32,23.61,23.61,0,0,0,7.75,2.08,19.34,19.34,0,0,0,3,0A10.75,10.75,0,0,1,175.67,115.81Z"/><path class="cls-7" d="M191.3,112.32a1.94,1.94,0,0,0-1.14-1.33,24.09,24.09,0,0,0-8.37-1.82,18.76,18.76,0,0,0-3.9.3c1.82,1.53,2.54,4.52,2.82,6.78.06.48.4,4.21-.36,4.36a17,17,0,0,0,3.34-1.06A19.78,19.78,0,0,0,190.9,114,1.93,1.93,0,0,0,191.3,112.32Z"/><path d="M180.35,120.62a8.39,8.39,0,0,0,0-6c-.19-.62-1.48-5.36-2.47-5.18a17.17,17.17,0,0,0-2.17.55,10.46,10.46,0,0,0-.05,5.79,10.75,10.75,0,0,0,2.4,5.14A1.65,1.65,0,0,0,180.35,120.62Z"/><path class="cls-8" d="M175.21,111.81a1.85,1.85,0,0,1,.8,3.62h0a14.11,14.11,0,0,0-1.24-3.45A1.85,1.85,0,0,1,175.21,111.81Z"/><path class="cls-8" d="M173.8,114a1.85,1.85,0,0,1,1-2,14.11,14.11,0,0,1,1.24,3.45A1.85,1.85,0,0,1,173.8,114Z"/><path class="cls-6" d="M143.88,195.42c-2.26-4-13.92-5.05-17.41-6l-14.26-3.82L98,192.93c-1.75-1.83-3.21-2.94-4.13-4.38-5.24-8.23-12.72-7.57-19.83-4.06-7.29,3.6-9.42,9.95-7,18.17,5.85,19.71,18.66,23.85,38,18.23,6.53-1.9,12.47-5.59,18.11-9.3,3.41-2.24,6.66-4.71,10.05-7,2.46-1.64,4.37-1.8,7.11-2.94a6.19,6.19,0,0,0,3.89-4.33A2.79,2.79,0,0,0,143.88,195.42Z"/><path class="cls-6" d="M67.18,202.66S58.12,185,74,178.21s23.77,14,23.77,14Z"/><ellipse class="cls-9" cx="68.27" cy="188.57" rx="3.21" ry="3.58" transform="translate(-93.02 69.38) rotate(-33.63)"/><ellipse class="cls-9" cx="74.98" cy="183.16" rx="3.21" ry="3.58" transform="translate(-51.69 31.09) rotate(-17.53)"/><ellipse class="cls-9" cx="83.25" cy="181.97" rx="3.21" ry="3.58" transform="translate(-34.6 20.25) rotate(-11.5)"/><polygon class="cls-10" points="64.96 188.57 63.54 181.97 70.94 186.79 64.96 188.57"/><polygon class="cls-10" points="71.92 184.13 70.51 176.21 76.54 180.17 71.92 184.13"/><polygon class="cls-10" points="80.1 182.61 78.92 174.75 85.99 179.61 80.1 182.61"/><path class="cls-6" d="M240.58,201.35s9.06-17.66-6.86-24.45-23.77,14-23.77,14Z"/><ellipse class="cls-9" cx="238.21" cy="186.41" rx="3.58" ry="3.21" transform="translate(-48.93 281.5) rotate(-56.37)"/><ellipse class="cls-9" cx="231.5" cy="180.99" rx="3.58" ry="3.21" transform="translate(-10.82 347.22) rotate(-72.47)"/><polygon class="cls-10" points="241.52 186.41 242.94 179.81 235.54 184.63 241.52 186.41"/><polygon class="cls-10" points="234.56 181.96 235.97 174.04 229.94 178 234.56 181.96"/><ellipse class="cls-9" cx="223.23" cy="179.81" rx="3.58" ry="3.21" transform="translate(2.54 362.72) rotate(-78.5)"/><polygon class="cls-10" points="226.38 180.45 227.56 172.59 220.49 177.44 226.38 180.45"/><path class="cls-11" d="M168.34,163.33c5.07,1.41,10.72,1.45,15.36-1a18.32,18.32,0,0,0,6.12-5.54,13,13,0,0,0,1.75-3.82c.25-.93,0-2.78.45-3.53a11.8,11.8,0,0,1-16.27,4.47l2,2.77a24.67,24.67,0,0,1-17.17-5.94l.35,2.34c-4.41-2.07-8.83-4.47-13.33-6.24,2.27,3.7,4.11,8.2,7.83,10.72A46.08,46.08,0,0,0,168.34,163.33Z"/><path class="cls-6" d="M64.57,191.87c0,3.19.29,6.53,0,9.7-.15,1.67-.7,3.16-.77,4.82.86-1.26,1.65-2.62,2.57-3.89.22,3.08,1.28,5.63,2.26,8.57.74,2.25,1.16,5.09,2.7,7a24.86,24.86,0,0,1,1.13-3.49c2.12,3.95,5.45,8.15,9.79,9.5A7,7,0,0,0,82,221.9c1.48.45,4.57,1.08,5.74-.43-2.59-2.92-6.12-4.42-8.93-7.1-2-1.93-4.84-4-6.51-6.15-1.47-1.94-2.58-5.08-3.59-7.35-1.27-2.86-4-4.3-3.76-7.87"/><path class="cls-6" d="M242.63,190.56c0,3.19-.29,6.53,0,9.7.15,1.67.7,3.16.77,4.82-.86-1.26-1.65-2.62-2.57-3.89-.22,3.08-1.28,5.63-2.25,8.57-.74,2.25-1.16,5.09-2.7,7a24.59,24.59,0,0,0-1.13-3.49c-2.11,3.95-5.45,8.15-9.79,9.5a7,7,0,0,1,.26-2.14c-1.48.45-4.57,1.08-5.74-.43,2.59-2.92,6.12-4.42,8.93-7.1,2-1.93,4.84-4,6.51-6.15,1.47-1.94,2.58-5.08,3.59-7.35,1.27-2.86,4-4.3,3.76-7.87"/><path class="cls-6" d="M70.42,193.28c-1.33.73-4.89,3.21-5.69.39-.28-1,2.72-3.94,3.48-4.82a19.94,19.94,0,0,1,4.7-4A22.57,22.57,0,0,1,85.06,182c1.74,0,5.47.68,4.9,3.39-.5,2.38-8.59,2.83-10.59,3.45C75.79,189.94,73.54,191.56,70.42,193.28Z"/><path class="cls-6" d="M236.63,191.11c1.33.73,4.89,3.21,5.69.39.28-1-2.72-3.94-3.48-4.82a19.92,19.92,0,0,0-4.7-4A22.57,22.57,0,0,0,222,179.84c-1.74,0-5.47.68-4.9,3.39.5,2.38,8.59,2.83,10.59,3.45C231.25,187.78,233.5,189.39,236.63,191.11Z"/><path class="cls-6" d="M154.37,209.19c1.54-2.35,4.82-3,7.55-2.35s5,2.46,7.25,4.19c-2.26-9-4.66-18.29-10.37-25.61a21.39,21.39,0,0,0-8.86-7,12.51,12.51,0,0,0-11,.7c-4.3,2.71-6,8.44-5,13.42.83,4.23,4.14,10.85,8.2,12.94S151.32,204.11,154.37,209.19Z"/><path d="M130.55,162.52a44.85,44.85,0,0,0-2.37,6.7c-1.35,6.23.21,13.27,2.78,18.44,3.28,6.6,8.07,10.81,12.95,15.61.65.64,6.47,7,6.19,7.22-1.35,1-2.45,2.26-3.88,3,.53,2,2.15,5.36,1.56,7.53-.23.85-6.67,4.62-6.51,5l1.8,4.16c-9.21,4.75-16.91,2.76-24.59-2.83A50,50,0,0,1,101,205.25a78.85,78.85,0,0,1-5.17-33.38l-4.09-.18L100.9,160l-3.26-2.64A18.49,18.49,0,0,0,111,152l-5.43-4c1.26.95,11.48-3,13.3-3.46,4.2-1.12,7.88-2.41,12.33-2.22C131.6,149.07,133.11,156,130.55,162.52Z"/><path class="cls-11" d="M209.47,178.07l-.23-.26c-.82-.73-1.58-1.53-2.34-2.34l-2.57,1.43c-2.86,1.59-5.15,4.23-8,5.67A22.59,22.59,0,0,1,185.54,185c-4.22-.14-8.29-.55-12.57-.51-2.89,0-6.37.54-9.21-.18a115.16,115.16,0,0,1-34.06-14.8c.35.23.65,2.64.82,3.14a27.5,27.5,0,0,0,1.48,3.6,33.21,33.21,0,0,0,4.34,6.58,28.79,28.79,0,0,0,13.11,8.86l-2.36,1.21,23.69,2.59-2.63,3.15,20.09-5.42-.93,5.49a32.85,32.85,0,0,0,7.2-4.52c2.48-2.3,5-4.55,7.53-6.82l2.19,3.17c.43-4.31,3.43-7.67,6.23-11.14C210.14,178.93,209.8,178.51,209.47,178.07Z"/><path d="M190.23,150.06c-.62,1.34-.67,2.7-1.31,4-1.05,2.16-3.29,3.48-5.48,4.24-4.63,1.61-10.24,1.41-14.95.19-7.13-1.85-12.24-5.68-17.94-9.46-.77-.51-8.23-4.88-8.34-4.58-.66,1.52-1.71,2.86-2.13,4.41-2-.12-5.69-1-7.69,0-.78.4-3.16,7.48-3.55,7.4l-4.44-.91c-2.76,10,.77,17.12,7.82,23.49a50,50,0,0,0,25.22,12.59,78.85,78.85,0,0,0,33.73-1.8l1,4,9.57-11.41,3.25,2.65c-1.11-4.72.93-4.52,3.06-8.12a11.75,11.75,0,0,0,1.2-9.36l4.07.36-7.1-8.42,5.32-1.26a25.8,25.8,0,0,0-4.2-3.47c-.66-.43-3.1-2.62-3.64-2.58l2.14-.14-12.22-8c-1.11,2-2.35,4-3.35,6.05Z"/><path class="cls-10" d="M136.63,151a3.79,3.79,0,0,0-1.51-2h0l-.16-.1h0L129.1,145l1.24,7a3.93,3.93,0,0,0,.16.91,3.23,3.23,0,1,0,6.13-1.94Z"/><path class="cls-10" d="M129.16,158.06a3.79,3.79,0,0,0-.78-2.39h0l-.12-.15h0L123.93,150l-1.06,7a3.93,3.93,0,0,0-.14.92,3.23,3.23,0,1,0,6.42.12Z"/><path class="cls-10" d="M145.11,146.25a3.79,3.79,0,0,0-2.15-1.31h0l-.19,0h0l-6.88-1.38,3.77,6a3.93,3.93,0,0,0,.49.79,3.23,3.23,0,1,0,5-4.08Z"/><path class="cls-10" d="M143.09,223.27a3.79,3.79,0,0,0,2.36.89h.19l7,.07L147.83,219a3.93,3.93,0,0,0-.63-.68,3.23,3.23,0,1,0-4.11,4.94Z"/><path class="cls-10" d="M145.57,213.3a3.79,3.79,0,0,0,2,1.59h0l.18.06h0l6.63,2.31-2.91-6.5a3.93,3.93,0,0,0-.38-.84,3.23,3.23,0,1,0-5.47,3.37Z"/><path class="cls-10" d="M138.52,231.85a3.79,3.79,0,0,0,2.52-.06h0l.18-.07h0l6.54-2.56-6.43-3a3.93,3.93,0,0,0-.84-.4,3.23,3.23,0,1,0-2,6.11Z"/><circle class="cls-11" cx="113.35" cy="122.74" r="1.42"/><circle class="cls-11" cx="123.15" cy="130.16" r="1.93"/><circle class="cls-11" cx="187.75" cy="129.5" r="1.32"/><circle class="cls-11" cx="190.7" cy="121.68" r="1.29"/><circle class="cls-11" cx="192.67" cy="131.81" r="0.69"/><circle class="cls-11" cx="198.47" cy="125.09" r="0.7"/><circle class="cls-11" cx="115.99" cy="129.19" r="0.97"/><circle class="cls-11" cx="119.38" cy="121.68" r="0.72"/><circle class="cls-11" cx="128.37" cy="132.5" r="0.72"/><path d="M115.92,85.78c-.79-.45-10.29,10.19-5.69,23.35l23.54-4.69S123.87,90.26,115.92,85.78Z"/><path d="M197.81,86.41c.86-.28,8.07,12,1,24l-22.15-9.25S189.13,89.22,197.81,86.41Z"/><path class="cls-11" d="M117.49,94.67a29.75,29.75,0,0,0-.89,7.36l2.45.45.39.07c.54.1,2.83.87,3.27.51.8-.65-.51-1.75-1-2.42S117.29,95,117.49,94.67Z"/><path class="cls-11" d="M186.55,101.28a57.38,57.38,0,0,0,9.69-8.16l-.93,11.59-2.77-4.17a15.75,15.75,0,0,1-6.52,1.24l2.92-2.34"/><path class="cls-12" d="M161.21,122.17a9.47,9.47,0,0,0-14.74,3.41,9.14,9.14,0,0,0,10.06,12.84l-.6.62a9.53,9.53,0,0,0,5.28-16.87Z"/><path d="M159,123c.82.19.85,1,.53,1.62-1.28,2.59-3.45,4-6.13,2.44a6.33,6.33,0,0,1-2-1.69c-1.67-2.52,3.11-2.32,4.47-2.39A13.28,13.28,0,0,1,159,123Z"/><path d="M109.92,176.79l-1,6.94c-8.61-4.18-16.84-8.88-25.65-12.58l2.08-2a48.71,48.71,0,0,1-13-12.63l2.89.93c-1.07-.35-1.62-9.19-1.65-10.3-.17-5.18.25-9.36-.65-14.55l2.49.64-.58-6.39,1.34.8c1.76-6,3.71-13.17-1.83-18.06a11.26,11.26,0,0,0-12.23-1.08c-1.58,1-7.77,10.11-4.81,11.7a5,5,0,0,1-2.41-3.6c-.7,1-3.88,9-3.5,9a2.15,2.15,0,0,1-2-2.31l-7,10.4-1.19-8.88-3,2.75a41.29,41.29,0,0,1-.64-4.08A10.59,10.59,0,0,1,39.25,119c1.33-2.25,4-4.1,4.76-6.5a3.84,3.84,0,0,1-3.06-1.22C43.52,110.47,61.12,96,62.84,98L61,95.87l8,1.11-.13-2c2.86,2,5.67,4,8.67,5.78.67.39,5.69,4.05,5.48,4.61l.94-2.52c2.31,9.58,2.93,17.44,1.39,27.25l1.49.56c-2.65,5.11-4.71,9.82-4.31,15.77.13,2,3.28,7.95,2.55,9.36l1.38-2.53c1.39,5.09,2.12,6.94,6.78,9.72,1.32.79,17.5,7.38,17.75,5.59Z"/><path d="M108.92,173.55l-1.64,6.81c-8.16-5-15.87-10.51-24.27-15.07l2.26-1.74a48.71,48.71,0,0,1-11.72-13.86l2.79,1.21c-1-.45-.7-9.3-.62-10.41.35-5.18,1.18-9.29.8-14.54l2.41.89.06-6.41,1.25.92c2.34-5.76,5-12.73,0-18.15a11.26,11.26,0,0,0-12.06-2.29c-1.66.8-8.74,9.29-5.95,11.16a5,5,0,0,1-2-3.82c-.79.94-4.76,8.55-4.37,8.6a2.15,2.15,0,0,1-1.71-2.5l-8,9.65-.3-9-3.3,2.43a41.29,41.29,0,0,1-.23-4.13,10.59,10.59,0,0,1,2.1-4.32c1.55-2.1,4.4-3.68,5.38-6a3.84,3.84,0,0,1-2.92-1.52c2.64-.56,21.6-13.19,23.11-11.06l-1.62-2.28,7.9,1.9.07-2c2.65,2.28,5.24,4.56,8.05,6.61.62.46,5.26,4.6,5,5.13l1.18-2.41c1.34,9.76,1.19,17.65-1.32,27.26l1.43.71c-3.14,4.82-5.66,9.3-5.85,15.26-.06,2,2.47,8.23,1.6,9.57L88,147.83c.88,5.21,1.42,7.12,5.78,10.34,1.24.92,16.68,9.09,17.11,7.33Z"/><path class="cls-8" d="M152.82,123.54c.86-.46,2.3-.54,2.28.36,0,.47-.53.74-1,.9A2.54,2.54,0,0,1,153,125a.9.9,0,0,1-.82-.65C152.15,124,152.42,123.75,152.82,123.54Z"/><path class="cls-13" d="M100.6,203l-2.36,5L96,192.5l-3.46,1.85,2.37-17.77,1.59,13,2-1,.93,11,3.25-1.65c-1.75.88,4.47,14.85,5.23,16.33a30.35,30.35,0,0,1-4.23-5.55C103.13,207.9,100.24,203.72,100.6,203Z"/><path class="cls-11" d="M144.61,174l5.08,5.69-1.32-2.7,3.66-.37Z"/><path class="cls-11" d="M157.48,170.09l5-2.82a24.85,24.85,0,0,1-9.26,2s4.84,3.88,8.34,4.49C161.6,172.27,158.6,170.89,157.48,170.09Z"/><path class="cls-11" d="M158.6,175.47s4.84,3.88,8.34,4.49c.07-1.44-2.92-2.82-4-3.62l5-2.82A24.85,24.85,0,0,1,158.6,175.47Z"/><path class="cls-11" d="M189.37,180.63l2.07-5.77c-4,4.15-1.83,1.6-6.86,8.47l9.19-1.79Z"/><path class="cls-11" d="M118.44,210.87l.52,5.42-3.61-1.68,7.43,5.78Z"/><path class="cls-11" d="M115.52,191.91l2.64,1.72-4.34-9.51.52,5.42-3.61-1.68c3.73,3.56,2.08,2.29,4.46,3.84l-.57,5.07c.07-.42-4.29-3.07-4.84-3.32.94,2.89,4.76,5.08,7,6.91Z"/><path class="cls-12" d="M147.24,104.27a2.21,2.21,0,0,1-3.87,1.87l4.43,4.78Z"/><path class="cls-12" d="M151.11,97.89c-.62-1-1.86-1-2.48-2l2.39,5.92,1.32-5.75Z"/><path class="cls-12" d="M155.88,108.78,154,107.69l1.67,4.93,1.8-4.36Z"/><path class="cls-12" d="M158,99.21l.83,3.14,2.46-4.26-3.35.56.54.1"/><path d="M149.92,134.3a14.77,14.77,0,0,0,5.47-3.47,15.48,15.48,0,0,0,5.87,3.07,4.35,4.35,0,0,0-1.57-2.28,23,23,0,0,1-2.15-1.82,4,4,0,0,1-1-3.18c0,.06-2.07.16-2.25.3a11,11,0,0,0-.82,2.07c-.94,2-2.64,3.67-3.93,5.45Z"/><ellipse class="cls-14" cx="49.9" cy="224.09" rx="5.1" ry="1.93"/><ellipse class="cls-14" cx="253.71" cy="224.09" rx="5.1" ry="1.93"/><ellipse class="cls-14" cx="100.85" cy="233.45" rx="5.1" ry="1.93"/><ellipse class="cls-14" cx="202.76" cy="233.45" rx="5.1" ry="1.93"/><ellipse class="cls-14" cx="151.8" cy="237.79" rx="5.1" ry="1.93"/><path class="cls-15" d="M44.8,59V77.11A88.72,88.72,0,0,0,55,80.42V55.66A88.72,88.72,0,0,0,44.8,59Z"/><path class="cls-15" d="M248.61,56.08V80a77.9,77.9,0,0,0,10.2-3.54V59.61A77.89,77.89,0,0,0,248.61,56.08Z"/><path class="cls-15" d="M95.75,64V87.19q5,.5,10.2.9V64Z"/><path class="cls-15" d="M197.66,64V88q5.24-.42,10.2-.94V64Z"/><path class="cls-15" d="M146.7,68.39V89.75l4.35,0,5.85,0V68.39Z"/><ellipse class="cls-3" cx="151.05" cy="60.17" rx="116.88" ry="21.73"/><rect class="cls-3" x="34.17" y="45.32" width="233.76" height="14.85"/><ellipse class="cls-4" cx="151.05" cy="45.32" rx="116.88" ry="21.73"/><ellipse class="cls-16" cx="154.6" cy="37.17" rx="20.27" ry="5.69"/><path class="cls-15" d="M154,37.41s13.47,1.35,18.36-3c0,0-6.68-3-11.47-2.68Z"/><path class="cls-16" d="M154,4.88A16.26,16.26,0,1,0,170.3,21.15,16.26,16.26,0,0,0,154,4.88ZM154,28a6.89,6.89,0,1,1,6.89-6.89A6.89,6.89,0,0,1,154,28Z"/><path class="cls-14" d="M44.8,224.09H55V80.42a88.72,88.72,0,0,1-10.2-3.32Z"/><path class="cls-14" d="M248.61,224.09h10.2V76.47A77.9,77.9,0,0,1,248.61,80Z"/><path class="cls-14" d="M95.75,233.45H106V88.09q-5.23-.41-10.2-.9Z"/><path class="cls-14" d="M197.66,233.45h10.2V87q-5,.51-10.2.94Z"/><path class="cls-14" d="M146.7,89.75v148h10.2V89.74l-5.85,0Z"/></g></g></svg>