<svg xmlns="http://www.w3.org/2000/svg" viewBox="0 0 300 300"><defs><style>.cls-1{isolation:isolate;}.cls-2{fill:gray;opacity:0.5;}.cls-3{fill:#7e4e24;}.cls-4{fill:#925f36;}.cls-21,.cls-5{fill:#868686;}.cls-5{mix-blend-mode:multiply;}.cls-6,.cls-7{fill:#39a935;}.cls-11,.cls-12,.cls-13,.cls-14,.cls-18,.cls-7,.cls-9{fill-rule:evenodd;}.cls-12,.cls-8{fill:#35a8e0;}.cls-10,.cls-14{fill:#f8b133;}.cls-11,.cls-17{fill:#004c25;}.cls-13,.cls-15{fill:#fff;}.cls-16{fill:#1d1d1b;}.cls-18,.cls-19{fill:#e84e1b;}.cls-20{fill:#999;}.cls-22{fill:#b1b1b1;}</style></defs><title>Artboard 6</title><g class="cls-1"><g id="Layer_1" data-name="Layer 1"><ellipse class="cls-2" cx="153.05" cy="273.18" rx="100.15" ry="18.61"/><ellipse class="cls-3" cx="150.05" cy="239.26" rx="116.88" ry="21.73"/><rect class="cls-3" x="33.17" y="224.41" width="233.76" height="14.85"/><ellipse class="cls-4" cx="150.05" cy="224.41" rx="116.88" ry="21.73"/><ellipse class="cls-5" cx="148.82" cy="219.01" rx="82.01" ry="16.46"/><path class="cls-6" d="M140.25,200.69a14.76,14.76,0,0,0,4.84-4.53l-38.73-10.36L91.6,193.4c-1.82-1.91-1.94-5-2.9-6.55-5.46-8.57-14.63-5.89-22-2.23-7.59,3.75-9.8,10.35-7.26,18.91,6.09,20.52,19.42,24.83,39.52,19,12.35-3.6,24.69-9.34,37-13.51C134.61,203.89,131.61,205.88,140.25,200.69Z"/><path class="cls-7" d="M197.65,200.43h-97.4c.21,0-.33-36.51,0-38.89,2.26-14.67,12.43-28.25,26.66-33.08,8.89-3,18.55-2.7,27.88-1.69,10.22,1.11,20.66,3.13,29.26,8.77,13.2,8.65,13.57,20.24,13.57,34.42Q197.65,185.19,197.65,200.43Z"/><path class="cls-6" d="M134,209.76c9.3-3.49,23-3.06,32.17.8,3.91-3.07.76-8.91-1.85-13.14s-7.32-6.72-12.08-8.15-9.86-2-14.6-.55-9,5.07-10.18,9.86S129.35,208.12,134,209.76Z"/><path class="cls-6" d="M189.26,85.49a1.58,1.58,0,0,1,.75-1,50.86,50.86,0,0,0,12.5-9.93,1.57,1.57,0,0,1,2.74,1.16c-.37,5.44-1.81,14.3-7.07,19.56a1.57,1.57,0,0,1-1.12.46s-8.13,1-7.82-9.58A1.57,1.57,0,0,1,189.26,85.49Z"/><path class="cls-6" d="M106.28,83.88a1.57,1.57,0,0,0-.94-.79A50.84,50.84,0,0,1,91,76a1.57,1.57,0,0,0-2.44,1.7c1.49,5.24,4.75,13.61,11,17.66a1.58,1.58,0,0,0,1.19.22s8.17-.68,5.65-11A1.57,1.57,0,0,0,106.28,83.88Z"/><path class="cls-6" d="M231,184.61c-7.41-3.66-15.19-4.35-20.65,4.22-1,1.51-2.48,2.66-4.3,4.56l-14.75-7.61L152.6,196.16a14.76,14.76,0,0,0,4.84,4.53c8.54,5.14,5.71,3.25,4.37,8.14l.12.23c12.28,4.16,24.56,9.87,36.86,13.45,20.09,5.85,33.42,1.54,39.52-19C240.84,195,238.62,188.36,231,184.61Z"/><path class="cls-7" d="M143.59,78.68a6.77,6.77,0,0,0-1.29-6.6c-6.32-7.39-11.93-13.8-14.93-17.2a1.27,1.27,0,0,0-2.32.88l-.12,22.68a6.78,6.78,0,0,0,3.29,5.88c3.28,1.76,7.6,4.08,9.67,5.17a1.16,1.16,0,0,0,1.7-.63Z"/><path class="cls-7" d="M153.84,78.68a6.77,6.77,0,0,1,1.29-6.6c6.32-7.39,11.93-13.8,14.93-17.2a1.27,1.27,0,0,1,2.32.88l.12,22.68a6.78,6.78,0,0,1-3.29,5.88c-3.28,1.76-7.6,4.08-9.67,5.17a1.16,1.16,0,0,1-1.7-.63Z"/><rect class="cls-8" x="142.37" y="61.55" width="13.07" height="36.14"/><path class="cls-9" d="M161.5,87.86c0,5.36-5.78,13.11-12.91,13.11s-12.91-7.76-12.91-13.11,5.78-9.7,12.91-9.7S161.5,82.5,161.5,87.86Z"/><ellipse class="cls-10" cx="150.22" cy="168.04" rx="36.2" ry="33.95"/><path class="cls-7" d="M150.14,188.74h.44a2.37,2.37,0,0,1,0,4.75l-.22,0h0l-.22,0a2.37,2.37,0,0,1,0-4.75Z"/><path class="cls-7" d="M83.56,142.86s6.85-15,22.53-14.34L114,145.76,97.73,155.1Z"/><path class="cls-11" d="M105.24,152.13a9.88,9.88,0,0,1-2.89-7.06c0-1.84-.26-3.67-.21-5.55,0-.69,1.19-5.46,1-5.66a33.31,33.31,0,0,0,28.76,10.62,10.25,10.25,0,0,1,4-.09c6.44,1.71-3,6.79-5,7.8a35.19,35.19,0,0,1-12.34,3.52c-3.91.36-8.06,0-11.39-2.08A10.45,10.45,0,0,1,105.24,152.13Z"/><path class="cls-7" d="M100.15,83.92h97.4c-.21,0,.33,36.51,0,38.89-2.26,14.67-12.43,28.25-26.66,33.08-8.89,3-18.55,2.7-27.88,1.69-10.22-1.11-20.66-3.13-29.26-8.77-13.2-8.65-13.57-20.24-13.57-34.42Q100.15,99.15,100.15,83.92Z"/><path class="cls-7" d="M197.46,121.72c-.22-12.91.67-19.71-.51-32.61-1.93-21-32.48-30.47-48.2-30.4h0v42.65h.18a9.2,9.2,0,0,1,.46,18.4h-.63v6.18h.08c12.57-.1,25.14-5.81,37.64-4,3.61.52,8.2-.37,10.48,4C198.12,124.7,197.48,123.13,197.46,121.72Z"/><path class="cls-7" d="M100.77,126c2.28-4.42,6.87-3.52,10.48-4,12.49-1.79,25.07,3.92,37.64,4H149v-6.18h-.63a9.2,9.2,0,0,1,.46-18.4H149V58.72h0c-15.71-.07-46.27,9.37-48.2,30.4-1.19,12.9-.3,19.7-.51,32.61C100.19,123.13,99.55,124.7,100.77,126Z"/><path class="cls-10" d="M105.28,60.7a1.51,1.51,0,0,0-2.71.89c-.07,5.23.62,13.82,5.25,19.26A1.51,1.51,0,0,0,110,81a44,44,0,0,0,6.9-7.72,1.51,1.51,0,0,0-.38-2.13A48.8,48.8,0,0,1,105.28,60.7Z"/><path class="cls-10" d="M192.45,60.7a1.51,1.51,0,0,1,2.71.89c.07,5.23-.62,13.82-5.25,19.26a1.51,1.51,0,0,1-2.13.17,44,44,0,0,1-6.9-7.72,1.51,1.51,0,0,1,.38-2.13A48.79,48.79,0,0,0,192.45,60.7Z"/><path class="cls-9" d="M147.48,110.5a2.75,2.75,0,0,0-2.84,2.78,2.55,2.55,0,0,0,2.52,3,4.76,4.76,0,0,0,.58,0v-5.73Z"/><path class="cls-12" d="M147.46,102.71a2.8,2.8,0,0,0,0,5.6l.3,0v-5.57Z"/><rect class="cls-6" x="132.65" y="94.82" width="28.85" height="23.37"/><ellipse class="cls-10" cx="148.32" cy="111.68" rx="14.12" ry="12.1"/><circle class="cls-10" cx="141.06" cy="104.28" r="7.26"/><circle class="cls-10" cx="155.58" cy="104.28" r="7.26"/><circle cx="141.06" cy="103.77" r="3.16"/><circle cx="154.64" cy="103.77" r="3.16"/><path class="cls-7" d="M121.14,102.71s4.92-3.69,26.74,11.07l-15.23,5.28Z"/><path class="cls-7" d="M174.87,102.71s-4.92-3.69-26.74,11.07l15.23,5.28Z"/><path class="cls-7" d="M139.42,108.47s9.12,5.36,18.3-.65l-5.29,11.24H141.06Z"/><path class="cls-13" d="M131.71,115.53a1.93,1.93,0,0,0,.6-2.52c-1.91-3.46-3.37-10.94-4.29-12.54a.84.84,0,0,0-1.4,0l-4.47,8.07a1.94,1.94,0,0,0,.6,2.52l4.12,3.1a.87.87,0,0,0,1,0Z"/><path class="cls-13" d="M164.21,116.69a1.93,1.93,0,0,1-.6-2.52c1.91-3.46,3.37-10.94,4.29-12.54a.84.84,0,0,1,1.4,0l4.47,8.07a1.94,1.94,0,0,1-.6,2.52l-4.12,3.1a.87.87,0,0,1-1,0Z"/><path class="cls-7" d="M59.49,203.53s-9.43-18.38,7.14-25.45,24.13,12.86,24.13,12.86Z"/><ellipse class="cls-10" cx="77.26" cy="205.02" rx="9.75" ry="10.87" transform="translate(-77.36 49.79) rotate(-24.24)"/><path class="cls-7" d="M57.24,195.07,54.9,180.93a1.33,1.33,0,0,1,1.85-1.43l4.47,2Z"/><path class="cls-7" d="M61.23,181.51v-7.59a1.33,1.33,0,0,1,2.15-1l7.15,5.61Z"/><path class="cls-7" d="M70.53,178.49v-6.57a1.33,1.33,0,0,1,2.23-1L83.56,181Z"/><path class="cls-14" d="M65.17,190.52a3.47,3.47,0,0,0-.71-.89h0a3.26,3.26,0,0,0-.61-.44L59,185.71l.75,5.93h0a3.41,3.41,0,0,0,.42,1.62,2.86,2.86,0,1,0,5-2.73Z"/><path class="cls-14" d="M72.93,185.41a3.94,3.94,0,0,0-1.57-2.1h0l-.17-.11h0l-6.11-4,1.29,7.3a4.1,4.1,0,0,0,.17.95,3.36,3.36,0,1,0,6.38-2Z"/><path class="cls-7" d="M238.2,203.53s9.43-18.38-7.14-25.45-24.75,14.58-24.75,14.58Z"/><path class="cls-14" d="M210.69,205.41c-.62,6,3.25,10.87,8.63,10.87s10.25-4.87,10.86-10.87-3.24-10.87-8.63-10.87S211.3,199.41,210.69,205.41Z"/><path class="cls-7" d="M240.21,197.76l2.61-16.86a1.33,1.33,0,0,0-1.86-1.41l-4.5,2Z"/><path class="cls-7" d="M233.59,179.67v-7.59a1.33,1.33,0,0,0-2.15-1l-7.15,5.61Z"/><path class="cls-7" d="M221.14,177.1l-3.35-7.4a1.33,1.33,0,0,0-2.44.06l-8.28,21.17Z"/><path class="cls-14" d="M239.75,184.16l-4.81,3.61h0a3.3,3.3,0,0,0-1.06,1.2,2.77,2.77,0,1,0,4.89,2.53,3.3,3.3,0,0,0,.37-1.58h0Z"/><path class="cls-14" d="M230.2,177.14l-5.45,5.16h0a4,4,0,0,0-1.17,2.35,3.36,3.36,0,1,0,6.63.86,4.17,4.17,0,0,0,0-1Z"/><path class="cls-14" d="M212.85,184h0a4,4,0,0,0,0,2,3.36,3.36,0,1,0,6.44-1.79l-2.62-7.85Z"/><path class="cls-10" d="M130.07,66.81a1,1,0,0,0-.43-.66,32.74,32.74,0,0,1-7.51-7,1,1,0,0,0-1.82.6c0,3.51.41,9.28,3.52,12.93a1,1,0,0,0,.69.35s5.17,1.09,5.52-5.74A1,1,0,0,0,130.07,66.81Z"/><path class="cls-10" d="M118,72.16a1.58,1.58,0,0,0-.67-1,50.81,50.81,0,0,1-11.66-10.91,1.57,1.57,0,0,0-2.83.93c-.07,5.45.64,14.4,5.47,20.07a1.57,1.57,0,0,0,1.08.55s8,1.69,8.56-8.92A1.57,1.57,0,0,0,118,72.16Z"/><path class="cls-10" d="M180.32,72.16a1.58,1.58,0,0,1,.67-1,50.82,50.82,0,0,0,11.66-10.91,1.57,1.57,0,0,1,2.83.93c.07,5.45-.64,14.4-5.47,20.07a1.58,1.58,0,0,1-1.07.55s-8,1.69-8.56-8.92A1.57,1.57,0,0,1,180.32,72.16Z"/><path class="cls-10" d="M168.36,66.42a1,1,0,0,1,.32-.72,32.72,32.72,0,0,0,6.25-8.18,1,1,0,0,1,1.9.29c.63,3.45,1.12,9.22-1.34,13.33a1,1,0,0,1-.62.46s-4.92,1.93-6.39-4.75A1,1,0,0,1,168.36,66.42Z"/><path class="cls-7" d="M204.12,202.74s1-12,11.23-33l-5.62,24.78Z"/><path class="cls-7" d="M242.82,180.9s-.62,21.4-9.74,34.09Z"/><path class="cls-7" d="M54.9,180.93s1.29,20.63,7.65,30.61l-5.73-28Z"/><path class="cls-7" d="M72.76,170.95s21.52,13.3,20.81,31.79l-8.33-12.63-4.11-9.54-6.49-5.37Z"/><path class="cls-14" d="M82.24,183.81c-.44-2.15-1.94-2.84-7.78-6.85l1.23,8.18a3.36,3.36,0,1,0,6.55-1.33Z"/><path class="cls-10" d="M142.69,59.11l-.23,12.16L146.77,73l-2.67,8.48,5.24,2.81-1,11L154.48,81l-3.38-2.67,4.66-8.53-3.6-2.27,2.75-8.48A43.7,43.7,0,0,0,142.69,59.11Z"/><path class="cls-14" d="M145.23,98.34a5.09,5.09,0,0,0,6.19,0l-.88,3.31h-5.31Z"/><path class="cls-7" d="M147.23,159.4s7.23,3.49,12.08,1.82c0,0-20.94-4.24-28.17-23.29L135,156Z"/><rect class="cls-15" x="172.53" y="163.38" width="3.52" height="38.25" transform="translate(-58.62 85.37) rotate(-23.68)"/><path class="cls-6" d="M187.6,144.69a30,30,0,0,1,.29,5.59c-.49,5-1.7,9.38-5.39,12.56-4.72,4.07-9.33,5.85-15,8.16-.76.31-10.57,4.12-10.37,4.32a28.78,28.78,0,0,0,2.65,3.22c-1,1.32-3.37,3.43-3.43,5.2,0,.69,4.68,5.15,4.44,5.38l-2.73,2.63c6.91,5.9,16.07,5.07,24.43,2.89,8.07-2.11,14-4.55,19.85-10.59,8.41-8.69,15.15-19.79,12.38-32.3-2.43-11-11.4-19.53-22.23-22.23C190.31,134.42,187.08,139.19,187.6,144.69Z"/><polygon class="cls-11" points="164.53 172.19 169.98 174.37 167.52 171.01 164.53 172.19"/><path class="cls-11" d="M201.07,98.53l-.19.11L199,99.79c-.64.62-1.25,1.27-1.84,1.94l-.4.64A23.72,23.72,0,0,0,201.07,98.53Z"/><path class="cls-11" d="M198.13,123.23a3.54,3.54,0,0,0-2.23.52c-1.06.85-.85,2.95-1.1,4.22a36.6,36.6,0,0,1-4.39,11.26c-3.77,6.43-10.13,12.85-17.38,15.24a43,43,0,0,0,26.3-25c.45-1.16,2-4,1.27-5.17A3.11,3.11,0,0,0,198.13,123.23Z"/><rect class="cls-6" x="136.8" y="113.94" width="22.17" height="16.63"/><path class="cls-16" d="M110.07,107.39a9.93,9.93,0,0,1,2.84-.64,15.92,15.92,0,0,1,2.76,0,23.13,23.13,0,0,1,5.31,1.13,33.15,33.15,0,0,1,4.9,2.17c.8.39,1.54.89,2.31,1.34l2.15,1.28a37.34,37.34,0,0,0,9,3.68,36.6,36.6,0,0,0,4.75.91c.8.09,1.59.16,2.39.19a20.06,20.06,0,0,0,2.24,0h.07a2.35,2.35,0,1,1,.39,4.68h-.16a23.77,23.77,0,0,1-2.88-.15c-.91-.1-1.81-.24-2.71-.39a40.92,40.92,0,0,1-14.88-6L126.42,114c-.68-.46-1.34-1-2-1.37a30.32,30.32,0,0,0-4.33-2.27,20.65,20.65,0,0,0-4.63-1.31,13.7,13.7,0,0,0-2.36-.16,8.49,8.49,0,0,0-2.18.31l-.13,0a1,1,0,0,1-.67-1.88Z"/><path class="cls-16" d="M187.27,109a8.6,8.6,0,0,0-2.26-.32,13.91,13.91,0,0,0-2.4.18,20.85,20.85,0,0,0-4.67,1.35,30.51,30.51,0,0,0-4.34,2.31c-.71.41-1.37.93-2,1.39l-2.15,1.5a40.83,40.83,0,0,1-14.82,6.11c-.89.16-1.79.31-2.71.41a23.59,23.59,0,0,1-2.88.16,2.35,2.35,0,1,1,0-4.7h.26a19.8,19.8,0,0,0,2.24,0c.79,0,1.59-.09,2.39-.17a36.63,36.63,0,0,0,4.77-.88,37.42,37.42,0,0,0,9.08-3.63l2.16-1.27c.77-.44,1.5-.93,2.31-1.32a33,33,0,0,1,4.89-2.13A22.93,22.93,0,0,1,182.4,107a12.41,12.41,0,0,1,5.48.65.76.76,0,0,1-.5,1.43Z"/><path class="cls-6" d="M102.88,103.25S97.6,94,77.94,94.82c0,0,1.15,29.13,24.18,26.28Z"/><path class="cls-17" d="M85,102.3s10.55,1.62,13.88,9.24C98.86,111.54,92,109.78,85,102.3Z"/><path class="cls-6" d="M196.09,103.25S201.37,94,221,94.82c0,0-1.15,29.13-24.18,26.28Z"/><path class="cls-17" d="M214,102.3s-10.55,1.62-13.88,9.24C200.11,111.54,206.95,109.78,214,102.3Z"/><path class="cls-10" d="M204.12,113.1c-1.71,0-4,.77-3.52,3,.4,1.87,2.08,1.72,3.52,1.72a5.67,5.67,0,1,1-5.22,3.54,11.81,11.81,0,0,1-4.3-1.9,10.33,10.33,0,1,0,9.52-6.33Z"/><path class="cls-17" d="M137.3,124.11c2.05-.1,4,0,5.91.05s3.69.14,5.46.17,3.49,0,5.27,0,3.56-.17,5.76-.11h.15a1.41,1.41,0,0,1,1.1,2.25,12.26,12.26,0,0,1-1.17,1.33c-.21.22-.43.41-.65.62l-.71.51c-.48.33-1,.66-1.5.95s-1.06.49-1.61.71a17,17,0,0,1-6.85,1.07,20.53,20.53,0,0,1-6.63-1.38,15.93,15.93,0,0,1-5.69-3.7,1.44,1.44,0,0,1,1-2.43Z"/><circle class="cls-10" cx="86.75" cy="113.1" r="3.19"/><circle class="cls-10" cx="95.18" cy="119.06" r="5.17"/><circle class="cls-15" cx="181.89" cy="199.88" r="1.78"/><circle class="cls-15" cx="170.03" cy="172.59" r="1.78"/><path class="cls-18" d="M159,127.91a19.8,19.8,0,0,0-19.65,17.43c9.7-3.69,18.36-10,27.61-15.76A19.72,19.72,0,0,0,159,127.91Z"/><path class="cls-13" d="M166.93,129.59c-9.24,5.75-17.91,12.07-27.61,15.76a19.2,19.2,0,0,0,.87,8.64c12.77-2.83,21.49-13.79,33-20.05A19.87,19.87,0,0,0,166.93,129.59Z"/><path class="cls-15" d="M143.4,159.89a20,20,0,0,0,5.51,4.86,55.49,55.49,0,0,0,28.93-11,19.78,19.78,0,0,0,.94-6,19.55,19.55,0,0,0-.39-3.83C165.82,147.79,155.9,157.86,143.4,159.89Z"/><path class="cls-19" d="M178,142.11a19.8,19.8,0,0,0-4.8-8.18c-11.47,6.26-20.19,17.22-33,20.05a19.71,19.71,0,0,0,3.2,5.92c12.51-2,22.42-12.1,35-16C178.27,143.28,178.13,142.69,178,142.11Z"/><path class="cls-18" d="M148.91,164.75a19.78,19.78,0,0,0,28.93-11A55.49,55.49,0,0,1,148.91,164.75Z"/><path class="cls-6" d="M99.53,146.66a30,30,0,0,0,3.74,4.16c3.86,3.18,9.61,4.27,14.48,3.92,6.21-.45,11.38-2.93,17-5.27.76-.31,8-2.88,8-2.6a28.78,28.78,0,0,1,.4,4.15c1.65.22,4.81.05,6.1,1.26.5.47.32,7,.65,7l3.79-.07c-.73,9.06-5.63,14.64-13.09,19-7.2,4.2-15.31,7-23.72,6.79-12.09-.22-24.7-3.33-31.57-14.15-6-9.49-5.71-21.88.06-31.43C90.36,141.3,96,142.41,99.53,146.66Z"/><path class="cls-11" d="M98.86,185s15.15,5.07,26.06-.72c0,0-15.08,2.59-27.19-2.74Z"/><path class="cls-11" d="M134.77,149.49s-21.59,14.62-39.59-2.3C95.18,147.18,115,154.42,134.77,149.49Z"/><polygon class="cls-13" points="166.03 168.03 168.36 173.35 171.35 171.42 169.12 166.32 166.03 168.03"/><path class="cls-17" d="M174.87,168s12-8.91,16.69-16.77C191.56,151.27,190.44,161.76,174.87,168Z"/><path d="M117.26,99.64h0c.14,1.85.92,3,2.86,3s2.77-1.15,2.83-3v-6l-5.72.34Z"/><path d="M173.38,92.52v7.11h0c.14,1.85.92,3,2.86,3s2.77-1.15,2.83-3V93Z"/><path class="cls-11" d="M122.16,90.89a29.81,29.81,0,0,1,3.21.18c1.47.23,2.5,1.06,2.32,2.69a2.24,2.24,0,0,1-2.41,2.09c-5.12-.16-10.64-.58-14.09,4.14a1.49,1.49,0,0,1-2.5.16c-1.07-1.13-.46-2.26.21-3.18C112.07,92.56,116.54,90.79,122.16,90.89Z"/><path class="cls-11" d="M173.28,90.89a29.76,29.76,0,0,0-3.21.18c-1.48.23-2.5,1.06-2.33,2.69a2.23,2.23,0,0,0,2.41,2.09c5.13-.16,10.23-1,13.69,3.72.6.82,2,1.57,2.91.59s.46-2.26-.21-3.18C183.36,92.56,178.89,90.79,173.28,90.89Z"/><path class="cls-11" d="M111.33,203s-11.3-8.15-12.47-18l5.29.37A42.62,42.62,0,0,0,111.33,203Z"/><ellipse class="cls-20" cx="48.9" cy="225.09" rx="5.1" ry="1.93"/><ellipse class="cls-20" cx="252.71" cy="225.09" rx="5.1" ry="1.93"/><ellipse class="cls-20" cx="99.85" cy="234.45" rx="5.1" ry="1.93"/><ellipse class="cls-20" cx="201.76" cy="234.45" rx="5.1" ry="1.93"/><ellipse class="cls-20" cx="150.8" cy="238.79" rx="5.1" ry="1.93"/><path class="cls-21" d="M43.8,60V78.11A88.72,88.72,0,0,0,54,81.42V56.66A88.72,88.72,0,0,0,43.8,60Z"/><path class="cls-21" d="M247.61,57.08V81a77.9,77.9,0,0,0,10.2-3.54V60.61A77.89,77.89,0,0,0,247.61,57.08Z"/><path class="cls-21" d="M94.75,65V88.19q5,.5,10.2.9V65Z"/><path class="cls-21" d="M196.66,65V89q5.24-.42,10.2-.94V65Z"/><path class="cls-21" d="M145.7,69.39V90.75l4.35,0,5.85,0V69.39Z"/><ellipse class="cls-3" cx="150.05" cy="61.17" rx="116.88" ry="21.73"/><rect class="cls-3" x="33.17" y="46.32" width="233.76" height="14.85"/><ellipse class="cls-4" cx="150.05" cy="46.32" rx="116.88" ry="21.73"/><ellipse class="cls-22" cx="153.6" cy="38.17" rx="20.27" ry="5.69"/><path class="cls-21" d="M153,38.41s13.47,1.35,18.36-3c0,0-6.68-3-11.47-2.68Z"/><path class="cls-22" d="M153,5.88A16.26,16.26,0,1,0,169.3,22.15,16.26,16.26,0,0,0,153,5.88ZM153,29a6.89,6.89,0,1,1,6.89-6.89A6.89,6.89,0,0,1,153,29Z"/><path class="cls-20" d="M43.8,225.09H54V81.42a88.72,88.72,0,0,1-10.2-3.32Z"/><path class="cls-20" d="M247.61,225.09h10.2V77.47A77.9,77.9,0,0,1,247.61,81Z"/><path class="cls-20" d="M94.75,234.45H105V89.09q-5.23-.41-10.2-.9Z"/><path class="cls-20" d="M196.66,234.45h10.2V88q-5,.51-10.2.94Z"/><path class="cls-20" d="M145.7,90.75v148h10.2V90.74l-5.85,0Z"/></g></g></svg>