<svg xmlns="http://www.w3.org/2000/svg" xmlns:xlink="http://www.w3.org/1999/xlink" viewBox="0 0 300 300"><defs><style>.cls-1{fill:none;}.cls-2{isolation:isolate;}.cls-3{fill:gray;opacity:0.5;}.cls-4{fill:#7e4e24;}.cls-5{fill:#925f36;}.cls-13,.cls-6{fill:#868686;}.cls-6{mix-blend-mode:multiply;}.cls-7{clip-path:url(#clip-path);}.cls-8{fill:#f5e6c4;}.cls-9{fill:#fff;}.cls-10{fill:#4d4d4d;}.cls-11{fill:#999;}.cls-12{fill:#ffdd0c;}.cls-14{fill:#b1b1b1;}</style><clipPath id="clip-path"><path class="cls-1" d="M256.17,140.77c-4.69-6.51-13.43-10.56-21.2-8.56-4.86,1.25-9.5,4.33-14.45,3.56a3.38,3.38,0,0,1-.6-.17,91,91,0,0,0-.12-10.5,1.33,1.33,0,0,0,.36-.35,9.17,9.17,0,0,1,1.54-5,37,37,0,0,0,2.61-4.57,6.19,6.19,0,0,0,.08-5.11c-.81-1.56-2.83-2.59-4.38-1.76a3.22,3.22,0,0,0-2.43-3.19c-1.42-.32-3.33.16-3.88,1.51a2,2,0,0,0-2.14-2.21,3.23,3.23,0,0,0-2.56,2.24,9.75,9.75,0,0,0-.35,3.56,11,11,0,0,1-.72,3.87,2.71,2.71,0,0,0-4.42.39,3.42,3.42,0,0,0,1.08,3.8,9.57,9.57,0,0,0,3.59,1.75l-5.24,23.56c-.37,1.68-.92,3.58-2.47,4.33a4,4,0,0,1-4-.68,13.33,13.33,0,0,1-2.7-3.24,60.6,60.6,0,0,0-20-18.37,40,40,0,0,0,4.31-5C185.87,110,188.33,95.83,185.34,83a6.56,6.56,0,0,0,2,1c1.52.26,1.2-1.2,1.11-2.24-.16-1.87-.28-3.74-.43-5.62a15.69,15.69,0,0,0-.44-3.82,2.68,2.68,0,0,0-.27-.57A5.16,5.16,0,0,0,184.78,70a27.63,27.63,0,0,0-5.62-1.79,49.61,49.61,0,0,0-15.86-15.8c-27.45-16.92-62.11,4.15-65.9,35q-.11.92-.19,1.85c-.42.26-.85.5-1.26.77-2,1.28-4.13,2.24-4.45,4.81a15.56,15.56,0,0,0,1,6.37c.44,1.38,1.57,5.43,3.53,5.75a1.59,1.59,0,0,0,.71-.05,3,3,0,0,0,1.55-1.36c.17-.26.32-.53.47-.8A47.79,47.79,0,0,0,119,132.22a2,2,0,0,0-.2.44,10.37,10.37,0,0,0-1.58,1.18c-7,6.07-11.75,12.44-17.69,19.55L98.22,155c-6.49-7.15-13-13.94-19.47-21.07L80.47,128a7.75,7.75,0,0,0,.46-2.67,2.63,2.63,0,0,0-1.32-2.23,1.62,1.62,0,0,0-2.22.86c-.37-1.49-1.6-2.74-2.48-4A4.34,4.34,0,0,0,71,118a2.67,2.67,0,0,0-2.31,3.27c-1.13-1.36-3.95-.8-5.3.33a3.5,3.5,0,0,0-.43,4.75c-.78-1-2.92-.14-3.35,1a4.72,4.72,0,0,0,.56,3.56,26.15,26.15,0,0,0,7.73,9.5l-.22.28a89.76,89.76,0,0,0,17.45,18.53c4.55,3.68,10.05,7.07,15.85,6.27,7.49-1,14.76-8.68,18.73-17.17l-.52,10.61-1.35,27.73c-.06,1.29-.11,2.6-.1,3.91l-7.87-11.82c-2.36-3.55-5.46-7.5-9.72-7.39a8.47,8.47,0,0,0-6,3.26,23.1,23.1,0,0,0-3.37,6.18,192.66,192.66,0,0,0-6.49,18.38q-2.54-12.89-6.07-25.56c-1.41-5-3.36-10.56-8-12.91-4.15-2.09-9.35-.9-13.11,1.83-6,4.32-8.85,12-8.69,19.35s3,14.41,6.72,20.76c4.57,7.84,10.61,14.57,17.06,20.9,5.24,5.14,12.94,3.49,14.45-4.46.07-.35.12-.7.16-1.05a75.24,75.24,0,0,0,8.61-9.5,28.35,28.35,0,0,1,5.51,8.14c2.54,5.62,5.07,11.94,10.58,14.71,4.3,2.16,9.43,1.61,14.13.56s9.41-2.55,14.2-2.12,9.78,3.46,10.62,8.19c.25-1.23.78-3,1-4.25l2.26.57.14-3,2.52.69-.3-3.79c-4.69-6.51-13.43-10.56-21.2-8.56-4.86,1.25-9.5,4.33-14.45,3.56-10.2-1.6-11.74-15-19.94-19.53-.46-.26-.93-.49-1.41-.7a52,52,0,0,0,5.43-12.94c1.22,7.35,7.16,13.59,14.54,14.6a7.82,7.82,0,0,0,4.08-.33,4.35,4.35,0,0,0,1.28-.83c3.67,2.2,8.37,3.19,12.7,3.9,5.41.9,10.91,1.8,16.35,1.13a20.84,20.84,0,0,0,12.07-5.4,4.24,4.24,0,0,0,1.8,1.43,7.82,7.82,0,0,0,4.08.33c7.38-1,13.32-7.26,14.54-14.6,2.94,11,9,19.6,17.17,27.42.36,10.89,11.56,8.33,18,1.21a155.2,155.2,0,0,0,13.76-17.67c4.5-6.73,8.61-14.4,7.84-22.46a17.69,17.69,0,0,0-7.33-12.93,14.14,14.14,0,0,0-14.56-.86c-4.49,2.54-6.95,7.53-8.85,12.32A129.42,129.42,0,0,0,205.68,198q-2.64-8.62-6.07-17a23.1,23.1,0,0,0-3.37-6.18,8.47,8.47,0,0,0-6-3.26c-4.26-.11-7.36,3.84-9.72,7.39l-10.7,16.07c.92-4.24.56-8.89.13-13.28q-2.4-24.62-4.9-49.22l-.14,0,.36-.26c10.23,8.7,19.59,17.14,29.81,25.83a23.27,23.27,0,0,0,6.1,4.16,7.87,7.87,0,0,0,7.13-.28c5.67-3.66,8.78-9.74,10.35-16.6a47.69,47.69,0,0,0,7.08-.92c4.69-1.05,9.41-2.55,14.2-2.12s9.78,3.46,10.62,8.19c.25-1.23.78-3,1-4.25l2.26.57.14-3,2.52.69Z"/></clipPath></defs><title>Artboard 8</title><g class="cls-2"><g id="Layer_1" data-name="Layer 1"><ellipse class="cls-3" cx="152.05" cy="273.18" rx="100.15" ry="18.61"/><ellipse class="cls-4" cx="149.05" cy="239.26" rx="116.88" ry="21.73"/><rect class="cls-4" x="32.17" y="224.41" width="233.76" height="14.85"/><ellipse class="cls-5" cx="149.05" cy="224.41" rx="116.88" ry="21.73"/><path class="cls-6" d="M223.31,219.44c0-8.89-35.91-16.1-80.21-16.1s-80.21,7.21-80.21,16.1c0,4.94,8.63,7.39,12.15,8.52a110.39,110.39,0,0,0,13.83,3.34c2.88.53,5.78,1,8.68,1.39,2.18.3,5.68.05,7.51,1.27-.3.34-1.81,1.11-1.8,1.59,0,1.25,5.06,2.26,11.28,2.26a42.12,42.12,0,0,0,6-.2c2.25-.32,3.49-1.63,5.44-2.3s5,.05,7,.1c1.26,0,5.23-.51,6.26.24.64.48.11,1.16.64,1.69a4.4,4.4,0,0,0,1.86.77,30.75,30.75,0,0,0,9.1.93,32.89,32.89,0,0,0,8.85-.86c1.9-.54,2.27-1,1.9-2.94,3.26-.89,7.36-.53,10.78-.8s7-.61,10.55-1c6.1-.7,12.19-1.6,18.21-2.86,6.38-1.34,16.46-2.89,21-8.28A4.48,4.48,0,0,0,223.31,219.44Z"/><g class="cls-7"><path class="cls-8" d="M163.3,52.41c-27.45-16.92-62.11,4.15-65.9,35-2.42,19.66,9.35,40.32,27.63,48s41.46,1.35,53.09-14.69c8.41-11.59,10.6-27.27,6.36-40.95A49.72,49.72,0,0,0,163.3,52.41Z"/><polygon points="164.87 86.31 164.87 86.31 164.88 86.32 164.87 86.31"/><path d="M121.52,86.36h0l-.05.05.07-.06Z"/><path class="cls-9" d="M137.54,51.25h0l0,0Z"/><path class="cls-10" d="M145,138.35a3.11,3.11,0,0,0,1.15-.37,9.93,9.93,0,0,1,5.45-.78c.38.05.87.08,1-.26a.61.61,0,0,0-.13-.67,1.57,1.57,0,0,0-.62-.37,9.26,9.26,0,0,0-5.48-.32,4.6,4.6,0,0,0-1.69,1C144.11,137.16,143.76,138.39,145,138.35Z"/><path class="cls-11" d="M76.29,148.08c-2.84-1.69-7.33-3.42-7.11-6.61.07-1,1.22-2,1.66-3.16s.56-2.41,1.29-3.35c1.23-1.59,4.68-2,6.3-.82,1.08.78,1.61,2.39,2.29,3.49A46.75,46.75,0,0,1,82.64,142c1.17,2.47,3.14,4,5.19,5.62,2.28,1.82,4.11,4.56,6,6.76l.93,1.08c1.18,1.36,2.43,2.88,2.48,4.66a3.27,3.27,0,0,1-2.88,3.38c-1.46.05-2.7-1-3.76-2-4.28-4.11-8.46-8.37-12.86-12.35A9.34,9.34,0,0,0,76.29,148.08Z"/><path class="cls-8" d="M55.12,202.65c-3.7-6.35-6.56-13.41-6.72-20.76s2.74-15,8.69-19.35c3.76-2.73,9-3.92,13.11-1.83,4.66,2.35,6.61,7.88,8,12.91a336.89,336.89,0,0,1,8,36.34,26.37,26.37,0,0,1,.38,9.12c-1.51,8-9.2,9.6-14.45,4.46C65.73,217.22,59.69,210.49,55.12,202.65Z"/><path class="cls-8" d="M211.92,177.36c1.9-4.79,4.36-9.78,8.85-12.32a14.14,14.14,0,0,1,14.56.86,17.69,17.69,0,0,1,7.33,12.93c.77,8.06-3.34,15.73-7.84,22.46A155.21,155.21,0,0,1,221.06,219c-6.78,7.52-18.9,10-17.94-3.17A129.94,129.94,0,0,1,211.92,177.36Z"/><path class="cls-8" d="M121.82,196.63l-11.91-17.88c-2.36-3.55-5.46-7.5-9.72-7.39a8.47,8.47,0,0,0-6,3.26,23.1,23.1,0,0,0-3.37,6.18,192.62,192.62,0,0,0-8.55,25.83A12.77,12.77,0,0,0,86,219.18c-.08-.37.8-.73.72-1.1,8.48-8,14.74-16.76,17.76-28,1.22,7.35,7.16,13.59,14.54,14.6a7.82,7.82,0,0,0,4.08-.33,3.76,3.76,0,0,0,2.41-3.1,4,4,0,0,0-1.86-3.26C122.58,197.26,123.08,197,121.82,196.63Z"/><path class="cls-8" d="M168.57,196.87,180.48,179c2.36-3.55,5.46-7.5,9.72-7.39a8.47,8.47,0,0,1,6,3.26,23.1,23.1,0,0,1,3.37,6.18,192.62,192.62,0,0,1,8.55,25.83c1.16,4.56-1.26,9.38-4.72,12.57l.23-1.11c-8.48-8-14.74-16.76-17.76-28-1.22,7.35-7.16,13.59-14.54,14.6a7.82,7.82,0,0,1-4.08-.33,3.76,3.76,0,0,1-2.41-3.1,4,4,0,0,1,1.86-3.26C167.82,197.5,167.31,197.21,168.57,196.87Z"/><path class="cls-8" d="M117.88,186.65c-.2,4.06-.35,8.36,1.58,11.94,3.24,6,10.88,7.74,17.61,8.86,5.41.9,10.91,1.8,16.35,1.13s10.92-3.13,14-7.69c3.65-5.45,3.16-12.58,2.52-19.11q-2.4-24.62-4.9-49.22a136.36,136.36,0,0,0-40.8-1.51c-4.1.47-5.76-.19-5.59,3.54.15,3.4,1.49,6.41,1.3,10.25q-.35,7-.69,14.1Z"/><path d="M182,91.35c-23.75-9.72-53-4.07-71.43,13.8C134.89,109.71,160.93,104.33,182,91.35Z"/><path d="M182,91.35c-23.75-9.72-53-4.07-71.43,13.8C134.89,109.71,160.93,104.33,182,91.35Z"/><path class="cls-12" d="M139.42,92.72a3.22,3.22,0,0,0-1.53-.36,2.57,2.57,0,0,0-2.78,2.58v9.71h0c.14,1.81.9,2.9,2.8,2.91s2.71-1.13,2.77-2.91V94.94h0A2.6,2.6,0,0,0,139.42,92.72Z"/><path class="cls-12" d="M157.19,92.63a3.22,3.22,0,0,0-1.53-.36,2.57,2.57,0,0,0-2.78,2.58v5.55a18.56,18.56,0,0,0,0,3.31c.16.8,0,.67.85.86a9.62,9.62,0,0,0,2.42,0c2.52-.14,2.33-1.8,2.33-3.8V95.45a5,5,0,0,0,0-.6A2.6,2.6,0,0,0,157.19,92.63Z"/><path class="cls-12" d="M139.42,92.72a3.22,3.22,0,0,0-1.53-.36,2.57,2.57,0,0,0-2.78,2.58v9.71h0c.14,1.81.9,2.9,2.8,2.91s2.71-1.13,2.77-2.91V94.94h0A2.6,2.6,0,0,0,139.42,92.72Z"/><path class="cls-12" d="M157.19,92.63a3.22,3.22,0,0,0-1.53-.36,2.57,2.57,0,0,0-2.78,2.58v5c0,1.71-.79,4.43,1.51,4.65a5.18,5.18,0,0,0,3-.63c1.05-.58,1.13-.92,1.13-2,0-2.12,0-4.24,0-6.36a5,5,0,0,0,0-.6A2.6,2.6,0,0,0,157.19,92.63Z"/><path class="cls-8" d="M219.89,122.76c-3.18-2.61-7.53-3-11.64-3l-5.3,23.83c-.37,1.68-.92,3.58-2.47,4.33a4,4,0,0,1-4-.68,13.33,13.33,0,0,1-2.7-3.24,60.59,60.59,0,0,0-21.53-19.24c-3.31,1.66-6.73,4.3-7.62,7.89l.58-.42c10.23,8.7,19.59,17.14,29.81,25.83a23.27,23.27,0,0,0,6.1,4.16,7.87,7.87,0,0,0,7.13-.28c11.6-7.49,12.51-25.08,11.38-38.84C219.86,123.42,219.68,122.47,219.89,122.76Z"/><path class="cls-8" d="M122.73,133.77a2.21,2.21,0,0,0-2.6-1.61,6.17,6.17,0,0,0-2.91,1.68c-7,6.07-11.75,12.44-17.69,19.55L98.22,155c-6.62-7.3-13.25-14.21-19.88-21.51a19.07,19.07,0,0,0-10.61,7.21,89.76,89.76,0,0,0,17.45,18.53c4.55,3.68,10.05,7.07,15.85,6.27C112.88,163.85,124.18,145.65,122.73,133.77Z"/><path class="cls-8" d="M96.05,106.94a1.59,1.59,0,0,0,.71-.05,3,3,0,0,0,1.55-1.36,20.76,20.76,0,0,1,1.84-2.95c.84-.94,1.7-1.85,2.59-2.74a75.13,75.13,0,0,1,5.58-5.06,77.34,77.34,0,0,1,12.52-8.36,76.34,76.34,0,0,1,28.65-8.74,24.22,24.22,0,0,1,5.42-.31A89.32,89.32,0,0,0,141,76.43a84.47,84.47,0,0,0-30.83,6.2A87.73,87.73,0,0,0,96,90c-2,1.28-4.13,2.24-4.45,4.81a15.56,15.56,0,0,0,1,6.37C93,102.57,94.09,106.63,96.05,106.94Z"/><path class="cls-8" d="M187.34,71.67A5.16,5.16,0,0,0,184.78,70a28.59,28.59,0,0,0-7.62-2.14c-5.34-.76-10.77-.26-16.11.28-5.58.56-11.2,1.19-16.82.82l-1.8-.12c10.77-1,21,3.05,30.47,7.75,2.69,1.33,5.34,2.72,8,4.1,1.35.7,2.71,1.4,4.08,2.08a9.31,9.31,0,0,0,2.39,1.15c1.52.26,1.2-1.2,1.11-2.24-.16-1.87-.28-3.74-.43-5.62a15.69,15.69,0,0,0-.44-3.82A2.68,2.68,0,0,0,187.34,71.67Z"/><path class="cls-8" d="M120.41,223.26c-10.2-1.6-11.74-15-19.94-19.53A17.68,17.68,0,0,0,87.91,202c5.55,4.48,10,8,13,14.68,2.54,5.62,5.07,11.94,10.58,14.71,4.3,2.16,9.43,1.61,14.13.56s9.41-2.55,14.2-2.12,9.78,3.46,10.62,8.19c.25-1.23.78-3,1-4.25l2.26.57.14-3,2.52.69-.3-3.79c-4.69-6.51-13.43-10.56-21.2-8.56C130,221,125.36,224,120.41,223.26Z"/><path class="cls-8" d="M220.51,135.77c-1.53-.24-5.15-2.86-6.38-1.86a3.6,3.6,0,0,0-.91,1.42L211,140.27a5.14,5.14,0,0,0-.61,2.31c.26,4.47,12.68,2.45,15.28,1.87,4.69-1.05,9.41-2.55,14.2-2.12s9.78,3.46,10.62,8.19c.25-1.23.78-3,1-4.25l2.26.57.14-3,2.52.69-.3-3.79c-4.69-6.51-13.43-10.56-21.2-8.56C230.11,133.46,225.46,136.55,220.51,135.77Z"/><path class="cls-8" d="M165.6,147.9a76.6,76.6,0,0,1-38.71,8.81c6,4.44,13.89,6.55,21.14,4.91A27.8,27.8,0,0,0,165.6,147.9Z"/><path class="cls-8" d="M208.38,120.13a10,10,0,0,1-3.79-1.81,3.42,3.42,0,0,1-1.08-3.8,2.71,2.71,0,0,1,4.42-.39,11,11,0,0,0,.72-3.87,9.75,9.75,0,0,1,.35-3.56,3.23,3.23,0,0,1,2.56-2.24,2,2,0,0,1,2.14,2.21c.55-1.34,2.47-1.82,3.88-1.51a3.22,3.22,0,0,1,2.43,3.19c1.55-.83,3.57.2,4.38,1.76a6.19,6.19,0,0,1-.08,5.11,37,37,0,0,1-2.61,4.57,9.17,9.17,0,0,0-1.54,5,2.12,2.12,0,0,1-2.09.64,6,6,0,0,1-2.06-.91l-7.7-4.64C208.62,120.31,208.08,119.65,208.38,120.13Z"/><path class="cls-8" d="M78.55,134.56,80.47,128a7.75,7.75,0,0,0,.46-2.67,2.63,2.63,0,0,0-1.32-2.23,1.61,1.61,0,0,0-2.22.86c-.37-1.49-1.6-2.74-2.48-4A4.34,4.34,0,0,0,71,118a2.67,2.67,0,0,0-2.31,3.27c-1.13-1.36-3.95-.8-5.3.33a3.5,3.5,0,0,0-.43,4.75c-.78-1-2.92-.14-3.35,1a4.72,4.72,0,0,0,.56,3.56,26.13,26.13,0,0,0,9.16,10.52C73.17,140.66,77.46,138.27,78.55,134.56Z"/><path class="cls-5" d="M119.75,96.54c-1.29,1-2.48,2.09-3.67,3.2q-2.46,1.85-4.73,3.94a16.45,16.45,0,0,0-5,4.87.19.19,0,0,0,.3.23,25.24,25.24,0,0,1,4.17-3c20.78,3.85,31.24,1.65,35.92,1.14,12.78-1.38,21.35-6.35,34.72-14.58.83.26,1.68.49,2.49.77,1.4.48,2-1.74.61-2.21a92.83,92.83,0,0,0-23.7-5,.83.83,0,0,0-.41-.17,88.52,88.52,0,0,0-36,2.8,67.43,67.43,0,0,0-14.17,5.8C106,96.7,103.39,100,99.79,103c-.18.15.05.45.25.32,8.3-5.34,16-10.76,25.78-13.17a88.66,88.66,0,0,1,15.72-2.91l-.7.14C133.63,89.06,125.73,92,119.75,96.54Zm42.3,3.69a103.6,103.6,0,0,1-15.75,4.24c-.76.11-1.51.24-2.28.33q-4.4.51-8.76,1.09a95.79,95.79,0,0,1-22.94-1c.78-.49,1.54-1,2.23-1.52,2.38-1.84,4.64-3.83,7.2-5.43a59.47,59.47,0,0,1,20.67-8.52c12.2-2.2,25.55-1,37.56,2.5C174.93,94.73,163.45,99.68,162.05,100.23Z"/><path class="cls-5" d="M184.21,106.57C172,116.76,155,118.26,139.5,118.87l.52-.13c12-3.36,23.8-9.6,31.68-19.23.31-.38-.1-1.08-.58-.75-3.87,2.67-7.36,5.65-11.44,8.1A84.18,84.18,0,0,1,139.26,116c-17.06,4.78-35.36,2.53-35.36,2.53a.21.21,0,0,0,0,.38c3.79,2.84,9.91,3,14.45,3a78.3,78.3,0,0,0,15.54-1.63c7.18,2.32,15.29,1.51,22.78-.06A47.41,47.41,0,0,1,140.79,128c-7.64,2.14-16.55,2.58-24.51,2.14a.26.26,0,0,0-.18.44c1.87,2.15,5.43,1.83,8.07,1.85A60,60,0,0,0,140,130.73a45.7,45.7,0,0,0,20.78-11.52l.35-.08c8.39-2.08,18.36-4.64,24.38-11.28A.91.91,0,0,0,184.21,106.57Z"/><path class="cls-5" d="M168,128.94c.28-.43-.32-.82-.68-.52-4.43,3.82-12.39,5.37-18,6.23-5,.77-10.05,1.16-15.05,1.94-.14,0-.14.2-.08.28,2.54,3.23,13.25.92,16.76.25a55.68,55.68,0,0,0,6.44-1.59l-.1.09a52.85,52.85,0,0,1-10,7.1c-9.32,4.83-27.17-.33-33.47-4.76-.23-.16-.49.19-.29.38,5.75,5.32,14.46,9.19,22.67,8.93l-5.38,1.64c-.59.18-1.18.28-1.75.5a7.5,7.5,0,0,1-2.17.74.36.36,0,0,0,0,.72c1.19.16,2.28-.48,3.42-.72a7.28,7.28,0,0,0,1.9-.56c5.11-1.42,10.25-2.46,15.09-4.88,5.26-2.63,9.61-6.76,13.95-10.63A15.67,15.67,0,0,0,168,128.94Z"/><path class="cls-5" d="M91.45,93.93c6.38-3.27,12.09-7.41,18.68-10.41,6-2.74,12.36-5.29,18.92-6.24,7.7-1.11,16-1.76,23.69-.74,6.89.91,13.7,3.61,20.63,3.93a.53.53,0,0,0,.14-1c-10.92-2.79-21.3-5.09-32.09-5.29,1.41-.42,2.68-.84,3.44-1,4.12-1,8.25-1.69,12.47-2.29,9.55-1.37,18.84-.93,28.37.07.82.09.9-1.14.19-1.37-7.81-2.52-16.3-2.25-24.48-1.38-10.31-3.9-47.45-5.2-56,2.67a.35.35,0,0,0,.34.58c9.77-2.48,19.48-4.87,29.65-4.31,6.69.37,13.37.95,20,1.78a127.14,127.14,0,0,0-13.63,2.31c-24.43,5.89-29.22,8.65-33.64,10.65-6.08,2.75-13.11,6.17-17,11.77C91,93.81,91.25,94,91.45,93.93Z"/><path class="cls-5" d="M128.06,63.82a106.87,106.87,0,0,1,19.49-7c5.94-1.55,11.87-1.76,17.85-2.8a.21.21,0,0,0,0-.38c-5.07-2.91-13.25-.41-18.51,1-6.11,1.62-15.07,3.62-19.59,8.24A.59.59,0,0,0,128.06,63.82Z"/><path class="cls-5" d="M163.48,148.29c-2.6.68-5,2.31-7.65,3.12A104.44,104.44,0,0,1,145,154a101.05,101.05,0,0,1-14,1.69c-1,.05-8,.85-8.43.13-.14-.23-.6-.23-.64.08l0,.22a.44.44,0,0,0,.3.53c6.57,1.95,15,1,21.66-.1s14.56-3.45,20-7.26A.53.53,0,0,0,163.48,148.29Z"/><path class="cls-5" d="M163.28,150.9c-10.7,14.09-17.17,8.32-26.65,11a.1.1,0,0,0,0,.18c4.72,2.59,11.79,1.32,16.66-.66s8-6,10.7-10.13C164.25,150.86,163.58,150.5,163.28,150.9Z"/><path class="cls-5" d="M169.07,170.63c-6.78.55-13.37,2.72-20.26,2.68-19.28-.11-10-.75-3.25-3,8.57-2.91,17.24-6.41,24.49-11.88.67-.5.32-1.84-.63-1.49-3.65,1.32-6.55,3.89-10,5.66a91.5,91.5,0,0,1-13.66,5.93c-9.1,2.91-19.12,3.32-28.49,5a.53.53,0,0,0,0,1c3.42.8,7.11,0,10.55-.46,2.26-.31,4.49-.66,6.7-1.07,11,4.32,23.75,2.62,34.67-1.33C169.75,171.51,169.73,170.58,169.07,170.63Z"/><path class="cls-5" d="M129.89,186.13a119.55,119.55,0,0,0,13.68-1.41c9.28-1.62,15.9-5.2,22.86-11.31.27-.23-.08-.69-.38-.49-6.4,4.18-13,7.6-20.59,9.12-4.63.93-9.29,1.22-14,1.87C114.6,186.28,124.94,186.41,129.89,186.13Z"/><path class="cls-5" d="M167,188.65a.21.21,0,0,0,0-.12s0,0-.07,0-.05-.05-.1-.06c-2.81-.33-6.41.37-9.22.66-3.92.41-7.85.66-11.79,1a51.67,51.67,0,0,1-10.4-.18c-3.31-.36-6.58-1.42-9.83-2a.35.35,0,0,0-.24-.17c-3.1-.63-5.58-2.64-8.55-3.52v0c-.15,0-.29.09-.21.25a4.24,4.24,0,0,0,1.42,1.46.64.64,0,0,0,.09.21c4.77,7,11.75,9.8,18.8,13.77s14.65,6.41,22.83,5.09a.25.25,0,0,0,0-.48c-8.12-1.48-15.26-2.66-22.63-6.56-3.44-1.82-6.6-3.07-9.82-5.39a42.27,42.27,0,0,1-4.14-3.53c8.09,2.51,15.93,4.13,24.47,3.38,4.27-.38,8.67-.69,12.9-1.45,1.47-.26,5.79-.47,6.54-2.15,0,0,0-.06,0-.1A.24.24,0,0,0,167,188.65Z"/><path class="cls-5" d="M74.33,161.85c.18-.66-.77-.89-1-.28-1.88,4.83-6.53,7.78-10.56,10.6-3.73,2.61-8.61,3.45-12,6.36-.12.1,0,.29.15.25,5.75-1.46,10.06-3.09,14.83-6.81C68.75,169.65,73.34,165.53,74.33,161.85Z"/><path class="cls-5" d="M74.54,182.94a1,1,0,0,0,.14-.36,50.84,50.84,0,0,0,7.37-5.2c.5-.43,0-1.28-.64-1.09,0,0-2.69,3.72-29.76,10.6-.34.09-.38.66,0,.73,6.43,1.12,13-.21,18.9-2.89A76.42,76.42,0,0,1,65,192.89a33.61,33.61,0,0,1-4.47,4.39c-1.88,1.53-3.79,2.42-5.4,4.25-.06.06,0,.18.1.13,1.8-1.28,4-1.88,5.69-3.32s3.11-2.79,4.69-4.14C69.33,191,71.9,187,74.54,182.94Z"/><path class="cls-5" d="M83.39,193.48c.62,4.72,1.64,9.4,2.06,14.13a.14.14,0,0,0,.29,0c.43-5.26-.43-10.12-1.23-15.22A5.37,5.37,0,0,0,85.73,190a.74.74,0,0,0-1.34-.57c-.08.14-.2.25-.29.38a.58.58,0,0,0-1.08.27c0,.29.07.58.1.87-2.55,2.45-6.76,3.61-9.85,4.48-3.5,1-6.87,2.55-10.35,3.49-.06,0,0,.11,0,.11a56.61,56.61,0,0,0,13.74-2.19A21.1,21.1,0,0,0,83.39,193.48Z"/><path class="cls-5" d="M79.86,202a29.24,29.24,0,0,1-5.38,4.27c-2.83,2-5.88,3.61-8.76,5.5a.14.14,0,0,0,.11.26A25.78,25.78,0,0,0,77,207C83.29,202.19,88.11,192.83,79.86,202Z"/><path class="cls-5" d="M84.56,213.17c-3.55,2.89-7,3.38-11.29,4.09-2.05.33-4.08-.09-6.07.26a.14.14,0,0,0,0,.25c1.24.54,1.91,1.34,3.35,1.56a21.44,21.44,0,0,0,5-.26c4-.38,7.73-1.32,10.54-4.4A1.06,1.06,0,0,0,84.56,213.17Z"/><path class="cls-5" d="M94.68,207.53a13.58,13.58,0,0,0-1.36-1,11.59,11.59,0,0,0-1.63-1c-.3-.14-.82-.47-1.14-.38,0,.29.42.54.62.73.38.36.75.73,1.15,1.08.22.19,2.36,2.5,2.3,2.55.53-.39,1.21-.78.65-1.41A7.07,7.07,0,0,0,94.68,207.53Z"/><path class="cls-5" d="M94.47,199.81a12.38,12.38,0,0,0-5.75-.34c-.11,0-.09.17,0,.21,1.81.7,3.66,1.14,5.51,1.67a29.74,29.74,0,0,1,5,1.76c.35.15.68-.37.38-.66A12.55,12.55,0,0,0,94.47,199.81Z"/><path class="cls-5" d="M95.84,194.24,97.45,196c.33.37,1.13,1.57,1.71,1.58.22-1.28-.73-2.68-1.4-3.71-.78-1.19-1.69-2.28-2.57-3.38a15.75,15.75,0,0,0-3.65-3.28,13.49,13.49,0,0,0-2.45-1.14c.36.14-1.38-.6-1.21-.3a.66.66,0,0,0-1.22.33l0,.23a.71.71,0,0,0,.36.62,35.21,35.21,0,0,1,4.5,2.83,29.14,29.14,0,0,1,3.73,3.77Z"/><path class="cls-5" d="M100.11,188.86l0-.07A11.09,11.09,0,0,0,99,186.12a20.77,20.77,0,0,0-3-4.83,16.42,16.42,0,0,0-4.18-3.71c-.36-.2-.47-.34-.71-.06a5.41,5.41,0,0,0-.71,1.72,4.17,4.17,0,0,1,1.29.93c.5.47,1,.89,1.53,1.36.89.86,1.79,1.64,2.63,2.55s1.34,1.66,2,2.51c.43.56.77,1.17,1.21,1.72a3.76,3.76,0,0,0,.63.69.55.55,0,0,0,.42.08h0v0S100.19,189,100.11,188.86Z"/><path class="cls-5" d="M99.86,169.26c-.62-.14-1.33.56-.9,1.17a19.74,19.74,0,0,1,3.12,8.37c.48,2.75,1.27,5.64,1,8.44,0,.3.4.32.49.07,1.2-3.36.9-7.53.08-11C103.23,174.39,102.3,169.79,99.86,169.26Z"/><path class="cls-5" d="M111.55,177.2a.71.71,0,0,0-1.42,0c-.37,4.21-1.68,14.47-5.16,16.69a.27.27,0,0,0,.21.49c1.9-.35,3.1-2.51,3.94-4.41.54,3.39,1.29,6.81.61,10.1-.06.28.34.49.49.21,2.2-4.12,1.65-9.75.46-14.36A22.82,22.82,0,0,0,111.55,177.2Z"/><path class="cls-5" d="M116.83,188.11a5.28,5.28,0,0,0,.09-1.66.29.29,0,0,1,.05-.19,2.46,2.46,0,0,0-1.12-.07c0,.14,0,.29,0,.43a24.75,24.75,0,0,0,.4,7.19c.49,2.15,1.45,4.73,3.29,6.07.2.15.37.37.65.4a.78.78,0,0,0,0-.41,13.51,13.51,0,0,0-1.47-3,19.54,19.54,0,0,1-1.19-3.62,31.94,31.94,0,0,1-.6-3.5,6.56,6.56,0,0,1-.14-1.48Z"/><path class="cls-5" d="M174.13,187.36a47.28,47.28,0,0,1-1.42,6.49c-.39,1.42-.68,2.87-1.13,4.27-.22.7-.55,1.34-.81,2-.11.28-.31,1,.13,1.05s.93-1,1.11-1.35a25.51,25.51,0,0,0,1.36-3.71c.3-.89,3.18-10.63,1.41-10.7a.57.57,0,0,0-.48.37,1.45,1.45,0,0,0,0,.45Q174.2,186.81,174.13,187.36Z"/><path class="cls-5" d="M190,170.32a.55.55,0,0,0-1.09,0,30.15,30.15,0,0,1-4.41,11.23,35.26,35.26,0,0,0-3.24,6.13,25,25,0,0,0-2.69-8.23c-.4-.74-1.35-.18-1.25.52.48,3.34,1.83,6.47,2,9.92a31.87,31.87,0,0,1-.35,7.43c-.19,1-.39,1.93-.59,2.89-.14.69-.46,1.35-.66,2-.12.41-.42,1.07.32.86.42-.12.58-.67.76-1.05A28,28,0,0,0,181,196.1a21.28,21.28,0,0,0,.47-3.17q.06-.83.06-1.66c0-.3-.2-1.36,0-1.58C185.45,184.09,190.29,177.62,190,170.32Z"/><path class="cls-5" d="M196.51,173.34c-.11-.6-.9-.37-1,.13-.49,3.63-.53,7.17-1.22,10.75-1.52,1.25-2.59,3-4.07,4.35a14.09,14.09,0,0,1-2.77,1.85,4.85,4.85,0,0,0-1.34.77c-.47.51,0,.89-.21,1.46a.63.63,0,0,1,.26-.1,6.61,6.61,0,0,0,2.13-.77,11.28,11.28,0,0,0,2.27-1.32,15.1,15.1,0,0,0,2.85-2.87,4.78,4.78,0,0,0-.39,1.17q-.23.66-.48,1.31c-.33.87-.7,1.73-1.08,2.58a26.16,26.16,0,0,1-2.4,4.77,6,6,0,0,0-.82,1.14c.17.12.25.07.4,0s.35-.37.44-.47a27.17,27.17,0,0,0,2.29-3.05,29.94,29.94,0,0,0,4.74-10.43A27.61,27.61,0,0,0,196.51,173.34Z"/><path class="cls-5" d="M203.35,186.82c-1.21,2.49-2,5-3.77,7.18-2.66,3.35-6.21,5.81-8.94,9.07a.33.33,0,0,0,.4.52,30.27,30.27,0,0,0,13.83-16.13A.84.84,0,0,0,203.35,186.82Z"/><path class="cls-5" d="M205.07,195.42c-3.9,3.93-6.44,9.55-5.68,15.16.05.38.67.35.74,0A49.43,49.43,0,0,1,206,196.15.61.61,0,0,0,205.07,195.42Z"/><path class="cls-5" d="M213.25,171.12c-.3,0-.51.47-.17.63a18.69,18.69,0,0,0,4.86,1.52,24.27,24.27,0,0,0,2.68.35,3.65,3.65,0,0,1,2,.6c.41.29.78.61,1.16.93a15.5,15.5,0,0,0,1.93,1.66c.68.39,1.28.93,1.93,1.37a23,23,0,0,0,6,3,25.56,25.56,0,0,0,6.94,1,12.47,12.47,0,0,0,2.24,0c.16,0,.28,0,.4-.12.54-.51.42-1.82.6-2.51a2,2,0,0,1-.94.2c-1.07.1-2.17.15-3.23.17a19.18,19.18,0,0,1-3.36-.52,28.59,28.59,0,0,1-3.3-.57,21,21,0,0,1-7.19-4.09c-.31-.25-.76-.51-.88-.92a2.63,2.63,0,0,1,.77,0c.29,0,.6-.06.89-.08q1-.08,2-.22a27,27,0,0,0,3.88-.83,17.55,17.55,0,0,0,3.94-1.65,30,30,0,0,0,3.61-2.21c-.17-.53-.19-1.42-.74-1.72,0,0-1.29,1.25-1.44,1.34a17.9,17.9,0,0,1-1.69.87,17.71,17.71,0,0,1-3.66,1.23,32.55,32.55,0,0,1-7.69.58C221,171,217.09,170.63,213.25,171.12Z"/><path class="cls-5" d="M242.85,186.39A41.64,41.64,0,0,1,229,187a52.7,52.7,0,0,1-7.77-1.63c-1.31-.37-2.61-.78-3.9-1.22l-2-.69a5.46,5.46,0,0,1-.83-.38,4.25,4.25,0,0,0-.73-.25c.17.5.85,1,1.22,1.31.55.53,1.22.93,1.81,1.4a12.83,12.83,0,0,0,1.72,1.25,21.17,21.17,0,0,0,4.27,1.87c6.33,1.92,14.77,2.79,20.69-.64A.88.88,0,0,0,242.85,186.39Z"/><path class="cls-5" d="M228.84,205.23a18.71,18.71,0,0,0,3.54.72c.54,0,.48-.22.7-.65s.69-.89,1-1.38l.27-.51a5.89,5.89,0,0,0-1.88-.54c-1-.24-2.08-.47-3.11-.74s-1.93-.44-2.88-.77l-3.14-1a25,25,0,0,1-3.76-1.37c-1.3-.66-2.63-1.26-3.9-2-.74-.41-1.47-.86-2.2-1.27s-1.51-1.07-2.36-1.48a1.24,1.24,0,0,0-.5-.13c-.08.58.45,1.16.79,1.57a13.08,13.08,0,0,0,1.53,1.55,34.82,34.82,0,0,0,3,2.26,40,40,0,0,0,7.26,4c-2,.66-3.94,1.31-5.93,1.86a31.33,31.33,0,0,1-8.36,1.35c-.71,0-1.41.06-2.12.05-.27,0-.77-.14-1,.08-.54.61,1.15,1,1.46,1.05a14.39,14.39,0,0,0,2.31.5,17.91,17.91,0,0,0,4.85-.13,32.35,32.35,0,0,0,7.21-2.06c1.07-.42,2.6-1.35,4-1.84.51.15,1,.43,1.49.56S228.27,205.12,228.84,205.23Z"/><path class="cls-5" d="M219.11,218.7a10.09,10.09,0,0,1-1.56-1.4c-.7-.78-1.35-1.59-2-2.39a22.68,22.68,0,0,1-3.84-6.19.16.16,0,0,0-.31,0c-.71,2.87,1,5.64,2.7,7.82a16.13,16.13,0,0,0,2.23,2.52,12.6,12.6,0,0,0,2.62,2c.26-.33.7-.55,1-.9a2.27,2.27,0,0,1,.57-.58c-.22,0-.45-.21-.65-.34Z"/><path class="cls-5" d="M173.12,139.62a15,15,0,0,1,6.44-12.71.9.9,0,0,0-.9-1.55,12.07,12.07,0,0,0-6.05,6.77,11.42,11.42,0,0,0-.12,7.57A.32.32,0,0,0,173.12,139.62Z"/><path class="cls-5" d="M177.78,141.29a.19.19,0,0,0,.34.15c1.18-1.71,3.18-2.62,4.9-3.66s3.64-1.38,5.37-2.35c.83-.46.23-1.59-.61-1.44C183.8,134.67,178.61,136.8,177.78,141.29Z"/><path class="cls-5" d="M186.16,142.45a9.51,9.51,0,0,0-2,4.24c-.07.47.59.68.73.2a11.08,11.08,0,0,1,2.7-4.2,20.42,20.42,0,0,0,2.51-2.55c.31-.48-.35-.9-.75-.58A16,16,0,0,0,186.16,142.45Z"/><path class="cls-5" d="M192.39,147.77c1-1.6,2.2-3,3.27-4.54.5-.72-.5-1.72-1.21-1.21a14.15,14.15,0,0,0-4.76,6.4C188.51,151.38,187.25,156.12,192.39,147.77Z"/><path class="cls-5" d="M200.07,159.61c.38.3.89-.17.55-.55-1.1-1.17-1.46-3.47-1.78-5-.41-2-.77-4.64-.14-6.64.07-.21-.25-.29-.33-.09a13.12,13.12,0,0,0-.49,7C198.19,156,198.62,158.45,200.07,159.61Z"/><path class="cls-5" d="M211.07,154.29a.64.64,0,0,0,.49-1.16,8.78,8.78,0,0,0-2.26-.83,8,8,0,0,1-3.32-2.46c-1.2-1.4-3.93-4-3.52-5.89,0-.12-.15-.21-.21-.09-1.21,2.44.63,4.47,2.05,6.41C206.09,152.72,208.25,153.59,211.07,154.29Z"/><path class="cls-5" d="M218.47,145.59a.24.24,0,0,0,0-.47c-1.85-.5-3.68-.43-5.5-1.2a12.9,12.9,0,0,1-5.26-4.19.9.9,0,0,0-1.55.9C208.61,145.27,213.54,146.93,218.47,145.59Z"/><path class="cls-5" d="M218.45,134.49c.39-.37-.1-.94-.55-.72-4.76,2.38-9.3-.34-11.9-4.6a.24.24,0,0,0-.44.19C206.86,134.34,214.16,138.63,218.45,134.49Z"/><path class="cls-5" d="M221,123c.24-.53-.28-1.23-.86-.86-1.73,1.1-5.75,3.7-7.81,2.22-.37-.26-.75.3-.47.61C214,127.27,219.79,125.6,221,123Z"/><path class="cls-5" d="M71.58,140.93a10.08,10.08,0,0,1,2.46-1,20.74,20.74,0,0,0,2.57-1.44,4.34,4.34,0,0,0,2.19-3.28c.06-.64-.93-.74-1.1-.15-.48,1.65-1.89,2.7-3.21,3.68-1.05.78-2.42.89-3.38,1.76C70.79,140.76,71.26,141.21,71.58,140.93Z"/><path class="cls-5" d="M83,141.21c-.46,3.09-1.66,7.8-4.36,8.48-.31.08-.2.48.07.51,4.65.61,6.27-7.63,5.82-10.77A.5.5,0,0,0,84,139a.85.85,0,0,0-1.24-.2c-3.12,2.46-6.79,7.76-11.42,6.59a.29.29,0,0,0-.22.52C75.18,148.86,80.29,144.89,83,141.21Z"/><path class="cls-5" d="M84.16,158c2.11.25,3.79-1.62,4.89-3.19a11.85,11.85,0,0,0,2.14-8.32.72.72,0,0,0-1.43,0A16.25,16.25,0,0,1,88.18,153c-.85,1.57-2.23,4-4.11,4.41C83.69,157.48,83.82,158,84.16,158Z"/><path class="cls-5" d="M96.58,151.67c-.37,3.14-3.23,8-6.2,9.31-.2.09,0,.36.14.33,3.68-.69,7.61-6.12,7-9.77C97.44,151,96.64,151.18,96.58,151.67Z"/><path class="cls-5" d="M106,156.81c-.32-3-1.69-4.79-3.34-7.11-.27-.37-1-.29-.94.25.08,1.74,1.5,3.42,2,5.13a12.19,12.19,0,0,1-.3,7.7.3.3,0,0,0,.43.33C105.87,161.6,106.26,159.25,106,156.81Z"/><path class="cls-5" d="M114.4,148a13.74,13.74,0,0,0-4.05-6.42.53.53,0,0,0-.75.75c2.48,3,4.19,6.49,2.75,10.29-.41-.64-.82-1.24-1.17-1.77a13.4,13.4,0,0,0-2.6-2.61,17.47,17.47,0,0,0-2.46-1.38c-.29-.18-.64.26-.37.48.65.52,1.39.76,2,1.35a10,10,0,0,1,2.33,3.29c.46,1,1.15,2,1.54,3.07s.65,2.06,1.11,3.09a.79.79,0,0,0,1.43-.19,6.65,6.65,0,0,0-1-3.86.8.8,0,0,0,.17-.12C114.78,152.51,114.87,149.79,114.4,148Z"/></g><ellipse class="cls-11" cx="47.9" cy="225.09" rx="5.1" ry="1.93"/><ellipse class="cls-11" cx="251.71" cy="225.09" rx="5.1" ry="1.93"/><ellipse class="cls-11" cx="98.85" cy="234.45" rx="5.1" ry="1.93"/><ellipse class="cls-11" cx="200.76" cy="234.45" rx="5.1" ry="1.93"/><ellipse class="cls-11" cx="149.8" cy="238.79" rx="5.1" ry="1.93"/><path class="cls-13" d="M42.8,60V78.11A88.72,88.72,0,0,0,53,81.42V56.66A88.72,88.72,0,0,0,42.8,60Z"/><path class="cls-13" d="M246.61,57.08V81a77.9,77.9,0,0,0,10.2-3.54V60.61A77.89,77.89,0,0,0,246.61,57.08Z"/><path class="cls-13" d="M93.75,65V88.19q5,.5,10.2.9V65Z"/><path class="cls-13" d="M195.66,65V89q5.24-.42,10.2-.94V65Z"/><path class="cls-13" d="M144.7,69.39V90.75l4.35,0,5.85,0V69.39Z"/><ellipse class="cls-4" cx="149.05" cy="61.17" rx="116.88" ry="21.73"/><rect class="cls-4" x="32.17" y="46.32" width="233.76" height="14.85"/><ellipse class="cls-5" cx="149.05" cy="46.32" rx="116.88" ry="21.73"/><ellipse class="cls-14" cx="152.6" cy="38.17" rx="20.27" ry="5.69"/><path class="cls-13" d="M152,38.41s13.47,1.35,18.36-3c0,0-6.68-3-11.47-2.68Z"/><path class="cls-14" d="M152,5.88A16.26,16.26,0,1,0,168.3,22.15,16.26,16.26,0,0,0,152,5.88ZM152,29a6.89,6.89,0,1,1,6.89-6.89A6.89,6.89,0,0,1,152,29Z"/><path class="cls-11" d="M42.8,225.09H53V81.42a88.72,88.72,0,0,1-10.2-3.32Z"/><path class="cls-11" d="M246.61,225.09h10.2V77.47A77.9,77.9,0,0,1,246.61,81Z"/><path class="cls-11" d="M93.75,234.45H104V89.09q-5.23-.41-10.2-.9Z"/><path class="cls-11" d="M195.66,234.45h10.2V88q-5,.51-10.2.94Z"/><path class="cls-11" d="M144.7,90.75v148h10.2V90.74l-5.85,0Z"/></g></g></svg>