<svg xmlns="http://www.w3.org/2000/svg" viewBox="0 0 300 300"><defs><style>.cls-1{isolation:isolate;}.cls-2{fill:gray;opacity:0.5;}.cls-3{fill:#7e4e24;}.cls-4{fill:#925f36;}.cls-12,.cls-5{fill:#868686;}.cls-5{mix-blend-mode:multiply;}.cls-6,.cls-8{fill:#35a8e0;}.cls-7,.cls-8,.cls-9{fill-rule:evenodd;}.cls-10,.cls-9{fill:#fff;}.cls-11{fill:#999;}.cls-13{fill:#b1b1b1;}</style></defs><title>Artboard 9</title><g class="cls-1"><g id="Layer_1" data-name="Layer 1"><ellipse class="cls-2" cx="157.05" cy="272.18" rx="100.15" ry="18.61"/><ellipse class="cls-3" cx="154.05" cy="238.26" rx="116.88" ry="21.73"/><rect class="cls-3" x="37.17" y="223.41" width="233.76" height="14.85"/><ellipse class="cls-4" cx="154.05" cy="223.41" rx="116.88" ry="21.73"/><ellipse class="cls-5" cx="151.89" cy="218.89" rx="82.01" ry="16.46"/><rect class="cls-6" x="94.65" y="112.01" width="109.46" height="101.02"/><path class="cls-7" d="M163.06,93.79c0,5.32-5.74,13-12.82,13s-12.82-7.7-12.82-13,5.74-9.63,12.82-9.63S163.06,88.47,163.06,93.79Z"/><g id="VMQt43"><path class="cls-7" d="M122.84,91a30.36,30.36,0,0,1,3.19.18c1.46.22,2.48,1.05,2.31,2.67a2.22,2.22,0,0,1-2.39,2.08c-5.09-.16-9.92.08-13.35,4.77-.6.82-2.19.48-3.12-.49s-.45-2.24.2-3.15C112.82,92.63,117.26,90.87,122.84,91Z"/><path class="cls-7" d="M124.61,103.92c0,2.44-.74,3.94-3.06,3.94-2,0-2.93-1.22-3-3.14-.07-2.1.73-3.56,3-3.59A2.78,2.78,0,0,1,124.61,103.92Z"/><path class="cls-7" d="M149.14,116.27a2.73,2.73,0,0,0-2.82,2.76,2.53,2.53,0,0,0,2.51,3,4.57,4.57,0,0,0,.57,0v-5.69Z"/><path class="cls-8" d="M149.12,108.54a2.78,2.78,0,0,0,0,5.56l.29,0v-5.53Z"/></g><g id="VMQt43-2" data-name="VMQt43"><path class="cls-8" d="M203.9,126.09c-.24-14.46.75-22.07-.57-36.51A29.43,29.43,0,0,0,202,82.76a5.4,5.4,0,0,1,.52-5,8.74,8.74,0,0,0-2.11-11.6c-3.55-2.75-8.74-2.94-11.87.42-2.28,2.46-4.13,2.19-6.91,1.49a128.45,128.45,0,0,0-32.25-4h0a128.44,128.44,0,0,0-32.25,4c-2.77.7-4.62,1-6.91-1.49-3.13-3.37-8.32-3.17-11.87-.42a8.75,8.75,0,0,0-2.11,11.6,5.39,5.39,0,0,1,.52,5,29.49,29.49,0,0,0-1.32,6.83c-1.33,14.44-.33,22.05-.58,36.51,0,1.57-.75,3.33.62,4.75,2.55-4.95,7.7-3.95,11.74-4.53,14-2,28.06,4.38,42.14,4.49h0c14.08-.11,28.15-6.5,42.14-4.49,4,.58,9.18-.42,11.74,4.53C204.64,129.42,203.92,127.66,203.9,126.09Zm-82.35-18.23c-2,0-2.93-1.22-3-3.14-.07-2.1.73-3.56,3-3.59a2.78,2.78,0,0,1,3,2.79C124.62,106.36,123.86,107.86,121.55,107.87Zm6.79-14a2.22,2.22,0,0,1-2.39,2.08c-5.09-.16-9.92.08-13.35,4.77-.6.82-2.19.48-3.12-.49s-.45-2.24.2-3.15c3.15-4.39,7.59-6.15,13.17-6.05a30.36,30.36,0,0,1,3.19.18C127.49,91.38,128.51,92.21,128.34,93.83ZM150,123.9h-1.28a10.3,10.3,0,0,1,.51-20.6h.26a10.3,10.3,0,0,1,.51,20.6Zm27.19-16c-2.31,0-3.07-1.51-3.06-3.94a2.78,2.78,0,0,1,3-2.79c2.31,0,3.11,1.49,3,3.59C180.14,106.64,179.21,107.87,177.21,107.87Zm12.09-7.69c-.93,1-2.53,1.31-3.13.49-3.43-4.69-8.27-4.93-13.35-4.77a2.22,2.22,0,0,1-2.4-2.08c-.17-1.62.85-2.45,2.31-2.67a30.31,30.31,0,0,1,3.19-.18c5.58-.1,10,1.66,13.17,6.05C189.74,97.93,190.36,99.06,189.29,100.18Z"/><path class="cls-9" d="M149.51,103.3h-.26a10.3,10.3,0,0,0-.51,20.6H150a10.3,10.3,0,0,0-.51-20.6Zm.42,18.71a4,4,0,0,1-.54,0h0a4,4,0,0,1-.54,0,2.53,2.53,0,0,1-2.51-3,2.73,2.73,0,0,1,2.82-2.76l.22,0h0l.22,0a2.73,2.73,0,0,1,2.82,2.76A2.53,2.53,0,0,1,149.93,122Z"/><path class="cls-7" d="M175.92,91a30.31,30.31,0,0,0-3.19.18c-1.46.22-2.48,1.05-2.31,2.67a2.22,2.22,0,0,0,2.4,2.08c5.09-.16,9.92.08,13.35,4.77.6.82,2.19.48,3.13-.49s.45-2.24-.2-3.15C185.93,92.63,181.5,90.87,175.92,91Z"/><path class="cls-7" d="M174.15,103.92c0,2.44.74,3.94,3.06,3.94,2,0,2.93-1.22,3-3.14.07-2.1-.73-3.56-3-3.59A2.78,2.78,0,0,0,174.15,103.92Z"/><path class="cls-7" d="M149.62,116.27a2.73,2.73,0,0,1,2.82,2.76,2.53,2.53,0,0,1-2.5,3,4.57,4.57,0,0,1-.57,0v-5.69Z"/><path class="cls-8" d="M149.64,108.54a2.78,2.78,0,0,1,0,5.56l-.29,0v-5.53Z"/></g><g id="JJsqev"><path class="cls-8" d="M84.36,191.92c-1.81-1.89-3.32-3-4.27-4.53-5.42-8.51-13.14-7.82-20.5-4.19C52,186.92,49.85,193.48,52.37,202c6,20.37,19.28,28.64,39.23,22.84l1.5-.42-5.5-34.14Z"/><path class="cls-8" d="M154.63,206.68c-3.65,2.05-7.81,5.57-12.23,6-4.69.41-13.4-2-13.83-4.3-1.15-6.24-5-3.72,4.08-9.17a14.62,14.62,0,0,0,4.81-4.5L99,184.37l-11.39,5.87,5.5,34.14a224.78,224.78,0,0,1,61.52-8.81Z"/></g><path class="cls-8" d="M54.63,208.25S43,183.73,59.46,176.71s24.89,15.21,24.89,15.21Z"/><ellipse class="cls-10" cx="70.47" cy="202.41" rx="9.68" ry="10.79" transform="matrix(0.91, -0.41, 0.41, 0.91, -76.75, 46.65)"/><ellipse class="cls-10" cx="57.56" cy="190.82" rx="2.93" ry="3.26" transform="translate(-96.03 63.8) rotate(-33.62)"/><ellipse class="cls-10" cx="63.43" cy="185.07" rx="3.32" ry="3.7" transform="translate(-52.82 27.71) rotate(-17.54)"/><ellipse class="cls-10" cx="71.66" cy="184.4" rx="2.89" ry="3.23" transform="translate(-35.29 17.97) rotate(-11.49)"/><g id="JJsqev-2" data-name="JJsqev"><path class="cls-8" d="M217.93,191.92c1.81-1.89,3.32-3,4.27-4.53,5.42-8.51,13.14-7.82,20.5-4.19,7.54,3.72,9.73,10.28,7.21,18.77-6,20.37-19.28,28.64-39.23,22.84l-1.5-.42,5.5-34.14Z"/><path class="cls-8" d="M147.66,206.68c3.65,2.05,7.81,5.57,12.23,6,4.69.41,13.4-2,13.83-4.3,1.15-6.24,5-3.72-4.08-9.17a14.62,14.62,0,0,1-4.81-4.5l38.46-10.29,11.39,5.87-5.5,34.14a224.78,224.78,0,0,0-61.52-8.81Z"/></g><path class="cls-8" d="M247.66,208.25s11.62-24.52-4.84-31.54-24.89,15.21-24.89,15.21Z"/><ellipse class="cls-10" cx="231.82" cy="202.41" rx="10.79" ry="9.68" transform="translate(-47.81 330.94) rotate(-65.81)"/><ellipse class="cls-10" cx="244.72" cy="190.82" rx="3.26" ry="2.93" transform="translate(-49.68 288.94) rotate(-56.38)"/><ellipse class="cls-10" cx="238.86" cy="185.07" rx="3.7" ry="3.32" transform="translate(-9.58 357.07) rotate(-72.46)"/><ellipse class="cls-10" cx="230.63" cy="184.4" rx="3.23" ry="2.89" transform="translate(4 373.68) rotate(-78.51)"/><path class="cls-7" d="M149.12,108.54h.52a2.78,2.78,0,0,1,0,5.56l-.26,0h0l-.26,0a2.78,2.78,0,0,1,0-5.56Z"/><path class="cls-7" d="M107.07,71.5c-.35.93-1.52,1.62-2.24,2.15a13.92,13.92,0,0,1-3.56,2.09c-1.74.63-2.42-1.61-2.23-3a4.61,4.61,0,0,1,4.64-4.29c1.3,0,3.08.67,3.44,2.1A1.53,1.53,0,0,1,107.07,71.5Z"/><path class="cls-7" d="M191.69,71.55c.14.62.61.85,1.2,1.31a17.5,17.5,0,0,0,4.6,2.88c1.74.63,2.42-1.61,2.23-3a4.61,4.61,0,0,0-4.64-4.29,3.72,3.72,0,0,0-2.53.85,2.38,2.38,0,0,0-.89,1.79A1.9,1.9,0,0,0,191.69,71.55Z"/><path class="cls-6" d="M191.49,118.35c6.19,3.24,14.06,1.4,19.71-2.72,6.63-4.83,10.27-12.1,15.2-18.41l5,3.9,8.51-3.73,3.89,8.37,4.28.46c-.7,4.55-1.2,8.83-3,13.06a63.69,63.69,0,0,1-4.16,8,43.35,43.35,0,0,1-12.2,13c-11.66,8-26.58,9.31-40.32,8.65C183.71,140.2,184,124.8,191.49,118.35Z"/><ellipse class="cls-10" cx="150.49" cy="172.96" rx="42.44" ry="39.81" transform="translate(-29.86 314.51) rotate(-87.1)"/><path class="cls-8" d="M186.17,153.89s-4.74-6.48-9.81-7.28c0,0,16.49,13.58,13.91,33.8l5.08-17.79Z"/><path class="cls-8" d="M149.12,194.89h.52a2.78,2.78,0,0,1,0,5.56l-.26,0h0l-.26,0a2.78,2.78,0,0,1,0-5.56Z"/><ellipse class="cls-10" cx="241.69" cy="113.6" rx="3.26" ry="2.93" transform="translate(13.27 251.95) rotate(-56.38)"/><ellipse class="cls-10" cx="235.83" cy="107.86" rx="3.7" ry="3.32" transform="translate(61.93 300.23) rotate(-72.46)"/><ellipse class="cls-10" cx="227.6" cy="107.18" rx="3.23" ry="2.89" transform="translate(77.24 308.87) rotate(-78.51)"/><path class="cls-6" d="M101.35,130.85a30,30,0,0,0-.29,5.59c.49,5,3.8,9.81,7.49,13,4.72,4.07,10.13,6,15.78,8.28.76.31,7.68,3.58,7.48,3.78a28.78,28.78,0,0,1-2.65,3.22c1,1.32,3.37,3.43,3.43,5.2,0,.69-4.68,5.15-4.44,5.38l2.73,2.63c-6.91,5.9-14.32,6.4-22.68,4.22-8.07-2.11-15.75-5.88-21.6-11.92-8.41-8.69-15.15-19.79-12.38-32.3,2.43-11,11.4-19.53,22.23-22.23C98.64,120.59,101.86,125.35,101.35,130.85Z"/><rect class="cls-10" x="180.13" y="175.34" width="2.52" height="19.55"/><ellipse class="cls-11" cx="52.9" cy="224.09" rx="5.1" ry="1.93"/><ellipse class="cls-11" cx="256.71" cy="224.09" rx="5.1" ry="1.93"/><ellipse class="cls-11" cx="103.85" cy="233.45" rx="5.1" ry="1.93"/><ellipse class="cls-11" cx="205.76" cy="233.45" rx="5.1" ry="1.93"/><ellipse class="cls-11" cx="154.8" cy="237.79" rx="5.1" ry="1.93"/><path class="cls-12" d="M47.8,59V77.11A88.72,88.72,0,0,0,58,80.42V55.66A88.72,88.72,0,0,0,47.8,59Z"/><path class="cls-12" d="M251.61,56.08V80a77.9,77.9,0,0,0,10.2-3.54V59.61A77.89,77.89,0,0,0,251.61,56.08Z"/><path class="cls-12" d="M98.75,64V87.19q5,.5,10.2.9V64Z"/><path class="cls-12" d="M200.66,64V88q5.24-.42,10.2-.94V64Z"/><path class="cls-12" d="M149.7,68.39V89.75l4.35,0,5.85,0V68.39Z"/><ellipse class="cls-3" cx="154.05" cy="60.17" rx="116.88" ry="21.73"/><rect class="cls-3" x="37.17" y="45.32" width="233.76" height="14.85"/><ellipse class="cls-4" cx="154.05" cy="45.32" rx="116.88" ry="21.73"/><ellipse class="cls-13" cx="157.6" cy="37.17" rx="20.27" ry="5.69"/><path class="cls-12" d="M157,37.41s13.47,1.35,18.36-3c0,0-6.68-3-11.47-2.68Z"/><path class="cls-13" d="M157,4.88A16.26,16.26,0,1,0,173.3,21.15,16.26,16.26,0,0,0,157,4.88ZM157,28a6.89,6.89,0,1,1,6.89-6.89A6.89,6.89,0,0,1,157,28Z"/><path class="cls-11" d="M47.8,224.09H58V80.42a88.72,88.72,0,0,1-10.2-3.32Z"/><path class="cls-11" d="M251.61,224.09h10.2V76.47A77.9,77.9,0,0,1,251.61,80Z"/><path class="cls-11" d="M98.75,233.45H109V88.09q-5.23-.41-10.2-.9Z"/><path class="cls-11" d="M200.66,233.45h10.2V87q-5,.51-10.2.94Z"/><path class="cls-11" d="M149.7,89.75v148h10.2V89.74l-5.85,0Z"/></g></g></svg>