<svg xmlns="http://www.w3.org/2000/svg" viewBox="0 0 300 300"><defs><style>.cls-1{isolation:isolate;}.cls-2{fill:gray;opacity:0.5;}.cls-3{fill:#7e4e24;}.cls-4{fill:#925f36;}.cls-5,.cls-9{fill:#868686;}.cls-5{mix-blend-mode:multiply;}.cls-6{fill:#4d4d4d;}.cls-7{fill:#999;}.cls-8{fill:none;}.cls-10{fill:#b1b1b1;}</style></defs><title>Artboard 5</title><g class="cls-1"><g id="Layer_1" data-name="Layer 1"><rect x="126" y="88" width="71" height="31"/><ellipse class="cls-2" cx="157.05" cy="273.18" rx="100.15" ry="18.61"/><ellipse class="cls-3" cx="154.05" cy="239.26" rx="116.88" ry="21.73"/><rect class="cls-3" x="37.17" y="224.41" width="233.76" height="14.85"/><ellipse class="cls-4" cx="154.05" cy="224.41" rx="116.88" ry="21.73"/><ellipse class="cls-5" cx="160.51" cy="220.71" rx="78.83" ry="15.82"/><path class="cls-6" d="M162.24,190a3.54,3.54,0,0,1-4.22-2.27,4.09,4.09,0,0,1,.2-2.92c.47-1.11,2.37-2,2.65-2.85s-1.2-2-1.19-3.28a4.39,4.39,0,0,1,2-3.17c.71-.58,1.49-1.07,2.23-1.61-1.77-2.13-2.13-3.9,1.85-7.1,0-.07,0-.16,0-.2-2-2-1.6-3.21,0-5.42.33-.44.52-.71.08-1.22-1.71-2-1.72-2.86-.18-4.88a9.08,9.08,0,0,1-1.78-1.3,2.37,2.37,0,0,1,.27-3.29,8.2,8.2,0,0,1,4.72-2.24,2.65,2.65,0,0,1,2.8,1.55,2.32,2.32,0,0,1-.46,2.85,5.19,5.19,0,0,0-.4.58c.33.23.62.46.94.64a2.45,2.45,0,0,1,1.23,3.31,25.8,25.8,0,0,1-1.34,2.51,3,3,0,0,1,1.55,3.89,19,19,0,0,1-2.51,3.74c1.49,1.18,1.75,2,1.32,3.84a4.86,4.86,0,0,1-2.76,3.27c.13.41.24.77.37,1.12,1,2.65-.11,4.51-1.93,5.83-.83.61-1.15,1.07-.7,2.17C168.25,186.72,165.18,189.56,162.24,190Z"/><path class="cls-7" d="M159.4,157.95c-.64.48-1.31.92-1.93,1.43a12.7,12.7,0,0,1-10.1,2.75,12.13,12.13,0,0,1-11-10.57,8.88,8.88,0,0,1,.72-5.13,1.49,1.49,0,0,1,1.73-.94c.85.12,1,.78,1.07,1.55A10.48,10.48,0,0,0,141,152a7.17,7.17,0,0,0,5.17,3.51,14.51,14.51,0,0,0,8.83-.84,20.71,20.71,0,0,0,3.81-3,4.67,4.67,0,0,0,.54-.74c.43-.54.92-1,1.64-.52s1.25,1,.92,2c-.45,1.39-.77,2.83-1.14,4.23a1.93,1.93,0,0,1,1.81,2.4,13,13,0,0,1-5.09,9.17,22.26,22.26,0,0,1-8,4.08,16.28,16.28,0,0,1-10.28-.71c-3.62-1.52-8.17-7.86-6.74-12.78.19-.64.4-1.3,1.1-1.27a2.24,2.24,0,0,1,1.42.77,6,6,0,0,1,1,1.85,9.54,9.54,0,0,0,6.5,6,12.16,12.16,0,0,0,10-.73,16.79,16.79,0,0,0,5.55-4.78c.56-.76,1.08-1.56,1.62-2.34Z"/><path class="cls-7" d="M131.68,178c-.76-1.38-1.76-2.59-1.38-4.16a2.75,2.75,0,0,1,.93-1.47c.18-.14.86.32,1.27.58,2,1.26,4,2.6,6.07,3.79a9.6,9.6,0,0,0,2.36.67,13.82,13.82,0,0,0,8.13-.4,13.09,13.09,0,0,0,6.45-5.18c.72-1,1.37-2.13,2.17-3.1a2.28,2.28,0,0,1,1.51-.78c.29,0,.72.69.91,1.15a4.25,4.25,0,0,1-.46,4,45.66,45.66,0,0,1-3.56,5.21A13.7,13.7,0,0,1,151,182l-1.67.77a13.57,13.57,0,0,1-8.42.93,16.13,16.13,0,0,1-7.82-3.79A11,11,0,0,1,131.68,178Z"/><path class="cls-7" d="M195.65,168.68c1.09,1.1.77,2.4.28,3.63a15.8,15.8,0,0,1-4.48,6c-3.31,2.88-8.59,4-12.83,1.49-2.94-1.76-4.22-4.64-5-7.8-.37-1.48-.7-3,.14-4.44.2-.33.51-.83.78-.82a1.52,1.52,0,0,1,1,.7c2.11,3.44,5.08,5.56,9.08,5.49a17.07,17.07,0,0,0,5.81-1.32A40.37,40.37,0,0,0,195.65,168.68Z"/><path class="cls-7" d="M192.36,167.1a16,16,0,0,1-2.29.8c-1.57.3-3.15.52-4.74.7a7.42,7.42,0,0,1-4.25-1,18.64,18.64,0,0,1-5.18-3.78,4.44,4.44,0,0,1-1.13-4.62,1.61,1.61,0,0,1,.92-.95,1.42,1.42,0,0,1,1.13.46,11.36,11.36,0,0,0,16.44.54,22.9,22.9,0,0,0,4.58-7.07c.18-.4.2-.88.37-1.28s.33-.6.56-.64.53.26.68.49a3.26,3.26,0,0,1,.63,2.65c-.47,1.94-.56,4.06-1.39,5.81C197.21,162.28,195.66,165.43,192.36,167.1Z"/><path class="cls-7" d="M189.61,156.43c-1.76.61-3.48,1.6-5.29,1.75-3.17.27-6.37-.1-8.67-2.88a4.28,4.28,0,0,1-.87-2.05c-.24-1.7.88-2.55,2.44-1.84,4.38,2,8.09.61,11.46-2.15a13.8,13.8,0,0,0,4.28-5.89,17.37,17.37,0,0,0,.55-2.62c.06-.3,0-.69.2-.89a13.55,13.55,0,0,1,1.36-1.21,5.7,5.7,0,0,1,1,1.31,10,10,0,0,1,0,6.92,25.53,25.53,0,0,1-2.28,5.26A12,12,0,0,1,189.61,156.43Z"/><rect x="141.03" y="122.48" width="42.32" height="18.37"/><path class="cls-7" d="M186.21,104c-.84,1.48-2.67,2.6-4.29,3.4-2.14,1.06-4.51,1.67-6.45.79a8.26,8.26,0,0,1-6.35-4c-4.4-.18-8.89-.65-13.44-1.2-.43.48-.88.95-1.36,1.4a6.48,6.48,0,0,1-6.15,1.71c-2.26-.54-4.7-1-6.6-2.19a9.33,9.33,0,0,1-2.95-3,114.94,114.94,0,0,0-18.83-.68l0,.14c-.58,2.56-1.23,5.1-1.79,7.67a10.72,10.72,0,0,0,4.65,10.8c3,1.82,6.14,3.47,9.06,5.43,1.41.95,3,2.23,3.54,3.72a31.88,31.88,0,0,1,1.33,7.86c.26,3,1.15,5.49,3.82,7,3,1.68,6,3.21,9,4.8,2,1,3.91,2.1,5.9,3.07a6.19,6.19,0,0,0,2.39.69c3.64.13,7.29.31,10.92.15a12.7,12.7,0,0,0,5.5-1.41,68,68,0,0,0,9.49-6.36c1.69-1.37,3.57-3,3.24-5.8a63,63,0,0,1-.11-7,5.84,5.84,0,0,1,1.84-4.78A17.33,17.33,0,0,1,192,124a25.6,25.6,0,0,0,7.46-5.74,7.93,7.93,0,0,0,2.28-5.69c-.05-3.11-.44-6.21-.7-9.32q-.27-3.26-.54-6.53a40,40,0,0,1-13.78,6.05A7.82,7.82,0,0,1,186.21,104Zm-32.48,11.1a37.39,37.39,0,0,1,3.47-5.65c2.58-3,4.59-2.15,6.08.52a18.41,18.41,0,0,1,2,7.14c.26,2.84-1.8,4-4.36,2.59-1.36-.73-2.42-1.16-4-.22s-2.77.34-3.13-1.61A18.88,18.88,0,0,1,153.73,115.06Zm27.92,12.28c-.26.55-.62,1.08-.76,1.35a6.06,6.06,0,0,0-1,3.86,2.56,2.56,0,0,1,.05,1,.67.67,0,0,1-.67.56c-.36,0-.53-.47-.56-.83a2.1,2.1,0,0,0-.19-1.06c-.48-.69-1.55,0-2,.36a2.08,2.08,0,0,0-.81,1.92,5.91,5.91,0,0,1,.15,1.1c0,.37-.28.77-.65.77s-.61-.33-.71-.67-.06-1.15-.52-1.41-.53,0-.88.19c-1,.44-2.08.67-3.08,1-.56.22-.79,1.13-.78,1.65a3.92,3.92,0,0,1,0,1.34c-.14.43-.61.8-1,.63a1,1,0,0,1-.51-.88,2.66,2.66,0,0,0-.21-1,1.26,1.26,0,0,0-.84-.56c-.46-.1-.94-.07-1.41-.14-.95-.15-3.38-.38-3.7.78a3.44,3.44,0,0,0,0,1.14,1.7,1.7,0,0,1-.21,1.1.71.71,0,0,1-1,.2,1.05,1.05,0,0,1-.26-.67c-.14-1,.11-2.63-1.22-2.71a19.05,19.05,0,0,1-2.39-.32c-.67-.13-1.24-.36-1.54.5a3.67,3.67,0,0,0-.1,1.22,2,2,0,0,1-.27,1.18.81.81,0,0,1-1.07.26.85.85,0,0,1-.3-.62,4.91,4.91,0,0,1,0-.71c.12-2.06-1.38-2.78-3-3.5-.36-.16-.63-.44-1-.14s-.22.67-.24.93c0,.59.1,1.14.07,1.72a1.28,1.28,0,0,1-.45,1,.78.78,0,0,1-1,0,1.15,1.15,0,0,1-.25-.73,12,12,0,0,0-.16-3.05,3.53,3.53,0,0,0-1.62-2.11,7.35,7.35,0,0,1-1.44-.77,1,1,0,0,1-.22-1.44c.4-.39,1.06-.18,1.55.08s1.1.54,1.57.23a1.34,1.34,0,0,0,.49-.89,2.68,2.68,0,0,1,.31-1,.69.69,0,0,1,.9-.27.71.71,0,0,1,.23.71,5.66,5.66,0,0,1-.25.75,2.31,2.31,0,0,0,1,2.7c.6.41,2.49,1.43,3.13.83a1.21,1.21,0,0,0,.33-.84,5.53,5.53,0,0,0-.08-.92,2.17,2.17,0,0,1,0-.93.84.84,0,0,1,1.62-.06,2.09,2.09,0,0,1,.07,1.22,7.14,7.14,0,0,0-.19,1.23c0,1.31,1.43,1.56,2.48,1.54s2.07.54,2.51-.79a4,4,0,0,0,.11-1.46c0-.46,0-1,.36-1.27a.86.86,0,0,1,1.06.15,1.5,1.5,0,0,1,.37,1.07,6.67,6.67,0,0,1-.17,1.15,2.67,2.67,0,0,0,0,1.16.76.76,0,0,0,.32.48c.23.13.75,0,1,0,.46,0,.91,0,1.37,0a8.4,8.4,0,0,0,2.13,0c.57-.19.65-.91.66-1.49s-.07-1-.09-1.55a1.6,1.6,0,0,1,.11-.76.65.65,0,0,1,.61-.39.68.68,0,0,1,.52.47,2.42,2.42,0,0,1,.1.73,7.79,7.79,0,0,0,.16,1.25c.21,1,.86,1,1.69.75l1.58-.41a4.06,4.06,0,0,0,1.51-.5c.6-.62.31-2.65.18-3.43-.08-.46-.16-1,.2-1.32a.84.84,0,0,1,1.16.25,2,2,0,0,1,.27,1.28,3.1,3.1,0,0,0,0,1,.82.82,0,0,0,.64.64c.54.06,1.3-.92,1.68-1.29,1-.91.42-2.61.39-3.82a1.71,1.71,0,0,1,.06-.61.59.59,0,0,1,.42-.41c.59-.11.79.78.78,1.19a1.49,1.49,0,0,0,.16.94.67.67,0,0,0,.58.27c.56,0,.82-.93,1.2-1.27a.75.75,0,0,1,.84-.15C182.11,126.07,181.94,126.71,181.65,127.34Z"/><path class="cls-8" d="M151.16,113.19l-.09.09Z"/><path class="cls-8" d="M152.41,111.85q-.31.39-.65.75Q152.11,112.24,152.41,111.85Z"/><polygon class="cls-8" points="205.09 108.5 201.6 110.17 201.6 110.18 205.09 108.5"/><path class="cls-8" d="M150.32,113.89l0,0q.37-.28.71-.58h0a11.4,11.4,0,0,1-1.56,1.17h0Q149.93,114.18,150.32,113.89Z"/><path class="cls-8" d="M151.76,112.61h0c-.19.21-.4.4-.61.6l.22-.22C151.51,112.85,151.64,112.73,151.76,112.61Z"/><polygon class="cls-8" points="149.51 114.44 149.51 114.44 149.51 114.44 149.51 114.44"/><path class="cls-6" d="M181.16,94.26l-.43-.39v0Z"/><path class="cls-6" d="M178.81,115.72l.6-.17.3-.1.56-.23.32-.14.52-.26.31-.18.5-.3.25-.18q.43-.3.83-.65l.33-.29.35-.34.33-.34.31-.36.32-.4.26-.35c.12-.17.22-.34.33-.51l.18-.29q.23-.4.43-.83l.12-.29c.09-.2.17-.41.25-.62s.08-.24.12-.35.12-.4.18-.61l.09-.36c0-.22.09-.44.12-.67s0-.22,0-.32c0-.33.07-.67.08-1a8.86,8.86,0,0,0-.07-1.37s0,0,0-.07a11.21,11.21,0,0,0-.28-1.38l0-.1a14.26,14.26,0,0,0-.46-1.39l0-.11c-.19-.47-.4-.93-.63-1.39l-.05-.1q-.36-.7-.79-1.38l0-.08c-.29-.46-.6-.9-.93-1.34l0-.05q-.51-.66-1.06-1.28l0,0c-.38-.41-.77-.81-1.17-1.18h0l-.38-.12C182.56,101.54,182.55,109,178.81,115.72Z"/><path class="cls-6" d="M141.91,93.64l-.43,0,.43,0Z"/><path class="cls-6" d="M133,106.5c0,.24.06.47.1.7s.06.27.09.41.09.41.15.61.09.28.13.42.13.37.2.55l.17.42c.07.17.15.34.24.5s.14.28.21.41.18.31.28.46.16.27.25.4.2.28.3.41.19.27.3.39l.17.19a10.85,10.85,0,0,0,.91.93l.26.23c.16.13.32.26.49.38l.28.21.53.34.3.18.56.3.3.14.61.26.29.1.66.22.24.06.74.16a25.19,25.19,0,0,1,.13-22.28l-.43,0-.66.09-.37.06q-.43.08-.86.19l-.11,0q-.46.13-.91.29l-.06.06c-.37.34-.73.69-1.08,1.06l-.12.14q-.47.51-.9,1l-.16.19a19,19,0,0,0-1.67,2.53l-.13.25q-.3.56-.54,1.13l-.09.2a13.56,13.56,0,0,0-.46,1.29l-.07.25q-.14.52-.23,1c0,.11,0,.23-.06.34a8.86,8.86,0,0,0-.1,1.23c0,.37,0,.73.05,1.08C133,106.27,133,106.39,133,106.5Z"/><path class="cls-7" d="M149.51,114.44c.28-.17.54-.35.8-.55Q149.93,114.18,149.51,114.44Z"/><path class="cls-7" d="M151.76,112.61c-.12.13-.25.25-.38.37C151.51,112.85,151.64,112.73,151.76,112.61Z"/><path class="cls-7" d="M151.23,125.37c1.92.31,12.48,1.85,19.09-.28L189.06,115c0-.18,0-.37,0-.53-.33-4.31.56-8,3-10.95a14.53,14.53,0,0,1,2.11-2.12c.84-.69,1.89-1.34,3-.38s1.41,2.37.66,3a10.94,10.94,0,0,0-4,8.44l7.81-4.19c0-3.07,0-6.14-.09-9.21-.43-19.74-15.4-36.28-34.89-39.18l-1.11,2.81-1.18,3-.89,2.66,3.46,2.18-4.48,8.2,3.25,2.56L162,89.73,159.75,95l.49-5.28.49-5.32-5-2.71,2.57-8.15-4.14-1.63.15-9.14,0-2.94,0,0c-17.4,2.3-31.77,14.72-35.07,32-1,5.22-1,10.63-1.22,16l8.43,4.46a10.86,10.86,0,0,0-4-8.21c-.76-.62-.34-2.15.66-3s2.19-.31,3,.38a14.48,14.48,0,0,1,2.17,2.19c2.39,3,3.27,6.6,2.94,10.88m49.51-20.62.43.39-.42-.37-.29-.25Zm-31.39,20.68h0a11.11,11.11,0,0,1-2.54,1.11l-.19.05a10.71,10.71,0,0,1-1.09.24l-.32.05a10.46,10.46,0,0,1-1.34.11c-.36,0-.71,0-1.05,0s-.63-.07-.93-.13h-.09c-.25,0-.5-.11-.75-.17l-.24-.06-.66-.22-.29-.1-.61-.26-.3-.14-.56-.3-.3-.18-.53-.34-.28-.21c-.17-.13-.33-.25-.49-.38l-.26-.23a10.85,10.85,0,0,1-.91-.93l-.17-.19c-.1-.13-.2-.26-.3-.39s-.21-.27-.3-.41-.17-.27-.25-.4-.19-.31-.28-.46-.14-.27-.21-.41-.16-.33-.24-.5l-.17-.42c-.07-.18-.14-.36-.2-.55s-.09-.28-.13-.42-.11-.4-.15-.61-.06-.27-.09-.41-.07-.47-.1-.7,0-.23,0-.35c0-.36-.05-.72-.05-1.08a8.86,8.86,0,0,1,.1-1.23c0-.11,0-.23.06-.34q.09-.51.23-1l.07-.25a13.56,13.56,0,0,1,.46-1.29l.09-.2q.24-.57.54-1.13l.13-.25a19,19,0,0,1,1.67-2.53l.16-.19q.43-.54.9-1l.12-.14c.35-.37.71-.73,1.08-1.06l.05-.05h0q.45-.16.91-.29l.11,0q.42-.11.86-.19l.37-.06.66-.09.43,0c.23,0,.45,0,.68,0,6.55-.05,10.77,5.27,10.7,11.75,0,.44,0,.87-.08,1.29,0,.12,0,.24,0,.36,0,.31-.08.61-.14.91,0,.13-.06.25-.08.38-.07.3-.14.59-.23.87l-.1.32q-.16.48-.35.94l-.07.18a11.07,11.07,0,0,1-2.85,4l.17-.12Zm1.83-1.37-.09.09a11.28,11.28,0,0,1-1.56,1.17,11.4,11.4,0,0,0,1.56-1.17l.08-.08c.21-.19.42-.39.61-.6s.44-.49.65-.75q-.31.39-.65.75C151.58,112.8,151.37,113,151.16,113.19Zm16.11,10.15c-1.14,1.09-2.38.8-3.41-.19-1.22-1.17-2.26-3.65-4.31-3.22-1.54.32-2.36,2.24-3.39,3.22s-2.28,1.28-3.41.19a2.15,2.15,0,0,1-.18-3.06,22.44,22.44,0,0,0,4-6.37c.48-1.31,1-3.18,2.6-3.6l0-.09,1.28-.12.11.28c1.39.55,2.33,2.37,2.8,3.62a22.73,22.73,0,0,0,4,6.27A2.15,2.15,0,0,1,167.27,123.34Zm19.49-16.78c0,.11,0,.22,0,.32s-.07.45-.12.67l-.09.36c-.05.2-.11.41-.18.61s-.07.24-.12.35-.16.42-.25.62l-.12.29q-.2.43-.43.83l-.18.29c-.11.17-.21.35-.33.51l-.26.35-.32.4-.31.36-.33.34-.35.34-.33.29q-.4.34-.83.65l-.25.18-.5.3-.31.18-.52.26-.32.14-.56.23-.3.1-.61.19-.21,0a10.81,10.81,0,0,1-1.15.23l-.29,0a10.53,10.53,0,0,1-1.44.08,10.35,10.35,0,0,1-1.28-.12l-.34-.06c-.32-.06-.64-.13-.94-.21l-.31-.09a10.93,10.93,0,0,1-1.1-.4l-.06,0a11.17,11.17,0,0,1-1.19-.61h0a10.46,10.46,0,0,1-.89-.86l0,0a11.43,11.43,0,0,1-2-3.21l0-.1c-.14-.34-.27-.69-.38-1L167,109c-.08-.29-.16-.59-.22-.9,0-.13-.05-.26-.08-.39-.05-.3-.09-.6-.13-.91,0-.12,0-.25,0-.38,0-.43-.06-.86,0-1.3.08-6.66,4.46-11.82,11.22-11.57.36,0,.71,0,1.06.09l.36.06.66.12.42.1.58.17h0l.38.12h0c.4.37.8.77,1.17,1.18l0,0q.55.61,1.06,1.28l0,.05c.33.43.64.88.93,1.34l0,.08q.43.68.79,1.38l.05.1c.23.46.45.93.63,1.39l0,.11a14.26,14.26,0,0,1,.46,1.39l0,.1a11.21,11.21,0,0,1,.28,1.38s0,0,0,.07a8.86,8.86,0,0,1,.07,1.37C186.83,105.88,186.8,106.22,186.76,106.56Z"/><path class="cls-7" d="M150.35,113.86c.24-.18.48-.38.71-.58Q150.72,113.59,150.35,113.86Z"/><path class="cls-7" d="M159.25,110.22l0,.09h0Z"/><path class="cls-7" d="M160.63,110.38l-.11-.28.11.28Z"/><path class="cls-7" d="M159.38,110.25a2.24,2.24,0,0,1,1.25.13l-.11-.28-1.28.12,0,.09Z"/><path class="cls-7" d="M150.35,113.86l0,0c-.26.19-.53.38-.8.55h0a11.28,11.28,0,0,0,1.56-1.17h0C150.83,113.49,150.59,113.68,150.35,113.86Z"/><polygon class="cls-7" points="149.51 114.44 149.51 114.44 149.51 114.44 149.51 114.44"/><path class="cls-7" d="M149.51,114.44l-.17.12h0Z"/><path class="cls-7" d="M178.59,115.78l.21,0v0Z"/><path class="cls-7" d="M177.15,116a10.79,10.79,0,0,1-1.44.08A10.53,10.53,0,0,0,177.15,116Z"/><path class="cls-7" d="M178.8,115.74l.61-.19-.6.17Z"/><path class="cls-7" d="M138.56,94.33l-.05.05.05-.05Z"/><path class="cls-7" d="M141,115.76c.25.06.5.13.75.17h0Z"/><path class="cls-7" d="M141.78,115.93h.09l-.09,0Z"/><path class="cls-6" d="M205,213.88c.32,3.16,1,6.65,3.33,7.62,1.69.71,4.18.83,5.68-.38,1.08-.88,1.58-2.33,2.36-3.44s2.37-2,2.73-3.12c.69-2.2-1.2-3.71-2.7-4.92a8.78,8.78,0,0,1-3-4.56,123.85,123.85,0,0,1-4.58-15.6,9.61,9.61,0,0,0-1.15-3.28,2.75,2.75,0,0,0-5.2.82,9.09,9.09,0,0,0,0,3.42l.16,1.42,2.06,17.7C204.74,210.61,204.8,212.2,205,213.88Z"/><path class="cls-6" d="M100.91,207.44c-1.87,3.29-5.36,7.56-3.3,10.64.66,1,2.39,1.35,3.49,2.23s1.95,2.1,3.23,2.64c2.15.91,5.85-.63,6.79-2.72.63-1.39.24-3.31.27-4.79a53.74,53.74,0,0,0-.6-5.47c-.25-3.14.84-5.77,1.95-8.56,1.23-3.11,1.48-6.89,2.12-10.17l.31-1.61c.4-2,.77-4.25-.22-6.08a3.83,3.83,0,0,0-4.84-1.77c-1.5.77-2.11,2.55-2.58,4.17-1.91,6.53-3.64,13.16-5.74,19.63A10.56,10.56,0,0,1,100.91,207.44Z"/><path class="cls-7" d="M82.39,227.55c4.09,3,12.13,2.43,14.1-2.75a7.24,7.24,0,0,0,.24-5,24.52,24.52,0,0,0-.89-2.54A23.83,23.83,0,0,1,94,212c-.32-2.31.4-4.55.9-6.79a12.66,12.66,0,0,0,.46-3.25,8.73,8.73,0,0,0-1.32-3.27c-3.39-6.09-11.66-.3-15.8,1.94C76,201.85,72.93,203.51,72,206s.08,5.82,1.06,8.18C75,218.85,78.23,224.52,82.39,227.55Z"/><path class="cls-7" d="M84.28,189.81a9,9,0,0,0,1,3.29c.25.41.72,1.08,1.23,1.2a6.15,6.15,0,0,0,2-.23c.72-.18,1.42-.45,2.12-.66s.93-.41,1-.86l-7.54-4.19C84.15,188.84,84.2,189.32,84.28,189.81Z"/><path class="cls-7" d="M91.28,189.48c-.27-1.53-.61-3-1-4.51-.19-.75-.35-1.49-.61-2.25-.54-1.61-2.57-1.44-3.87-1a7.46,7.46,0,0,0-1.82,1c0,1.56,0,3.12.06,4.68,0,.32,0,.63.06,1l7.54,4.19a1.32,1.32,0,0,0,0-.34A26.59,26.59,0,0,0,91.28,189.48Z"/><path class="cls-7" d="M77.75,185.46c-.78.32-1.47.74-2.23,1.08-.52.23-.58.25-.66.77a11.73,11.73,0,0,0,.41,3.45c.37,1.8,1,3.56,1.21,4.81.31,1.6.43,1.69,1.67,2.05a5.12,5.12,0,0,0,4.41-1.14c1.69-1.49.5-3.28,0-5a24.67,24.67,0,0,0-2.18-5.18l-1.95-1.08Z"/><path class="cls-7" d="M79,185a5.65,5.65,0,0,0-.58.2l1.95,1.08c-.14-.25-.28-.51-.43-.76C79.61,185,79.61,184.83,79,185Z"/><path class="cls-7" d="M75.15,197.79c-.33-1.3-1.32-2.11-2-3.17a14.36,14.36,0,0,0-2.39-3,4.44,4.44,0,0,0-1-.75c-.31-.13-.39-.09-.77,0a7.71,7.71,0,0,0-2.52,1.41c-1.44,1.26-.58,3.38.2,4.79s1.65,2.52,2.14,3.42c.63,1.17.76,1.2,2,1.13C72.47,201.57,75.61,199.6,75.15,197.79Z"/><path class="cls-7" d="M84.14,179.68c1.73.34,4.07-.94,3.65-2.91-.3-1.42-4.7-9.59-5.5-4.88a20.32,20.32,0,0,0,0,4.51C82.35,177.24,83.25,179.51,84.14,179.68Z"/><path class="cls-7" d="M75.52,183.59l-2.19-1.22C73.71,183.77,74,184.3,75.52,183.59Z"/><path class="cls-7" d="M76.83,182.86c1.64-1.12,1.86-2.37.59-4.55-.93-1.59-1.57-3.9-3.52-4.39-2.27-.58-1,6.9-.74,7.8l.17.65,2.19,1.22.17-.07A9.89,9.89,0,0,0,76.83,182.86Z"/><path class="cls-7" d="M69.2,188.8c0-.48-1.18-1.86-1.49-2.25-1.14-1.45-1.56-3.38-3-4.58-.88-.71-2.54-.92-3.17.24-.44.81.2,2.27.38,3.11.28,1.31.65,5.21,2.21,5.7.49.15,2.17-.94,2.83-1.1C67.78,189.71,69.13,190.12,69.2,188.8Z"/><path class="cls-7" d="M240.3,200.77c-3.8-2.78-11.21-9.64-15.39-4.06-2.82,3.75-1.6,7.85-2.32,12.13a16,16,0,0,1-1.6,4.49c-.44.9-.9,1.77-1.33,2.67a9,9,0,0,0-.68,6.25c1.26,5.4,9.15,7,13.6,4.63s8.47-7.63,11-12c1.3-2.2,2.72-5.39,2.16-8S242.36,202.28,240.3,200.77Z"/><path class="cls-7" d="M232.87,193.4c1.25-.31,1.38-.39,1.76-2a12.15,12.15,0,0,1,.51-1.54l-5.49,3A5.12,5.12,0,0,0,232.87,193.4Z"/><path class="cls-7" d="M228.25,191.76a4.41,4.41,0,0,0,1.39,1.07l5.49-3c.22-.56.46-1.13.72-1.69Z"/><path class="cls-7" d="M237.34,183.31c0-1.6-.27-1.12-1.45-1.9-2.59-1.72-3.46-1.1-4.94,1.32s-3.2,4.63-3.29,7.43a2.35,2.35,0,0,0,.59,1.6l7.61-3.58c.2-.45.4-.9.59-1.35A9.9,9.9,0,0,0,237.34,183.31Z"/><path class="cls-7" d="M235.92,194.12c-.28,2.28,3.13,4,4.9,3.69,1.27-.2,1.41-.26,1.93-1.81.41-1.2,1.24-2.87,1.85-4.6.78-2.22,1.17-4.54-.21-6.1-.09-.11-.18-.19-.26-.26l-4.76,2.56C237.66,189.61,236.14,192.33,235.92,194.12Z"/><path class="cls-7" d="M243.32,184.68l-1.14.54-.12.07a9.62,9.62,0,0,0-2.68,2.32l4.76-2.56A1,1,0,0,0,243.32,184.68Z"/><path class="cls-7" d="M243.32,184.68a4.18,4.18,0,0,0-1.14.54Z"/><path class="cls-7" d="M249.73,202c.68-.94,1.28-2,2-2.89l.33-.42c.28-.35.56-.7.82-1.08a7.32,7.32,0,0,0,.63-1.14,2.52,2.52,0,0,0-1-3.22c-1.89-1.18-3.45.11-4.84,1.48-.73.72-1.48,1.45-2.19,2.12-1,.93-2.3,1.76-1.51,3.24a5.77,5.77,0,0,0,3.62,2.75C248.81,203,248.95,203,249.73,202Z"/><path class="cls-7" d="M240.29,176.31a20.34,20.34,0,0,0,.6-4.47c-.09-2.71-2.21-1-3.27.1a20.41,20.41,0,0,0-2.08,2.67c-.64,1-1.36,2.56-.65,3.67a2.4,2.4,0,0,0,.56.58l3.85.05A6.44,6.44,0,0,0,240.29,176.31Z"/><path class="cls-7" d="M238.51,179.54a2.08,2.08,0,0,0,.8-.64l-3.85-.05A3.46,3.46,0,0,0,238.51,179.54Z"/><path class="cls-7" d="M247.36,183.72a2.29,2.29,0,0,0,.43-.64l-1.91,1A1.66,1.66,0,0,0,247.36,183.72Z"/><path class="cls-7" d="M249.14,178c.12-.77.37-2-.11-2.75a.78.78,0,0,0-.79-.4c-2,.23-3,2.43-4.08,3.88l-.15.2,4.94.07C249,178.7,249.09,178.37,249.14,178Z"/><path class="cls-7" d="M245.07,183.85a3.34,3.34,0,0,0,.81.25l1.91-1a5,5,0,0,0,.25-.62Z"/><path class="cls-7" d="M243.44,182.59a3.32,3.32,0,0,0,.71.73,4.47,4.47,0,0,0,.92.54l3-1.4c.13-.38.23-.78.33-1.11.23-.76.42-1.54.58-2.32L244,179C243.21,180,242.6,181.35,243.44,182.59Z"/><path class="cls-7" d="M256.29,184.12a10.72,10.72,0,0,0-2.73,3.06c-.36.48-.61.92-.93,1.42s-.88.92-1,1.52c-.31,1.2.71,1.06,1.53,1.52.62.36,1.1.95,1.66,1.34a1,1,0,0,0,.85.19c1-.31,1.18-1.79,1.6-2.63.26-.51.5-1,.74-1.54.38-.82.67-1.65,1-2.49.22-.6.68-1,.44-1.73C259,183.54,257.25,183.54,256.29,184.12Z"/><polygon points="155.69 81.7 160.72 84.41 160.23 89.73 159.75 95.02 162.03 89.73 165.67 81.32 162.43 78.76 166.9 70.56 163.44 68.38 164.33 65.72 164.33 65.72 158.65 62.39 154.31 59.85 154.27 62.78 154.12 71.93 158.26 73.55 155.69 81.7"/><polygon points="181.18 94.28 181.18 94.28 181.18 94.28 181.18 94.28"/><path d="M166.52,106.47c0,.13,0,.25,0,.38,0,.31.07.61.13.91,0,.13.05.26.08.39.06.3.14.6.22.9l.09.31c.11.36.24.7.38,1l0,.1a11.43,11.43,0,0,0,2,3.21l0,0a10.46,10.46,0,0,0,.89.86h0a11.29,11.29,0,0,0,1.19.61l.06,0a10.93,10.93,0,0,0,1.1.4l.31.09c.31.09.63.16.94.21l.34.06a10.35,10.35,0,0,0,1.28.12,10.79,10.79,0,0,0,1.44-.08l.29,0a11.67,11.67,0,0,0,1.15-.23l.23-.06c3.74-6.71,3.74-14.18,2-21.56h0l-.58-.17-.42-.1-.66-.12-.36-.06c-.35,0-.7-.08-1.06-.09-6.76-.25-11.14,4.91-11.22,11.57C166.47,105.61,166.48,106,166.52,106.47Z"/><path d="M138.57,94.32h0l-.05.05.06-.06Z"/><path d="M141.87,115.94c.31.05.62.1.93.13s.7,0,1.05,0a10.46,10.46,0,0,0,1.34-.11l.32-.05a10.71,10.71,0,0,0,1.09-.24l.19-.05a11.11,11.11,0,0,0,2.54-1.11,11.07,11.07,0,0,0,2.85-4l.07-.18q.19-.46.35-.94l.1-.32c.09-.29.16-.58.23-.87,0-.13.06-.25.08-.38.06-.3.1-.6.14-.91,0-.12,0-.24,0-.36,0-.43.07-.86.08-1.29.07-6.49-4.15-11.8-10.7-11.75-.23,0-.45,0-.68,0h0a25.19,25.19,0,0,0-.13,22.28Z"/><path d="M156.16,123.14c1-1,1.84-2.9,3.39-3.22,2.05-.43,3.1,2.05,4.31,3.22,1,1,2.28,1.28,3.41.19a2.15,2.15,0,0,0,.18-3.06,22.73,22.73,0,0,1-4-6.27c-.47-1.25-1.41-3.08-2.8-3.62a2.24,2.24,0,0,0-1.25-.13l-.17.05c-1.61.42-2.12,2.29-2.6,3.6a22.44,22.44,0,0,1-4,6.37,2.15,2.15,0,0,0,.18,3.06C153.88,124.42,155.12,124.13,156.16,123.14Z"/><path class="cls-7" d="M192.65,196c.7,3.69-.69,6.54-3,9.23-2.14,2.46-5.18,3.32-7.8,4.92a21.53,21.53,0,0,1-2.58,1.3c-1.42.62-2,1.93-2.69,3.15-.45.81-.93,1.6-1.33,2.43a5.72,5.72,0,0,1-5.38,3.38c-4,.22-8,.78-11.81-.74a8.44,8.44,0,0,1-3.55-2.22c-2.83-3.63-6.82-5.38-10.76-7.31-2.77-1.36-5.74-2.52-8.12-4.4a7.91,7.91,0,0,1-2.89-9.1c.62-1.9,1.15-3.83,1.89-5.68,1.25-3.1,5.75-5.14,9-4.39a36,36,0,0,1,10.4,4.57c4.11,2.46,8.24,2.23,12.53.86a11.14,11.14,0,0,0,4.15-2.48c3.2-2.89,6.84-4.9,11.41-4.21a11.66,11.66,0,0,1,5.7,3,11,11,0,0,1,3.63,4.71C191.82,194,192.25,195,192.65,196Zm-15.53,7.36c1.09-.28,2.42-.65,3.77-1,4.24-1,4-2.62,3.08-5.86a5.33,5.33,0,0,0-.39-1.06,1.3,1.3,0,0,0-.56-.62,14.91,14.91,0,0,0-3.33-1,3.49,3.49,0,0,0-2.45.63,9,9,0,0,0-3.07,7C174.16,203.44,174.81,204.1,177.11,203.36Zm-26.36-.75c1.37-2.45.32-4.24-1.66-6a11.85,11.85,0,0,0-4.72-2.22c-1-.27-2.67-.18-3.13.44-1.86,2.52-1.41,5.21,1.84,6.27A65.08,65.08,0,0,0,150.75,202.61Z"/><path class="cls-7" d="M232.1,108.35A19.51,19.51,0,0,1,229.86,99a2.2,2.2,0,0,0-.07-.87,1.8,1.8,0,0,0-.63-.86c-.13-.07-.58.26-.78.49a13.79,13.79,0,0,0-3.28,9.9c.21,4.59.21,4.59,3.8,5.73.08,0,.13.13,0,0l-.1.4a15.43,15.43,0,0,0,4.18-2.32A12.71,12.71,0,0,0,232.1,108.35Z"/><path class="cls-6" d="M245.58,122.66c-1-.72-2.19-1.08-3.19-1.75a6.62,6.62,0,0,1-2.47-2.17,10.79,10.79,0,0,0-6.63-6c-.12-.46-.21-.9-.3-1.32a15.43,15.43,0,0,1-4.18,2.32c-.57,2.24-1.09,4.38-1.68,6.49a6.45,6.45,0,0,0,.89,6.12,32.11,32.11,0,0,0,3.35,3.41c4.94,4.56,11.69,1.66,14.78-2C247.7,125.94,247.49,124.11,245.58,122.66Z"/><path class="cls-7" d="M253.94,102.82l1.39,3.64c1.55,4.06-.71,10.68-4,12.73-1.11.68-2.68.67-4.06.81a6.2,6.2,0,0,1-2.56-.29,2.24,2.24,0,0,1-1.11-1.28,1.65,1.65,0,0,1,.3-1.35,2.39,2.39,0,0,1,1.35-.84c2.85-.46,3.56-3,4.63-5a63.76,63.76,0,0,0,2.76-6.78c.21-.53.45-1.05.68-1.58Z"/><path class="cls-7" d="M236.36,111.12c.52-.69.74-1.28,1.16-1.51,3.64-2,5.34-5.39,6.93-8.94.3-.67.33-1.76,1.57-1.54a2.09,2.09,0,0,1,1.73,2.08c.48,3.36-.54,6.49-1.72,9.53-.32.82-1.45,1.39-2.3,1.93s-1.94.91-2.86,1.46a2.7,2.7,0,0,1-3.59-.44C236.68,113.06,236.62,111.94,236.36,111.12Z"/><path class="cls-7" d="M260.49,111c1.83,3.28,2.65,6.66.71,10.22a12.2,12.2,0,0,1-4.91,4.66,1.92,1.92,0,0,1-1.39.2c-1.8-.61-3.57-1.3-5.32-2-.36-.15-.9-.73-.83-.86a2.7,2.7,0,0,1,1.08-1.26c1.23-.57,2.54-1,3.81-1.45a8.32,8.32,0,0,0,4.62-5c.64-1.51,1.15-3.07,1.71-4.6Z"/><path class="cls-7" d="M259.47,131.22c-1.24,3.27-5.15,5-8.13,3.46a38.74,38.74,0,0,1-4.82-3.22,1.32,1.32,0,0,1-.34-1.2c.59-1.53,3.6-2.72,4.94-1.82a16.28,16.28,0,0,0,8,2.59C259.23,131,259.35,131.15,259.47,131.22Z"/><path class="cls-6" d="M197.81,104c.76-.62.34-2.15-.66-3s-2.19-.31-3,.38a14.53,14.53,0,0,0-2.11,2.12c-3.64,4.46-3.63,10.43-1.89,15.65.18.55.47,1.16,1,1.28a1.17,1.17,0,0,0,1.15-.58,3.43,3.43,0,0,0,.4-1.3C193.55,113.52,193.51,107.59,197.81,104Z"/><path class="cls-6" d="M131.21,114.5c.18-3.87-.36-7.68-2.93-10.88a14.48,14.48,0,0,0-2.17-2.19c-.84-.69-1.89-1.34-3-.38s-1.41,2.37-.66,3a10.69,10.69,0,0,1,3.64,5.76c.64,2.65.57,5.36,1.41,8a3.75,3.75,0,0,0,1,1.78,1.45,1.45,0,0,0,1.88.09,2.12,2.12,0,0,0,.48-1.27C131,117.11,131.15,115.8,131.21,114.5Z"/><path class="cls-6" d="M161.68,145.42a3.05,3.05,0,0,0,1.13-.37,9.76,9.76,0,0,1,5.35-.77c.37.05.85.08,1-.25a.6.6,0,0,0-.13-.66,1.55,1.55,0,0,0-.61-.36,9.1,9.1,0,0,0-5.39-.31,4.52,4.52,0,0,0-1.66,1C160.77,144.25,160.43,145.46,161.68,145.42Z"/><path class="cls-6" d="M128.93,208.87l.5.49c1,.93,2.34,1.83,3.63,1.39a2.79,2.79,0,0,0,1.67-2.49,8.21,8.21,0,0,0-.57-3.1c-1-3-1.66-6.34-2.73-9.29-1-2.75-3.87-5.42-5.7-7.67l-1-1.31c-1.24-1.66-2.64-3.42-4.65-3.92a3.83,3.83,0,0,0-4.56,2.4c-.44,1.63.48,3.28,1.36,4.71,2.18,3.56,4.44,7.07,6.62,10.63C125.29,203.61,126.51,206.41,128.93,208.87Z"/><path class="cls-7" d="M232,142.1c1.37-3.53,4.21-8.26,1.72-11-.8-.88-2.56-1-3.78-1.7s-2.23-1.8-3.58-2.14c-2.26-.58-5.69,1.48-6.32,3.68-.42,1.46.25,3.3.43,4.78a53.74,53.74,0,0,0,1.39,5.33c.7,3.07,0,5.83-.68,8.76-.76,3.25-.46,7-.61,10.37l-.08,1.64c-.1,2.07-.14,4.32,1.1,6a3.83,3.83,0,0,0,5,1c1.37-1,1.71-2.83,1.94-4.5.94-6.74,1.68-13.55,2.82-20.26A10.56,10.56,0,0,1,232,142.1Z"/><path class="cls-6" d="M204,144.76l-.57-.41c-1.12-.78-2.58-1.47-3.79-.84a2.79,2.79,0,0,0-1.29,2.7,8.21,8.21,0,0,0,1,3c1.41,2.86,2.56,6,4.05,8.8,1.39,2.58,4.62,4.8,6.75,6.75l1.16,1.15c1.47,1.46,3.11,3,5.17,3.2a3.83,3.83,0,0,0,4.17-3c.19-1.67-1-3.17-2-4.46-2.68-3.2-5.43-6.35-8.1-9.55C208.41,149.43,206.79,146.85,204,144.76Z"/><path class="cls-7" d="M111,124.64a1.8,1.8,0,0,0-1.07,0,2.2,2.2,0,0,0-.76.42,19.51,19.51,0,0,1-9,3.35,17,17,0,0,0-3.75,1.25,9.49,9.49,0,0,1,.46,5.19l.89-1c-.16,0,0,0,0,0,2.94,2.35,2.94,2.35,6.87,0a13.79,13.79,0,0,0,6.4-8.24C111.07,125.26,111.09,124.7,111,124.64Z"/><path class="cls-6" d="M96.34,129.61l-.6.23a10.79,10.79,0,0,0-8.63-2.19,6.62,6.62,0,0,1-3.18-.85c-1.12-.46-2.1-1.29-3.23-1.68-2.26-.78-3.9.07-4.57,2.39-1.33,4.61,0,11.83,6.55,13.4a32.12,32.12,0,0,0,4.69.88A6.45,6.45,0,0,0,93,139.13c1.23-1.44,2.52-2.86,3.84-4.32A9.49,9.49,0,0,0,96.34,129.61Z"/><path class="cls-7" d="M92.54,107.14l-3.8.87c-4.24,1-8.48,6.53-8.33,10.45,0,1.3.93,2.6,1.59,3.82a6.2,6.2,0,0,0,1.67,2,2.24,2.24,0,0,0,1.68.21,1.65,1.65,0,0,0,1-1,2.39,2.39,0,0,0-.05-1.59c-1.21-2.63.49-4.61,1.55-6.62a63.76,63.76,0,0,1,4.1-6.06c.32-.47.62-1,.93-1.44Z"/><path class="cls-7" d="M95.42,126.37c.29-.82.65-1.33.61-1.8-.39-4.12,1.51-7.44,3.57-10.73.39-.62,1.28-1.25.41-2.17a2.09,2.09,0,0,0-2.69-.28c-3.06,1.47-5.1,4.06-7,6.74-.5.73-.35,2-.33,3s.32,2.12.38,3.19A2.7,2.7,0,0,0,92.78,127C93.63,127.18,94.6,126.6,95.42,126.37Z"/><path class="cls-7" d="M82.1,106.24c-3.74.31-7,1.51-8.89,5.1A12.2,12.2,0,0,0,72.07,118a1.92,1.92,0,0,0,.6,1.26c1.51,1.15,3.06,2.24,4.64,3.29.32.21,1.11.34,1.18.22a2.7,2.7,0,0,0,.45-1.6c-.21-1.34-.61-2.65-.92-4a8.32,8.32,0,0,1,1.57-6.61c.9-1.37,1.91-2.66,2.87-4Z"/><path class="cls-7" d="M65.86,118.35c-2,2.85-1.29,7.06,1.65,8.67a38.74,38.74,0,0,0,5.36,2.21,1.32,1.32,0,0,0,1.19-.38c.94-1.34.26-4.5-1.24-5.12a16.28,16.28,0,0,1-6.59-5.18C66.15,118.45,66,118.42,65.86,118.35Z"/><path class="cls-7" d="M94.12,155c-2.79-1.66-7.2-3.36-7-6.5.07-1,1.2-2,1.63-3.1s.55-2.36,1.27-3.3c1.21-1.56,4.6-2,6.2-.81,1.06.77,1.59,2.35,2.25,3.43a45.94,45.94,0,0,1,1.89,4.3c1.15,2.42,3.09,3.92,5.1,5.53,2.24,1.79,4,4.48,5.91,6.64l.92,1.06c1.16,1.34,2.38,2.83,2.43,4.58a3.21,3.21,0,0,1-2.83,3.32c-1.44.05-2.65-1-3.69-2-4.21-4-8.32-8.23-12.64-12.14A9.18,9.18,0,0,0,94.12,155Z"/><path class="cls-6" d="M129.63,142.16l.53-.46c1-.87,2.44-1.69,3.7-1.17a2.79,2.79,0,0,1,1.52,2.58,8.21,8.21,0,0,1-.76,3.06c-1.16,3-2,6.23-3.28,9.11-1.16,2.69-4.19,5.18-6.15,7.31l-1.06,1.25c-1.34,1.58-2.84,3.26-4.87,3.63a3.83,3.83,0,0,1-4.41-2.67c-.34-1.65.67-3.24,1.64-4.62,2.39-3.42,4.86-6.79,7.25-10.21C125.68,147.19,127.07,144.48,129.63,142.16Z"/><path class="cls-6" d="M183.72,208.71q-.1.33-.19.67c-.34,1.32-.49,2.93.52,3.85a2.79,2.79,0,0,0,3,.27,8.21,8.21,0,0,0,2.44-2c2.19-2.32,4.77-4.49,6.85-6.85,1.94-2.2,2.9-6,4-8.68l.68-1.49c.86-1.88,1.74-4,1.21-6a3.83,3.83,0,0,0-4.29-2.85c-1.64.4-2.64,2-3.48,3.45-2.08,3.62-4.07,7.29-6.15,10.91C186.59,203,184.72,205.41,183.72,208.71Z"/><ellipse class="cls-7" cx="52.9" cy="225.09" rx="5.1" ry="1.93"/><ellipse class="cls-7" cx="256.71" cy="225.09" rx="5.1" ry="1.93"/><ellipse class="cls-7" cx="103.85" cy="234.45" rx="5.1" ry="1.93"/><ellipse class="cls-7" cx="205.76" cy="234.45" rx="5.1" ry="1.93"/><ellipse class="cls-7" cx="154.8" cy="238.79" rx="5.1" ry="1.93"/><path class="cls-9" d="M47.8,60V78.11A88.72,88.72,0,0,0,58,81.42V56.66A88.72,88.72,0,0,0,47.8,60Z"/><path class="cls-9" d="M251.61,57.08V81a77.9,77.9,0,0,0,10.2-3.54V60.61A77.89,77.89,0,0,0,251.61,57.08Z"/><path class="cls-9" d="M98.75,65V88.19q5,.5,10.2.9V65Z"/><path class="cls-9" d="M200.66,65V89q5.24-.42,10.2-.94V65Z"/><path class="cls-9" d="M149.7,69.39V90.75l4.35,0,5.85,0V69.39Z"/><ellipse class="cls-3" cx="154.05" cy="61.17" rx="116.88" ry="21.73"/><rect class="cls-3" x="37.17" y="46.32" width="233.76" height="14.85"/><ellipse class="cls-4" cx="154.05" cy="46.32" rx="116.88" ry="21.73"/><ellipse class="cls-10" cx="157.6" cy="38.17" rx="20.27" ry="5.69"/><path class="cls-9" d="M157,38.41s13.47,1.35,18.36-3c0,0-6.68-3-11.47-2.68Z"/><path class="cls-10" d="M157,5.88A16.26,16.26,0,1,0,173.3,22.15,16.26,16.26,0,0,0,157,5.88ZM157,29a6.89,6.89,0,1,1,6.89-6.89A6.89,6.89,0,0,1,157,29Z"/><path class="cls-7" d="M47.8,225.09H58V81.42a88.72,88.72,0,0,1-10.2-3.32Z"/><path class="cls-7" d="M251.61,225.09h10.2V77.47A77.9,77.9,0,0,1,251.61,81Z"/><path class="cls-7" d="M98.75,234.45H109V89.09q-5.23-.41-10.2-.9Z"/><path class="cls-7" d="M200.66,234.45h10.2V88q-5,.51-10.2.94Z"/><path class="cls-7" d="M149.7,90.75v148h10.2V90.74l-5.85,0Z"/></g></g></svg>