<svg xmlns="http://www.w3.org/2000/svg" viewBox="0 0 300 300"><defs><style>.cls-1{isolation:isolate;}.cls-12,.cls-2{fill:#662482;}.cls-3{fill:gray;opacity:0.5;}.cls-4{fill:#7e4e24;}.cls-5{fill:#925f36;}.cls-14,.cls-6{fill:#868686;}.cls-6{mix-blend-mode:multiply;}.cls-7{fill:#e5332a;}.cls-8{fill:#7f519b;}.cls-9{fill:#fff7e6;}.cls-10{fill:#f8b133;}.cls-11,.cls-12{fill-rule:evenodd;}.cls-13{fill:#999;}.cls-15{fill:#b1b1b1;}</style></defs><title>Artboard 3</title><g class="cls-1"><g id="Layer_1" data-name="Layer 1"><rect class="cls-2" x="179.11" y="128.38" width="21.6" height="53.1"/><ellipse class="cls-3" cx="156.05" cy="274.18" rx="100.15" ry="18.61"/><ellipse class="cls-4" cx="153.05" cy="240.26" rx="116.88" ry="21.73"/><rect class="cls-4" x="36.17" y="225.41" width="233.76" height="14.85"/><ellipse class="cls-5" cx="153.05" cy="225.41" rx="116.88" ry="21.73"/><path class="cls-6" d="M205.21,202.18c-5.43-6.64-2-16.12,2.28-25.71-20.93-5.12-50.19-13.08-64.16-15.84L134,158.79c-4.32,4.78-18.33,23.26-22.65,28-3.6,4-7,8.15-10.84,12-3.28,3.33-8.08,6-7.54,10.91a15.34,15.34,0,0,0,.38,2.31,5.86,5.86,0,0,0,.71,1.65c1.6,2.51,8,2.57,11.25,3.34l12.14,2.88c9.11,2.16,43.86,13,53,15.19,9.83,2.33,32.71,12.31,40.7,3.75,5.51-5.91,9.54-13.75,14.11-20.29,1-1.5,3.67-4.8,6.65-8.74C221.47,208.78,210.71,208.38,205.21,202.18Z"/><path class="cls-2" d="M163.78,49.51c4.31.44,8,7.24,10.52,10.25,1.55.08,6.5,7.59,7.61,9,2.44,3,5,5.8,7.74,8.6l17.7,18.16-2.11.77c1.81,2.15,3.68,4.25,5.5,6.4,4,4.66,7.67,9.91,12.06,14.1,4.64,4.43,9.5,8.65,14.25,13a5.11,5.11,0,0,1,1.34,1.6,1.74,1.74,0,0,1-.26,2,1.07,1.07,0,0,1-1.71-.37c4.41,4.71,8.32,9.76,12.51,14.69,1.59,1.87,4.38,4.14,5.41,6.38,2.24,4.87-2.62,10.61-5.5,14.09a25,25,0,0,0-4,7.07c-.66,1.6-2.4,8.55-3.84,9.25a1.86,1.86,0,0,1-2.53-1.35l-10.27,20c-.33.64-.73,1.34-1.43,1.52s-1.53-.69-1.05-1.23c-3.36,5.94-6.59,11.87-10.2,17.66-1.31,2.1-2.54,4.3-3.95,6.33a22.12,22.12,0,0,1-3.48,4.3c-1.49,1.25-3.71.91-5,1.82,1.74-3.84-.31-14.35-1.3-18.68l-14.87-65.2L171,79.69C168.69,69.78,167.41,58.93,163.78,49.51Z"/><path class="cls-7" d="M122,78.4c0-3,1.52-6.1,2.37-8.83.54-1.74,3.2-6.89,2-8.51a1.85,1.85,0,0,0-2.17-.58c-1.28.56-1.46,3.38-1.85,4.63L121,69.37c-.38,1.21-.62,4.2-2,3.21s-1.61-3.45-2.18-4.82-1.39-5-3.28-4.83a1.63,1.63,0,0,0-1.4,1.28c-.29,1.4,1.32,3.9,1.85,5.15l2.7,6.35,1.44,3.38c.22.51,1.28,1.83,1.16,2.31-.28,1.09-3,.9-3.78.83l-5.85-.45c-1.68-.13-8.74-1.83-9,.78-.27,2.93,7.65,2.36,9.37,2.49l6.26.48c1.8.14,4.13.27,5.35,1.86,1,1.27,1.46,3.43,2.08,4.9,1.74,4.09,3.24,8.18,4.71,12.38a4.52,4.52,0,0,0,2.15-3.28c.25-2-1.22-4.1-2-5.87l-3.32-7.81a75.88,75.88,0,0,1-3-7A7.62,7.62,0,0,1,122,78.4Z"/><path class="cls-8" d="M61.33,195.25c-1.19-3.78,4-9.44,6.06-12.06a106.33,106.33,0,0,0,10.23-16.73l-2.38.39,13.57-17.29-2.33-1.19a145.87,145.87,0,0,0,25.69-30.13l-2.95-.49a177.59,177.59,0,0,0,27.31-34.08l-2.33-.92,5.57-3.88-2.43-.36c2.69.4,9.84-8.52,11.45-10.43,3.48-4.14,6.27-9,9.4-13.43,1-1.43,2.4-5.48,4.48-5.36,3,.17,5.26,17.08,5.91,19.92,3.86,16.93,8,33.41,13,50.05a41.58,41.58,0,0,0,5.85,20.34l-2.81-.9c.37,2.47.91,4.85,1.47,7.28,1.65,7.22,2.88,14.44,5.11,21.47l7.23,22.82-2-1c.74,11.86,7.15,23.47,7.74,35.87.28,5.91,1.47,9.22-5.4,8.28-3.81-.52-7.37-1.95-11.06-2.92-9.58-2.52-18.81-5.88-28.42-8.36l1.39,2.13c-.76-1.13-6.27-1.9-7.67-2.32l-8.31-2.51c-5.46-1.65-10.89-3.27-16.41-4.57-11.75-2.76-23.39-6.16-35.07-9.23l-19.93-5.25c-2.77-.73-5.65-1.3-8.38-2.17C62.78,197.51,61.72,196.48,61.33,195.25Z"/><circle class="cls-2" cx="139.01" cy="104.99" r="1.27" transform="translate(26.8 238.25) rotate(-86.96)"/><circle class="cls-2" cx="141.3" cy="100.33" r="0.93" transform="translate(33.62 236.12) rotate(-86.96)"/><circle class="cls-2" cx="150.28" cy="104.71" r="1.26" transform="translate(37.75 249.24) rotate(-86.96)"/><circle class="cls-2" cx="167.36" cy="175.87" r="1.27" transform="translate(-74.87 192.14) rotate(-50.26)"/><circle class="cls-2" cx="171.97" cy="173.5" r="0.93" transform="translate(-71.38 194.83) rotate(-50.26)"/><circle class="cls-2" cx="176.56" cy="182.38" r="1.26" transform="translate(-76.56 201.56) rotate(-50.26)"/><circle class="cls-2" cx="101.08" cy="154.16" r="1.87" transform="translate(-58.22 246.93) rotate(-86.96)"/><circle class="cls-2" cx="104.1" cy="162.79" r="1.27" transform="translate(-63.98 258.12) rotate(-86.96)"/><circle class="cls-2" cx="176.25" cy="167.9" r="1.27" transform="translate(-0.75 335) rotate(-86.96)"/><circle class="cls-2" cx="131.46" cy="164.79" r="0.95" transform="matrix(0.05, -1, 1, 0.05, -40.07, 287.33)"/><circle class="cls-2" cx="138.54" cy="169.85" r="0.95" transform="translate(-38.41 299.2) rotate(-86.96)"/><path class="cls-9" d="M175,147.88a10.45,10.45,0,0,0-3.25-4.78,51.34,51.34,0,0,0-13.32-9.31,18.19,18.19,0,0,1-4.24,26.5c6.23-.76,15.31-1.48,19.37-7C175,151.25,175.41,149.5,175,147.88Z"/><path class="cls-9" d="M126.2,141.82a18.18,18.18,0,0,1,8.65-12.41c-7,.44-20.88,1.41-22.55,10.23-1,5.14,2.85,8.25,6.47,11a51.41,51.41,0,0,0,6.17,4.06c1.5.83,4.75,1.57,5.86,2.76A18.19,18.19,0,0,1,126.2,141.82Z"/><path class="cls-10" d="M162.09,148.35a18.19,18.19,0,0,0-3.65-14.56,45.79,45.79,0,0,0-7.21-2.72c1.53,3.21,1.91,9.07.73,15.53-1.14,6.26-3.44,11.47-5.92,14a52,52,0,0,0,8.15-.35A18.17,18.17,0,0,0,162.09,148.35Z"/><path class="cls-10" d="M139.88,160c-1.63-3.15-2.06-9.13-.86-15.75,0-.1,0-.2.06-.3h0a5,5,0,1,1,3-9.39,15.77,15.77,0,0,1,3.27-4.74,50.38,50.38,0,0,0-10.49-.41,18.19,18.19,0,0,0-4,28.08A45.8,45.8,0,0,0,139.88,160Z"/><path d="M146,160.63c2.47-2.56,4.78-7.77,5.92-14,1.18-6.47.8-12.33-.73-15.53a46.12,46.12,0,0,0-5.89-1.25,15.77,15.77,0,0,0-3.27,4.74,5,5,0,0,1-3,9.39c0,.1,0,.2-.06.3-1.2,6.62-.77,12.6.86,15.75"/><path class="cls-9" d="M142.07,134.56a5,5,0,1,0-3,9.39h0a5,5,0,0,0,3-9.39Z"/><path class="cls-9" d="M146.58,144.6a2.79,2.79,0,1,0-1.68,5.28h0a2.79,2.79,0,0,0,1.68-5.28Z"/><path class="cls-2" d="M121.32,123.82a34.39,34.39,0,0,1,12.82-5.5,40.93,40.93,0,0,1,14.15-.62,33.92,33.92,0,0,1,13.57,4.73,26.37,26.37,0,0,1,9.74,10.23.45.45,0,0,1-.6.61h0A84.27,84.27,0,0,0,159.16,128a55.15,55.15,0,0,0-5.89-1.68,58.34,58.34,0,0,0-6-1.12,93,93,0,0,0-12.46-.82c-4.26,0-8.61.11-13.17.26h0a.46.46,0,0,1-.29-.83Z"/><path class="cls-11" d="M130.49,180.68l0-.08c-.29-.93,1.76-3.13,2.49-3.63a5.81,5.81,0,0,1,4.26-.78,6.17,6.17,0,0,1,4,2.12c.69.91,1.49,3.27,1,4.37-.83,1.72-5.22,0-6.54-.28S131.27,181.88,130.49,180.68Z"/><path class="cls-12" d="M138.33,187.77c-1.39.64-1.28,2.17.21,2.45a7.71,7.71,0,0,0,4.58-1.06c1-.54,3.41-2.33,1.59-3.52a2.44,2.44,0,0,0-2.28.23Z"/><path class="cls-7" d="M231.56,96.44a4.69,4.69,0,0,0,1.49-.38,2,2,0,0,0,1.17-2.23,2,2,0,0,0-1.61-1.27c-2.9-.55-6.44-.22-9.43-.38-1.48-.08-5.2.12-5-1.65.14-1.07,2.1-2.67,3-3.23A6.57,6.57,0,0,0,223.65,85c.51-1,.21-2.53-.88-2.87s-2,.49-2.71,1.22-10.4,11.36-11.21,9.9c-.19-.34.26-1,.28-1.33,0-1,.15-2.08.23-3.12l.54-7.43.69-9.49h.14c0-1.4-.59-3.33-2.47-2.88s-1.46,2.78-1.56,4.18l-1.47,20.05a16.18,16.18,0,0,1-3.23,9.45,66.63,66.63,0,0,1-7.05,7.82c-1.26,1.26-6.11,4.27-4,6.38,2.72,2.7,9.45-7,11-8.66l6.39-7c1.73-1.89,3.29-4.72,5.89-5.55,1.93-.61,4.62,0,6.63.1l4.95.27A36.32,36.32,0,0,0,231.56,96.44Z"/><path class="cls-8" d="M193.05,128.38a9.17,9.17,0,0,1-2.72-4.12,7.12,7.12,0,0,0,1.59,1.44A2.41,2.41,0,0,0,194,126a3.6,3.6,0,0,0,1.63-1.83c-.41.75.18,2.72.13,3.6s-.21,1.87-.24,2.82C194.7,129.86,193.84,129.15,193.05,128.38Z"/><path class="cls-8" d="M207.28,130.83c-.73.8-1.68,2.33-2.66,2.31-.7,0-1.46-1-2.2-1.07.33,1.79,2.78,4.41,3.93,5.73a32.07,32.07,0,0,0,.49-3.6C206.94,133.51,206.84,131.31,207.28,130.83Z"/><path class="cls-8" d="M189.17,98.91l.36-5.29-1.31,1.75c-1.41-.88-3.16-2.43-4.73-2.84C184.64,94.92,187.39,97,189.17,98.91Z"/><path class="cls-8" d="M206.06,169l.65-6.7,2.54,1,0-6.6-1.48,4.22-2.84-1.34c-.11,1.7-.1,3.48-.36,5.15a7.61,7.61,0,0,0-1.3-.59C203.18,165.69,205.23,167.79,206.06,169Z"/><path class="cls-8" d="M235.7,160.08l-.66-6.83-2.14,4.4-4.06-1.21c.22,1.09,1.23,1.54,2.15,2A39.08,39.08,0,0,0,235.7,160.08Z"/><path class="cls-2" d="M137.73,185.43l.5-.16a3.75,3.75,0,0,0,2.54-1.94,7.35,7.35,0,0,0-5,.72c-3.29,1.46-6.78,2.31-9.38,4.94a20.74,20.74,0,0,0-5.25,11c-.27,1.5-1.8,12-.21,12.49,2.33.74,3.6-6.29,3.91-7.37a41.34,41.34,0,0,1,4.93-10.88c1-1.53,2-3,3.09-4.49.7-.94,1.44-1.83,2.19-2.71A5.23,5.23,0,0,1,137.73,185.43Z"/><path class="cls-7" d="M117.4,192.05c-2.87,6.06-3.53,12.89-4.16,19.57L111.32,232c-.14,1.45-.23,3,.65,4.2,1.16,1.51,3.6,1.5,5.16.41a8.9,8.9,0,0,0,3-4.75c4-12.43-1-27.13,5.46-38.46,1.76-3.06,4.44-5.75,7.84-6.7a22.14,22.14,0,0,0,4.32-1.17c.86-.44,2.47-2.38,1.87-3.44-.78-1.38-4.37,0-5.76,0,.31-.33.4-.74.9-1-.2-.47-.58-.61-1.09-.81a7.51,7.51,0,0,0-3.58,0,13.61,13.61,0,0,0-5.33,2.79A26.13,26.13,0,0,0,117.4,192.05Z"/><path class="cls-9" d="M116.63,207.48a1.05,1.05,0,0,0-.32-.88.72.72,0,0,0-.93.25,2.1,2.1,0,0,0-.3,1c-.13,1.17-1.8,9.75-.08,9.9S116.67,208.64,116.63,207.48Z"/><path class="cls-9" d="M115.85,203.76c-.66.94.56,2.24,1.45,1.31A1,1,0,1,0,115.85,203.76Z"/><ellipse class="cls-13" cx="51.9" cy="226.09" rx="5.1" ry="1.93"/><ellipse class="cls-13" cx="255.71" cy="226.09" rx="5.1" ry="1.93"/><ellipse class="cls-13" cx="102.85" cy="235.45" rx="5.1" ry="1.93"/><ellipse class="cls-13" cx="204.76" cy="235.45" rx="5.1" ry="1.93"/><ellipse class="cls-13" cx="153.8" cy="239.79" rx="5.1" ry="1.93"/><path class="cls-14" d="M46.8,61V79.11A88.72,88.72,0,0,0,57,82.42V57.66A88.72,88.72,0,0,0,46.8,61Z"/><path class="cls-14" d="M250.61,58.08V82a77.9,77.9,0,0,0,10.2-3.54V61.61A77.89,77.89,0,0,0,250.61,58.08Z"/><path class="cls-14" d="M97.75,66V89.19q5,.5,10.2.9V66Z"/><path class="cls-14" d="M199.66,66V90q5.24-.42,10.2-.94V66Z"/><path class="cls-14" d="M148.7,70.39V91.75l4.35,0,5.85,0V70.39Z"/><ellipse class="cls-4" cx="153.05" cy="62.17" rx="116.88" ry="21.73"/><rect class="cls-4" x="36.17" y="47.32" width="233.76" height="14.85"/><ellipse class="cls-5" cx="153.05" cy="47.32" rx="116.88" ry="21.73"/><ellipse class="cls-15" cx="156.6" cy="39.17" rx="20.27" ry="5.69"/><path class="cls-14" d="M156,39.41s13.47,1.35,18.36-3c0,0-6.68-3-11.47-2.68Z"/><path class="cls-15" d="M156,6.88A16.26,16.26,0,1,0,172.3,23.15,16.26,16.26,0,0,0,156,6.88ZM156,30a6.89,6.89,0,1,1,6.89-6.89A6.89,6.89,0,0,1,156,30Z"/><path class="cls-13" d="M46.8,226.09H57V82.42a88.72,88.72,0,0,1-10.2-3.32Z"/><path class="cls-13" d="M250.61,226.09h10.2V78.47A77.9,77.9,0,0,1,250.61,82Z"/><path class="cls-13" d="M97.75,235.45H108V90.09q-5.23-.41-10.2-.9Z"/><path class="cls-13" d="M199.66,235.45h10.2V89q-5,.51-10.2.94Z"/><path class="cls-13" d="M148.7,91.75v148h10.2V91.74l-5.85,0Z"/></g></g></svg>