<svg xmlns="http://www.w3.org/2000/svg" viewBox="0 0 300 300"><defs><style>.cls-1{isolation:isolate;}.cls-2{fill:#009ee2;}.cls-3{fill:#754c24;}.cls-4{fill:#9c9b9b;mix-blend-mode:multiply;}.cls-5{fill:#a67c52;}.cls-6{fill:#dddb00;}.cls-7{fill:#fff;}.cls-8{fill-rule:evenodd;}.cls-9{fill:#c69c6d;}.cls-10{fill:#d84892;}.cls-11{fill:#ec6e25;}.cls-12{fill:#f39622;}.cls-13{fill:#ffdd0c;}</style></defs><title>Artboard 1</title><g class="cls-1"><g id="Layer_1" data-name="Layer 1"><rect class="cls-2" x="248.43" y="226.91" width="0.33" height="1.3"/><path class="cls-3" d="M130.36,73.73c-1.84-6.25-4.66-14-9.15-18.69a25.85,25.85,0,0,0-9.47-6.38c-29.35,2.15-38,38.1-57.2,55.78l-.73,1.19c3.71,3,2.53,5.14,6.24,8.12C69.89,100,81.87,83.87,89.59,76.2c2.53-2.51,5.75-5.32,9.26-4.71,3.21.56,5,4.35,4.54,7.57s-2.5,6-4.48,8.55c-13,17-24.43,30.3-37.44,47.29-3.92,5.11-7.94,10.44-9.39,16.71-1.69,7.29,1.47,16.07,8.61,19.11C74.43,156.61,85.93,139,97.39,123q8.62-12,16.87-24.36,4.28-6.39,8.45-12.85C123.78,84.1,130.86,75.45,130.36,73.73Z"/><ellipse class="cls-4" cx="148.31" cy="223.3" rx="102.77" ry="22.21"/><path class="cls-3" d="M207.29,127.81h0l-.1-.16q-1.51-2.71-3.26-5.26L178.92,82a32.6,32.6,0,0,0-59.24-.75h0l-30.4,47.09h1.4a66.45,66.45,0,1,0,116.61-.51Z"/><path class="cls-3" d="M75.92,211l.22-.14c-7.39-1.22-9.44-11.8-11.36-17.08s11.88-18.24,11.88-18.24L76,146.81s-26.35,30.95-28.63,39.11,3.09,32.64,3.09,32.64c0,1.5,1.22,2.9,3.31,4.08H90c2.09-1.18,3.31-2.58,3.31-4.08C93.36,214.81,85.85,211.7,75.92,211Z"/><path class="cls-3" d="M221.53,211l-.22-.14c7.39-1.22,9.44-11.8,11.36-17.08s-11.88-18.24-11.88-18.24l.66-28.77s26.35,30.95,28.63,39.11S247,218.55,247,218.55c0,1.5-1.22,2.9-3.31,4.08H207.4c-2.09-1.18-3.31-2.58-3.31-4.08C204.1,214.81,211.6,211.7,221.53,211Z"/><path class="cls-5" d="M191.48,213.55l-.36-.22c11.82-2,15.09-18.87,18.17-27.31s-19-29.17-19-29.17l17.59-28.53s25.59,32,29.23,45.07-4.94,52.18-4.94,52.18c0,2.4-1.94,4.63-5.29,6.52h-58c-3.35-1.89-5.29-4.12-5.29-6.52C163.6,219.59,175.61,214.63,191.48,213.55Z"/><path class="cls-3" d="M204.33,174.11s-12.86-17,3.56-45.79l-23.13,28.53Z"/><path class="cls-5" d="M191.48,188.46c0,15.66-18.81,28.35-42,28.35s-42-12.69-42-28.35,32.13-37.16,55.33-37.16S191.48,172.81,191.48,188.46Z"/><path class="cls-5" d="M106.27,213.55l.36-.22c-11.82-2-15.09-18.87-18.17-27.31s19-29.17,19-29.17L89.86,128.32s-25.59,32-29.23,45.07,4.94,52.18,4.94,52.18c0,2.4,1.94,4.63,5.29,6.52h58c3.35-1.89,5.29-4.12,5.29-6.52C134.14,219.59,122.13,214.63,106.27,213.55Z"/><path class="cls-3" d="M129.07,176.65s39.15,8.56,59.12-8.56C188.2,168.09,171.46,194.18,129.07,176.65Z"/><path class="cls-3" d="M104.5,171.79s33.5,22,58.28,13.13C162.78,184.93,137.83,203.31,104.5,171.79Z"/><path class="cls-3" d="M139.55,200.39s39.56,6.38,58.55-11.83C198.1,188.56,182.84,215.54,139.55,200.39Z"/><path class="cls-3" d="M114.77,146.39s32,24.18,57.27,17C172,163.39,145.91,180.06,114.77,146.39Z"/><path class="cls-6" d="M128.73,228.21c0,2.81-2.28,8.9-5.08,8.9s-5.08-6.09-5.08-8.9a5.08,5.08,0,1,1,10.17,0Z"/><path class="cls-6" d="M114.24,228.21c0,2.81-2.28,8.9-5.08,8.9s-5.08-6.09-5.08-8.9a5.08,5.08,0,1,1,10.17,0Z"/><path class="cls-6" d="M99.76,228.21c0,2.81-2.28,8.9-5.08,8.9s-5.08-6.09-5.08-8.9a5.08,5.08,0,1,1,10.17,0Z"/><path class="cls-6" d="M85.27,228.21c0,2.81-2.28,8.9-5.08,8.9s-5.08-6.09-5.08-8.9a5.08,5.08,0,1,1,10.17,0Z"/><path class="cls-6" d="M223.9,228.21c0,2.81-2.28,8.9-5.08,8.9s-5.08-6.09-5.08-8.9a5.08,5.08,0,0,1,10.17,0Z"/><path class="cls-6" d="M209.41,228.21c0,2.81-2.28,8.9-5.08,8.9s-5.08-6.09-5.08-8.9a5.08,5.08,0,1,1,10.17,0Z"/><path class="cls-6" d="M194.93,228.21c0,2.81-2.28,8.9-5.08,8.9s-5.08-6.09-5.08-8.9a5.08,5.08,0,1,1,10.17,0Z"/><path class="cls-6" d="M180.44,228.21c0,2.81-2.28,8.9-5.08,8.9s-5.08-6.09-5.08-8.9a5.08,5.08,0,1,1,10.17,0Z"/><path class="cls-5" d="M223.71,92.61s3.67-6.45,17.33-5.86c0,0-.8,20.24-16.8,18.26Z"/><path class="cls-3" d="M236.15,91.95s-7.33,1.13-9.65,6.42C226.5,98.37,231.26,97.15,236.15,91.95Z"/><path class="cls-3" d="M159.08,52.56l14.13-13.87a1.85,1.85,0,0,1,3.06.76l4.17,13.11Z"/><path class="cls-3" d="M144.17,56.77l6.56-10.33a1.85,1.85,0,0,1,2.81-.37l11.69,10.71Z"/><path class="cls-5" d="M120.61,87.7c2.18-12.26,8.53-25,21.11-30.94,8.49-4,18.57-4.47,28.26-4.81,11.25-.4,23-.72,33.24,3.31,26.71,10.47,27.26,42,26.44,64-.47,12.5-19.56,12.4-30.38,13.74a164.56,164.56,0,0,1-29.93.95,162,162,0,0,1-29.49-4.48c-6.6-1.64-20.16-3.59-21.75-10-1.09-4.39.74-11,1-15.55A128.56,128.56,0,0,1,120.61,87.7Z"/><polygon class="cls-7" points="138.93 119.47 132.59 125.01 126.19 119.55 132.52 107.96 138.93 119.47"/><polygon class="cls-7" points="238.64 119.47 232.3 125.01 225.9 119.55 232.23 107.96 238.64 119.47"/><polygon class="cls-7" points="164.41 119.3 158.08 124.84 151.67 119.38 158.01 113.84 164.41 119.3"/><polygon class="cls-7" points="177.16 119.22 170.82 124.76 164.41 119.3 170.75 113.76 177.16 119.22"/><polygon class="cls-7" points="189.9 119.14 183.56 124.68 177.16 119.22 183.49 113.68 189.9 119.14"/><polygon class="cls-7" points="202.64 119.05 196.31 124.59 189.9 119.14 196.24 113.59 202.64 119.05"/><polygon class="cls-7" points="215.38 118.97 209.05 124.51 202.64 119.05 208.98 113.51 215.38 118.97"/><polygon class="cls-7" points="226.82 118.89 220.49 124.43 214.08 118.97 220.42 113.43 226.82 118.89"/><path class="cls-5" d="M140.61,133.82a189.14,189.14,0,0,0,78,1.21c5.34-1,10.71-2.36,15.28-5s8.29-6.66,8.93-11.36l-67-.32c-5.69,0-57.25,2.13-57.3,1.85C119.9,127.68,133.36,132.26,140.61,133.82Z"/><path class="cls-5" d="M127,92.61s-3.67-6.45-17.33-5.86c0,0,.8,20.24,16.8,18.26Z"/><path class="cls-3" d="M114.51,91.95s7.33,1.13,9.65,6.42C124.16,98.37,119.41,97.15,114.51,91.95Z"/><path class="cls-8" d="M199.69,102.67c-.1-.64-.67-1.07-2-1.08s-1.87.5-2,1.08v4.07h0c.1.76.64,1.22,2,1.22s1.92-.47,2-1.22v-4.07Z"/><path class="cls-8" d="M177.14,102.67c-.1-.64-.67-1.07-2-1.08s-1.87.5-2,1.08v4.07h0c.1.76.64,1.22,2,1.22s1.92-.47,2-1.22v-4.07Z"/><path class="cls-5" d="M107.45,156.85s8.46-13.89,0-28.74-17.59.2-17.59.2Z"/><ellipse class="cls-9" cx="153.61" cy="105.88" rx="11.62" ry="5.92"/><ellipse class="cls-9" cx="95.54" cy="132.51" rx="8.47" ry="3.11" transform="translate(-65.72 106.37) rotate(-45)"/><ellipse class="cls-9" cx="216.34" cy="105.88" rx="10.17" ry="5.92"/><path class="cls-5" d="M53,89.51,42.07,131l1.2-.87c5.75-11.53,7.79-23.8,12.67-35.5Z"/><path class="cls-3" d="M61.36,103.9l-5.41-9.32c-4.89,11.7-6.93,24-12.67,35.5l33.46-24.21Z"/><path class="cls-3" d="M115.33,213.7S91,210.19,75.92,216Z"/><path class="cls-3" d="M183.47,213.7s24.32-3.51,39.41,2.3Z"/><path class="cls-3" d="M151.67,119.38a41.76,41.76,0,0,0-12.74,19.83l-6.37-7.14Z"/><path class="cls-10" d="M118.75,150.4s9.5-29.21,19.37-31.75l15.18-.54S136.31,129.08,118.75,150.4Z"/><path class="cls-3" d="M188.2,82.72s8.12-26,8.7-40.09a2.11,2.11,0,0,0-.68-1.86,1.85,1.85,0,0,0-2-.18L172,51.88S185.64,52.56,188.2,82.72Z"/><path class="cls-6" d="M135,70.25s-9.14-14.94-7.18-32.76c0,0,15.9,19.57,22.17,24.31C149.94,61.8,149.4,69.12,135,70.25Z"/><path class="cls-6" d="M221.7,71.07S230,57.45,228.25,41.2c0,0-14.49,17.84-20.21,22.16C208,63.37,208.54,70,221.7,71.07Z"/><path class="cls-11" d="M195.79,149.29c5,4.48,14.79,4.57,18.18,3.54,0,0-3.2-1.36-3.73-4.09,0,0,14.23,9.85,29.12-6.11C228,143,229.18,134.5,223,129.81c-1.87-1.42-4-2.48-3.6-5.2.3-2.11,3.64-2.63,5.32-1.47-1.37-4.65-9.27-5.47-9.28-5.47,1.31.14,1.95-5.42,1.88-6,.26,2.25-9.53,1-10.8.73-6.38-1.2-12.18-.71-17.2,4.15-8.37,8.12-6.13,21.64-.51,30.65.61,1,3.31,3.25,3.43,4.19C192.26,151.38,191.55,145.5,195.79,149.29Z"/><path class="cls-12" d="M204.46,144.45s-3.25-1.87-3-4.9c0,0,11.61,9,22.22-.45-7.45-.37-5.8-14-17-17.68,0,0,1.1-1,7.14-.57C183.93,100,175.46,148.16,204.46,144.45Z"/><path class="cls-13" d="M193.79,134.38c4.15,3.65,10.49,2.95,10.49,2.95s-3-1.24-4-2.43-.11-3.61,3.16-.52,8.72,5.43,12.81,2.87a6.84,6.84,0,0,1-5.79-3.93c-2.19-4-3.82-8.39-7.1-10.47C192.44,115.89,185.23,126.84,193.79,134.38Z"/><path class="cls-3" d="M161.48,97.48s24.58,13.74,49.16,0Z"/><path class="cls-3" d="M169.47,88.48s16.58,9.27,33.17,0Z"/><path class="cls-5" d="M142,165.3s-14.31-5.87-19.69-11.62a28.38,28.38,0,0,0,11.83,11.62Z"/><path class="cls-5" d="M111.74,48.67a20.29,20.29,0,0,0-7.84-1.37c-9,.29-17.19,7.7-22.56,14.87-9.12,12.19-13.27,20.27-26.79,42.28C73.74,86.77,82.39,50.82,111.74,48.67Z"/><path class="cls-5" d="M56.72,156.58c1.11-.18,1.61-1.45,1.93-2.53,2.34-7.8,6.72-14.14,10.05-21.37a46.65,46.65,0,0,0-12.54,16.74C55.53,150.93,52.91,157.2,56.72,156.58Z"/></g></g></svg>