<svg xmlns="http://www.w3.org/2000/svg" viewBox="0 0 300 300"><defs><style>.cls-1{isolation:isolate;}.cls-2{fill:#009ee2;}.cls-3{fill:#025c2b;}.cls-4{fill:#ccc;mix-blend-mode:multiply;}.cls-5{fill:#39a935;}.cls-6{fill:#dddb00;}.cls-7{fill:#fff;}.cls-8{fill-rule:evenodd;}.cls-9{fill:#93c01f;}.cls-10{fill:#d84892;}.cls-11{fill:#ec6e25;}.cls-12{fill:#f39622;}.cls-13{fill:#ffdd0c;}</style></defs><title>Artboard 4</title><g class="cls-1"><g id="Layer_1" data-name="Layer 1"><rect class="cls-2" x="248.43" y="227.58" width="0.33" height="1.3"/><path class="cls-3" d="M130.36,74.4c-1.84-6.25-4.66-14-9.15-18.69a25.85,25.85,0,0,0-9.47-6.38c-29.35,2.15-38,38.1-57.2,55.78l-.73,1.19c3.71,3,2.53,5.14,6.24,8.12,9.84-13.75,21.82-29.88,29.54-37.55,2.53-2.51,5.75-5.32,9.26-4.71,3.21.56,5,4.35,4.54,7.57s-2.5,6-4.48,8.55c-13,17-24.43,30.3-37.44,47.29-3.92,5.11-7.94,10.44-9.39,16.71-1.69,7.29,1.47,16.07,8.61,19.11,13.75-14.12,25.25-31.75,36.72-47.77q8.62-12,16.87-24.36,4.28-6.39,8.45-12.85C123.78,84.77,130.86,76.12,130.36,74.4Z"/><ellipse class="cls-4" cx="148.31" cy="223.97" rx="102.77" ry="22.21"/><path class="cls-3" d="M207.29,128.48h0l-.1-.16q-1.51-2.71-3.26-5.26l-25-40.39a32.6,32.6,0,0,0-59.24-.75h0L89.27,129h1.4a66.45,66.45,0,1,0,116.61-.51Z"/><path class="cls-3" d="M75.92,211.7l.22-.14c-7.39-1.22-9.44-11.8-11.36-17.08s11.88-18.24,11.88-18.24L76,147.47s-26.35,30.95-28.63,39.11,3.09,32.64,3.09,32.64c0,1.5,1.22,2.9,3.31,4.08H90c2.09-1.18,3.31-2.58,3.31-4.08C93.36,215.48,85.85,212.37,75.92,211.7Z"/><path class="cls-3" d="M221.53,211.7l-.22-.14c7.39-1.22,9.44-11.8,11.36-17.08s-11.88-18.24-11.88-18.24l.66-28.77s26.35,30.95,28.63,39.11S247,219.21,247,219.21c0,1.5-1.22,2.9-3.31,4.08H207.4c-2.09-1.18-3.31-2.58-3.31-4.08C204.1,215.48,211.6,212.37,221.53,211.7Z"/><path class="cls-5" d="M191.48,214.22l-.36-.22c11.82-2,15.09-18.87,18.17-27.31s-19-29.17-19-29.17L207.88,129s25.59,32,29.23,45.07-4.94,52.18-4.94,52.18c0,2.4-1.94,4.63-5.29,6.52h-58c-3.35-1.89-5.29-4.12-5.29-6.52C163.6,220.26,175.61,215.29,191.48,214.22Z"/><path class="cls-3" d="M204.33,174.78s-12.86-17,3.56-45.79l-23.13,28.53Z"/><path class="cls-5" d="M191.48,189.13c0,15.66-18.81,28.35-42,28.35s-42-12.69-42-28.35S139.58,152,162.78,152,191.48,173.47,191.48,189.13Z"/><path class="cls-5" d="M106.27,214.22l.36-.22c-11.82-2-15.09-18.87-18.17-27.31s19-29.17,19-29.17L89.86,129s-25.59,32-29.23,45.07,4.94,52.18,4.94,52.18c0,2.4,1.94,4.63,5.29,6.52h58c3.35-1.89,5.29-4.12,5.29-6.52C134.14,220.26,122.13,215.29,106.27,214.22Z"/><path class="cls-3" d="M129.07,177.31s39.15,8.56,59.12-8.56C188.2,168.75,171.46,194.84,129.07,177.31Z"/><path class="cls-3" d="M104.5,172.46s33.5,22,58.28,13.13C162.78,185.59,137.83,204,104.5,172.46Z"/><path class="cls-3" d="M139.55,201.05s39.56,6.38,58.55-11.83C198.1,189.23,182.84,216.21,139.55,201.05Z"/><path class="cls-3" d="M114.77,147.05s32,24.18,57.27,17C172,164.05,145.91,180.73,114.77,147.05Z"/><path class="cls-6" d="M128.73,228.87c0,2.81-2.28,8.9-5.08,8.9s-5.08-6.09-5.08-8.9a5.08,5.08,0,0,1,10.17,0Z"/><path class="cls-6" d="M114.24,228.87c0,2.81-2.28,8.9-5.08,8.9s-5.08-6.09-5.08-8.9a5.08,5.08,0,0,1,10.17,0Z"/><path class="cls-6" d="M99.76,228.87c0,2.81-2.28,8.9-5.08,8.9s-5.08-6.09-5.08-8.9a5.08,5.08,0,0,1,10.17,0Z"/><path class="cls-6" d="M85.27,228.87c0,2.81-2.28,8.9-5.08,8.9s-5.08-6.09-5.08-8.9a5.08,5.08,0,0,1,10.17,0Z"/><path class="cls-6" d="M223.9,228.87c0,2.81-2.28,8.9-5.08,8.9s-5.08-6.09-5.08-8.9a5.08,5.08,0,0,1,10.17,0Z"/><path class="cls-6" d="M209.41,228.87c0,2.81-2.28,8.9-5.08,8.9s-5.08-6.09-5.08-8.9a5.08,5.08,0,0,1,10.17,0Z"/><path class="cls-6" d="M194.93,228.87c0,2.81-2.28,8.9-5.08,8.9s-5.08-6.09-5.08-8.9a5.08,5.08,0,0,1,10.17,0Z"/><path class="cls-6" d="M180.44,228.87c0,2.81-2.28,8.9-5.08,8.9s-5.08-6.09-5.08-8.9a5.08,5.08,0,0,1,10.17,0Z"/><path class="cls-5" d="M223.71,93.27s3.67-6.45,17.33-5.86c0,0-.8,20.24-16.8,18.26Z"/><path class="cls-3" d="M236.15,92.61s-7.33,1.13-9.65,6.42C226.5,99,231.26,97.81,236.15,92.61Z"/><path class="cls-3" d="M159.08,53.22l14.13-13.87a1.85,1.85,0,0,1,3.06.76l4.17,13.11Z"/><path class="cls-3" d="M144.17,57.43l6.56-10.33a1.85,1.85,0,0,1,2.81-.37l11.69,10.71Z"/><path class="cls-5" d="M120.61,88.37c2.18-12.26,8.53-25,21.11-30.94,8.49-4,18.57-4.47,28.26-4.81,11.25-.4,23-.72,33.24,3.31,26.71,10.47,27.26,42,26.44,64-.47,12.5-19.56,12.4-30.38,13.74a164.56,164.56,0,0,1-29.93.95,162,162,0,0,1-29.49-4.48c-6.6-1.64-20.16-3.59-21.75-10-1.09-4.39.74-11,1-15.55A128.56,128.56,0,0,1,120.61,88.37Z"/><polygon class="cls-7" points="138.93 120.13 132.59 125.67 126.19 120.22 132.52 108.63 138.93 120.13"/><polygon class="cls-7" points="238.64 120.13 232.3 125.67 225.9 120.22 232.23 108.63 238.64 120.13"/><polygon class="cls-7" points="164.41 119.97 158.08 125.51 151.67 120.05 158.01 114.51 164.41 119.97"/><polygon class="cls-7" points="177.16 119.89 170.82 125.43 164.41 119.97 170.75 114.43 177.16 119.89"/><polygon class="cls-7" points="189.9 119.8 183.56 125.34 177.16 119.89 183.49 114.34 189.9 119.8"/><polygon class="cls-7" points="202.64 119.72 196.31 125.26 189.9 119.8 196.24 114.26 202.64 119.72"/><polygon class="cls-7" points="215.38 119.64 209.05 125.18 202.64 119.72 208.98 114.18 215.38 119.64"/><polygon class="cls-7" points="226.82 119.55 220.49 125.09 214.08 119.64 220.42 114.09 226.82 119.55"/><path class="cls-5" d="M140.61,134.49a189.14,189.14,0,0,0,78,1.21c5.34-1,10.71-2.36,15.28-5s8.29-6.66,8.93-11.36l-67-.32c-5.69,0-57.25,2.13-57.3,1.85C119.9,128.34,133.36,132.92,140.61,134.49Z"/><path class="cls-5" d="M127,93.27s-3.67-6.45-17.33-5.86c0,0,.8,20.24,16.8,18.26Z"/><path class="cls-3" d="M114.51,92.61s7.33,1.13,9.65,6.42C124.16,99,119.41,97.81,114.51,92.61Z"/><path class="cls-8" d="M199.69,103.33c-.1-.64-.67-1.07-2-1.08s-1.87.5-2,1.08v4.07h0c.1.76.64,1.22,2,1.22s1.92-.47,2-1.22v-4.07Z"/><path class="cls-8" d="M177.14,103.33c-.1-.64-.67-1.07-2-1.08s-1.87.5-2,1.08v4.07h0c.1.76.64,1.22,2,1.22s1.92-.47,2-1.22v-4.07Z"/><path class="cls-5" d="M107.45,157.52s8.46-13.89,0-28.74-17.59.2-17.59.2Z"/><ellipse class="cls-9" cx="153.61" cy="106.54" rx="11.62" ry="5.92"/><ellipse class="cls-9" cx="95.54" cy="133.18" rx="8.47" ry="3.11" transform="translate(-66.19 106.57) rotate(-45)"/><ellipse class="cls-9" cx="216.34" cy="106.54" rx="10.17" ry="5.92"/><path class="cls-5" d="M53,90.17,42.07,131.62l1.2-.87C49,119.22,51.06,107,55.95,95.25Z"/><path class="cls-3" d="M61.36,104.57l-5.41-9.32c-4.89,11.7-6.93,24-12.67,35.5l33.46-24.21Z"/><path class="cls-3" d="M115.33,214.36s-24.32-3.51-39.41,2.3Z"/><path class="cls-3" d="M183.47,214.36s24.32-3.51,39.41,2.3Z"/><path class="cls-3" d="M151.67,120.05a41.76,41.76,0,0,0-12.74,19.83l-6.37-7.14Z"/><path class="cls-10" d="M118.75,151.07s9.5-29.21,19.37-31.75l15.18-.54S136.31,129.74,118.75,151.07Z"/><path class="cls-3" d="M188.2,83.39s8.12-26,8.7-40.09a2.11,2.11,0,0,0-.68-1.86,1.85,1.85,0,0,0-2-.18L172,52.55S185.64,53.22,188.2,83.39Z"/><path class="cls-6" d="M135,70.92S125.82,56,127.77,38.16c0,0,15.9,19.57,22.17,24.31C149.94,62.47,149.4,69.78,135,70.92Z"/><path class="cls-6" d="M221.7,71.73s8.33-13.62,6.55-29.86c0,0-14.49,17.84-20.21,22.16C208,64,208.54,70.7,221.7,71.73Z"/><path class="cls-11" d="M195.79,150c5,4.48,14.79,4.57,18.18,3.54,0,0-3.2-1.36-3.73-4.09,0,0,14.23,9.85,29.12-6.11-11.37.41-10.18-8.13-16.34-12.82-1.87-1.42-4-2.48-3.6-5.2.3-2.11,3.64-2.63,5.32-1.47-1.37-4.65-9.27-5.47-9.28-5.47,1.31.14,1.95-5.42,1.88-6,.26,2.25-9.53,1-10.8.73-6.38-1.2-12.18-.71-17.2,4.15-8.37,8.12-6.13,21.64-.51,30.65.61,1,3.31,3.25,3.43,4.19C192.26,152,191.55,146.17,195.79,150Z"/><path class="cls-12" d="M204.46,145.12s-3.25-1.87-3-4.9c0,0,11.61,9,22.22-.45-7.45-.37-5.8-14-17-17.68,0,0,1.1-1,7.14-.57C183.93,100.69,175.46,148.83,204.46,145.12Z"/><path class="cls-13" d="M193.79,135c4.15,3.65,10.49,2.95,10.49,2.95s-3-1.24-4-2.43-.11-3.61,3.16-.52,8.72,5.43,12.81,2.87a6.84,6.84,0,0,1-5.79-3.93c-2.19-4-3.82-8.39-7.1-10.47C192.44,116.55,185.23,127.51,193.79,135Z"/><path class="cls-3" d="M161.48,98.15s24.58,13.74,49.16,0Z"/><path class="cls-3" d="M169.47,89.15s16.58,9.27,33.17,0Z"/><path class="cls-5" d="M142,166s-14.31-5.87-19.69-11.62A28.38,28.38,0,0,0,134.14,166Z"/><path class="cls-5" d="M111.74,49.34A20.29,20.29,0,0,0,103.9,48c-9,.29-17.19,7.7-22.56,14.87C72.22,75,68.07,83.11,54.54,105.12,73.74,87.44,82.39,51.49,111.74,49.34Z"/><path class="cls-5" d="M56.72,157.25c1.11-.18,1.61-1.45,1.93-2.53,2.34-7.8,6.72-14.14,10.05-21.37a46.65,46.65,0,0,0-12.54,16.74C55.53,151.6,52.91,157.87,56.72,157.25Z"/></g></g></svg>