<svg xmlns="http://www.w3.org/2000/svg" viewBox="0 0 300 300"><defs><style>.cls-1{isolation:isolate;}.cls-2{fill:#164193;}.cls-3{fill:#868686;mix-blend-mode:multiply;}.cls-4{fill:#1d70b7;}.cls-5{fill:#009ee2;}.cls-6{fill:#fff;}.cls-7{fill:#04baee;}</style></defs><title>Artboard 12</title><g class="cls-1"><g id="Layer_1" data-name="Layer 1"><circle class="cls-2" cx="149.56" cy="150.56" r="147.1"/><ellipse class="cls-3" cx="153.57" cy="251.29" rx="60.61" ry="16.14"/><path class="cls-4" d="M128.31,222.47c5.21-.18,8.49-5.53,13.41-7.14,3.53-1.16,7.69-.31,10.93-2.08,5.66-3.08,5.38-12.29,11.54-14.34,4.39-1.45,8.88,1.91,11.68,5.41s5.43,7.69,9.91,8.87c4.78,1.26,9.91-1.64,12.53-5.6s3.32-8.75,3.95-13.38c.21-1.57-20.17-4.22-22.16-4.39a105.42,105.42,0,0,0-24,.76,103.62,103.62,0,0,0-22.67,6C130,197.9,114,207.07,111,203.43a67.8,67.8,0,0,1,8.74,12.49C121.44,219.26,123.79,222.63,128.31,222.47Z"/><path class="cls-5" d="M96.14,81c-3.1,11.8-3.38,24.09-3.07,36.24a387.16,387.16,0,0,0,11.3,83.32c1.05,4.24,3,9.23,7.51,10.1s9.3-3.33,13.9-2.14c4.4,1.14,5.78,6.29,6.16,10.57s1.08,9.36,5.17,11.27c4.72,2.2,10.36-1.91,12.06-6.61s1-9.84,2-14.72,4.68-10.06,10-9.93c4.67.11,8.06,4.38,9.35,8.6s1.24,8.77,2.91,12.87,6,7.85,10.57,6.83c5.18-1.17,6.87-7.32,6.72-12.33s-.91-10.66,2.58-14.45c2.87-3.12,7.73-3.87,11.07-6.54,4.42-3.53,5.27-9.53,5.76-15q2.74-30.29,3-60.72c.15-15.62-.31-31.77-7.24-46-7.76-15.91-23.7-28.08-41.87-32a66.93,66.93,0,0,0-46.85,7.75C105.82,54.82,99.2,69.33,96.14,81Z"/><path class="cls-5" d="M85.94,139c-2,2.8-4,5.87-3.76,9.21.32,4.52,5.2,8.06,10,7.91a13.28,13.28,0,0,0,11.14-7.56c2-4.13,1.91-8.94.66-13.32-1-3.59-2-20.7-4.44-16.8C95.68,124.75,88.3,135.59,85.94,139Z"/><path class="cls-5" d="M148.56,246c-.55,2.89-.77,6,.39,8.7s4.05,4.86,6.95,4.31a6.74,6.74,0,0,0,4.84-4.87,15.81,15.81,0,0,0,0-7.16c-.5-2.91-2.12-13.68-5.79-13.7C151,233.22,149.07,243.31,148.56,246Z"/><path class="cls-5" d="M161.2,208.4a22.84,22.84,0,0,0-3.11,5.6,7.71,7.71,0,0,0,.36,6.23,4.71,4.71,0,0,0,5.47,2.23,4.9,4.9,0,0,0,2.84-3.79,10.24,10.24,0,0,0-.56-4.87,23.23,23.23,0,0,0-4.07-7.5l-1.68,3.17"/><path class="cls-5" d="M109.32,218.16a5.49,5.49,0,0,0-2.16,7.51,5.76,5.76,0,0,0,7.67,2.23,5.51,5.51,0,0,0-3.35-10.35A5.75,5.75,0,0,0,109.32,218.16Z"/><path class="cls-5" d="M195.63,223.13c-.42,2.67-.55,6,1.75,7.41a4.41,4.41,0,0,0,5.38-1.12,8.21,8.21,0,0,0,1.73-5.57c0-4.4-2.52-10.23-6.79-12C196.22,215.07,196.18,219.59,195.63,223.13Z"/><path class="cls-6" d="M131.32,51.48c0-.44-.45-.79-.92-.85a3.09,3.09,0,0,0-1.37.24c-6.11,2.09-11.2,3.49-15.7,8.06-2,2-8,8.79-6.74,12,2.14,5.17,7.52-3.55,8.92-5.36a49,49,0,0,1,14.9-13C130.84,52.25,131.31,51.94,131.32,51.48Z"/><path class="cls-6" d="M101.52,79.33C99.7,80.76,99,84,100.7,85.51c4.34,4,9.38-5.88,3.31-6.86A3.14,3.14,0,0,0,101.52,79.33Z"/><path class="cls-6" d="M108.75,191.77c.21,1.3.76,2.92,2.15,3A2.15,2.15,0,0,0,113,193.3a5.61,5.61,0,0,0,0-2.62l-2.07-14.74a13.68,13.68,0,0,0-1.24-4.7c-.6-1.11-3.34-3.92-4.95-2.73-1.41,1,.49,3.49.83,4.73C107.21,179.24,107.76,185.64,108.75,191.77Z"/><path class="cls-7" d="M141.58,156.54c2.8,1.48,3,5.12,2.83,8.14s-.27,6.58,2.3,8.38c1.61,1.13,3.78,1.17,5.73,1.61s4.08,1.72,4,3.61c0,2.12-2.74,3.27-5,3.29-5.09,0-10-3.38-11.4-8-1-3.15-.56-6.88-2.89-9.32-1.57-1.65-4-2.26-5.94-3.56a11.27,11.27,0,0,1-4.47-7.94,27.72,27.72,0,0,1,.79-10.1c.32,2.66.33,5.62,1.45,8.13C131.8,157,136.58,153.89,141.58,156.54Z"/><path class="cls-7" d="M185.29,153.67c-.07,2.43-.63,5.48-3.14,6.07a4.18,4.18,0,0,1-4.17-1.89,10.77,10.77,0,0,1-1.42-4.42c-.38,2.39-.76,4.86-.06,7.19s2.77,4.47,5.34,4.54,4.9-2.09,5.66-4.48.38-5,0-7.42c-.48-3.1-.63-6.56-1.7-9.49C185,146.78,185.37,150.5,185.29,153.67Z"/><path class="cls-7" d="M162.94,69.74c1.77.74,2.64,2.66,2.91,4.47s.13,3.68.68,5.43c1.24,4,6.4,6.43,10.54,5s6.38-6.44,4.58-10.23a11.17,11.17,0,0,1-2,4.73,5.15,5.15,0,0,1-4.75,1.95c-2.78-.54-3.95-3.67-4.2-6.33s-.21-5.65-2.22-7.54c-3.1-2.92-7.93-1.26-11.53-2.78-3-1.25-7.49-6.33-5-9.48-2.89,3.68-3.22,11,1.16,14C156.29,71.11,159.65,68.37,162.94,69.74Z"/><path class="cls-4" d="M122.77,229.85a20.15,20.15,0,0,0-3.56,7.42c-.5,2.71.84,6,3.52,6.59a5,5,0,0,0,5.43-3.09,8.22,8.22,0,0,0-.41-6.57c-1-2.11-2.66-3.95-3.87-6Z"/><path class="cls-4" d="M180.1,246.46c2.64-3.74-.65-9.14-5.16-8.76-3.84.32-6.25,5.28-4.2,8.53S178,249.46,180.1,246.46Z"/><path class="cls-4" d="M203.6,152.92a13.35,13.35,0,0,0,.27,9.69,14.49,14.49,0,0,0,6.9,7.2c.1-3.45,1.54-6.92,1.64-10.37C209.87,157.18,206.14,155.17,203.6,152.92Z"/><path class="cls-5" d="M221.58,147c2,2.8,4,5.87,3.76,9.21-.32,4.52-5.2,8.06-10,7.91a13.28,13.28,0,0,1-11.14-7.56c-2-4.13-1.91-8.94-.66-13.32,1-3.59,2-20.7,4.44-16.8C211.84,132.79,219.22,143.62,221.58,147Z"/><path d="M130.38,91.57a3.58,3.58,0,0,0-1.7-.4A2.86,2.86,0,0,0,125.6,94v10.79h0c.16,2,1,3.22,3.11,3.23s3-1.25,3.07-3.23V94h0A2.89,2.89,0,0,0,130.38,91.57Z"/><path d="M150.13,91.47a3.58,3.58,0,0,0-1.7-.4,2.86,2.86,0,0,0-3.09,2.86v10.79h0c.16,2,1,3.22,3.11,3.23s3-1.25,3.07-3.23V93.93h0A2.89,2.89,0,0,0,150.13,91.47Z"/></g></g></svg>