<svg id="Layer_1" data-name="Layer 1" xmlns="http://www.w3.org/2000/svg" viewBox="0 0 300 300"><defs><style>.cls-1,.cls-8{fill:#764895;}.cls-2{fill:#662482;}.cls-3,.cls-7,.cls-8{fill-rule:evenodd;}.cls-4{fill:#5cb032;}.cls-5{fill:#fff7e6;}.cls-6,.cls-7{fill:#f8b133;}</style></defs><title>Artboard 11</title><circle class="cls-1" cx="150.75" cy="150.61" r="147.1"/><ellipse class="cls-2" cx="159.85" cy="226.81" rx="79.43" ry="15.94"/><path class="cls-3" d="M216.89,141.75c1.12.48,4.28-.1,5.26-.51-4-2.85-5.17-6.39-7.1-10.76l3.31.57c-1.27,0-5-10.07-5.32-11.65l2.79.54-5.86-8,4.52.81a46,46,0,0,0-13-12.71l4.92-.5c-.11,0-2.26-2.9-2.58-3.2a15,15,0,0,0-3.74-2.55c-2.25-1.08-8.3-2.14-8.39-5.3a2.83,2.83,0,0,1,1.5-2.54c-4.08.89-9.41,1.34-13.44-.08-3.62-1.28-7.38-3.67-10.83-5.48-5.3-2.79-11.2-6.38-17.39-6.25,1.26.88,4,4.35,3.62,5.9a25.41,25.41,0,0,0-15.48-4.64c1.44,1.4,3.3,2.77,4.23,4.59-3.37-.3-6.57-3.19-9.92-3.54.86,1.6,2.51,3,3.16,4.66-1.91.28-4,.27-6,.56a13.63,13.63,0,0,1-4.8-.3c1.22.69,2.41,1.42,3.63,2.1-2.13.07-4.49,2.79-5.72,4.17-1.8,2-5.21,4.71-5.94,7.36,1.53.05,2.86-1,4.26-1.12-.82,2.66-2.45,5.09-3.41,7.67s-2.28,5.18-4.79,6.51c1.66,1,3,.13,4.79.39-1.88,1.17-1.4,5.95-1.9,7.93-.84,3.29-2.39,6.91-2.59,10.23A198.06,198.06,0,0,1,139.76,133a275.25,275.25,0,0,0,28.13,7.39c10.5,2.12,21.15,2.5,31.62,4.86a48.3,48.3,0,0,1,10.75,3.34c1.18.58,8.61,6.73,9.39,3.14a2.53,2.53,0,0,0-.3-1.49C219,149.46,217.19,141.9,216.89,141.75Z"/><path class="cls-3" d="M160.16,217.43c.53-1.24,3.11-2.72,4.2-3.42,1.74-1.11,3.93-3.13,5.85-3.71-.14,1.21.93,2.83,1.61,3.66a25.23,25.23,0,0,1,3.85-7.17c1-1.27,3.47-4.43,5.16-4.42-.47,2,.44,4.19.77,6.09a22.12,22.12,0,0,1,7.93-12.09c-.4,1.46-.59,4.94.18,6a20.92,20.92,0,0,1,4.13-7.71c1.51-1.71,3.42-3,5.11-4.63a23.68,23.68,0,0,1,1,6.08c2.86-5,4.11-10.81,6-16.2,1.74,1.11,2.92,4.14,3.43,6.15,1.37-2.22,1.21-5.76,1.49-8.28.31-2.8.35-5.51.42-8.3,2.3,0,3.69,2.95,6.25,2.35-1.35-1.82-2.28-2.82-2.6-5.12s-.79-5-.32-7.27c1.76.27,3.55.55,5.28.92-.1-1.41-1.6-2.26-2.18-3.52-.47-1-.64-2.2-1-3.28-.88-2.36-2-4.76-1.59-7.33.75-4.56,1.6-8.19-.68-12.48-2.95-5.54-.55-11.64-2.71-17.54-.94,1.78-1.73,3.94-3.21,5.35-.67-3.32,1.21-7.2.59-10.52-1.29,1.27-2.21,3.27-3.58,4.35-.81-1.75-1.38-3.75-2.23-5.59a13.63,13.63,0,0,1-1.06-4.69c-.32,1.36-.68,2.71-1,4.08-.67-2-3.94-3.52-5.62-4.31-2.46-1.16-6-3.67-8.74-3.62.38,1.49,1.77,2.46,2.28,3.77-2.79,0-5.57-.92-8.32-1.1s-5.61-.73-7.6-2.76c-.52,1.88.73,2.94,1,4.71-1.65-1.47-6.1.34-8.15.41-3.4.13-7.31-.34-10.55.4a198.06,198.06,0,0,1,1,25.89,275.25,275.25,0,0,0,.85,29.07c.93,10.67,3.57,21,4.26,31.71a48.3,48.3,0,0,1-.17,11.26c-.28,1.62-1.07,3.4-1,5,.11,2.85,1.24,4,.51,7l.12-.48"/><path class="cls-3" d="M203.35,118.06c-1.61-.21-5.58-.7-6.44-2.16,2-.64,3.37-2.53,4.83-3.79a22.12,22.12,0,0,1-14.44-.6c1.46-.4,4.54-2,5.08-3.25a20.92,20.92,0,0,1-8.74.42c-2.25-.42-4.37-1.38-6.6-2a23.68,23.68,0,0,1,4.71-4c-5.72.09-11.39,2-17,3.14.06-2.07,2.05-4.63,3.52-6.1-2.61,0-5.57,1.92-7.87,3-2.56,1.17-4.91,2.53-7.34,3.9-1.14-2,.63-4.68-1.2-6.57-.88,2.09-1.25,3.41-3.05,4.86s-3.88,3.24-6.08,4c-.67-1.65-1.36-3.33-1.92-5-1.16.81-1.12,2.53-1.9,3.68-.64.92-1.56,1.68-2.28,2.58-1.57,2-3,4.17-5.48,5.13-5.71,2.25-12.81,4.13-16.9,8.76,1.5-.33,5.92,0,6.79,1.34a25.41,25.41,0,0,0-13.91,8.23c2-.11,4.27-.54,6.24,0-2.5,2.28-6.8,2.66-9.33,4.89,1.76.45,3.94.22,5.57.84-1.08,1.59-2.5,3.11-3.65,4.79a13.63,13.63,0,0,1-3.48,3.32c1.33-.42,2.68-.81,4-1.24-1.39,1.61-1,5.19-.81,7,.27,2.7-.08,7,1.38,9.36,1.08-1.09,1.2-2.78,2.07-3.89,1.4,2.41,2.07,5.25,3.32,7.71s2.26,5.19,1.54,7.94c1.88-.52,2.15-2.14,3.54-3.26-.42,2.17,3.42,5.06,4.54,6.78,1.85,2.85,3.46,6.45,5.76,8.84,6.73-5.16,29.42-3.31,36.93-7.63,8.48-4.88,1.42-16.43,9.3-22.14,8.68-6.28,16.19-13.85,25-19.94a48.3,48.3,0,0,1,9.75-5.63c2.12-.81,3.18-.62,3.88-2.87a6.55,6.55,0,0,0-1.23-6.3c-1.6-2.23-.83-1.75-.08-4.49A31.55,31.55,0,0,1,203.35,118.06Z"/><path class="cls-3" d="M212.05,149.07c-1.09-.66-2-3.39-2.4-4.55-.7-1.86-2.18-4.26-2.32-6.24,1.15.27,3-.63,3.93-1.21a21.38,21.38,0,0,1-6.15-4.6c-1-1.14-3.55-3.94-3.16-5.62,1.88.68,4.2,0,6.13-.12a18.64,18.64,0,0,1-10-9.2c1.34.56,4.7,1.12,5.94.46-2.7-1.38-4.73-2.55-6.62-4.94-1.33-1.7-2.2-3.74-3.38-5.59a23.79,23.79,0,0,1,6.17-.34c-4.2-3.38-9.65-5.26-14.49-7.75,1.48-1.62,4.7-2.47,6.79-2.77-1.87-1.6-5.37-1.82-7.76-2.38-2.67-.61-5.32-.93-8-1.3.56-2.29,3.71-3.37,3.7-6-2.09,1.15-3.28,2-5.59,2.05s-5.06.25-7.18-.46c.66-1.73,1.33-3.48,2.08-5.16-1.41-.05-2.57,1.35-3.93,1.8-1.1.35-2.3.41-3.45.7-2.51.63-5.11,1.5-7.53.8-5.7-1.65-12.15-4.43-18.32-3.19,1.31.64,4.28,3.58,4,5.17a24.22,24.22,0,0,0-15.79-1.81c1.53,1.13,3.47,2.15,4.51,3.78-3.4.31-6.77-2-10.16-1.72,1,1.42,2.7,2.55,3.45,4-1.89.62-4,1-6,1.63a14.16,14.16,0,0,1-4.83.56c1.26.47,2.5,1,3.76,1.43-2.13.45-4.33,3.55-5.48,5.14-1.68,2.33-4.94,5.58-5.51,8.33,1.54-.22,2.8-1.5,4.2-1.87-.66,2.78-2.15,5.46-3,8.19s-2,5.52-4.41,7.29c1.72.72,3-.42,4.83-.47-1.81,1.49-1,6.12-1.43,8.17-.64,3.4-2,7.26-2,10.57a191.54,191.54,0,0,1,25.54,1.81,265.5,265.5,0,0,0,28.62,2.26c10.65.21,21.34-1.32,32-.86a45.84,45.84,0,0,1,11,1.37c1.52.46,3.09,1.43,4.68,1.54,2.81.19,4.16-.82,6.94.23l-.45-.17"/><path class="cls-3" d="M206.28,175.77c-1.09-.66-2-3.39-2.4-4.55-.7-1.86-2.18-4.26-2.32-6.24,1.15.27,3-.63,3.93-1.21a21.38,21.38,0,0,1-6.15-4.6c-1-1.14-3.55-3.94-3.16-5.62,1.88.68,4.2,0,6.13-.12a18.64,18.64,0,0,1-10-9.2c1.34.56,4.7,1.12,5.94.46-2.7-1.38-4.73-2.55-6.62-4.94-1.33-1.7-2.2-3.74-3.38-5.59a23.79,23.79,0,0,1,6.17-.34c-4.2-3.38-9.65-5.26-14.49-7.75,1.48-1.62,4.7-2.47,6.79-2.77-1.87-1.6-5.37-1.82-7.76-2.38-2.67-.61-5.32-.93-8-1.3.56-2.29,3.71-3.37,3.7-6-2.09,1.15-3.28,2-5.59,2.05s-5.06.25-7.18-.46c.66-1.73,1.33-3.48,2.08-5.16-1.41-.05-2.57,1.35-3.93,1.8-1.1.35-2.3.41-3.45.7-2.51.63-5.11,1.5-7.53.8-5.7-1.65-12.15-4.43-18.32-3.19,1.31.64,4.28,3.58,4,5.17a24.22,24.22,0,0,0-15.79-1.81c1.53,1.13,3.47,2.15,4.51,3.78-3.4.31-6.77-2-10.16-1.72,1,1.42,2.7,2.55,3.45,4-1.89.62-4,1-6,1.63a14.16,14.16,0,0,1-4.83.56c1.26.47,2.5,1,3.76,1.43-2.13.45-4.33,3.55-5.48,5.14-1.68,2.33-4.94,5.58-5.51,8.33,1.54-.22,2.8-1.5,4.2-1.87-.66,2.78-2.15,5.46-3,8.19s-2,5.52-4.41,7.29c1.72.72,3-.42,4.83-.47-1.81,1.49-1,6.12-1.43,8.17-.64,3.4-2,7.26-2,10.57a191.54,191.54,0,0,1,25.54,1.81,265.5,265.5,0,0,0,28.62,2.26c10.65.21,21.34-1.32,32-.86a45.84,45.84,0,0,1,11,1.37c1.52.46,3.09,1.43,4.68,1.54,2.81.19,4.16-.82,6.94.23l-.45-.17"/><path class="cls-3" d="M210.21,201.06c-1.09-.66-2-3.39-2.4-4.55-.7-1.86-2.18-4.26-2.32-6.24,1.15.27,3-.63,3.93-1.21a21.38,21.38,0,0,1-6.15-4.6c-1-1.14-3.55-3.94-3.16-5.62,1.88.68,4.2,0,6.13-.12a18.64,18.64,0,0,1-10-9.2c1.34.56,4.7,1.12,5.94.46-2.7-1.38-4.73-2.55-6.62-4.94-1.33-1.7-2.2-3.74-3.38-5.59a23.79,23.79,0,0,1,6.17-.34c-4.2-3.38-9.65-5.26-14.49-7.75,1.48-1.62,4.7-2.47,6.79-2.77-1.87-1.6-5.37-1.82-7.76-2.38-2.67-.61-5.32-.93-8-1.3.56-2.29,3.71-3.37,3.7-6-2.09,1.15-3.28,2-5.59,2.05s-5.06.25-7.18-.46c.66-1.73,1.33-3.48,2.08-5.16-1.41-.05-2.57,1.35-3.93,1.8-1.1.35-2.3.41-3.45.7-2.51.63-5.11,1.5-7.53.8-5.7-1.65-12.15-4.43-18.32-3.19,1.31.64,4.28,3.58,4,5.17a24.22,24.22,0,0,0-15.79-1.81c1.53,1.13,3.47,2.15,4.51,3.78-3.4.31-6.77-2-10.16-1.72,1,1.42,2.7,2.55,3.45,4-1.89.62-4,1-6,1.63a14.16,14.16,0,0,1-4.83.56c1.26.47,2.5,1,3.76,1.43-2.13.45-4.33,3.55-5.48,5.14-1.68,2.33-4.94,5.58-5.51,8.33,1.54-.22,2.8-1.5,4.2-1.87-.66,2.78-2.15,5.46-3,8.19s-2,5.52-4.41,7.29c1.72.72,3-.42,4.83-.47-1.81,1.49-1,6.12-1.43,8.17-.64,3.4-2,7.26-2,10.57a191.54,191.54,0,0,1,25.54,1.81A265.5,265.5,0,0,0,155,197.94c10.65.21,21.34-1.32,32-.86a45.84,45.84,0,0,1,11,1.37c1.52.46,3.09,1.43,4.68,1.54,2.81.19,4.16-.82,6.94.23l-.45-.17"/><path class="cls-3" d="M235.5,216.53c-1.09-.66-2-3.39-2.4-4.55-.7-1.86-2.18-4.26-2.32-6.24,1.15.27,3-.63,3.93-1.21a21.38,21.38,0,0,1-6.15-4.6c-1-1.14-3.55-3.94-3.16-5.62,1.88.68,4.2,0,6.13-.12a18.64,18.64,0,0,1-10-9.2c1.34.56,4.7,1.12,5.94.46-2.7-1.38-4.73-2.55-6.62-4.94-1.33-1.7-2.2-3.74-3.38-5.59a23.79,23.79,0,0,1,6.17-.34c-4.2-3.38-9.65-5.26-14.49-7.75,1.48-1.62,4.7-2.47,6.79-2.77-1.87-1.6-5.37-1.82-7.76-2.38-2.67-.61-5.32-.93-8-1.3.56-2.29,3.71-3.37,3.7-6-2.09,1.15-3.28,2-5.59,2.05s-5.06.25-7.18-.46c.66-1.73,1.33-3.48,2.08-5.16-1.41-.05-2.57,1.35-3.93,1.8-1.1.35-2.3.41-3.45.7-2.51.63-5.11,1.5-7.53.8-5.7-1.65-12.15-4.43-18.32-3.19,1.31.64,4.28,3.58,4,5.17a24.22,24.22,0,0,0-15.79-1.81c1.53,1.13,3.47,2.15,4.51,3.78-3.4.31-6.77-2-10.16-1.72,1,1.42,2.7,2.55,3.45,4-1.89.62-4,1-6,1.63a14.16,14.16,0,0,1-4.83.56c1.26.47,2.5,1,3.76,1.43-2.13.45-4.33,3.55-5.48,5.14-1.68,2.33-4.94,5.58-5.51,8.33,1.54-.22,2.8-1.5,4.2-1.87-.66,2.78-2.15,5.46-3,8.19s-2,5.52-4.41,7.29c1.72.72,3-.42,4.83-.47-1.81,1.49-1,6.12-1.43,8.17-.64,3.4-2,7.26-2,10.57,0-.24,10.59.59,11.94.22,5.17-1.43,9.89-6,15.15-7.79,6.07-2.09,12.9-2.65,18.84-.23,3.72,1.52,6.89,4.1,10.38,6.08,12.9,7.33,27.2,2.23,40.8,6.29,1.52.46,3.09,1.43,4.68,1.54,2.81.19,4.16-.82,6.94.23l-.45-.17"/><path class="cls-3" d="M96.49,225.85c.72-.85,3.18-1.23,4.24-1.45,1.69-.35,4-1.29,5.68-1.14-.39,1,.14,2.65.51,3.55a18.6,18.6,0,0,1,4.8-4.66c1.12-.72,3.87-2.52,5.26-2-.84,1.52-.58,3.61-.73,5.28a16.22,16.22,0,0,1,9.28-7.38c-.66,1.08-1.6,3.89-1.21,5a15.4,15.4,0,0,1,5.15-5c1.64-.92,3.52-1.39,5.27-2.15a20.77,20.77,0,0,1-.55,5.35c3.48-3.15,5.83-7.59,8.63-11.41,1.19,1.49,1.48,4.38,1.46,6.21,1.63-1.39,2.3-4.37,3.1-6.35.89-2.21,1.53-4.45,2.21-6.73,1.89.8,2.39,3.65,4.65,4-.71-2-1.26-3.09-1-5.09s.47-4.38,1.38-6.11c1.39.8,2.81,1.62,4.16,2.49.24-1.2-.81-2.39-1-3.62-.16-1,0-2-.13-3.06-.2-2.24-.59-4.59.34-6.58,2.19-4.67,5.46-9.84,5.23-15.32-.73,1-3.66,3.19-5,2.73a21.09,21.09,0,0,0,3.7-13.33c-1.18,1.16-2.32,2.69-3.86,3.37.2-3,2.62-5.55,2.86-8.5-1.36.63-2.56,2-3.94,2.41-.28-1.71-.3-3.55-.59-5.36a12.26,12.26,0,0,1,.18-4.23c-.57,1-1.18,2-1.74,3-.1-1.89-2.47-4.2-3.68-5.41-1.77-1.76-4.13-5-6.41-5.87,0,1.35.91,2.61,1,3.87-2.3-.95-4.41-2.6-6.64-3.65s-4.48-2.45-5.67-4.78c-.85,1.38-.05,2.67-.25,4.22-1-1.76-5.12-1.73-6.84-2.34-2.84-1-6-2.69-8.82-3.14a166.67,166.67,0,0,1-5,21.72,231.09,231.09,0,0,0-5.83,24.31c-1.63,9.13-1.77,18.53-3.6,27.62a39.89,39.89,0,0,1-2.67,9.25c-.6,1.24-1.65,2.46-2,3.82-.54,2.39.14,3.69-1.14,5.94l.21-.36"/><path class="cls-3" d="M163.72,133.92c.42,1-.39,3.39-.69,4.43-.48,1.66-.7,4.11-1.63,5.56-.66-.79-2.41-1.11-3.38-1.2a18.61,18.61,0,0,1,1.89,6.41c.11,1.33.43,4.59-.72,5.57-1-1.45-2.92-2.19-4.34-3.11a16.23,16.23,0,0,1,2.22,11.65c-.64-1.08-2.7-3.23-3.9-3.41a15.41,15.41,0,0,1,2,6.89c0,1.88-.41,3.76-.55,5.66a20.84,20.84,0,0,1-4.48-3c1.17,4.55,4,8.69,6.08,12.95-1.88.36-4.57-.72-6.17-1.6.47,2.09,2.8,4.07,4.18,5.7,1.54,1.82,3.23,3.42,4.92,5.09-1.59,1.31-4.34.42-5.7,2.26,2.06.28,3.32.32,5,1.47s3.66,2.46,4.77,4.06c-1.36.86-2.74,1.74-4.14,2.52,1,.77,2.5.39,3.68.79,1,.33,1.81.91,2.77,1.31,2.08.87,4.34,1.61,5.67,3.36,3.12,4.11,6.17,9.41,11.13,11.76-.58-1.13-1.13-4.73-.09-5.69a21.07,21.07,0,0,0,10.08,9.48c-.48-1.58-1.3-3.3-1.19-5,2.53,1.55,3.7,4.9,6.2,6.48.07-1.49-.56-3.19-.3-4.61,1.64.55,3.29,1.39,5,2a12.31,12.31,0,0,1,3.66,2.12c-.64-1-1.24-2-1.89-3,1.72.79,4.87-.23,6.5-.74,2.38-.75,6.35-1.32,8.18-2.95-1.19-.65-2.73-.41-3.91-.88,1.91-1.59,4.35-2.69,6.32-4.18s4.25-2.83,6.87-2.8c-.83-1.4-2.34-1.29-3.62-2.18,2-.09,3.91-3.73,5.25-5,2.22-2,5.15-4,6.88-6.34a166.69,166.69,0,0,1-16.89-14.55,230.75,230.75,0,0,0-18.8-16.47c-7.32-5.69-15.58-10.19-22.77-16a39.87,39.87,0,0,1-6.94-6.67c-.82-1.11-1.41-2.61-2.47-3.51-1.86-1.59-3.33-1.59-4.72-3.77l.22.35"/><path class="cls-3" d="M175.33,209.28a8.64,8.64,0,0,1-.66-1.19c-.72-1.59-.07-2.29-1.54-3.88-1.15-1.24-3.37-2.09-4.8-3a15.75,15.75,0,0,1-5.17-4.84l41.34-11.06,15.75,8.12c1.95-2,3.57-3.26,4.59-4.87,5.83-9.15,14.13-8.41,22-4.51,8.1,4,10.46,11.05,7.75,20.19-6.5,21.9-20.73,26.5-42.18,20.26-9.44-2.75-19-5.37-28-9.36C180.79,213.55,177.28,212.23,175.33,209.28Z"/><path class="cls-3" d="M157.69,140.19a2.93,2.93,0,0,0-3,3c-.09,1.82.79,3.08,2.69,3.2a5.49,5.49,0,0,0,.62,0v-6.12Z"/><path class="cls-4" d="M146.79,110.54a22.12,22.12,0,0,0-6.9-6.17,18.94,18.94,0,0,0-2.9-1.31,11.63,11.63,0,0,1-.1,6.43,11.94,11.94,0,0,1-2.81,5.64,21.51,21.51,0,0,0,3.37.07,26.23,26.23,0,0,0,8.67-2.09,1.69,1.69,0,0,0,.68-2.56Z"/><path class="cls-4" d="M130.27,101.94a26.77,26.77,0,0,0-9.35,1.79,2.15,2.15,0,0,0-.91,3.36,22,22,0,0,0,7.85,6.34,18.94,18.94,0,0,0,3.68,1.28c-.59-1.34-.61-3.82.06-6.52l0-.12h0a2.06,2.06,0,1,1,1.48-3.8,6.52,6.52,0,0,1,1.48-1.87A20.84,20.84,0,0,0,130.27,101.94Z"/><path d="M134.07,115.13a11.94,11.94,0,0,0,2.81-5.64,11.63,11.63,0,0,0,.1-6.43,19.08,19.08,0,0,0-2.4-.67,6.52,6.52,0,0,0-1.48,1.87,2.05,2.05,0,0,1-1.48,3.8l0,.12c-.67,2.7-.65,5.18-.06,6.52"/><path class="cls-5" d="M132.62,104.06a2.06,2.06,0,0,0-1,4h0a15.68,15.68,0,0,1,1.48-3.8A2.06,2.06,0,0,0,132.62,104.06Z"/><path class="cls-5" d="M134.12,106.55a2.06,2.06,0,0,0-1-2.3,15.68,15.68,0,0,0-1.48,3.8A2.06,2.06,0,0,0,134.12,106.55Z"/><path class="cls-4" d="M182.4,109.25a11.63,11.63,0,0,1,.06-6.43,18.93,18.93,0,0,0-2.94,1.24,22.12,22.12,0,0,0-7.06,6,1.69,1.69,0,0,0,.61,2.58,26.23,26.23,0,0,0,8.61,2.31,21.49,21.49,0,0,0,3.37,0A11.94,11.94,0,0,1,182.4,109.25Z"/><path class="cls-4" d="M199.78,105.38a2.15,2.15,0,0,0-1.27-1.48,26.77,26.77,0,0,0-9.3-2,20.84,20.84,0,0,0-4.33.33c2,1.7,2.82,5,3.13,7.54.07.53.45,4.67-.4,4.85a18.94,18.94,0,0,0,3.71-1.18,22,22,0,0,0,8-6.14A2.15,2.15,0,0,0,199.78,105.38Z"/><path d="M187.61,114.59c1-2.1.64-4.48,0-6.63-.21-.69-1.65-6-2.74-5.76a19.08,19.08,0,0,0-2.41.61,11.63,11.63,0,0,0-.06,6.43,11.94,11.94,0,0,0,2.67,5.71A1.84,1.84,0,0,0,187.61,114.59Z"/><path class="cls-5" d="M181.89,104.81a2.06,2.06,0,0,1,.89,4h0A15.68,15.68,0,0,0,181.4,105,2.06,2.06,0,0,1,181.89,104.81Z"/><path class="cls-5" d="M180.32,107.27A2.06,2.06,0,0,1,181.4,105a15.68,15.68,0,0,1,1.38,3.83A2.06,2.06,0,0,1,180.32,107.27Z"/><path class="cls-3" d="M147.08,197.71c-2.51-4.4-15.47-5.61-19.34-6.65l-15.85-4.24-15.75,8.12c-1.94-2-3.57-3.26-4.59-4.87-5.83-9.15-14.13-8.41-22-4.51-8.1,4-10.46,11.05-7.75,20.19,6.5,21.9,20.73,26.5,42.18,20.26,7.26-2.11,13.86-6.21,20.12-10.33,3.79-2.49,7.4-5.23,11.17-7.75,2.73-1.82,4.86-2,7.9-3.27a6.88,6.88,0,0,0,4.32-4.81A3.1,3.1,0,0,0,147.08,197.71Z"/><path class="cls-3" d="M61.86,205.75s-10.07-19.62,7.62-27.17S95.9,194.14,95.9,194.14Z"/><ellipse class="cls-6" cx="63.07" cy="190.1" rx="3.57" ry="3.98" transform="translate(-94.73 66.76) rotate(-33.63)"/><ellipse class="cls-6" cx="70.53" cy="184.08" rx="3.57" ry="3.98" transform="translate(-52.18 29.79) rotate(-17.53)"/><ellipse class="cls-6" cx="79.72" cy="182.76" rx="3.57" ry="3.98" transform="matrix(0.98, -0.2, 0.2, 0.98, -34.83, 19.56)"/><polygon class="cls-7" points="59.4 190.1 57.81 182.76 66.04 188.12 59.4 190.1"/><polygon class="cls-7" points="67.12 185.16 65.56 176.36 72.26 180.76 67.12 185.16"/><polygon class="cls-7" points="76.22 183.48 74.91 174.74 82.76 180.14 76.22 183.48"/><path class="cls-3" d="M254.53,204.29s10.07-19.62-7.62-27.17-26.41,15.56-26.41,15.56Z"/><ellipse class="cls-6" cx="251.89" cy="187.69" rx="3.98" ry="3.57" transform="matrix(0.55, -0.83, 0.83, 0.55, -43.9, 293.46)"/><ellipse class="cls-6" cx="244.44" cy="181.68" rx="3.98" ry="3.57" transform="translate(-2.43 360.03) rotate(-72.47)"/><polygon class="cls-7" points="255.57 187.69 257.15 180.36 248.92 185.72 255.57 187.69"/><polygon class="cls-7" points="247.84 182.75 249.4 173.95 242.7 178.35 247.84 182.75"/><ellipse class="cls-6" cx="235.25" cy="180.36" rx="3.98" ry="3.57" transform="translate(11.62 374.94) rotate(-78.5)"/><polygon class="cls-7" points="238.74 181.07 240.06 172.34 232.21 177.73 238.74 181.07"/><path class="cls-1" d="M174.26,162.05c5.63,1.57,11.92,1.61,17.07-1.15a20.36,20.36,0,0,0,6.8-6.16,14.39,14.39,0,0,0,1.95-4.25c.28-1,0-3.08.5-3.92a13.11,13.11,0,0,1-18.08,5l2.21,3.07a27.41,27.41,0,0,1-19.07-6.6l.39,2.6c-4.9-2.3-9.82-5-14.81-6.94,2.52,4.12,4.57,9.11,8.7,11.91A51.2,51.2,0,0,0,174.26,162.05Z"/><path class="cls-3" d="M59,193.76c0,3.55.32,7.25,0,10.77-.17,1.85-.77,3.51-.86,5.36,1-1.4,1.84-2.91,2.86-4.32.24,3.42,1.43,6.25,2.51,9.52.83,2.5,1.29,5.66,3,7.74a27.63,27.63,0,0,1,1.25-3.88c2.35,4.39,6.05,9.05,10.88,10.55a7.73,7.73,0,0,0-.29-2.38c1.64.5,5.08,1.2,6.38-.47-2.88-3.24-6.8-4.91-9.92-7.89-2.24-2.14-5.38-4.4-7.23-6.84-1.64-2.16-2.87-5.65-4-8.17-1.41-3.17-4.4-4.77-4.17-8.74"/><path class="cls-3" d="M256.8,192.3c0,3.55-.32,7.25,0,10.77.17,1.85.77,3.51.86,5.36-1-1.4-1.84-2.91-2.86-4.32-.24,3.42-1.43,6.25-2.5,9.52-.83,2.5-1.29,5.66-3,7.74a27.32,27.32,0,0,0-1.25-3.88c-2.35,4.39-6.05,9.05-10.88,10.55a7.77,7.77,0,0,1,.29-2.38c-1.64.5-5.08,1.2-6.38-.47,2.88-3.24,6.8-4.91,9.92-7.89,2.24-2.14,5.38-4.4,7.23-6.84,1.64-2.16,2.87-5.65,4-8.17,1.41-3.17,4.4-4.77,4.17-8.74"/><path class="cls-3" d="M65.46,195.33c-1.48.82-5.43,3.57-6.33.44-.31-1.09,3-4.38,3.87-5.35A22.16,22.16,0,0,1,68.22,186a25.08,25.08,0,0,1,13.51-3.16c1.93,0,6.08.75,5.44,3.77-.56,2.64-9.55,3.15-11.77,3.83C71.43,191.62,68.92,193.42,65.46,195.33Z"/><path class="cls-3" d="M250.13,192.92c1.48.82,5.43,3.57,6.33.44.31-1.09-3-4.38-3.87-5.35a22.13,22.13,0,0,0-5.22-4.45,25.08,25.08,0,0,0-13.51-3.16c-1.93,0-6.08.75-5.44,3.77.56,2.64,9.55,3.15,11.77,3.83C244.16,189.21,246.67,191,250.13,192.92Z"/><path class="cls-3" d="M158.74,213c1.71-2.62,5.35-3.37,8.38-2.61s5.59,2.74,8.05,4.65c-2.51-10-5.18-20.33-11.52-28.45a23.76,23.76,0,0,0-9.84-7.82,13.9,13.9,0,0,0-12.25.77c-4.77,3-6.65,9.38-5.57,14.92.92,4.7,4.6,12.05,9.11,14.37S155.35,207.36,158.74,213Z"/><path d="M132.27,161.15a49.83,49.83,0,0,0-2.63,7.44c-1.5,6.92.24,14.75,3.09,20.49,3.64,7.34,9,12,14.38,17.35.73.72,7.19,7.83,6.88,8-1.5,1.07-2.72,2.52-4.31,3.33.59,2.18,2.39,6,1.73,8.37-.26.94-7.41,5.14-7.23,5.55l2,4.62c-10.23,5.28-18.79,3.07-27.33-3.14A55.53,55.53,0,0,1,99.4,208.62a87.61,87.61,0,0,1-5.75-37.08l-4.54-.2,10.22-13-3.62-2.93a20.54,20.54,0,0,0,14.83-5.93l-6-4.41c1.41,1.05,12.76-3.3,14.77-3.84,4.66-1.25,8.75-2.68,13.7-2.46C133.44,146.21,135.12,153.91,132.27,161.15Z"/><path class="cls-1" d="M169.18,185.32a128,128,0,0,1-37.84-16.44c.39.25.72,2.94.91,3.49a30.57,30.57,0,0,0,1.64,4,36.9,36.9,0,0,0,4.83,7.31,32,32,0,0,0,14.57,9.84l-2.62,1.35L177,197.74l-2.92,3.5,22.32-6-1,6.1c2.8-1.49,5.67-2.86,8-5,2.76-2.56,5.58-5.05,8.37-7.58l2.44,3.52c.84-8.41,10.5-13.57,12.21-21.85l-12.12,6.75c-3.18,1.77-5.73,4.7-8.92,6.3a25.1,25.1,0,0,1-12,2.66c-4.69-.15-9.21-.62-14-.57C176.2,185.55,172.33,186.12,169.18,185.32Z"/><path d="M198.58,147.31c-.68,1.49-.74,3-1.45,4.46-1.17,2.4-3.66,3.86-6.09,4.71-5.15,1.79-11.38,1.57-16.61.21-7.93-2.06-13.6-6.31-19.93-10.51-.85-.56-9.14-5.43-9.27-5.08-.74,1.69-1.9,3.18-2.37,4.91-2.25-.13-6.32-1.11-8.54,0-.87.45-3.51,8.31-3.94,8.22l-4.93-1c-3.07,11.1.86,19,8.69,26.1a55.53,55.53,0,0,0,28,14,87.61,87.61,0,0,0,37.47-2l1.13,4.41L211.4,183,215,186c-1.24-5.25,1-5,3.4-9a13.06,13.06,0,0,0,1.33-10.4l4.52.39-7.89-9.36,5.91-1.4a28.67,28.67,0,0,0-4.66-3.85c-.74-.48-3.45-2.91-4-2.87l2.38-.16-13.58-8.88c-1.23,2.23-2.62,4.43-3.72,6.72Z"/><path class="cls-7" d="M139,148.36a4.21,4.21,0,0,0-1.67-2.24h0l-.18-.12h0l-6.52-4.28L132,149.5a4.37,4.37,0,0,0,.18,1,3.59,3.59,0,1,0,6.81-2.15Z"/><path class="cls-7" d="M130.72,156.2a4.21,4.21,0,0,0-.87-2.66h0l-.13-.17h0l-4.81-6.14L123.74,155a4.37,4.37,0,0,0-.15,1,3.59,3.59,0,1,0,7.14.14Z"/><path class="cls-7" d="M148.45,143.08a4.21,4.21,0,0,0-2.39-1.46h0l-.21,0h0L138.21,140l4.19,6.71a4.37,4.37,0,0,0,.54.87,3.59,3.59,0,1,0,5.51-4.54Z"/><path class="cls-7" d="M146.21,228.65a4.21,4.21,0,0,0,2.62,1H149l7.8.08-5.37-5.81a4.37,4.37,0,0,0-.7-.76,3.59,3.59,0,1,0-4.57,5.49Z"/><path class="cls-7" d="M149,217.57a4.21,4.21,0,0,0,2.17,1.77h0l.2.07h0l7.37,2.57-3.23-7.22a4.37,4.37,0,0,0-.42-.94,3.59,3.59,0,1,0-6.08,3.74Z"/><path class="cls-7" d="M141.13,238.19a4.21,4.21,0,0,0,2.8-.07h0l.2-.08h0l7.27-2.84-7.15-3.38a4.37,4.37,0,0,0-.93-.44,3.59,3.59,0,1,0-2.19,6.79Z"/><circle class="cls-1" cx="113.16" cy="116.95" r="1.58"/><circle class="cls-1" cx="124.05" cy="125.19" r="2.14"/><circle class="cls-1" cx="195.82" cy="124.46" r="1.47"/><circle class="cls-1" cx="199.1" cy="115.77" r="1.43"/><circle class="cls-1" cx="201.3" cy="127.03" r="0.77"/><circle class="cls-1" cx="207.74" cy="119.56" r="0.78"/><circle class="cls-1" cx="116.1" cy="124.12" r="1.08"/><circle class="cls-1" cx="119.86" cy="115.77" r="0.8"/><circle class="cls-1" cx="129.85" cy="127.8" r="0.81"/><path d="M116,75.89c-.88-.49-11.44,11.33-6.33,25.94l26.15-5.21S124.85,80.86,116,75.89Z"/><path d="M207,76.58c1-.31,9,13.36,1.08,26.68L183.48,93S197.36,79.71,207,76.58Z"/><path class="cls-1" d="M117.76,85.76a33.06,33.06,0,0,0-1,8.18l2.73.5.43.08c.6.11,3.14,1,3.63.57.88-.73-.56-1.94-1.1-2.69S117.53,86.08,117.76,85.76Z"/><path class="cls-1" d="M194.49,93.11A63.76,63.76,0,0,0,205.27,84l-1,12.88-3.08-4.63a17.5,17.5,0,0,1-7.24,1.38l3.25-2.6"/><path class="cls-8" d="M166.34,116.32A10.52,10.52,0,0,0,150,120.11a10.15,10.15,0,0,0,11.18,14.27l-.66.69a10.59,10.59,0,0,0,5.86-18.74Z"/><path d="M163.87,117.28c.91.21.94,1.09.59,1.8-1.43,2.88-3.84,4.46-6.81,2.71a7,7,0,0,1-2.22-1.88c-1.85-2.8,3.45-2.58,5-2.66A14.75,14.75,0,0,1,163.87,117.28Z"/><path d="M109.35,177l-1.06,7.71c-9.57-4.64-18.71-9.87-28.5-14l2.31-2.17a54.12,54.12,0,0,1-14.49-14l3.21,1c-1.19-.39-1.8-10.21-1.84-11.44-.18-5.76.28-10.4-.73-16.17l2.77.71-.65-7.1,1.48.88c2-6.63,4.12-14.63-2-20.07-3.38-3-9.71-3.57-13.59-1.2-1.75,1.07-8.64,11.23-5.34,13a5.54,5.54,0,0,1-2.68-4c-.78,1.13-4.31,10-3.89,10a2.39,2.39,0,0,1-2.17-2.57l-7.77,11.55-1.33-9.87-3.38,3.05a45.88,45.88,0,0,1-.71-4.54,11.77,11.77,0,0,1,1.85-5c1.48-2.5,4.46-4.55,5.29-7.22a4.27,4.27,0,0,1-3.4-1.36c2.86-.91,22.42-17,24.33-14.78L55,87.1l8.94,1.23-.14-2.21c3.18,2.23,6.3,4.46,9.64,6.42.74.43,6.32,4.5,6.09,5.12l1-2.8c2.56,10.64,3.26,19.38,1.55,30.28l1.66.62c-2.94,5.68-5.23,10.91-4.78,17.52.15,2.19,3.65,8.83,2.83,10.4l1.53-2.81c1.55,5.66,2.36,7.71,7.53,10.8,1.47.88,19.45,8.2,19.72,6.21Z"/><path d="M108.24,173.41,106.42,181c-9.06-5.57-17.64-11.68-27-16.74L82,162.3a54.12,54.12,0,0,1-13-15.4l3.1,1.35c-1.15-.5-.77-10.34-.69-11.57.39-5.75,1.31-10.32.88-16.16l2.68,1,.06-7.13,1.39,1c2.6-6.4,5.56-14.15,0-20.17-3.06-3.33-9.31-4.52-13.4-2.55-1.85.89-9.71,10.32-6.61,12.4a5.54,5.54,0,0,1-2.27-4.24c-.88,1-5.28,9.5-4.86,9.56a2.39,2.39,0,0,1-1.9-2.77l-8.88,10.72-.34-10-3.67,2.7a45.88,45.88,0,0,1-.25-4.58,11.77,11.77,0,0,1,2.34-4.8c1.72-2.34,4.89-4.09,6-6.66a4.27,4.27,0,0,1-3.25-1.69c2.94-.62,24-14.66,25.68-12.29l-1.8-2.54,8.78,2.12.08-2.21c2.94,2.53,5.82,5.06,8.95,7.34.69.51,5.85,5.11,5.55,5.7l1.31-2.68c1.49,10.85,1.32,19.61-1.47,30.28l1.59.79c-3.49,5.36-6.29,10.34-6.5,17-.07,2.19,2.75,9.15,1.78,10.63l1.8-2.64c1,5.79,1.58,7.91,6.42,11.49,1.37,1,18.54,10.1,19,8.14Z"/><path class="cls-5" d="M157,117.84c1-.51,2.55-.6,2.53.4,0,.52-.59.82-1.08,1a2.83,2.83,0,0,1-1.22.24,1,1,0,0,1-.92-.72C156.27,118.4,156.57,118.08,157,117.84Z"/><path class="cls-1" d="M99,206.1l-2.62,5.54-2.52-17.18L90,196.51l2.64-19.74,1.77,14.46,2.25-1.08,1,12.26,3.61-1.83c-1.95,1,5,16.5,5.81,18.14a33.72,33.72,0,0,1-4.7-6.17C101.81,211.57,98.6,206.93,99,206.1Z"/><path class="cls-1" d="M147.89,173.91l5.65,6.33-1.46-3,4.07-.41Z"/><path class="cls-1" d="M162.19,169.56l5.52-3.14a27.61,27.61,0,0,1-10.29,2.17s5.37,4.31,9.26,5C166.77,172,163.44,170.45,162.19,169.56Z"/><path class="cls-1" d="M163.43,175.54s5.37,4.31,9.26,5c.08-1.6-3.25-3.13-4.49-4l5.52-3.14A27.61,27.61,0,0,1,163.43,175.54Z"/><path class="cls-1" d="M197.63,181.27l2.3-6.41c-4.48,4.61-2,1.78-7.62,9.41l10.21-2Z"/><path class="cls-1" d="M118.81,214.88l.58,6-4-1.87,8.25,6.42Z"/><path class="cls-1" d="M115.57,193.81l2.93,1.91-4.82-10.56.58,6-4-1.87c4.15,4,2.31,2.54,5,4.26l-.63,5.63c.08-.46-4.77-3.41-5.38-3.69,1,3.21,5.29,5.65,7.75,7.68Z"/><path class="cls-8" d="M150.82,96.43a2.46,2.46,0,0,1-4.3,2.08l4.93,5.32Z"/><path class="cls-8" d="M155.12,89.34c-.69-1.08-2.06-1.14-2.75-2.22L155,93.69l1.47-6.39Z"/><path class="cls-8" d="M160.41,101.44l-2.06-1.22,1.86,5.48,2-4.84Z"/><path class="cls-8" d="M162.8,90.8l.92,3.48,2.74-4.74-3.72.62.6.11"/><path d="M153.79,129.8a16.41,16.41,0,0,0,6.07-3.86,17.2,17.2,0,0,0,6.52,3.41,4.83,4.83,0,0,0-1.75-2.53,25.59,25.59,0,0,1-2.39-2,4.48,4.48,0,0,1-1.13-3.54c0,.07-2.3.18-2.5.34a12.22,12.22,0,0,0-.91,2.3c-1,2.18-2.94,4.08-4.37,6.05Z"/></svg>