<svg xmlns="http://www.w3.org/2000/svg" viewBox="0 0 300 300"><defs><style>.cls-1{isolation:isolate;}.cls-2{fill:#1d1d1b;}.cls-3{fill:#868686;mix-blend-mode:multiply;}.cls-4{fill:#4d4d4d;}.cls-5{fill:#999;}.cls-6{fill:none;}</style></defs><title>Artboard 5</title><g class="cls-1"><g id="Layer_1" data-name="Layer 1"><circle class="cls-2" cx="150.31" cy="150.1" r="147.1"/><ellipse class="cls-3" cx="152.23" cy="224.69" rx="87.59" ry="17.58"/><path class="cls-4" d="M154.15,190.6c-2,.31-3.93-.35-4.69-2.52a4.55,4.55,0,0,1,.23-3.24c.53-1.23,2.64-2.17,2.94-3.16s-1.33-2.19-1.32-3.64a4.88,4.88,0,0,1,2.2-3.52c.79-.64,1.65-1.19,2.48-1.78-2-2.37-2.36-4.33,2.06-7.89,0-.08,0-.18,0-.22-2.25-2.22-1.77-3.57.05-6,.37-.49.58-.79.09-1.36-1.9-2.19-1.91-3.18-.2-5.43a10.09,10.09,0,0,1-2-1.45,2.63,2.63,0,0,1,.3-3.66,9.11,9.11,0,0,1,5.24-2.49,3,3,0,0,1,3.11,1.73,2.57,2.57,0,0,1-.51,3.17,5.77,5.77,0,0,0-.45.64c.37.25.69.51,1,.71a2.72,2.72,0,0,1,1.36,3.68,28.66,28.66,0,0,1-1.49,2.78,3.28,3.28,0,0,1,1.73,4.32c-.58,1.53-1.83,2.78-2.79,4.16,1.66,1.32,1.94,2.23,1.47,4.26a5.4,5.4,0,0,1-3.06,3.63c.15.46.26.86.41,1.25,1.11,2.94-.13,5-2.15,6.48-.92.67-1.28,1.19-.78,2.41C160.83,186.93,157.42,190.08,154.15,190.6Z"/><path class="cls-5" d="M151,155c-.72.53-1.46,1-2.14,1.59a14.11,14.11,0,0,1-11.22,3.06c-6.23-.82-11-4.67-12.21-11.75a9.87,9.87,0,0,1,.8-5.7,1.66,1.66,0,0,1,1.92-1c.95.13,1.12.87,1.19,1.72.15,1.88.21,3.77,1.27,5.49a8,8,0,0,0,5.75,3.89c3.37.55,6.75.56,9.82-.93a23,23,0,0,0,4.23-3.35,5.19,5.19,0,0,0,.6-.82c.47-.6,1-1.15,1.82-.57s1.38,1.08,1,2.21c-.5,1.54-.85,3.14-1.26,4.71a2.15,2.15,0,0,1,2,2.66,14.47,14.47,0,0,1-5.65,10.19,24.74,24.74,0,0,1-8.87,4.53,18.09,18.09,0,0,1-11.43-.79c-4-1.69-9.08-8.74-7.48-14.2.21-.71.44-1.45,1.22-1.41a2.48,2.48,0,0,1,1.57.86,6.72,6.72,0,0,1,1.06,2.06c1.25,3.52,3.85,5.5,7.22,6.62a13.51,13.51,0,0,0,11.14-.81,18.65,18.65,0,0,0,6.16-5.31c.62-.85,1.2-1.74,1.8-2.6Z"/><path class="cls-5" d="M120.19,177.2c-.85-1.53-2-2.87-1.53-4.62a3.05,3.05,0,0,1,1-1.63c.2-.15,1,.35,1.42.64,2.25,1.4,4.45,2.89,6.74,4.21a10.67,10.67,0,0,0,2.63.74,15.36,15.36,0,0,0,9-.45,14.54,14.54,0,0,0,7.16-5.76c.8-1.15,1.52-2.37,2.41-3.44a2.54,2.54,0,0,1,1.68-.87c.32,0,.8.77,1,1.27a4.72,4.72,0,0,1-.51,4.4,50.74,50.74,0,0,1-4,5.79,15.22,15.22,0,0,1-5.63,4.15l-1.86.86a15.08,15.08,0,0,1-9.36,1,17.92,17.92,0,0,1-8.69-4.21A12.18,12.18,0,0,1,120.19,177.2Z"/><path class="cls-5" d="M191.27,166.88c1.21,1.23.85,2.66.31,4a17.56,17.56,0,0,1-5,6.71c-3.68,3.2-9.54,4.48-14.25,1.66-3.26-2-4.69-5.16-5.57-8.66-.41-1.65-.78-3.35.15-4.93.22-.37.57-.92.86-.91a1.69,1.69,0,0,1,1.12.78c2.35,3.82,5.65,6.18,10.09,6.1a19,19,0,0,0,6.45-1.47A44.85,44.85,0,0,0,191.27,166.88Z"/><path class="cls-5" d="M187.62,165.13a17.76,17.76,0,0,1-2.55.89c-1.74.33-3.51.58-5.27.77a8.25,8.25,0,0,1-4.73-1.12,20.71,20.71,0,0,1-5.76-4.2,4.93,4.93,0,0,1-1.26-5.13,1.79,1.79,0,0,1,1-1.05,1.57,1.57,0,0,1,1.26.51,12.62,12.62,0,0,0,18.27.6,25.45,25.45,0,0,0,5.09-7.85c.2-.44.22-1,.41-1.43.12-.29.37-.67.62-.71s.58.29.75.55a3.63,3.63,0,0,1,.7,2.95c-.52,2.16-.62,4.51-1.55,6.46C193,159.78,191.28,163.28,187.62,165.13Z"/><path class="cls-5" d="M184.56,153.27c-2,.68-3.87,1.78-5.87,1.95-3.52.3-7.07-.11-9.63-3.2a4.76,4.76,0,0,1-1-2.28c-.26-1.89,1-2.83,2.71-2,4.87,2.19,9,.68,12.73-2.39a15.33,15.33,0,0,0,4.75-6.54,19.3,19.3,0,0,0,.61-2.92c.07-.34,0-.77.22-1a15.05,15.05,0,0,1,1.51-1.35,6.33,6.33,0,0,1,1.13,1.45,11.08,11.08,0,0,1,0,7.69,28.36,28.36,0,0,1-2.53,5.85A13.32,13.32,0,0,1,184.56,153.27Z"/><rect x="130.58" y="115.55" width="47.02" height="20.41"/><path class="cls-5" d="M180.78,95c-.93,1.65-3,2.89-4.76,3.78-2.38,1.18-5,1.86-7.17.88a9.17,9.17,0,0,1-7.05-4.42c-4.89-.2-9.88-.72-14.93-1.33-.48.53-1,1.05-1.52,1.56a7.2,7.2,0,0,1-6.83,1.9c-2.51-.6-5.22-1.09-7.33-2.43a10.37,10.37,0,0,1-3.28-3.38A127.71,127.71,0,0,0,107,90.79l0,.16c-.64,2.84-1.37,5.67-2,8.52a11.92,11.92,0,0,0,5.16,12c3.35,2,6.82,3.86,10.07,6,1.56,1.05,3.35,2.48,3.93,4.13a35.42,35.42,0,0,1,1.47,8.73c.28,3.29,1.28,6.1,4.25,7.79,3.29,1.87,6.68,3.56,10,5.33,2.18,1.15,4.34,2.33,6.56,3.41a6.88,6.88,0,0,0,2.65.77c4,.14,8.1.35,12.14.16a14.11,14.11,0,0,0,6.11-1.57,75.6,75.6,0,0,0,10.55-7.07c1.87-1.52,4-3.31,3.6-6.44a70,70,0,0,1-.12-7.76,6.49,6.49,0,0,1,2-5.31,19.25,19.25,0,0,1,3.82-2.38,28.45,28.45,0,0,0,8.29-6.38,8.82,8.82,0,0,0,2.53-6.33c-.06-3.45-.49-6.9-.78-10.35q-.3-3.63-.6-7.25a44.48,44.48,0,0,1-15.31,6.72A8.68,8.68,0,0,1,180.78,95Zm-36.09,12.33c1.16-1.93,2.2-4.37,3.86-6.28,2.87-3.31,5.1-2.39,6.76.58a20.46,20.46,0,0,1,2.18,7.93c.29,3.15-2,4.4-4.85,2.88-1.52-.81-2.69-1.29-4.4-.24-1.87,1.14-3.08.38-3.48-1.79A21,21,0,0,1,144.69,107.31Zm31,13.64c-.29.61-.68,1.2-.84,1.5a6.74,6.74,0,0,0-1.07,4.29,2.84,2.84,0,0,1,.06,1.06.75.75,0,0,1-.74.63c-.4-.05-.59-.52-.62-.92a2.33,2.33,0,0,0-.21-1.17c-.53-.77-1.73,0-2.25.4a2.32,2.32,0,0,0-.91,2.13,6.57,6.57,0,0,1,.17,1.22c0,.41-.31.85-.72.86s-.68-.37-.79-.74-.07-1.27-.58-1.57-.59,0-1,.21c-1.08.49-2.31.74-3.42,1.17-.62.24-.88,1.25-.86,1.83a4.36,4.36,0,0,1,0,1.49c-.15.48-.67.89-1.14.7a1.14,1.14,0,0,1-.57-1,3,3,0,0,0-.23-1.16,1.41,1.41,0,0,0-.93-.62c-.51-.11-1-.08-1.56-.16-1.05-.16-3.76-.43-4.11.87a3.82,3.82,0,0,0,0,1.26,1.89,1.89,0,0,1-.23,1.22.78.78,0,0,1-1.1.23,1.17,1.17,0,0,1-.29-.74c-.16-1.16.13-2.92-1.36-3a21.17,21.17,0,0,1-2.66-.35c-.74-.14-1.38-.4-1.71.56a4.08,4.08,0,0,0-.11,1.36,2.2,2.2,0,0,1-.3,1.31.89.89,0,0,1-1.19.29,1,1,0,0,1-.33-.69,5.46,5.46,0,0,1,0-.78c.13-2.29-1.54-3.09-3.35-3.89-.4-.17-.7-.49-1.06-.15s-.24.74-.27,1c-.05.66.11,1.26.08,1.91a1.42,1.42,0,0,1-.5,1.07.87.87,0,0,1-1.12,0,1.28,1.28,0,0,1-.27-.81c-.09-1.2.2-2.21-.17-3.39a3.92,3.92,0,0,0-1.8-2.34,8.16,8.16,0,0,1-1.6-.85,1.15,1.15,0,0,1-.24-1.6c.44-.43,1.18-.2,1.73.09s1.23.6,1.74.26a1.49,1.49,0,0,0,.54-1,3,3,0,0,1,.34-1.1.77.77,0,0,1,1-.3.79.79,0,0,1,.25.79,6.29,6.29,0,0,1-.28.83,2.57,2.57,0,0,0,1.15,3c.66.46,2.76,1.59,3.48.92a1.35,1.35,0,0,0,.37-.93,6.15,6.15,0,0,0-.09-1,2.41,2.41,0,0,1,0-1,.93.93,0,0,1,1.8-.07,2.33,2.33,0,0,1,.08,1.36,7.93,7.93,0,0,0-.21,1.36c0,1.46,1.59,1.73,2.76,1.71s2.3.6,2.79-.88a4.42,4.42,0,0,0,.12-1.62c0-.51,0-1.11.4-1.41a1,1,0,0,1,1.18.17,1.66,1.66,0,0,1,.42,1.19,7.41,7.41,0,0,1-.19,1.28,3,3,0,0,0,0,1.28.85.85,0,0,0,.35.53c.25.15.83,0,1.12,0,.51,0,1,0,1.52,0a9.33,9.33,0,0,0,2.36,0c.63-.21.73-1,.74-1.65s-.08-1.15-.1-1.72a1.78,1.78,0,0,1,.13-.84.73.73,0,0,1,.68-.44.76.76,0,0,1,.58.52,2.69,2.69,0,0,1,.11.81,8.66,8.66,0,0,0,.18,1.39c.24,1.13,1,1.08,1.88.83l1.76-.45a4.51,4.51,0,0,0,1.68-.56c.67-.69.35-2.94.2-3.81-.09-.51-.17-1.13.22-1.46a.94.94,0,0,1,1.29.28,2.22,2.22,0,0,1,.29,1.42,3.45,3.45,0,0,0,0,1.06.91.91,0,0,0,.71.71c.61.07,1.45-1,1.87-1.43,1.06-1,.46-2.9.43-4.25a1.9,1.9,0,0,1,.07-.67.66.66,0,0,1,.47-.45c.65-.12.87.87.86,1.32a1.66,1.66,0,0,0,.18,1,.75.75,0,0,0,.64.3c.62,0,.91-1,1.33-1.41a.83.83,0,0,1,.93-.17C176.22,119.54,176,120.25,175.72,120.95Z"/><path class="cls-6" d="M141.84,105.22l-.1.1Z"/><path class="cls-6" d="M143.23,103.73q-.34.43-.72.84Q142.89,104.17,143.23,103.73Z"/><polygon class="cls-6" points="201.76 100.02 197.88 101.87 197.88 101.88 201.76 100.02"/><path class="cls-6" d="M140.9,106l0,0q.41-.31.79-.64h0a12.67,12.67,0,0,1-1.73,1.3h0Q140.47,106.33,140.9,106Z"/><path class="cls-6" d="M142.5,104.58h0c-.22.23-.45.45-.68.66l.25-.24C142.22,104.85,142.37,104.72,142.5,104.58Z"/><polygon class="cls-6" points="140 106.62 140.01 106.62 140.01 106.62 140 106.62"/><path class="cls-4" d="M175.17,84.2l-.47-.43v0Z"/><path class="cls-4" d="M172.56,108c.22-.06.45-.12.67-.19l.33-.11.62-.25.35-.16.58-.29.34-.2.55-.34.28-.2q.48-.34.93-.72l.37-.32.39-.38.36-.38.34-.4.35-.44.29-.39c.13-.18.25-.38.37-.57l.2-.32q.26-.45.48-.92c0-.11.09-.22.14-.32s.19-.46.28-.69.09-.26.13-.39.14-.45.19-.67l.1-.4c.05-.24.1-.49.14-.74s0-.24.06-.36c0-.37.08-.75.09-1.13a9.85,9.85,0,0,0-.08-1.53s0,0,0-.07a12.46,12.46,0,0,0-.31-1.54l0-.11a15.85,15.85,0,0,0-.52-1.55l0-.12c-.21-.52-.44-1-.7-1.54l-.06-.11q-.4-.77-.88-1.53l-.06-.09c-.32-.51-.67-1-1-1.49l0-.06q-.56-.73-1.18-1.42l0,0c-.42-.46-.85-.9-1.3-1.31h0l-.42-.13C176.72,92.28,176.72,100.58,172.56,108Z"/><path class="cls-4" d="M131.56,83.51l-.48,0,.48,0Z"/><path class="cls-4" d="M121.66,97.8c0,.26.07.52.11.78s.07.3.1.45.11.45.17.67.1.31.15.47.14.41.22.61.13.32.19.47.17.38.26.56.15.31.24.46.2.35.31.51.18.3.28.44.22.31.34.46.21.3.33.44l.19.21a12.06,12.06,0,0,0,1,1l.28.26c.18.15.36.29.55.43l.31.24.58.38.33.2.63.34.34.16.68.29.32.12c.24.09.49.17.74.24l.27.07.83.18a28,28,0,0,1,.15-24.76l-.48,0-.74.1-.41.06q-.48.09-1,.22l-.12,0q-.51.14-1,.32l-.07.06c-.41.38-.81.77-1.2,1.18l-.14.15q-.52.56-1,1.16l-.17.22a21.11,21.11,0,0,0-1.85,2.81l-.15.28q-.33.62-.6,1.25l-.1.23a15.07,15.07,0,0,0-.51,1.44c0,.09,0,.19-.07.28q-.16.58-.26,1.14c0,.13,0,.25-.06.38a9.85,9.85,0,0,0-.11,1.36c0,.41,0,.81.06,1.2C121.62,97.54,121.65,97.67,121.66,97.8Z"/><path class="cls-5" d="M140,106.62c.31-.19.6-.39.89-.61Q140.47,106.33,140,106.62Z"/><path class="cls-5" d="M142.5,104.58c-.13.14-.28.27-.42.41C142.22,104.85,142.37,104.72,142.5,104.58Z"/><path class="cls-5" d="M141.91,118.76c2.14.34,13.86,2.06,21.21-.31L184,107.27c0-.2,0-.41-.05-.59-.37-4.79.62-8.85,3.33-12.16a16.14,16.14,0,0,1,2.34-2.36c.93-.76,2.1-1.49,3.37-.42,1.11.94,1.57,2.63.73,3.32a12.16,12.16,0,0,0-4.46,9.38l8.67-4.66c0-3.41,0-6.83-.1-10.24C197.31,67.63,180.67,49.24,159,46l-1.23,3.12-1.32,3.34-1,3,3.85,2.42-5,9.11L158,69.82l-4,9.34L151.38,85l.54-5.87.55-5.91-5.59-3,2.86-9.06-4.6-1.81.16-10.16.05-3.26,0,0C126,48.49,110,62.3,106.34,81.46c-1.11,5.8-1.11,11.81-1.35,17.77l9.37,5a12.07,12.07,0,0,0-4.44-9.12c-.84-.69-.38-2.39.73-3.32,1.27-1.07,2.44-.35,3.37.42a16.09,16.09,0,0,1,2.41,2.44c2.66,3.3,3.63,7.34,3.26,12.08m55-22.91.47.43-.47-.41-.32-.28Zm-34.88,23h0A12.35,12.35,0,0,1,137,108l-.21.06a11.9,11.9,0,0,1-1.21.26l-.36.06a11.62,11.62,0,0,1-1.49.12c-.4,0-.79,0-1.17,0s-.7-.08-1-.14h-.1c-.28-.05-.56-.12-.83-.19l-.27-.07c-.25-.07-.49-.15-.74-.24l-.32-.12-.68-.29-.34-.16-.63-.34-.33-.2-.58-.38-.31-.24c-.18-.14-.37-.28-.55-.43l-.28-.26a12.06,12.06,0,0,1-1-1l-.19-.21c-.12-.14-.22-.29-.33-.44s-.23-.3-.34-.46-.19-.3-.28-.44-.21-.34-.31-.51-.16-.3-.24-.46-.18-.37-.26-.56-.13-.31-.19-.47-.15-.4-.22-.61-.1-.31-.15-.47-.12-.45-.17-.67-.07-.3-.1-.45-.08-.52-.11-.78,0-.26-.05-.39c0-.4-.06-.8-.06-1.2a9.85,9.85,0,0,1,.11-1.36c0-.13,0-.25.06-.38q.1-.57.26-1.14c0-.09,0-.19.07-.28a15.07,15.07,0,0,1,.51-1.44l.1-.23q.27-.63.6-1.25l.15-.28A21.11,21.11,0,0,1,125.28,87l.17-.22q.48-.6,1-1.16l.14-.15c.39-.41.79-.81,1.2-1.18l.06-.06h0q.49-.18,1-.32l.12,0q.47-.12,1-.22l.41-.06.74-.1.48,0c.25,0,.5,0,.75,0,7.28-.06,12,5.85,11.89,13.06,0,.49,0,1-.08,1.44,0,.14,0,.27-.05.4,0,.34-.09.68-.16,1,0,.14-.06.28-.09.42-.07.33-.16.65-.25,1l-.11.35q-.17.53-.39,1l-.08.2a12.3,12.3,0,0,1-3.17,4.39l.19-.13Zm2-1.53-.1.1a12.54,12.54,0,0,1-1.73,1.3,12.67,12.67,0,0,0,1.73-1.3l.09-.09c.23-.21.46-.43.68-.66s.49-.55.72-.83q-.34.43-.72.84C142.3,104.8,142.07,105,141.84,105.22Zm17.9,11.28c-1.26,1.21-2.64.89-3.79-.21-1.35-1.3-2.51-4.05-4.79-3.58-1.71.36-2.62,2.49-3.76,3.58s-2.53,1.42-3.79.21a2.39,2.39,0,0,1-.2-3.4,24.93,24.93,0,0,0,4.5-7.07c.53-1.46,1.1-3.54,2.89-4l0-.1,1.42-.14.12.31c1.54.61,2.59,2.63,3.11,4a25.26,25.26,0,0,0,4.46,7A2.39,2.39,0,0,1,159.74,116.5Zm21.65-18.64c0,.12,0,.24-.06.36s-.08.5-.14.74l-.1.4c-.06.23-.12.45-.19.67s-.08.26-.13.39-.18.46-.28.69-.09.22-.14.32q-.22.47-.48.92l-.2.32c-.12.19-.24.38-.37.57l-.29.39-.35.44-.34.4-.36.38-.39.38-.37.32q-.45.38-.93.72l-.28.2-.55.34-.34.2-.58.29-.35.16-.62.25-.33.11-.68.22-.24,0a12,12,0,0,1-1.27.25l-.32,0a11.7,11.7,0,0,1-1.6.08,11.5,11.5,0,0,1-1.42-.13l-.38-.07c-.35-.06-.71-.14-1-.24l-.35-.1a12.15,12.15,0,0,1-1.22-.45l-.07,0a12.41,12.41,0,0,1-1.33-.68h0a11.62,11.62,0,0,1-1-1l0,0a12.7,12.7,0,0,1-2.27-3.57l0-.11c-.16-.38-.3-.76-.42-1.16l-.1-.35c-.09-.33-.18-.66-.25-1,0-.14-.06-.29-.09-.43-.06-.33-.11-.67-.14-1,0-.14,0-.28,0-.42,0-.48-.06-1-.06-1.44.09-7.4,5-13.13,12.47-12.85.4,0,.79.05,1.17.1l.4.06.73.14.47.11.64.19h0l.42.13h0c.45.41.88.85,1.3,1.31l0,0q.62.68,1.18,1.42l0,.06c.37.48.71,1,1,1.49l.06.09q.48.75.88,1.53l.06.11c.26.51.5,1,.7,1.54l0,.12a15.85,15.85,0,0,1,.52,1.55l0,.11a12.46,12.46,0,0,1,.31,1.54s0,0,0,.07a9.85,9.85,0,0,1,.08,1.53C181.47,97.11,181.44,97.49,181.39,97.86Z"/><path class="cls-5" d="M140.94,106c.27-.2.54-.42.79-.64Q141.35,105.67,140.94,106Z"/><path class="cls-5" d="M150.82,101.93l0,.1h0Z"/><path class="cls-5" d="M152.36,102.1l-.12-.31.12.31Z"/><path class="cls-5" d="M151,102a2.49,2.49,0,0,1,1.39.14l-.12-.31-1.42.14,0,.1Z"/><path class="cls-5" d="M140.94,106l0,0c-.29.22-.58.42-.89.61h0a12.54,12.54,0,0,0,1.73-1.3h0C141.48,105.56,141.21,105.77,140.94,106Z"/><polygon class="cls-5" points="140.01 106.62 140 106.62 140.01 106.62 140.01 106.62"/><path class="cls-5" d="M140,106.62l-.19.13h0Z"/><path class="cls-5" d="M172.31,108.11l.24,0v0Z"/><path class="cls-5" d="M170.72,108.4a12,12,0,0,1-1.6.08A11.7,11.7,0,0,0,170.72,108.4Z"/><path class="cls-5" d="M172.55,108.06l.68-.22c-.22.07-.44.13-.67.19Z"/><path class="cls-5" d="M127.84,84.27l-.06.06.06-.06Z"/><path class="cls-5" d="M130.58,108.09c.27.07.55.14.83.19h0Z"/><path class="cls-5" d="M131.42,108.28h.1l-.1,0Z"/><path class="cls-4" d="M201.63,217.11c.35,3.51,1.15,7.39,3.7,8.46,1.87.79,4.64.93,6.31-.42,1.2-1,1.76-2.59,2.62-3.82s2.63-2.21,3-3.47c.77-2.45-1.33-4.12-3-5.46a9.75,9.75,0,0,1-3.32-5.07A137.61,137.61,0,0,1,205.86,190a10.68,10.68,0,0,0-1.28-3.64,3.06,3.06,0,0,0-5.78.91,10.1,10.1,0,0,0,0,3.8l.18,1.58,2.29,19.67C201.38,213.47,201.44,215.24,201.63,217.11Z"/><path class="cls-4" d="M86,209.95c-2.07,3.66-6,8.4-3.67,11.82.73,1.1,2.66,1.5,3.88,2.48s2.16,2.34,3.59,2.94c2.39,1,6.5-.7,7.55-3,.7-1.54.26-3.67.3-5.33a59.71,59.71,0,0,0-.67-6.08c-.28-3.48.94-6.41,2.16-9.52,1.36-3.45,1.64-7.65,2.35-11.3l.35-1.79c.44-2.26.85-4.73-.24-6.75a4.25,4.25,0,0,0-5.38-2c-1.66.85-2.34,2.84-2.86,4.63-2.12,7.26-4,14.62-6.38,21.82A11.73,11.73,0,0,1,86,209.95Z"/><path class="cls-5" d="M65.43,232.29C70,235.6,78.9,235,81.1,229.24a8,8,0,0,0,.27-5.51,27.25,27.25,0,0,0-1-2.83,26.47,26.47,0,0,1-2-5.89c-.35-2.57.45-5.06,1-7.54a14.06,14.06,0,0,0,.51-3.61,9.7,9.7,0,0,0-1.47-3.63c-3.77-6.77-13-.33-17.55,2.16-2.49,1.35-5.92,3.19-6.94,6s.08,6.47,1.18,9.09C57.24,222.62,60.8,228.92,65.43,232.29Z"/><path class="cls-5" d="M67.53,190.36a10,10,0,0,0,1.1,3.65c.28.46.8,1.2,1.37,1.33a6.84,6.84,0,0,0,2.25-.25c.8-.2,1.58-.49,2.36-.73s1-.45,1.12-1l-8.38-4.65C67.39,189.29,67.44,189.82,67.53,190.36Z"/><path class="cls-5" d="M75.31,190c-.3-1.7-.68-3.32-1.1-5-.21-.84-.39-1.65-.68-2.51-.6-1.78-2.85-1.6-4.3-1.13a8.29,8.29,0,0,0-2,1.15c0,1.73,0,3.47.07,5.2,0,.35,0,.7.07,1.06l8.38,4.65a1.47,1.47,0,0,0,0-.38A29.55,29.55,0,0,0,75.31,190Z"/><path class="cls-5" d="M60.27,185.53c-.86.35-1.64.82-2.48,1.2-.58.26-.65.28-.73.86a13,13,0,0,0,.45,3.84c.41,2,1.07,4,1.34,5.34.35,1.78.48,1.87,1.85,2.28a5.69,5.69,0,0,0,4.9-1.27c1.88-1.66.56-3.64,0-5.6a27.41,27.41,0,0,0-2.42-5.76L61,185.23Z"/><path class="cls-5" d="M61.65,185a6.28,6.28,0,0,0-.65.22l2.16,1.2c-.16-.28-.31-.57-.48-.85C62.34,185,62.34,184.83,61.65,185Z"/><path class="cls-5" d="M57.39,199.23c-.36-1.44-1.47-2.35-2.26-3.52a16,16,0,0,0-2.66-3.33,4.94,4.94,0,0,0-1.12-.84c-.34-.14-.44-.1-.86,0a8.57,8.57,0,0,0-2.8,1.57c-1.6,1.4-.64,3.75.22,5.32s1.84,2.79,2.38,3.8c.7,1.3.85,1.33,2.22,1.26C54.41,203.43,57.89,201.23,57.39,199.23Z"/><path class="cls-5" d="M67.37,179.1c1.93.38,4.52-1,4.06-3.23-.33-1.58-5.22-10.65-6.11-5.42a22.58,22.58,0,0,0,0,5C65.38,176.39,66.38,178.91,67.37,179.1Z"/><path class="cls-5" d="M57.8,183.45l-2.44-1.35C55.78,183.65,56.12,184.24,57.8,183.45Z"/><path class="cls-5" d="M59.25,182.64c1.82-1.25,2.06-2.63.65-5.05-1-1.77-1.75-4.33-3.91-4.88-2.52-.64-1.08,7.67-.82,8.67l.19.72,2.44,1.35.19-.08A11,11,0,0,0,59.25,182.64Z"/><path class="cls-5" d="M50.77,189.24c0-.53-1.32-2.07-1.65-2.5-1.27-1.61-1.73-3.75-3.38-5.09-1-.79-2.82-1-3.52.26-.49.9.23,2.52.43,3.45.31,1.45.72,5.79,2.46,6.33.54.17,2.41-1,3.14-1.22C49.2,190.25,50.69,190.71,50.77,189.24Z"/><path class="cls-5" d="M240.88,202.54c-4.23-3.09-12.45-10.71-17.1-4.51-3.13,4.17-1.78,8.72-2.58,13.47a17.82,17.82,0,0,1-1.78,5c-.48,1-1,2-1.48,3a10,10,0,0,0-.75,6.94c1.4,6,10.17,7.81,15.12,5.14s9.42-8.47,12.25-13.31c1.44-2.45,3-6,2.4-8.85S243.17,204.22,240.88,202.54Z"/><path class="cls-5" d="M232.63,194.35c1.39-.35,1.53-.43,2-2.2a13.5,13.5,0,0,1,.56-1.72l-6.1,3.28A5.69,5.69,0,0,0,232.63,194.35Z"/><path class="cls-5" d="M227.5,192.53a4.9,4.9,0,0,0,1.55,1.19l6.1-3.28c.24-.63.52-1.25.8-1.88Z"/><path class="cls-5" d="M237.6,183.14c0-1.77-.3-1.24-1.62-2.11-2.87-1.91-3.84-1.22-5.48,1.47-1.55,2.54-3.55,5.14-3.66,8.26a2.61,2.61,0,0,0,.66,1.77l8.45-4c.22-.5.45-1,.65-1.5A11,11,0,0,0,237.6,183.14Z"/><path class="cls-5" d="M236,195.15c-.31,2.53,3.48,4.4,5.45,4.1,1.42-.22,1.56-.29,2.15-2,.45-1.34,1.38-3.19,2.05-5.11.86-2.47,1.3-5-.23-6.77-.11-.12-.2-.21-.29-.29l-5.28,2.84C237.95,190.14,236.26,193.16,236,195.15Z"/><path class="cls-5" d="M244.23,184.66l-1.27.6-.14.07a10.68,10.68,0,0,0-3,2.58l5.28-2.84A1.11,1.11,0,0,0,244.23,184.66Z"/><path class="cls-5" d="M244.23,184.66a4.65,4.65,0,0,0-1.27.6Z"/><path class="cls-5" d="M251.36,203.86c.76-1,1.42-2.2,2.21-3.21l.37-.47c.31-.39.62-.78.91-1.2a8.13,8.13,0,0,0,.7-1.26,2.8,2.8,0,0,0-1.09-3.58c-2.1-1.31-3.83.12-5.38,1.64-.81.8-1.64,1.61-2.43,2.36-1.09,1-2.56,2-1.68,3.6a6.41,6.41,0,0,0,4,3.06C250.34,205.06,250.49,205,251.36,203.86Z"/><path class="cls-5" d="M240.88,175.36a22.6,22.6,0,0,0,.67-5c-.1-3-2.45-1.16-3.64.11a22.68,22.68,0,0,0-2.32,3c-.71,1.08-1.51,2.85-.72,4.08a2.66,2.66,0,0,0,.63.64l4.27.06A7.15,7.15,0,0,0,240.88,175.36Z"/><path class="cls-5" d="M238.89,179a2.31,2.31,0,0,0,.89-.71l-4.27-.06A3.84,3.84,0,0,0,238.89,179Z"/><path class="cls-5" d="M248.72,183.59a2.55,2.55,0,0,0,.48-.72L247.08,184A1.85,1.85,0,0,0,248.72,183.59Z"/><path class="cls-5" d="M250.71,177.28c.13-.86.41-2.27-.12-3.06a.87.87,0,0,0-.88-.44c-2.22.25-3.28,2.7-4.54,4.31l-.17.23,5.49.07C250.56,178,250.65,177.65,250.71,177.28Z"/><path class="cls-5" d="M246.18,183.74a3.72,3.72,0,0,0,.9.27l2.12-1.14a5.57,5.57,0,0,0,.28-.69Z"/><path class="cls-5" d="M244.37,182.34a3.69,3.69,0,0,0,.79.81,5,5,0,0,0,1,.6l3.3-1.55c.14-.43.26-.87.37-1.23.25-.85.46-1.71.64-2.58l-5.49-.07C244.11,179.52,243.44,181,244.37,182.34Z"/><path class="cls-5" d="M258.65,184a11.91,11.91,0,0,0-3,3.4c-.4.53-.68,1-1,1.57s-1,1-1.16,1.69c-.34,1.33.79,1.18,1.7,1.69.69.4,1.22,1.05,1.85,1.49a1.07,1.07,0,0,0,.94.22c1.16-.34,1.32-2,1.78-2.92.29-.57.55-1.13.82-1.71.42-.91.74-1.83,1.09-2.77.25-.67.75-1.16.49-1.92C261.62,183.4,259.72,183.4,258.65,184Z"/><polygon points="146.87 70.25 152.47 73.25 151.92 79.17 151.38 85.03 153.92 79.17 157.97 69.82 154.36 66.97 159.33 57.86 155.48 55.44 156.47 52.49 156.47 52.49 150.16 48.78 145.34 45.96 145.29 49.22 145.13 59.38 149.73 61.19 146.87 70.25"/><polygon points="175.19 84.22 175.19 84.22 175.2 84.22 175.19 84.22"/><path d="M158.91,97.76c0,.14,0,.28,0,.42,0,.34.08.68.14,1,0,.15.06.29.09.43.07.34.15.67.25,1l.1.35c.12.39.26.78.42,1.16l0,.11a12.7,12.7,0,0,0,2.27,3.57l0,0a11.62,11.62,0,0,0,1,1h0a12.55,12.55,0,0,0,1.33.68l.07,0a12.15,12.15,0,0,0,1.22.45l.35.1c.34.1.7.17,1,.24l.38.07a11.5,11.5,0,0,0,1.42.13,12,12,0,0,0,1.6-.08l.32,0a13,13,0,0,0,1.27-.25l.25-.07c4.16-7.45,4.16-15.75,2.2-24h0l-.64-.19-.47-.11-.73-.14-.4-.06c-.39,0-.78-.09-1.17-.1-7.51-.28-12.38,5.45-12.47,12.85C158.84,96.81,158.87,97.29,158.91,97.76Z"/><path d="M127.85,84.27h0l-.06.06.07-.06Z"/><path d="M131.51,108.29c.34.06.69.11,1,.14s.78.05,1.17,0a11.62,11.62,0,0,0,1.49-.12l.36-.06a11.9,11.9,0,0,0,1.21-.26L137,108a12.35,12.35,0,0,0,2.82-1.24,12.3,12.3,0,0,0,3.17-4.39l.08-.2q.21-.51.39-1l.11-.35c.1-.32.18-.64.25-1,0-.14.06-.28.09-.42.06-.33.11-.67.16-1,0-.14,0-.27.05-.4,0-.47.08-1,.08-1.44.08-7.21-4.61-13.12-11.89-13.06-.26,0-.5,0-.75,0h0a28,28,0,0,0-.15,24.76Z"/><path d="M147.39,116.29c1.14-1.09,2-3.22,3.76-3.58,2.28-.47,3.44,2.28,4.79,3.58,1.15,1.1,2.53,1.42,3.79.21a2.39,2.39,0,0,0,.2-3.4,25.26,25.26,0,0,1-4.46-7c-.52-1.39-1.57-3.42-3.11-4A2.49,2.49,0,0,0,151,102l-.19.06c-1.78.47-2.36,2.55-2.89,4a24.93,24.93,0,0,1-4.5,7.07,2.39,2.39,0,0,0,.2,3.4C144.86,117.71,146.24,117.39,147.39,116.29Z"/><path class="cls-5" d="M187.93,197.24c.77,4.1-.76,7.26-3.36,10.25-2.38,2.73-5.76,3.69-8.67,5.46A23.92,23.92,0,0,1,173,214.4c-1.58.69-2.23,2.14-3,3.51-.5.9-1,1.78-1.47,2.7-1.2,2.54-3.21,3.6-6,3.75-4.42.25-8.87.86-13.13-.83a9.38,9.38,0,0,1-3.94-2.47c-3.14-4-7.58-6-12-8.12-3.08-1.51-6.38-2.8-9-4.89a8.79,8.79,0,0,1-3.21-10.12c.69-2.11,1.27-4.26,2.1-6.31,1.39-3.44,6.39-5.71,10.06-4.88a40,40,0,0,1,11.55,5.08c4.56,2.74,9.16,2.48,13.92,1a12.38,12.38,0,0,0,4.62-2.75c3.55-3.22,7.6-5.45,12.67-4.68a13,13,0,0,1,6.34,3.3,12.21,12.21,0,0,1,4,5.23C187,195,187.5,196.12,187.93,197.24Zm-17.26,8.18c1.21-.32,2.69-.73,4.19-1.09,4.71-1.15,4.43-2.92,3.43-6.52a5.92,5.92,0,0,0-.44-1.18,1.44,1.44,0,0,0-.62-.69,16.57,16.57,0,0,0-3.7-1.13,3.87,3.87,0,0,0-2.72.7,10,10,0,0,0-3.41,7.76C167.39,205.51,168.12,206.24,170.68,205.42Zm-29.29-.83c1.53-2.72.36-4.72-1.85-6.71a13.16,13.16,0,0,0-5.24-2.47c-1.07-.3-3-.2-3.47.48-2.07,2.79-1.57,5.79,2,7A72.31,72.31,0,0,0,141.39,204.58Z"/><path class="cls-5" d="M231.77,99.85a21.68,21.68,0,0,1-2.49-10.4,2.45,2.45,0,0,0-.08-1,2,2,0,0,0-.7-1c-.14-.08-.64.28-.86.55a15.32,15.32,0,0,0-3.65,11c.23,5.1.24,5.1,4.22,6.36.09,0,.14.14,0,0l-.11.44a17.15,17.15,0,0,0,4.65-2.57A14.12,14.12,0,0,0,231.77,99.85Z"/><path class="cls-4" d="M246.75,115.75c-1.06-.81-2.43-1.2-3.55-1.94s-2.27-1.4-2.75-2.41a12,12,0,0,0-7.36-6.61c-.13-.51-.24-1-.33-1.47a17.15,17.15,0,0,1-4.65,2.57c-.63,2.49-1.21,4.87-1.87,7.21s-.63,4.78,1,6.8a35.68,35.68,0,0,0,3.72,3.78c5.49,5.07,13,1.84,16.42-2.24C249.1,119.39,248.87,117.36,246.75,115.75Z"/><path class="cls-5" d="M256,93.7l1.54,4c1.72,4.51-.79,11.86-4.5,14.15-1.23.76-3,.75-4.51.9a6.89,6.89,0,0,1-2.85-.32,2.49,2.49,0,0,1-1.23-1.42,1.83,1.83,0,0,1,.33-1.5,2.65,2.65,0,0,1,1.5-.93c3.17-.51,4-3.31,5.15-5.53a70.85,70.85,0,0,0,3.06-7.53c.24-.59.5-1.17.75-1.75Z"/><path class="cls-5" d="M236.5,102.93c.57-.77.82-1.42,1.29-1.67,4-2.19,5.94-6,7.7-9.93.33-.74.36-2,1.75-1.72a2.32,2.32,0,0,1,1.92,2.31c.54,3.74-.6,7.21-1.92,10.59-.36.91-1.61,1.55-2.55,2.15s-2.16,1-3.18,1.63a3,3,0,0,1-4-.49C236.86,105.09,236.8,103.84,236.5,102.93Z"/><path class="cls-5" d="M263.32,102.78c2,3.65,2.95,7.4.79,11.36a13.55,13.55,0,0,1-5.45,5.18,2.13,2.13,0,0,1-1.54.22c-2-.68-4-1.44-5.91-2.25-.4-.16-1-.81-.93-1a3,3,0,0,1,1.2-1.4c1.37-.63,2.82-1.07,4.23-1.61,2.62-1,4.1-3.09,5.13-5.54.71-1.67,1.27-3.41,1.9-5.11Z"/><path class="cls-5" d="M262.18,125.26c-1.38,3.63-5.72,5.56-9,3.84a43,43,0,0,1-5.36-3.58,1.47,1.47,0,0,1-.38-1.33c.66-1.7,4-3,5.49-2a18.09,18.09,0,0,0,8.86,2.88C261.91,125.06,262,125.19,262.18,125.26Z"/><path class="cls-4" d="M193.67,95.07c.84-.69.38-2.39-.73-3.32-1.27-1.07-2.44-.35-3.37.42a16.14,16.14,0,0,0-2.34,2.36c-4,5-4,11.59-2.1,17.39.2.61.52,1.29,1.14,1.42a1.3,1.3,0,0,0,1.28-.65,3.81,3.81,0,0,0,.45-1.45C188.94,105.59,188.9,99,193.67,95.07Z"/><path class="cls-4" d="M119.67,106.68c.2-4.3-.4-8.54-3.25-12.08A16.09,16.09,0,0,0,114,92.16c-.93-.76-2.1-1.49-3.37-.42-1.11.94-1.57,2.63-.73,3.32a11.88,11.88,0,0,1,4,6.4c.71,2.95.63,6,1.57,8.89a4.17,4.17,0,0,0,1.11,2,1.61,1.61,0,0,0,2.09.1,2.36,2.36,0,0,0,.53-1.41C119.44,109.58,119.61,108.13,119.67,106.68Z"/><path class="cls-4" d="M153.53,141a3.39,3.39,0,0,0,1.25-.41,10.84,10.84,0,0,1,5.95-.86c.42.06.95.09,1.15-.28a.66.66,0,0,0-.14-.73,1.72,1.72,0,0,0-.68-.4,10.11,10.11,0,0,0-6-.35,5,5,0,0,0-1.85,1.12C152.52,139.74,152.14,141.08,153.53,141Z"/><path class="cls-4" d="M117.14,211.54l.56.54c1.11,1,2.6,2,4,1.54a3.11,3.11,0,0,0,1.85-2.76,9.13,9.13,0,0,0-.64-3.44c-1.09-3.38-1.84-7-3-10.33-1.11-3.06-4.3-6-6.33-8.52l-1.09-1.46c-1.38-1.84-2.93-3.8-5.16-4.35a4.25,4.25,0,0,0-5.07,2.66c-.48,1.81.53,3.64,1.51,5.23,2.42,4,4.94,7.85,7.36,11.81C113.09,205.7,114.45,208.8,117.14,211.54Z"/><path class="cls-5" d="M231.63,137.35c1.52-3.92,4.67-9.18,1.91-12.23-.89-1-2.85-1.1-4.2-1.89s-2.48-2-4-2.38c-2.51-.65-6.32,1.64-7,4.09-.47,1.63.28,3.67.48,5.31a59.71,59.71,0,0,0,1.55,5.92c.78,3.41,0,6.48-.75,9.73-.85,3.62-.51,7.81-.68,11.52l-.08,1.82c-.11,2.3-.15,4.8,1.22,6.64a4.25,4.25,0,0,0,5.61,1.17c1.52-1.09,1.9-3.15,2.16-5,1-7.49,1.87-15.05,3.14-22.51A11.73,11.73,0,0,1,231.63,137.35Z"/><path class="cls-4" d="M200.59,140.31l-.63-.46c-1.24-.86-2.87-1.63-4.21-.94a3.11,3.11,0,0,0-1.43,3,9.13,9.13,0,0,0,1.13,3.31c1.57,3.18,2.84,6.7,4.5,9.78,1.54,2.87,5.13,5.33,7.5,7.51l1.29,1.28c1.63,1.62,3.45,3.34,5.74,3.56a4.25,4.25,0,0,0,4.63-3.37c.22-1.86-1.06-3.52-2.26-5-3-3.56-6-7.05-9-10.61C205.45,145.5,203.65,142.62,200.59,140.31Z"/><path class="cls-5" d="M97.17,117.95a2,2,0,0,0-1.19-.05,2.44,2.44,0,0,0-.85.47,21.68,21.68,0,0,1-10,3.72,18.92,18.92,0,0,0-4.17,1.39,10.54,10.54,0,0,1,.51,5.77l1-1.1c-.17,0,0,0,0,0,3.26,2.61,3.27,2.62,7.63,0A15.32,15.32,0,0,0,97.2,119C97.29,118.64,97.32,118,97.17,117.95Z"/><path class="cls-4" d="M80.93,123.48l-.67.25a12,12,0,0,0-9.59-2.44c-1.11.17-2.4-.47-3.53-.94s-2.33-1.43-3.59-1.87c-2.51-.87-4.33.08-5.07,2.65-1.48,5.12,0,13.14,7.28,14.89A35.69,35.69,0,0,0,71,137c2.58.22,4.56-1,6.2-3,1.37-1.6,2.8-3.18,4.27-4.8A10.54,10.54,0,0,0,80.93,123.48Z"/><path class="cls-5" d="M76.71,98.51l-4.22,1c-4.71,1.08-9.42,7.26-9.25,11.61.06,1.44,1,2.89,1.76,4.25a6.89,6.89,0,0,0,1.85,2.19,2.49,2.49,0,0,0,1.87.23,1.83,1.83,0,0,0,1.07-1.11,2.65,2.65,0,0,0-.06-1.76c-1.35-2.92.55-5.13,1.73-7.35A70.85,70.85,0,0,1,76,100.8c.36-.52.69-1.07,1-1.6Z"/><path class="cls-5" d="M79.91,119.87c.32-.91.72-1.47.67-2-.43-4.58,1.68-8.27,4-11.93.43-.69,1.43-1.39.45-2.41a2.32,2.32,0,0,0-3-.31c-3.4,1.63-5.66,4.51-7.73,7.49-.56.81-.39,2.2-.36,3.32s.36,2.36.42,3.55a3,3,0,0,0,2.63,3C77.92,120.77,79,120.13,79.91,119.87Z"/><path class="cls-5" d="M65.11,97.51c-4.16.34-7.79,1.67-9.88,5.66A13.55,13.55,0,0,0,54,110.59a2.13,2.13,0,0,0,.67,1.4c1.67,1.28,3.41,2.49,5.16,3.65.36.24,1.23.38,1.31.24a3,3,0,0,0,.5-1.78c-.23-1.49-.68-2.94-1-4.41-.63-2.73.29-5.13,1.75-7.35,1-1.52,2.12-3,3.19-4.43Z"/><path class="cls-5" d="M47.06,111c-2.25,3.17-1.43,7.85,1.84,9.64a43,43,0,0,0,6,2.46,1.47,1.47,0,0,0,1.32-.43c1-1.49.29-5-1.38-5.69a18.09,18.09,0,0,1-7.32-5.75C47.39,111.07,47.2,111,47.06,111Z"/><path class="cls-5" d="M78.46,151.66c-3.1-1.84-8-3.74-7.77-7.22.07-1.12,1.33-2.21,1.82-3.45s.61-2.63,1.41-3.66c1.34-1.74,5.11-2.18,6.88-.9,1.18.85,1.76,2.61,2.5,3.82A51,51,0,0,1,85.4,145c1.28,2.69,3.43,4.35,5.67,6.14,2.49,2,4.48,5,6.57,7.38l1,1.18c1.29,1.49,2.65,3.14,2.7,5.09a3.57,3.57,0,0,1-3.15,3.69c-1.6.06-2.95-1.13-4.1-2.24-4.67-4.49-9.24-9.14-14-13.49A10.2,10.2,0,0,0,78.46,151.66Z"/><path class="cls-4" d="M117.92,137.42l.59-.51c1.17-1,2.71-1.88,4.11-1.3a3.11,3.11,0,0,1,1.68,2.87,9.13,9.13,0,0,1-.84,3.4c-1.29,3.3-2.26,6.92-3.64,10.13-1.29,3-4.65,5.75-6.83,8.12l-1.18,1.39c-1.49,1.76-3.15,3.62-5.42,4a4.25,4.25,0,0,1-4.9-3c-.38-1.83.75-3.6,1.82-5.13,2.66-3.8,5.4-7.54,8.05-11.35C113.53,143,115.07,140,117.92,137.42Z"/><path class="cls-4" d="M178,211.37q-.11.37-.21.75c-.38,1.47-.54,3.25.58,4.27a3.11,3.11,0,0,0,3.31.3,9.13,9.13,0,0,0,2.71-2.21c2.44-2.58,5.3-5,7.61-7.61,2.15-2.44,3.22-6.66,4.44-9.64l.76-1.66c1-2.09,1.93-4.4,1.34-6.62a4.25,4.25,0,0,0-4.77-3.17c-1.82.44-2.94,2.21-3.87,3.84-2.31,4-4.52,8.1-6.83,12.12C181.21,205,179.13,207.69,178,211.37Z"/></g></g></svg>