<svg xmlns="http://www.w3.org/2000/svg" viewBox="0 0 300 300"><defs><style>.cls-1{isolation:isolate;}.cls-2{fill:#a2195b;}.cls-3{fill:#868686;mix-blend-mode:multiply;}.cls-4{fill:#cecdc9;}.cls-5{fill:#f8f7f6;}.cls-6{fill:#a9b1b2;}.cls-7{fill:#a3a2a0;}.cls-8{fill:#e84e1b;}.cls-9{fill:#f29100;}.cls-10{fill:#fff;}.cls-11{fill:#ffec00;}</style></defs><title>Artboard 1</title><g class="cls-1"><g id="Layer_1" data-name="Layer 1"><circle class="cls-2" cx="150.11" cy="149.11" r="147.1"/><ellipse class="cls-3" cx="151.86" cy="250.51" rx="76.68" ry="14.89"/><path class="cls-4" d="M257.39,148c-2.77-1.2-2-2.38-.71-4,7.81-10,8.61-24.12,2-34.15a21.71,21.71,0,0,0-7.3-6.57,23.39,23.39,0,0,0-4.19-2.21,10.15,10.15,0,0,0-1.33-.34c-1.37-.26-2.85-.32-4.19-.46h0a55.4,55.4,0,0,0-14.32-1.61c-2.56,0-4.34-.18-2.26-3.38s2.7-7,3.35-10.68l-.25-4.94.08,0c-1.95-13.17-11.28-19.24-24-15.57a3.71,3.71,0,0,1-3.27-.55c-3.9-2.34-8.12-2.85-12.2-.81-2.22,1.11-3.52.53-5.17-.86a33.75,33.75,0,0,0-18.9-8.22,41.24,41.24,0,0,0-14.1,1.12c-.92.23-2.34,1-2.08-1,1-7.39-6.75-10.26-8.4-16.29a2.68,2.68,0,0,0-2-1.3c-2.34-.21-3-1.56-3.24-3.65a3.61,3.61,0,0,0-3.21-3.32c-1.83-.28-2.91.88-3.72,2.21-1.88,3.08-2.26,6.4,0,9.31,1.3,1.64,1.22,2.93.82,4.75-1,4.3-1.32,8.66.83,12.8.32.61.79,1.23.32,2-1.55,2.44-1,5.32-1.48,8-2.25-1.05-5.07-2.9-7.57-3.18a3.7,3.7,0,0,0-.67,0l-.07-.09C104,64.22,95.61,71,92.69,87.43c-.37,2.09-1.62,1.36-2.56,1.33a23.3,23.3,0,0,0-14.2,3.69c-10.46,7-13.18,17.77-7.67,31.6-3.7-1-6.09,3.19-9.92,1.48a14.36,14.36,0,0,0-11.08-.14c-1.18.43-2.23,1-3.62,0a9.16,9.16,0,0,0-8.53-.9c-2.48.87-4.48.45-6.77-.44-5.55-2.15-9.83-.48-12,4.43-.67.43-.51,1-.27,1.59.73,4.37,3,6.49,7.7,7.1,1.15.15,2.39-.15,3,1.23,1.67,3.54,4.8,4,8.09,3.38s6.16-1.19,7.61,3c.39,1.14,2,1.85,3.12,2.75l1.63,2c.71,3.32,4.2,5.29,4.13,9.1-.17,9.17,4.57,14,14,14.61-.06.46-.11.92-.18,1.37-1.87,12.09,3.38,22.15,14.47,27.15,2,.91,1,1.5.48,2.53a23.45,23.45,0,0,0,3,25.2,22.12,22.12,0,0,0,12,9.28c.72.23,1.19.73,1.89.92a13.92,13.92,0,0,0,3.1.32,14.15,14.15,0,0,0,3.56.2,52.64,52.64,0,0,0,10.76-3.36c1.24-.54,2.33-.75,2.77.91,1.73,6.49,6.76,10.27,11.63,14.16.92.74,1.43,1.69,2.36,2.41,7.24,5.63,18.29,5.79,26.65,2.91a32,32,0,0,0,18.74-16.94c1-2.21,1.52-2.8,3.88-1.27,13.68,8.89,32.08,6.92,43.91-4.29,8.32-7.89,11.28-19.71,10.71-27.2,0-.59,0-1.18,0-1.77-.54-5.41-.55-5.36,4.89-4.32,2.31.44,4.67.67,7,1,13.87-1.62,19.5-9.31,16.82-23.19-.29-1.52.4-1.78,1.4-2.3a10.39,10.39,0,0,0,5.24-7.23C272.48,161.06,266,151.66,257.39,148Z"/><path class="cls-4" d="M83.45,228c-.57-1.79-1.55-3.43-1.72-5.38-.57-6.35,1.2-9.66,6.9-12.65,1.34-.7,2.7-1.34,4.36-2.16-2.83-1.47-5.19.22-7.84,0,.9-3.58,3.64-5.2,6.49-6.87s6.37-1.47,9.95-3.05c-3.52-1.72-6.8-2.47-9.8-1.11-5.28,2.38-9.43-.38-13.54-2.55a12.51,12.51,0,0,1-7-10.11A47.73,47.73,0,0,0,68.45,173c-1.06-2.88-2.62-5.41-3.07-8.54a21.29,21.29,0,0,1,5.38-17.18,22.74,22.74,0,0,1,13.45-7c6.32-.87,12.65,1,18.87,2.36,5,1.11,10.74,2.23,15.75.79,3.5-1,6.19-5.26,7.43-8.54,1.31-3.44,2.82-5.36,6.75-6.34,1.28,6.36,3.1,12.67,3.59,19.09.22,2.92,1.92,5.32,1.69,8.18-2.77.6-2.5,2.79-2.35,4.76a4.36,4.36,0,0,0,4.15,4.4c1.47,6.2,1.47,6.18,8,4.94q11.67-2.21,23.34-4.37c-1.45,3-3.3,5.29-7.15,4.12-.61-.18-1.26-1.18-1.82-.34s.13,1.75.86,2.42c2.56,2.35,7.73,2.25,10.35-.29.77-.75,1.26-1.48,2.61-1.38,5.46.39,7.22-1.26,7.78-7l54.52-10.52c1.43,2.14,2.64,1.93,4.95-.88l4.14-.81c2.09,1.7,4.85.9,7.2,2.1,6.26,3.21,9.89,11.75,7.28,18.12-1.61,3.93-3.1,4.19-5.78,1a16.83,16.83,0,0,0-8.9-5.5c-.92-.24-2.06-.59-2.63.34-.71,1.17.7,1.63,1.3,2.15a23.45,23.45,0,0,1,8.14,15.64,5.38,5.38,0,0,1-2.74,5.69,61.59,61.59,0,0,1-13.78,6.31c-.89.25-1.84.84-2.65,0s-.25-1.61,0-2.36c2.39-6.8.23-12.27-5.27-17.25-.06,3.07,1.24,5.7.7,8.43-.25,1.27-.14,2.61-.39,3.88s-.44,2.88-1.93,3.09c-1.23.17-1.3-1.46-1.88-2.28-1-1.4-2.49-3-3.86-2.07-1.05.74-2,2.66-.47,4.86,1.91,2.79-.75,5.09-2.7,6.45-3.67,2.55-7.68,4.78-12.49,4.36-.71-.06-1.63-.15-1.92.55-.43,1,.62,1.4,1.27,1.83a8.47,8.47,0,0,0,4.69,1.49c6.09,0,12.28.38,17.89-4.12.21,9.22-1.56,16.83-7.9,23.23-5.83,5.89-13,9.27-20.65,11.1-5.6,1.34-11.24.1-14.19-5.93-1-2.12-1.26-4,1-5.58a8.61,8.61,0,0,0,3.43-5.24,1.81,1.81,0,0,0-.49-2,1.39,1.39,0,0,0-1.93.12c-3.06,2.39-3.21.68-2.76-1.94.15-.9.46-1.87-.79-2.71-1.05,2.47-2,4.92-4.46,6.43a12,12,0,0,1-7.86,1.44c-3.91-.39-9-5.23-9.6-9-.23-1.35.59-2.23,1.18-3.24,1-1.7.3-2.14-1.38-1.83a19.55,19.55,0,0,1-6,.52c-4.57-.55-8.23-2.27-9.81-6.91-1.77-5.19-1-9.76,3.41-13.47,3-2.5,5.79-5.21,8.64-7.85.66-.62,1.49-1.25,1-2.6a26,26,0,0,1-18.54-2,17.54,17.54,0,0,1-2.28,17.18c-3.09,4.36-8.11,6-13.38,4.87a29,29,0,0,1-9.46-3.7c-.48-.31-1-.74-1.61-.26s-.24,1.08-.21,1.66c.11,1.94,1.69,2.81,2.92,3.84,2.28,1.92,3.49,3.82.93,6.41a2.59,2.59,0,0,0-.69,2.29c-.23.36-1.12.68-1.47,1a5.73,5.73,0,0,0-1.07,1.28,7.3,7.3,0,0,0-1,3c-.19,2.81.6,5.38-1.11,7.94-1.3,1.94-3.45,2.91-5.47,3.9-1.78.87-2.57,2.81-4.21,4-1.13.82-1.87,1.06-2.47,2.4-.31.69-.35,1.72-.7,2.31-2.32,1.43-4.19-.1-6.25-.83C90,232.14,86.33,230.82,83.45,228Zm44.06-80.4c-.53.37-1.44.65-.78,1.51a2.4,2.4,0,0,0,2.47.85c.93-.22.46-1.12.49-1.76.29-1,1.58-1.9.4-3.07a1.79,1.79,0,0,0-2.22-.28C126.59,145.6,127.41,146.68,127.51,147.63Zm53.07,52.79c7.86,1.37,14.69-.79,20.65-5.88,2.86-2.44,5.37-5.43,9.6-5.5,1.95,0,1.17-1.46,1-2.31-.61-2.38-.55-5.28,1.55-6.05,4.72-1.74,4.72-5.61,5.87-9.35.86-2.76.24-5.11-.26-7.62a1.47,1.47,0,0,0-.81-1c-.74-.19-1,.49-1.12,1.06-1.72,7.73-15.08,9.94-20.25,1.84-.42-.66-.7-1.68-1.75-1.49s-1,1.2-1.24,2c-1.74,6.82-6.32,10.55-13,12-.75.16-1.88,0-1.92,1.14a2,2,0,0,0,1.5,1.8c3,1.25,6,2.06,9.32,1.22,1.11-.28,2.76-1.38,3.47.21.56,1.24-.16,2.72-1,4s-2.88,1.86-2.51,3.94c1.73.7,2.69-1.5,4.72-.92C191.94,196.07,186.45,198.42,180.58,200.42Zm-54.35-5.19c0-.08-.06-.18-.13-.23s-.14.06-.21.09a.67.67,0,0,0,.13.23S126.16,195.27,126.23,195.24Z"/><path class="cls-4" d="M255.51,117.72c3,7.65,2.08,17.35-1.93,24.44a21,21,0,0,1-3.31,4.48c-2.69,2.71-6.17,4.33-9.15,6.66-2,1.57-2.89,3.61-4.56,5.42-2.21,2.39-5.58,2.82-8.6,3.59l-11.45,2.94-47,12.05c-5.75,1.48-11.57,3-17.51,3s-12.09-1.65-16.42-5.72c-3.76-3.54-5.78-8.53-7.48-13.41a182.87,182.87,0,0,1-10.08-55.54c-.19-8,.13-18.19,5.74-24.62a19.88,19.88,0,0,1,10.56-5.8c1.56-.34,11.48-1.73,12.26-.06-1.86-4-4.88-5.3-8.46-5.35a2.22,2.22,0,0,1,1-2C150,56.92,167.67,57.44,180.5,68c1.41,1.16,3.65,2.84,2.88,4.47s-3.23.14-4.85-.12c-4.58-.74-9.08-1.27-12.7,2.35a14.94,14.94,0,0,1-6.81,4c-7.39,2.11-10.24,9.65-6,15.92.28-4,1.15-7.77,4.47-9.7a9.93,9.93,0,0,1,10.41.3c.68-4.54,2.82-6.69,7.2-7.6,4.06-.85,7.66.47,9.6,3.57.6,1,.74,2,2.36,2.18,6.24.69,10,4.7,12.79,10,1.05,2,.61,2.24-1.47,2.37-5.16.33-7.33,2.55-7.89,7.62.35-.16.75-.21.93-.43,2.08-2.76,5-3.15,8-2.39s4.43,3.34,5,6.3c.21,1,.37,2.1.6,3.14.17.76.06,1.91,1.17,1.89.9,0,1.25-1,1.54-1.78a9.24,9.24,0,0,0,.61-5.56c-.46-1.82.32-2.39,2.09-2a17.94,17.94,0,0,1,8.4,4.34c.51.46,1,1.18,1.78.72.65-.36.38-1,.33-1.6-.56-6.7-8.4-11.8-14.72-9.59-3.43,1.2-4.14.74-4.05-2.93.15-6.65-4.9-15.47-11.84-16.74-.88-.16-2-.3-2-1.57a2.63,2.63,0,0,1,1.42-2.32c3.21-2,6.58-2.6,10.17-1.12,1.66.69,3,.77,4.42-.78,2.22-2.42,5.46-2.34,8.19-1.7a20.21,20.21,0,0,1,13.25,9.36c.69,1.15,1.38,1.51,2.57,1.08l-.09-.08.25,5c-.65,3.71-1.26,7.47-3.35,10.68s-.3,3.41,2.26,3.38a55.4,55.4,0,0,1,14.32,1.61c-.08,1.6,1.16,2.42,2.24,2.91C250.32,106.07,253.18,111.81,255.51,117.72Z"/><path class="cls-5" d="M83.45,228l-.32,1.43a23.45,23.45,0,0,1-3-25.2c.53-1,1.53-1.63-.48-2.53-11.09-5-16.34-15.06-14.47-27.15.07-.45.12-.91.18-1.37-9.44-.57-14.18-5.44-14-14.61.07-3.81-3.42-5.78-4.13-9.1a26.16,26.16,0,0,1,0-5.27,25.75,25.75,0,0,1,6.52-13.12c.51-.54,1.64-1,1-1.95a2.3,2.3,0,0,0-2.52-.85,9.16,9.16,0,0,0-1.62.69c-3.83-1.67-4.27,3.31-6.64,3.82-2-1.41,1.54-4.23-1.8-4.77a10.88,10.88,0,0,0-5.62.25,25.46,25.46,0,0,0-3.22,1.44,18.15,18.15,0,0,1-5.26,1.9c1.82-4,1-5-3.35-4.63a13.48,13.48,0,0,0-5.48,1.36c-1,.53-1.93,1-2.93.08,2.22-4.91,6.5-6.59,12-4.43,2.29.89,4.28,1.31,6.77.44a9.17,9.17,0,0,1,8.53.9c1.39,1,2.45.45,3.62,0a14.36,14.36,0,0,1,11.08.14c3.83,1.72,6.22-2.51,9.92-1.48-5.51-13.83-2.79-24.6,7.67-31.6a23.3,23.3,0,0,1,14.2-3.69c.94,0,2.19.76,2.56-1.33C95.61,71,104,64.22,120.19,65c2,2.4,1.58,5.45,2.23,8.21-1.39-.29-2.76-.69-4.17-.84-10.74-1.19-20.43,6.83-20.33,16.74,0,1.83-.14,3.18,2.41,1.63,7.72-4.68,15.8-7.43,24.77-3.44l.4,2a42.63,42.63,0,0,0-10.87,1.43c-3.54,1.09-7.2,2.38-8.1,6.57-.54,2.52-1.8,3.39-4.22,3.84-5.5,1-7.65,4.62-6.6,10.1A12.66,12.66,0,0,0,98,116c.79,1.18,2,2.81-1,2.39-1.83-.25-2.26.91-2.56,2.25-.74,3.39-.23,6.3,3,8.35,1,.63,3,1.09,2.34,2.61-.57,1.31-2.48,1.1-3.88,1a5.59,5.59,0,0,1-4.45-3.16c-.36-.65-.25-1.9-1.46-1.59-.83.21-1.16,1.14-1.45,1.92-1.62,4.47-.35,8.45,2.5,11.89,1.78,2.15,1.2,2.92-1.17,3.36l-3.38.22c-.83-1-1.68-2-2.5-3-5.46-6.68-6.41-20.74,4.85-25.6,2.08-.9,2.64-1.92,1.41-3.95-3-4.87-1.47-9.23,1.69-13.37.46-.6,1.52-.84,1.25-2a14.1,14.1,0,0,0-7.3.48c-1.1.25-2.39-.45-3.33.66-5.05,1.64-9.09,5-10.34,9.91-1.84,7.19-2.13,14.66,4.58,21.06-2.9,0-5-.16-7.08.35s-4.2.75-6.27,1.26c-5.71,1.4-9.48,6.3-9,11.88.15,1.84.4,4.07,2,5.05,1.32.81,2.12-1.53,3.49-1.88.52-.13,1-.72,1.74.1a34,34,0,0,0-3,7.36c-1.52,5.93,1.79,10.57,8,11.1l.57,1.18c.26,6.36,3.49,12,4.13,18.31a12.51,12.51,0,0,0,7,10.11c4.11,2.17,8.26,4.93,13.54,2.55,3-1.35,6.28-.61,9.8,1.11-3.58,1.58-7,1.34-9.95,3.05s-5.59,3.28-6.49,6.87c2.65.18,5-1.5,7.84,0-1.66.82-3,1.46-4.36,2.16-5.71,3-7.47,6.31-6.9,12.65C81.9,224.6,82.88,226.24,83.45,228Z"/><path class="cls-4" d="M16.29,128.45c1,.91,2,.45,2.93-.08A13.48,13.48,0,0,1,24.71,127c4.35-.4,5.16.66,3.35,4.63a18.15,18.15,0,0,0,5.26-1.9,25.46,25.46,0,0,1,3.22-1.44,10.88,10.88,0,0,1,5.62-.25c3.33.54-.24,3.36,1.8,4.77,2.38-.51,2.82-5.49,6.64-3.82-2,3.33-3.54,6.92-6.06,9.92-3.14-1.36-5.34-3.34-4.12-7.82a6,6,0,0,0-3,4.62c-1,4.13-2.17,4.61-5.72,2.22a5.86,5.86,0,0,1-2.41-3c-.6-1.79-1.49-2-3.19-1.21-3.15,1.5-5.7,0-8-2.13-.65-.61-.87-1.74-2.09-1.59C15.79,129.46,15.63,128.89,16.29,128.45Z"/><path class="cls-6" d="M16,130c1.22-.15,1.44,1,2.09,1.59,2.26,2.12,4.81,3.63,8,2.13,1.71-.81,2.59-.58,3.19,1.21a5.86,5.86,0,0,0,2.41,3c3.55,2.39,4.76,1.91,5.72-2.22a6,6,0,0,1,3-4.62c-1.22,4.48,1,6.46,4.12,7.82l1,8.59c-1.08-.91-2.73-1.61-3.12-2.75-1.44-4.2-4.33-3.61-7.61-3s-6.42.16-8.09-3.38c-.65-1.38-1.89-1.08-3-1.23C19,136.54,16.76,134.42,16,130Z"/><path class="cls-7" d="M45.59,147.52l-1-8.59c2.53-3,4.08-6.59,6.06-9.92a9.08,9.08,0,0,1,1.62-.69,2.3,2.3,0,0,1,2.52.85c.6,1-.53,1.41-1,1.95a25.75,25.75,0,0,0-6.52,13.12,26.16,26.16,0,0,0,0,5.27Z"/><path class="cls-4" d="M89.83,145c2.36-.44,2.95-1.21,1.17-3.36-2.85-3.44-4.12-7.42-2.5-11.89.29-.79.61-1.71,1.45-1.92,1.21-.31,1.1.95,1.46,1.59a5.59,5.59,0,0,0,4.45,3.16c1.4.14,3.31.35,3.88-1,.65-1.51-1.34-2-2.34-2.61-3.21-2-3.73-5-3-8.35.29-1.34.73-2.5,2.56-2.25,3,.42,1.82-1.21,1-2.39a12.66,12.66,0,0,1-2.31-4.71c-1-5.47,1.1-9.08,6.6-10.1,2.42-.45,3.68-1.32,4.22-3.84.9-4.19,4.55-5.48,8.1-6.57a42.63,42.63,0,0,1,10.87-1.43l4.5,23.13c-4.07,1.47-6.38,5.6-6.57,11-.09,2.45,1.13,5.12-.17,7.28-2.79,4.65-2.86,9.35-1.33,14.3a7.48,7.48,0,0,0-5.58,6.4c-2.8.32-5.65-.08-8.41.7-1.95-1.28-3.92-2.53-6.42-2-2.79.57-5.66,1.68-6.6-2.65-.19-.89-1.7-1.1-2.74-1.32S90.26,146.05,89.83,145Z"/><path class="cls-5" d="M228.31,79.67c-1.19.43-1.88.08-2.57-1.08a20.21,20.21,0,0,0-13.25-9.36c-2.73-.63-6-.72-8.19,1.7-1.43,1.56-2.76,1.47-4.42.78-3.58-1.48-7-.84-10.17,1.12a2.63,2.63,0,0,0-1.42,2.32c0,1.27,1.17,1.41,2,1.57,6.93,1.27,12,10.09,11.84,16.74-.08,3.68.62,4.13,4.05,2.93C212.56,94.2,220.39,99.3,221,106c0,.57.32,1.24-.33,1.6-.82.45-1.27-.26-1.78-.72a17.94,17.94,0,0,0-8.4-4.34c-1.77-.38-2.54.19-2.09,2a9.24,9.24,0,0,1-.61,5.56c-.29.78-.64,1.76-1.54,1.78-1.11,0-1-1.12-1.17-1.89-.24-1-.39-2.1-.6-3.14-.6-3-2-5.52-5-6.3s-5.9-.37-8,2.39c-.17.23-.58.28-.93.43.57-5.07,2.73-7.29,7.89-7.62,2.08-.13,2.53-.38,1.47-2.37-2.79-5.28-6.55-9.29-12.79-10-1.63-.18-1.77-1.23-2.36-2.18-1.94-3.1-5.54-4.41-9.6-3.57-4.38.91-6.52,3.06-7.2,7.6A9.93,9.93,0,0,0,157.5,85c-3.32,1.92-4.19,5.69-4.47,9.7-4.25-6.27-1.4-13.81,6-15.92a14.94,14.94,0,0,0,6.81-4c3.61-3.61,8.12-3.09,12.7-2.35,1.62.26,4.05,1.82,4.85.12s-1.47-3.31-2.88-4.47c-12.83-10.56-30.49-11.08-41.34-.28a2.22,2.22,0,0,0-1,2c3.59.05,6.6,1.34,8.46,5.35-.32-.69-5.62-.54-6.43-.53a26.53,26.53,0,0,0-6.86.84c-2.48.67-3.79,1.87-5.66,3.58-.44.4-5.24,4.78-5.23,4.79-2.87-3.63,1.67-6.57-.31-10-.74-1.3-2.08-2.14-3.12-3.22s-1.82-2.73-1.1-4.05a3,3,0,0,1,3-1.33c2.5.27,5.32,2.12,7.57,3.18.48-2.73-.08-5.61,1.48-8,.47-.74,0-1.36-.32-2-2.15-4.15-1.79-8.5-.83-12.8.41-1.82.49-3.11-.82-4.75-2.31-2.91-1.93-6.22,0-9.31.82-1.34,1.89-2.49,3.72-2.21a3.61,3.61,0,0,1,3.21,3.32c.26,2.1.9,3.44,3.24,3.65a2.68,2.68,0,0,1,2,1.3c1.65,6,9.39,8.9,8.4,16.29-.27,2,1.16,1.23,2.08,1a41.24,41.24,0,0,1,14.1-1.12,33.75,33.75,0,0,1,18.9,8.22c1.65,1.4,2.95,2,5.17.86,4.09-2,8.3-1.54,12.2.81a3.71,3.71,0,0,0,3.27.55C217,60.43,226.36,66.51,228.31,79.67ZM136.17,53.54c-2.19,2.69-3.5,5-2.87,7.93.42,1.95,1.12,2.47,2.77,1.07A34,34,0,0,1,144,57.22c2-.91,2.1-2.29,1.34-4-1.76-4.06-3.59-8-9.62-7.57a13.36,13.36,0,0,1,1.44-1.55c2.65-1.83,2.53-2.86-.36-4.6-1.85-1.11-4.09-.72-6-1.62.37-1.51,3.92-1.31,1.91-3.67a2.59,2.59,0,0,0-3.85-.18,3,3,0,0,0,.29,4.91c3.15,1.85,2.66,3.79,1.36,6.41a7.29,7.29,0,0,0-.3,4.19C130.95,54.6,130.91,54.6,136.17,53.54Z"/><path class="cls-6" d="M245.89,100.76a10.15,10.15,0,0,1,1.33.34,23.4,23.4,0,0,1,4.19,2.21,21.71,21.71,0,0,1,7.3,6.57c6.58,10,5.78,24.15-2,34.15-1.25,1.6-2.06,2.79.71,4l-19,3.65c-.43-2.21-1.24-4.55,2.4-4.81,1.42-.1,1.41-1.26,1.28-2.42s-.91-2.44-.06-3.94a28.22,28.22,0,0,0,3.58,3.75c2,1.44,4.18,2.34,5.72-.73-.84-2.23-3.23-3.36-4-5.65.19-1.73-.09-3.5.59-5.18.46-1.13-.19-1.47-1.19-1.49l1.66-3.19c4.14-1,4.12,3.5,7,5.35,1.13-5.45,2.05-10.66.09-15.65-2.33-5.9-5.18-11.64-11.56-14.5-1.08-.49-2.32-1.31-2.24-2.91C243,100.44,244.51,100.5,245.89,100.76Z"/><path class="cls-4" d="M125.1,87.34c-9-4-17-1.24-24.77,3.44-2.56,1.55-2.39.2-2.41-1.63-.1-9.91,9.59-17.92,20.33-16.74,1.4.15,2.78.56,4.17.84Z"/><path class="cls-5" d="M184.07,116.1A17.88,17.88,0,0,0,156.56,108c-2.57,2-3.75,2-6.12.37A13.22,13.22,0,0,0,138,107a13.43,13.43,0,0,0-5.21,3.89c-.62.74-1,1.5-1.94,1.86-1.07.42-2.18.27-3.18,1a9,9,0,0,0-2.25,2.52,14.64,14.64,0,0,0-2,7.22c-.09,2.45,1.13,5.12-.17,7.28-2.79,4.65-2.86,9.35-1.33,14.3l.58.09c2.77-.31,3.57-1.56,2.94-4.47A10.22,10.22,0,0,1,127.2,132c2.48-3.05,5.92-3.47,9.57-4.09a1.47,1.47,0,0,0,.9-.38,1,1,0,0,0,0-1.13,2.44,2.44,0,0,0-.93-.76,12.24,12.24,0,0,0-4-1.28c-.83-.14-2.63-.43-2.92-1.42s.5-2.85,1.13-3.57c1.23-1.41,2.86-1.06,4.41-1.73a5.13,5.13,0,0,0,2.89-3.7c.77-3,6.33-3.77,9.39-2,2.65,1.55,2.65,3,.14,7.09-1,1.59-2.53,3.7-.88,5.09,1.2,1,2.29-1.4,3.35-2.34,4.33-3.84,10.22-4.4,14.5-1.29.35.25.86.58,1.19.48.65-.19.68-.86.65-1.48-.19-3.52-2.31-5.27-5.51-6-.78-.19-1.82,0-1.95-1.13-.11-.94.76-1.49,1.39-1.91a7.74,7.74,0,0,1,2.6-1c9-2.06,17.14,2.6,21.7,12.43C186.11,119.71,184.69,117.83,184.07,116.1Z"/><path class="cls-6" d="M183.45,163.18a10.68,10.68,0,0,1-.62,3.84c-1.06,3-3.7,3.21-6.54,3-1.35-.1-1.84.64-2.61,1.38-2.61,2.55-7.79,2.64-10.35.29-.73-.67-1.49-1.47-.86-2.42s1.21.16,1.82.34c3.86,1.17,5.7-1.13,7.15-4.12l.73-.16a15.28,15.28,0,0,1,1.61,1.23,5.81,5.81,0,0,0,1.74.71,3.82,3.82,0,0,0,3.06-.61c2.66-1.91,2.75-5.36,3.65-8.18A10.35,10.35,0,0,1,183.45,163.18Z"/><path class="cls-4" d="M139.7,157.76a7.24,7.24,0,0,0,1-.3c1.25-.58,2.45-1.68,3.92-.61a2.06,2.06,0,0,1,.7,2.25c-.42,1.77-1.79,2.37-3.43,2.57-.47.06-.93.16-1.4.25Z"/><path class="cls-4" d="M180.55,163.72c-1.42,4.18-4.93,4.86-8.37,1.62Z"/><path class="cls-4" d="M138.44,151.46c2-.06,5.13-2,5.54,1.16.35,2.69-3.21,1.51-4.91,2.33Z"/><path class="cls-5" d="M131.41,124.91a3.94,3.94,0,0,1,.67-.17c1.59-.12,3.15.56,3,2.1-.19,2-2.06.5-3.14.81Z"/><path class="cls-4" d="M132.26,124.39c-2.94-.73-3.16-1.81-.89-4.26Z"/><path class="cls-6" d="M243.54,151.66c-2.31,2.81-3.52,3-4.95.88Z"/><path class="cls-4" d="M115,207.77c.39-1.55.54-3.3.84-4.79s.78-3.1,2.16-3.58a3.18,3.18,0,0,1,3.14,1c.82.82,1.37,1.87,2.11,2.76a11.82,11.82,0,0,0,2.89,2.64c.94.51,3.69.41,3,2.25-.55,1.57-1.35,3.1-3.06,3.71a18.88,18.88,0,0,1-7.37.64c3.78,2.89,7.1,4,11.1,3.12,3-.69,6.36-2.18,7.77,2.61.38,1.29,1.87.65,2.58-.26a18.21,18.21,0,0,0,1.33-2.49c1.07-1.92,2.07-3.07,4.7-1.64,3.81,2.07,8,3,12.26.86,1-.52,2-.43,2.15.84a14.26,14.26,0,0,0,5.44,10c-2.81.08-5.31.09-7.51-1.52-1.44-1-2.94-2-4.45-2.94-.6-.37-1.35-.72-1.9,0s.27,1,.55,1.49c2.76,4.84,7.27,7.27,12.33,8.9,3.07,1,3.58,2.16,1.58,4.71-3.71,4.73-9,5.63-14.6,5.87a20.89,20.89,0,0,1-3-.31c.24,1.25.52,2.36.66,3.48.31,2.68-.92,4.32-3.54,4.83-7.64,1.49-16.69-2.84-20.5-9.76-1.67-3-1.22-4,2.32-4a39.33,39.33,0,0,0,8.43-1.06c.57-.11,1.17-.25,1.35-1.1-1-1.34-2.59-1.82-4-2.61-2.66-1.5-3.5-3.58-1.7-6.16,1.57-2.24.56-2.08-1.38-2.12-2.64-.05-5.42,1-7.92-.81-.61-.44-1.31-.13-2,.28-5.69,3.59-6.75,3.49-11.89-1,.88-.15,2.72-3.35,3-4.16.5-1.76-.34-3.5.52-5.36.58-1.23,1.66-1.93,2.14-3.13A10,10,0,0,0,115,207.77Z"/><path class="cls-6" d="M110.18,222a1.73,1.73,0,0,0,.33.81c.18.23.42.41.6.63a.92.92,0,0,1,.25.8.85.85,0,0,1-1,.5,3.87,3.87,0,0,1-1.09-.45c-.86-.42-2.37-.79-3.21-.19s-1,1.69-2.14,2c.07-2.78-.81-5.63.75-8.31.66-1.13,1.68-2,2.18-.45,1.38,4.31,2.46,1.8,3.79.09a3.68,3.68,0,0,1,1.42-.91c0,1.82-1,2.54-1.69,4A2.53,2.53,0,0,0,110.18,222Z"/><path class="cls-4" d="M99.59,235.36a2.83,2.83,0,0,1-1.15-.53,2.58,2.58,0,0,1-.86-2.41,5.11,5.11,0,0,1,1.48-2.36l2.34-2.54c.54-.59,1.25-1.23,2-1,1.26.32,1.57,2.69,2.06,3.7s2.92,3.08,2.22,4.13c-1.07,1.61-3.35,1.42-5.22,1.31A15.93,15.93,0,0,1,99.59,235.36Z"/><path class="cls-6" d="M104.29,227.64q-.07-1-.15-2.07c1.61-.49,1.91-2.57,3.59-3l.08,0A5.8,5.8,0,0,1,104.29,227.64Z"/><path class="cls-4" d="M66.59,164.69c-6.18-.53-9.5-5.17-8-11.1a34,34,0,0,1,3-7.36c-.77-.82-1.22-.23-1.74-.1-1.38.35-2.17,2.7-3.49,1.88-1.59-1-1.84-3.21-2-5.05-.45-5.58,3.32-10.48,9-11.88,2.07-.51,4.2-.75,6.27-1.26s4.17-.37,7.08-.35c-6.72-6.39-6.42-13.87-4.58-21.06,1.25-4.88,5.28-8.27,10.33-9.92,2.32.8,4,3,6.77,3.49-.58-2.19-3.12-2.21-3.44-4.15a14.1,14.1,0,0,1,7.3-.48c.26,1.12-.79,1.36-1.25,2-3.16,4.14-4.64,8.5-1.69,13.37,1.23,2,.67,3-1.41,3.95-11.26,4.86-10.31,18.92-4.85,25.6.82,1,1.66,2,2.5,3-2.28.54-4.55,1.11-6.84,1.59s-4.07,2-3.61,4c1,4.73-2.06,4.94-5.1,5.57-3.8.79-4.84,2.28-4.44,6.18C66.53,163.29,66.55,164,66.59,164.69Z"/><path class="cls-4" d="M85.85,97.85c.32,1.94,2.86,2,3.44,4.15-2.79-.49-4.45-2.69-6.77-3.49C83.46,97.4,84.75,98.1,85.85,97.85Z"/><path class="cls-6" d="M180.58,200.42c5.87-2,11.36-4.35,13.82-10.93-2-.58-3,1.61-4.72.92-.37-2.08,1.7-2.63,2.51-3.94s1.52-2.75,1-4c-.72-1.6-2.37-.49-3.47-.21-3.31.84-6.33,0-9.32-1.22a2,2,0,0,1-1.5-1.8c0-1.12,1.17-1,1.92-1.14,6.69-1.46,11.27-5.18,13-12,.2-.77.26-1.79,1.24-2s1.33.83,1.75,1.49c5.17,8.1,18.53,5.9,20.25-1.84.13-.57.37-1.25,1.12-1.06a1.47,1.47,0,0,1,.81,1c.5,2.51,1.11,4.86.26,7.62-1.16,3.73-1.15,7.61-5.87,9.35-2.1.77-2.16,3.68-1.55,6.05.22.86,1,2.29-1,2.31-4.23.06-6.74,3.05-9.6,5.5C195.27,199.64,188.43,201.79,180.58,200.42Z"/><path class="cls-5" d="M98.52,159.85c3.1-2.15,3.3-2.06,4.11,1.66.3,1.37.69,2.72,1,4.08-.31,2.2-1.56,4.42.08,6.6,1.35,5.84,1.35,5.84,9.3,11.13a4.53,4.53,0,0,1-4.61.58c-4.28-1.68-7.19-4.83-9.56-8.61-.62-1-1.21-2-1.81-3l.25-1.19c2.31-2.28,2.1-4.93,1.12-7.69A6.11,6.11,0,0,0,98.52,159.85Z"/><path class="cls-5" d="M73.56,165.42c-.22-3.58,1.68-6.4,3.31-9.32,2.48-1.2,4.94-2.44,7.46-3.57,1.39-.62,2.54-.61,2.14,1.49a7.63,7.63,0,0,0-3.26,2.13c-4,1.33-5.17,4.55-5.59,8.25s.76,6.49,4,8.33L83.53,175l1,3.16-5.12-1.53c-2.11-.94-1.94-4.13-4.55-4.57Z"/><path class="cls-5" d="M116.35,151.49a2.54,2.54,0,0,1-.25,2,8.54,8.54,0,0,0-3.88,2.31c-2.09,1.86-3.54,2.24-3.82-1.26a9.19,9.19,0,0,0-.46-1.69,3.38,3.38,0,0,0,0-.66C110.7,151.41,113.55,151.81,116.35,151.49Z"/><path class="cls-5" d="M127.51,147.63l2.19.6c0,.63.44,1.54-.49,1.76a2.4,2.4,0,0,1-2.47-.85C126.07,148.28,127,148,127.51,147.63Z"/><path class="cls-6" d="M126.23,195.24c-.07,0-.18.11-.2.09a.67.67,0,0,1-.13-.23c.07,0,.18-.11.21-.09S126.19,195.16,126.23,195.24Z"/><path class="cls-6" d="M114,213.44l-.58.86Z"/><path class="cls-5" d="M169.22,136.86l-.69,1.7c-5.66-.92-10.26,1.29-14.38,4.89-.6.52-.49,1.27-.36,2-2,.24-2.93,1.31-2.43,3.37-1.74,2.27-1.26,4.59-.17,6.94.58,1.25,1.17,2.59-1.12,2.68l-.92-2.43c-.44-3-.11-6.21-3.12-8.26-.91-.62-.62-1.7-.32-2.62,1.61-5,4.43-8.83,9.87-10.08,1.5-.34,3-.48,4.51-.92C163.77,133,166.83,133.77,169.22,136.86Z"/><path class="cls-6" d="M210.64,135.34a5,5,0,0,1-3-.14c.63-3.54,1-7-1.33-10.19-.36-.48-.72-1.06-.18-1.56s1.09-.18,1.65.05c2.81,1.18,4.56,5.23,3.55,8.42C211,133,210.45,134.1,210.64,135.34Z"/><path class="cls-4" d="M136.17,53.54c-5.26,1.07-5.22,1.06-6-4a7.29,7.29,0,0,1,.3-4.19c1.3-2.62,1.78-4.56-1.36-6.41a3,3,0,0,1-.29-4.91,2.59,2.59,0,0,1,3.85.18c2,2.36-1.54,2.16-1.91,3.67,1.92.89,4.16.5,6,1.62,2.89,1.74,3,2.77.36,4.6a13.36,13.36,0,0,0-1.44,1.55c6-.47,7.87,3.51,9.62,7.57.75,1.74.68,3.12-1.34,4a34,34,0,0,0-7.93,5.31c-1.65,1.4-2.35.88-2.77-1.07C132.67,58.51,134,56.23,136.17,53.54Z"/><path class="cls-4" d="M247.37,137.87c-4.17-1.87-1.61-4.33-.6-6.66,1,0,1.65.36,1.19,1.49C247.29,134.37,247.56,136.14,247.37,137.87Z"/><path class="cls-4" d="M82.75,160.45c-3,2-3.36,5.1-1.08,7.92C82.37,165.76,81.19,162.92,82.75,160.45Z"/><polygon class="cls-8" points="97.59 54.94 102.33 59.43 108.72 58.07 105.91 63.97 109.17 69.62 102.7 68.77 98.33 73.62 97.14 67.2 91.17 64.54 96.91 61.43 97.59 54.94"/><polygon class="cls-8" points="230.04 131.2 231.34 137.59 237.35 140.14 231.68 143.36 231.11 149.86 226.29 145.46 219.93 146.93 222.63 140.99 219.27 135.39 225.75 136.13 230.04 131.2"/><polygon class="cls-9" points="54.82 198.69 59.56 203.18 65.95 201.82 63.14 207.72 66.4 213.37 59.92 212.52 55.55 217.37 54.36 210.95 48.4 208.29 54.14 205.18 54.82 198.69"/><polygon class="cls-8" points="75.83 124.11 83.41 128.98 91.71 125.49 89.43 134.2 95.31 141.02 86.31 141.54 81.64 149.24 78.37 140.85 69.61 138.79 76.58 133.09 75.83 124.11"/><polygon class="cls-8" points="172.65 75.86 175.92 83.5 184.07 85.14 177.81 90.61 178.77 98.87 171.63 94.61 164.07 98.07 165.92 89.97 160.29 83.85 168.57 83.1 172.65 75.86"/><path class="cls-4" d="M125,72.75a2.86,2.86,0,0,1,1.87,2.11l-3,1.29-4.13,1.75c-3.06,1.3-11.54-2.19-9.22-4.76C112.23,71.25,122.44,71.72,125,72.75Z"/><path class="cls-6" d="M242.16,149.2c2.52-.43,5.21.57,7.6-.11,1.93-.55,5.63-1.91,7.63-1.07,8.65,3.64,15.09,13,13,21.68a10.39,10.39,0,0,1-5.24,7.23c-1,.53-1.69.78-1.4,2.3,2.68,13.88-2.95,21.58-16.82,23.19-2.34-.32-4.69-.55-7-1-5.45-1-5.43-1.09-4.89,4.32.06.58,0,1.18,0,1.77.57,7.49-2.39,19.32-10.71,27.2-11.83,11.21-30.23,13.18-43.91,4.29-2.35-1.53-2.88-.93-3.88,1.27a32,32,0,0,1-18.74,16.94c-8.36,2.88-19.41,2.72-26.65-2.91-.92-.72-1.44-1.67-2.36-2.41-4.87-3.88-9.9-7.67-11.63-14.16-.44-1.66-1.54-1.45-2.77-.91a52.64,52.64,0,0,1-10.76,3.36,14.15,14.15,0,0,1-3.56-.2,13.92,13.92,0,0,1-3.1-.32c-.7-.2-1.17-.69-1.89-.92a22.12,22.12,0,0,1-12-9.28l.32-1.43c2.88,2.79,6.51,4.11,10.19,5.42a69,69,0,0,0,7.59,1.95c1.9.44,5.21.81,6.48-1.1.7-1.06-.93-1.95-1.43-2.67a9.45,9.45,0,0,1-1.33-2.57c-.43-1.44-.29-1,.41-2,1.14-1.57,2.18-2.28,2.46-4.41l1.23-1c5.13,4.5,6.2,4.6,11.89,1,.66-.42,1.36-.73,2-.28,2.5,1.81,5.28.75,7.92.81,1.93,0,2.94-.12,1.38,2.12-1.8,2.58-1,4.67,1.7,6.16,1.4.79,3,1.27,4,2.61-.18.84-.78,1-1.35,1.1a39.33,39.33,0,0,1-8.43,1.06c-3.54-.07-4,.92-2.32,4,3.81,6.92,12.86,11.25,20.5,9.76,2.62-.51,3.86-2.15,3.54-4.83-.13-1.12-.41-2.22-.66-3.48a20.89,20.89,0,0,0,3,.31c5.55-.24,10.88-1.15,14.6-5.87,2-2.54,1.49-3.72-1.58-4.71-5.06-1.63-9.57-4.06-12.33-8.9-.27-.48-1-.84-.55-1.49s1.3-.39,1.9,0c1.51.94,3,1.9,4.45,2.94,2.2,1.6,4.7,1.59,7.51,1.52a14.26,14.26,0,0,1-5.44-10c-.15-1.27-1.12-1.36-2.15-.84-4.25,2.15-8.45,1.21-12.26-.86-2.63-1.43-3.63-.28-4.7,1.64a18.21,18.21,0,0,1-1.33,2.49c-.71.9-2.2,1.55-2.58.26-1.42-4.79-4.77-3.31-7.77-2.61-4,.92-7.32-.24-11.1-3.12a18.88,18.88,0,0,0,7.37-.64c1.71-.6,2.51-2.14,3.06-3.71.34-1-.57-1.68-1.34-1.77-2.24-.27-3.64-1.58-5.37-2.81s-3.65-2.27-5.37-3.72c-1.22-1-2.81-1.9-2.92-3.84,0-.58-.31-1.21.21-1.66s1.13-.05,1.61.26a29,29,0,0,0,9.46,3.7c5.28,1.17,10.29-.51,13.38-4.87a17.54,17.54,0,0,0,2.28-17.18,26,26,0,0,0,18.54,2c.46,1.35-.36,2-1,2.6-2.85,2.65-5.66,5.35-8.64,7.85-4.43,3.71-5.18,8.28-3.41,13.47,1.58,4.64,5.24,6.36,9.81,6.91a19.55,19.55,0,0,0,6-.52c1.68-.31,2.37.13,1.38,1.83-.59,1-1.4,1.89-1.18,3.24.63,3.75,5.69,8.59,9.6,9a12,12,0,0,0,7.86-1.44c2.47-1.52,3.4-4,4.46-6.43,1.25.84.94,1.82.79,2.71-.45,2.62-.3,4.33,2.76,1.94a1.39,1.39,0,0,1,1.93-.12,1.81,1.81,0,0,1,.49,2,8.61,8.61,0,0,1-3.43,5.24c-2.31,1.59-2.08,3.46-1,5.58,2.95,6,8.59,7.26,14.19,5.93,7.7-1.84,14.82-5.21,20.65-11.1,6.34-6.4,8.11-14,7.9-23.23-5.6,4.51-11.79,4.14-17.89,4.12a8.47,8.47,0,0,1-4.69-1.49c-.65-.44-1.7-.81-1.27-1.83.29-.7,1.21-.62,1.92-.55,4.81.42,8.82-1.81,12.49-4.36,2-1.36,4.61-3.67,2.7-6.45-1.51-2.2-.58-4.12.47-4.86,1.37-1,2.87.66,3.86,2.07.58.82.65,2.45,1.88,2.28,1.49-.2,1.68-1.84,1.93-3.09s.14-2.61.39-3.88c.55-2.73-.76-5.36-.7-8.43,5.51,5,7.66,10.45,5.27,17.25-.26.75-.7,1.65,0,2.36s1.76.24,2.65,0a61.59,61.59,0,0,0,13.78-6.31,5.38,5.38,0,0,0,2.74-5.69A23.45,23.45,0,0,0,246.15,169c-.6-.52-2-1-1.3-2.15.56-.93,1.71-.58,2.63-.34a16.83,16.83,0,0,1,8.9,5.5c2.68,3.22,4.17,3,5.78-1,2.61-6.37-1-14.91-7.28-18.12-1.42-.73-3.27-.62-4.82-.76a12.17,12.17,0,0,0-4.66.14,20.4,20.4,0,0,0-9.35,5.38,5.89,5.89,0,0,1,.21-4.56A7.9,7.9,0,0,1,242.16,149.2Z"/><polygon class="cls-9" points="211.14 196.68 214.1 204.45 222.18 206.42 215.7 211.63 216.33 219.92 209.37 215.38 201.68 218.53 203.85 210.51 198.47 204.17 206.77 203.76 211.14 196.68"/><path class="cls-10" d="M122.69,217.67c-3.23-9.94-8.4-15-17.33-18,8.54-3.41,14.48-7.59,17-17.78,3.12,9.67,8.23,14.69,18,17.53C131.07,202.63,125.69,207.46,122.69,217.67Z"/><path class="cls-10" d="M219.15,189.51c-2.05-6.33-5.35-9.53-11-11.46,5.43-2.17,9.22-4.83,10.83-11.31,2,6.15,5.23,9.35,11.46,11.16C224.48,179.94,221.06,183,219.15,189.51Z"/><path class="cls-10" d="M182.43,193.3c-.25,3.28-2.06,5.33-5.27,5.45-3.65.14-5.8-2.19-5.68-5.66a5.13,5.13,0,0,1,5.56-5.17C180.15,188,182.14,190,182.43,193.3Z"/><path class="cls-11" d="M190.72,52.41a2.94,2.94,0,0,1-3,3.06,3,3,0,1,1-.07-6.07A3,3,0,0,1,190.72,52.41Z"/><path class="cls-11" d="M58.12,113.38c-.28,3.58-2.25,5.81-5.75,5.95-4,.15-6.33-2.39-6.2-6.18a5.6,5.6,0,0,1,6.06-5.64C55.63,107.62,57.8,109.75,58.12,113.38Z"/><path class="cls-11" d="M247.91,215.51c-.2,2.62-1.64,4.25-4.2,4.35a4.33,4.33,0,1,1-.1-8.65C246.09,211.29,247.68,212.86,247.91,215.51Z"/><path class="cls-11" d="M156.07,118.52c-2.47-7.6-6.42-11.45-13.25-13.77,6.52-2.6,11.07-5.8,13-13.59,2.39,7.39,6.29,11.23,13.77,13.4C162.47,107,158.36,110.71,156.07,118.52Z"/></g></g></svg>