<svg xmlns="http://www.w3.org/2000/svg" viewBox="0 0 300 300"><defs><style>.cls-1{isolation:isolate;}.cls-2{fill:#1b1464;}.cls-3{fill:#009ee2;}.cls-4{fill:#2e3192;}.cls-5{fill:#9c9b9b;mix-blend-mode:multiply;}.cls-6{fill:#0071bc;}.cls-7{fill:#dddb00;}.cls-8{fill:#fff;}.cls-9{fill-rule:evenodd;}.cls-10{fill:#29abe2;}.cls-11{fill:#d84892;}.cls-12{fill:#ec6e25;}.cls-13{fill:#f39622;}.cls-14{fill:#ffdd0c;}</style></defs><title>Artboard 3</title><g class="cls-1"><g id="Layer_1" data-name="Layer 1"><circle class="cls-2" cx="148.96" cy="149.44" r="147.1"/><rect class="cls-3" x="247.43" y="226.91" width="0.33" height="1.3"/><path class="cls-4" d="M129.36,73.73c-1.84-6.25-4.66-14-9.15-18.69a25.85,25.85,0,0,0-9.47-6.38c-29.35,2.15-38,38.1-57.2,55.78l-.73,1.19c3.71,3,2.53,5.14,6.24,8.12C68.89,100,80.87,83.87,88.59,76.2c2.53-2.51,5.75-5.32,9.26-4.71,3.21.56,5,4.35,4.54,7.57s-2.5,6-4.48,8.55c-13,17-24.43,30.3-37.44,47.29-3.92,5.11-7.94,10.44-9.39,16.71-1.69,7.29,1.47,16.07,8.61,19.11C73.43,156.61,84.93,139,96.39,123q8.62-12,16.87-24.36,4.28-6.39,8.45-12.85C122.78,84.1,129.86,75.45,129.36,73.73Z"/><ellipse class="cls-5" cx="147.31" cy="223.3" rx="102.77" ry="22.21"/><path class="cls-4" d="M206.29,127.81h0l-.1-.16q-1.51-2.71-3.26-5.26L177.92,82a32.6,32.6,0,0,0-59.24-.75h0l-30.4,47.09h1.4a66.45,66.45,0,1,0,116.61-.51Z"/><path class="cls-4" d="M74.92,211l.22-.14c-7.39-1.22-9.44-11.8-11.36-17.08s11.88-18.24,11.88-18.24L75,146.81s-26.35,30.95-28.63,39.11,3.09,32.64,3.09,32.64c0,1.5,1.22,2.9,3.31,4.08H89c2.09-1.18,3.31-2.58,3.31-4.08C92.36,214.81,84.85,211.7,74.92,211Z"/><path class="cls-4" d="M220.53,211l-.22-.14c7.39-1.22,9.44-11.8,11.36-17.08s-11.88-18.24-11.88-18.24l.66-28.77s26.35,30.95,28.63,39.11S246,218.55,246,218.55c0,1.5-1.22,2.9-3.31,4.08H206.4c-2.09-1.18-3.31-2.58-3.31-4.08C203.1,214.81,210.6,211.7,220.53,211Z"/><path class="cls-6" d="M190.48,213.55l-.36-.22c11.82-2,15.09-18.87,18.17-27.31s-19-29.17-19-29.17l17.59-28.53s25.59,32,29.23,45.07-4.94,52.18-4.94,52.18c0,2.4-1.94,4.63-5.29,6.52h-58c-3.35-1.89-5.29-4.12-5.29-6.52C162.6,219.59,174.61,214.63,190.48,213.55Z"/><path class="cls-4" d="M203.33,174.11s-12.86-17,3.56-45.79l-23.13,28.53Z"/><path class="cls-6" d="M190.48,188.46c0,15.66-18.81,28.35-42,28.35s-42-12.69-42-28.35,32.13-37.16,55.33-37.16S190.48,172.81,190.48,188.46Z"/><path class="cls-6" d="M105.27,213.55l.36-.22c-11.82-2-15.09-18.87-18.17-27.31s19-29.17,19-29.17L88.86,128.32s-25.59,32-29.23,45.07,4.94,52.18,4.94,52.18c0,2.4,1.94,4.63,5.29,6.52h58c3.35-1.89,5.29-4.12,5.29-6.52C133.14,219.59,121.13,214.63,105.27,213.55Z"/><path class="cls-4" d="M128.07,176.65s39.15,8.56,59.12-8.56C187.2,168.09,170.46,194.18,128.07,176.65Z"/><path class="cls-4" d="M103.5,171.79s33.5,22,58.28,13.13C161.78,184.93,136.83,203.31,103.5,171.79Z"/><path class="cls-4" d="M138.55,200.39s39.56,6.38,58.55-11.83C197.1,188.56,181.84,215.54,138.55,200.39Z"/><path class="cls-4" d="M113.77,146.39s32,24.18,57.27,17C171,163.39,144.91,180.06,113.77,146.39Z"/><path class="cls-7" d="M127.73,228.21c0,2.81-2.28,8.9-5.08,8.9s-5.08-6.09-5.08-8.9a5.08,5.08,0,1,1,10.17,0Z"/><path class="cls-7" d="M113.24,228.21c0,2.81-2.28,8.9-5.08,8.9s-5.08-6.09-5.08-8.9a5.08,5.08,0,1,1,10.17,0Z"/><path class="cls-7" d="M98.76,228.21c0,2.81-2.28,8.9-5.08,8.9s-5.08-6.09-5.08-8.9a5.08,5.08,0,1,1,10.17,0Z"/><path class="cls-7" d="M84.27,228.21c0,2.81-2.28,8.9-5.08,8.9s-5.08-6.09-5.08-8.9a5.08,5.08,0,1,1,10.17,0Z"/><path class="cls-7" d="M222.9,228.21c0,2.81-2.28,8.9-5.08,8.9s-5.08-6.09-5.08-8.9a5.08,5.08,0,0,1,10.17,0Z"/><path class="cls-7" d="M208.41,228.21c0,2.81-2.28,8.9-5.08,8.9s-5.08-6.09-5.08-8.9a5.08,5.08,0,1,1,10.17,0Z"/><path class="cls-7" d="M193.93,228.21c0,2.81-2.28,8.9-5.08,8.9s-5.08-6.09-5.08-8.9a5.08,5.08,0,1,1,10.17,0Z"/><path class="cls-7" d="M179.44,228.21c0,2.81-2.28,8.9-5.08,8.9s-5.08-6.09-5.08-8.9a5.08,5.08,0,1,1,10.17,0Z"/><path class="cls-6" d="M222.71,92.61s3.67-6.45,17.33-5.86c0,0-.8,20.24-16.8,18.26Z"/><path class="cls-4" d="M235.15,91.95s-7.33,1.13-9.65,6.42C225.5,98.37,230.26,97.15,235.15,91.95Z"/><path class="cls-4" d="M158.08,52.56l14.13-13.87a1.85,1.85,0,0,1,3.06.76l4.17,13.11Z"/><path class="cls-4" d="M143.17,56.77l6.56-10.33a1.85,1.85,0,0,1,2.81-.37l11.69,10.71Z"/><path class="cls-6" d="M119.61,87.7c2.18-12.26,8.53-25,21.11-30.94,8.49-4,18.57-4.47,28.26-4.81,11.25-.4,23-.72,33.24,3.31,26.71,10.47,27.26,42,26.44,64-.47,12.5-19.56,12.4-30.38,13.74a164.56,164.56,0,0,1-29.93.95,162,162,0,0,1-29.49-4.48c-6.6-1.64-20.16-3.59-21.75-10-1.09-4.39.74-11,1-15.55A128.56,128.56,0,0,1,119.61,87.7Z"/><polygon class="cls-8" points="137.93 119.47 131.59 125.01 125.19 119.55 131.52 107.96 137.93 119.47"/><polygon class="cls-8" points="237.64 119.47 231.3 125.01 224.9 119.55 231.23 107.96 237.64 119.47"/><polygon class="cls-8" points="163.41 119.3 157.08 124.84 150.67 119.38 157.01 113.84 163.41 119.3"/><polygon class="cls-8" points="176.16 119.22 169.82 124.76 163.41 119.3 169.75 113.76 176.16 119.22"/><polygon class="cls-8" points="188.9 119.14 182.56 124.68 176.16 119.22 182.49 113.68 188.9 119.14"/><polygon class="cls-8" points="201.64 119.05 195.31 124.59 188.9 119.14 195.24 113.59 201.64 119.05"/><polygon class="cls-8" points="214.38 118.97 208.05 124.51 201.64 119.05 207.98 113.51 214.38 118.97"/><polygon class="cls-8" points="225.82 118.89 219.49 124.43 213.08 118.97 219.42 113.43 225.82 118.89"/><path class="cls-6" d="M139.61,133.82a189.14,189.14,0,0,0,78,1.21c5.34-1,10.71-2.36,15.28-5s8.29-6.66,8.93-11.36l-67-.32c-5.69,0-57.25,2.13-57.3,1.85C118.9,127.68,132.36,132.26,139.61,133.82Z"/><path class="cls-6" d="M126,92.61s-3.67-6.45-17.33-5.86c0,0,.8,20.24,16.8,18.26Z"/><path class="cls-4" d="M113.51,91.95s7.33,1.13,9.65,6.42C123.16,98.37,118.41,97.15,113.51,91.95Z"/><path class="cls-9" d="M198.69,102.67c-.1-.64-.67-1.07-2-1.08s-1.87.5-2,1.08v4.07h0c.1.76.64,1.22,2,1.22s1.92-.47,2-1.22v-4.07Z"/><path class="cls-9" d="M176.14,102.67c-.1-.64-.67-1.07-2-1.08s-1.87.5-2,1.08v4.07h0c.1.76.64,1.22,2,1.22s1.92-.47,2-1.22v-4.07Z"/><path class="cls-6" d="M106.45,156.85s8.46-13.89,0-28.74-17.59.2-17.59.2Z"/><ellipse class="cls-10" cx="152.61" cy="105.88" rx="11.62" ry="5.92"/><ellipse class="cls-10" cx="94.54" cy="132.51" rx="8.47" ry="3.11" transform="translate(-66.01 105.66) rotate(-45)"/><ellipse class="cls-10" cx="215.34" cy="105.88" rx="10.17" ry="5.92"/><path class="cls-6" d="M52,89.51,41.07,131l1.2-.87c5.75-11.53,7.79-23.8,12.67-35.5Z"/><path class="cls-4" d="M60.36,103.9l-5.41-9.32c-4.89,11.7-6.93,24-12.67,35.5l33.46-24.21Z"/><path class="cls-4" d="M114.33,213.7S90,210.19,74.92,216Z"/><path class="cls-4" d="M182.47,213.7s24.32-3.51,39.41,2.3Z"/><path class="cls-4" d="M150.67,119.38a41.76,41.76,0,0,0-12.74,19.83l-6.37-7.14Z"/><path class="cls-11" d="M117.75,150.4s9.5-29.21,19.37-31.75l15.18-.54S135.31,129.08,117.75,150.4Z"/><path class="cls-4" d="M187.2,82.72s8.12-26,8.7-40.09a2.11,2.11,0,0,0-.68-1.86,1.85,1.85,0,0,0-2-.18L171,51.88S184.64,52.56,187.2,82.72Z"/><path class="cls-7" d="M134,70.25s-9.14-14.94-7.18-32.76c0,0,15.9,19.57,22.17,24.31C148.94,61.8,148.4,69.12,134,70.25Z"/><path class="cls-7" d="M220.7,71.07S229,57.45,227.25,41.2c0,0-14.49,17.84-20.21,22.16C207,63.37,207.54,70,220.7,71.07Z"/><path class="cls-12" d="M194.79,149.29c5,4.48,14.79,4.57,18.18,3.54,0,0-3.2-1.36-3.73-4.09,0,0,14.23,9.85,29.12-6.11C227,143,228.18,134.5,222,129.81c-1.87-1.42-4-2.48-3.6-5.2.3-2.11,3.64-2.63,5.32-1.47-1.37-4.65-9.27-5.47-9.28-5.47,1.31.14,1.95-5.42,1.88-6,.26,2.25-9.53,1-10.8.73-6.38-1.2-12.18-.71-17.2,4.15-8.37,8.12-6.13,21.64-.51,30.65.61,1,3.31,3.25,3.43,4.19C191.26,151.38,190.55,145.5,194.79,149.29Z"/><path class="cls-13" d="M203.46,144.45s-3.25-1.87-3-4.9c0,0,11.61,9,22.22-.45-7.45-.37-5.8-14-17-17.68,0,0,1.1-1,7.14-.57C182.93,100,174.46,148.16,203.46,144.45Z"/><path class="cls-14" d="M192.79,134.38c4.15,3.65,10.49,2.95,10.49,2.95s-3-1.24-4-2.43-.11-3.61,3.16-.52,8.72,5.43,12.81,2.87a6.84,6.84,0,0,1-5.79-3.93c-2.19-4-3.82-8.39-7.1-10.47C191.44,115.89,184.23,126.84,192.79,134.38Z"/><path class="cls-4" d="M160.48,97.48s24.58,13.74,49.16,0Z"/><path class="cls-4" d="M168.47,88.48s16.58,9.27,33.17,0Z"/><path class="cls-6" d="M141,165.3s-14.31-5.87-19.69-11.62a28.38,28.38,0,0,0,11.83,11.62Z"/><path class="cls-6" d="M110.74,48.67a20.29,20.29,0,0,0-7.84-1.37c-9,.29-17.19,7.7-22.56,14.87-9.12,12.19-13.27,20.27-26.79,42.28C72.74,86.77,81.39,50.82,110.74,48.67Z"/><path class="cls-6" d="M55.72,156.58c1.11-.18,1.61-1.45,1.93-2.53,2.34-7.8,6.72-14.14,10.05-21.37a46.65,46.65,0,0,0-12.54,16.74C54.53,150.93,51.91,157.2,55.72,156.58Z"/></g></g></svg>